%TF.GenerationSoftware,KiCad,Pcbnew,7.0.11*%
%TF.CreationDate,2024-12-11T11:32:52-03:00*%
%TF.ProjectId,Placa_SiPM,506c6163-615f-4536-9950-4d2e6b696361,rev?*%
%TF.SameCoordinates,Original*%
%TF.FileFunction,Drillmap*%
%TF.FilePolarity,Positive*%
%FSLAX45Y45*%
G04 Gerber Fmt 4.5, Leading zero omitted, Abs format (unit mm)*
G04 Created by KiCad (PCBNEW 7.0.11) date 2024-12-11 11:32:52*
%MOMM*%
%LPD*%
G01*
G04 APERTURE LIST*
%ADD10C,0.050000*%
%ADD11C,0.200000*%
G04 APERTURE END LIST*
D10*
X14500000Y-11700000D02*
X15600000Y-11700000D01*
X15600000Y-12900000D01*
X14500000Y-12900000D01*
X14500000Y-11700000D01*
D11*
X14758277Y-13213984D02*
X14758277Y-13013984D01*
X14758277Y-13013984D02*
X14805896Y-13013984D01*
X14805896Y-13013984D02*
X14834467Y-13023508D01*
X14834467Y-13023508D02*
X14853515Y-13042555D01*
X14853515Y-13042555D02*
X14863039Y-13061603D01*
X14863039Y-13061603D02*
X14872562Y-13099698D01*
X14872562Y-13099698D02*
X14872562Y-13128269D01*
X14872562Y-13128269D02*
X14863039Y-13166365D01*
X14863039Y-13166365D02*
X14853515Y-13185412D01*
X14853515Y-13185412D02*
X14834467Y-13204460D01*
X14834467Y-13204460D02*
X14805896Y-13213984D01*
X14805896Y-13213984D02*
X14758277Y-13213984D01*
X14958277Y-13213984D02*
X14958277Y-13080650D01*
X14958277Y-13118746D02*
X14967801Y-13099698D01*
X14967801Y-13099698D02*
X14977324Y-13090174D01*
X14977324Y-13090174D02*
X14996372Y-13080650D01*
X14996372Y-13080650D02*
X15015420Y-13080650D01*
X15082086Y-13213984D02*
X15082086Y-13080650D01*
X15082086Y-13013984D02*
X15072562Y-13023508D01*
X15072562Y-13023508D02*
X15082086Y-13033031D01*
X15082086Y-13033031D02*
X15091610Y-13023508D01*
X15091610Y-13023508D02*
X15082086Y-13013984D01*
X15082086Y-13013984D02*
X15082086Y-13033031D01*
X15205896Y-13213984D02*
X15186848Y-13204460D01*
X15186848Y-13204460D02*
X15177324Y-13185412D01*
X15177324Y-13185412D02*
X15177324Y-13013984D01*
X15310658Y-13213984D02*
X15291610Y-13204460D01*
X15291610Y-13204460D02*
X15282086Y-13185412D01*
X15282086Y-13185412D02*
X15282086Y-13013984D01*
X15539229Y-13213984D02*
X15539229Y-13013984D01*
X15539229Y-13013984D02*
X15605896Y-13156841D01*
X15605896Y-13156841D02*
X15672562Y-13013984D01*
X15672562Y-13013984D02*
X15672562Y-13213984D01*
X15853515Y-13213984D02*
X15853515Y-13109222D01*
X15853515Y-13109222D02*
X15843991Y-13090174D01*
X15843991Y-13090174D02*
X15824943Y-13080650D01*
X15824943Y-13080650D02*
X15786848Y-13080650D01*
X15786848Y-13080650D02*
X15767801Y-13090174D01*
X15853515Y-13204460D02*
X15834467Y-13213984D01*
X15834467Y-13213984D02*
X15786848Y-13213984D01*
X15786848Y-13213984D02*
X15767801Y-13204460D01*
X15767801Y-13204460D02*
X15758277Y-13185412D01*
X15758277Y-13185412D02*
X15758277Y-13166365D01*
X15758277Y-13166365D02*
X15767801Y-13147317D01*
X15767801Y-13147317D02*
X15786848Y-13137793D01*
X15786848Y-13137793D02*
X15834467Y-13137793D01*
X15834467Y-13137793D02*
X15853515Y-13128269D01*
X15948753Y-13080650D02*
X15948753Y-13280650D01*
X15948753Y-13090174D02*
X15967801Y-13080650D01*
X15967801Y-13080650D02*
X16005896Y-13080650D01*
X16005896Y-13080650D02*
X16024943Y-13090174D01*
X16024943Y-13090174D02*
X16034467Y-13099698D01*
X16034467Y-13099698D02*
X16043991Y-13118746D01*
X16043991Y-13118746D02*
X16043991Y-13175888D01*
X16043991Y-13175888D02*
X16034467Y-13194936D01*
X16034467Y-13194936D02*
X16024943Y-13204460D01*
X16024943Y-13204460D02*
X16005896Y-13213984D01*
X16005896Y-13213984D02*
X15967801Y-13213984D01*
X15967801Y-13213984D02*
X15948753Y-13204460D01*
X16129705Y-13194936D02*
X16139229Y-13204460D01*
X16139229Y-13204460D02*
X16129705Y-13213984D01*
X16129705Y-13213984D02*
X16120182Y-13204460D01*
X16120182Y-13204460D02*
X16129705Y-13194936D01*
X16129705Y-13194936D02*
X16129705Y-13213984D01*
X16129705Y-13090174D02*
X16139229Y-13099698D01*
X16139229Y-13099698D02*
X16129705Y-13109222D01*
X16129705Y-13109222D02*
X16120182Y-13099698D01*
X16120182Y-13099698D02*
X16129705Y-13090174D01*
X16129705Y-13090174D02*
X16129705Y-13109222D01*
M02*
