M48
; DRILL file {KiCad 7.0.11} date Wed Dec 11 11:32:51 2024
; FORMAT={-:-/ absolute / inch / decimal}
; #@! TF.CreationDate,2024-12-11T11:32:51-03:00
; #@! TF.GenerationSoftware,Kicad,Pcbnew,7.0.11
; #@! TF.FileFunction,Plated,1,4,PTH
FMAT,2
INCH
; #@! TA.AperFunction,Plated,PTH,ViaDrill
T1C0.0118
; #@! TA.AperFunction,Plated,PTH,ComponentDrill
T2C0.0315
%
G90
G05
T1
X5.8386Y-4.6457
X5.8543Y-4.6693
X5.8622Y-5.0236
X5.8622Y-5.0551
X5.8701Y-4.6457
X5.8858Y-4.6693
X5.8937Y-5.0551
X5.9016Y-4.6457
X5.9173Y-4.6693
X5.9252Y-5.0551
X5.9331Y-4.6457
X5.9488Y-4.6693
X5.9567Y-5.0551
X5.9646Y-4.6457
X5.9803Y-4.6693
X5.9882Y-5.0236
X5.9882Y-5.0551
X5.9961Y-4.6457
X6.0787Y-4.7874
X6.0787Y-4.8268
X6.1063Y-4.7638
T2
X5.7087Y-4.6457
X5.7087Y-4.7244
X5.7087Y-4.8031
X5.7087Y-4.8819
X5.7087Y-4.9606
X5.7087Y-5.0394
X6.1417Y-4.6457
X6.1417Y-4.7244
X6.1417Y-4.8031
X6.1417Y-4.8819
X6.1417Y-4.9606
X6.1417Y-5.0394
M30
