%TF.GenerationSoftware,KiCad,Pcbnew,7.0.11*%
%TF.CreationDate,2024-12-11T11:32:47-03:00*%
%TF.ProjectId,Placa_SiPM,506c6163-615f-4536-9950-4d2e6b696361,rev?*%
%TF.SameCoordinates,Original*%
%TF.FileFunction,Copper,L2,Inr*%
%TF.FilePolarity,Positive*%
%FSLAX46Y46*%
G04 Gerber Fmt 4.6, Leading zero omitted, Abs format (unit mm)*
G04 Created by KiCad (PCBNEW 7.0.11) date 2024-12-11 11:32:47*
%MOMM*%
%LPD*%
G01*
G04 APERTURE LIST*
G04 Aperture macros list*
%AMRoundRect*
0 Rectangle with rounded corners*
0 $1 Rounding radius*
0 $2 $3 $4 $5 $6 $7 $8 $9 X,Y pos of 4 corners*
0 Add a 4 corners polygon primitive as box body*
4,1,4,$2,$3,$4,$5,$6,$7,$8,$9,$2,$3,0*
0 Add four circle primitives for the rounded corners*
1,1,$1+$1,$2,$3*
1,1,$1+$1,$4,$5*
1,1,$1+$1,$6,$7*
1,1,$1+$1,$8,$9*
0 Add four rect primitives between the rounded corners*
20,1,$1+$1,$2,$3,$4,$5,0*
20,1,$1+$1,$4,$5,$6,$7,0*
20,1,$1+$1,$6,$7,$8,$9,0*
20,1,$1+$1,$8,$9,$2,$3,0*%
G04 Aperture macros list end*
%TA.AperFunction,ComponentPad*%
%ADD10RoundRect,0.337500X-0.337500X-0.337500X0.337500X-0.337500X0.337500X0.337500X-0.337500X0.337500X0*%
%TD*%
%TA.AperFunction,ComponentPad*%
%ADD11RoundRect,0.337500X0.337500X0.337500X-0.337500X0.337500X-0.337500X-0.337500X0.337500X-0.337500X0*%
%TD*%
%TA.AperFunction,ViaPad*%
%ADD12C,0.600000*%
%TD*%
G04 APERTURE END LIST*
D10*
%TO.N,Cat*%
%TO.C,J1*%
X145000000Y-118000000D03*
X145000000Y-120000000D03*
%TO.N,An*%
X145000000Y-122000000D03*
X145000000Y-124000000D03*
%TO.N,Fout*%
X145000000Y-126000000D03*
%TO.N,GND*%
X145000000Y-128000000D03*
%TD*%
D11*
%TO.N,GND*%
%TO.C,J2*%
X156000000Y-128000000D03*
%TO.N,Fout2*%
X156000000Y-126000000D03*
%TO.N,An2*%
X156000000Y-124000000D03*
X156000000Y-122000000D03*
%TO.N,Cat2*%
X156000000Y-120000000D03*
X156000000Y-118000000D03*
%TD*%
D12*
%TO.N,Fout*%
X154400000Y-121600000D03*
%TO.N,GND*%
X150300000Y-118600000D03*
X148900000Y-127600000D03*
X151500000Y-118000000D03*
X149900000Y-118000000D03*
X149700000Y-128400000D03*
X152100000Y-127600000D03*
X149500000Y-118600000D03*
X150700000Y-118000000D03*
X148900000Y-128400000D03*
X148700000Y-118600000D03*
X149100000Y-118000000D03*
X148300000Y-118000000D03*
X151900000Y-118600000D03*
X151100000Y-118600000D03*
X150500000Y-128400000D03*
X155100000Y-121000000D03*
X151300000Y-128400000D03*
X152100000Y-128400000D03*
X152300000Y-118000000D03*
%TO.N,Fout2*%
X154400000Y-122600000D03*
%TD*%
%TA.AperFunction,Conductor*%
%TO.N,GND*%
G36*
X155196520Y-117219407D02*
G01*
X155232484Y-117268907D01*
X155232484Y-117330093D01*
X155217213Y-117359319D01*
X155189138Y-117396341D01*
X155134883Y-117533920D01*
X155124500Y-117620379D01*
X155124500Y-118379620D01*
X155134883Y-118466079D01*
X155189138Y-118603658D01*
X155278500Y-118721500D01*
X155396342Y-118810862D01*
X155533923Y-118865117D01*
X155620382Y-118875500D01*
X155700500Y-118875500D01*
X155758691Y-118894407D01*
X155794655Y-118943907D01*
X155799500Y-118974500D01*
X155799500Y-119025500D01*
X155780593Y-119083691D01*
X155731093Y-119119655D01*
X155700500Y-119124500D01*
X155620379Y-119124500D01*
X155533920Y-119134883D01*
X155396341Y-119189138D01*
X155278503Y-119278497D01*
X155278497Y-119278503D01*
X155189138Y-119396341D01*
X155134883Y-119533920D01*
X155124500Y-119620379D01*
X155124500Y-120379620D01*
X155134883Y-120466079D01*
X155189138Y-120603658D01*
X155278500Y-120721500D01*
X155396342Y-120810862D01*
X155533923Y-120865117D01*
X155620382Y-120875500D01*
X155700500Y-120875500D01*
X155758691Y-120894407D01*
X155794655Y-120943907D01*
X155799500Y-120974500D01*
X155799500Y-121025500D01*
X155780593Y-121083691D01*
X155731093Y-121119655D01*
X155700500Y-121124500D01*
X155620379Y-121124500D01*
X155533920Y-121134883D01*
X155396341Y-121189138D01*
X155278503Y-121278497D01*
X155278497Y-121278503D01*
X155189138Y-121396341D01*
X155134883Y-121533920D01*
X155124500Y-121620379D01*
X155124500Y-122379620D01*
X155134883Y-122466079D01*
X155187694Y-122599997D01*
X155189138Y-122603658D01*
X155278500Y-122721500D01*
X155396342Y-122810862D01*
X155533923Y-122865117D01*
X155620382Y-122875500D01*
X155700500Y-122875500D01*
X155758691Y-122894407D01*
X155794655Y-122943907D01*
X155799500Y-122974500D01*
X155799500Y-123025500D01*
X155780593Y-123083691D01*
X155731093Y-123119655D01*
X155700500Y-123124500D01*
X155620379Y-123124500D01*
X155533920Y-123134883D01*
X155396341Y-123189138D01*
X155278503Y-123278497D01*
X155278497Y-123278503D01*
X155189138Y-123396341D01*
X155134883Y-123533920D01*
X155124500Y-123620379D01*
X155124500Y-124379620D01*
X155134883Y-124466079D01*
X155189138Y-124603658D01*
X155278500Y-124721500D01*
X155396342Y-124810862D01*
X155533923Y-124865117D01*
X155620382Y-124875500D01*
X155700500Y-124875500D01*
X155758691Y-124894407D01*
X155794655Y-124943907D01*
X155799500Y-124974500D01*
X155799500Y-125025500D01*
X155780593Y-125083691D01*
X155731093Y-125119655D01*
X155700500Y-125124500D01*
X155620379Y-125124500D01*
X155533920Y-125134883D01*
X155396341Y-125189138D01*
X155278503Y-125278497D01*
X155278497Y-125278503D01*
X155189138Y-125396341D01*
X155134883Y-125533920D01*
X155124500Y-125620379D01*
X155124500Y-126379620D01*
X155134883Y-126466079D01*
X155189138Y-126603658D01*
X155278500Y-126721500D01*
X155278504Y-126721503D01*
X155278506Y-126721505D01*
X155307903Y-126743797D01*
X155342846Y-126794023D01*
X155341593Y-126855195D01*
X155304624Y-126903948D01*
X155292073Y-126911372D01*
X155208789Y-126952677D01*
X155208784Y-126952680D01*
X155066812Y-127066800D01*
X155066800Y-127066812D01*
X154952680Y-127208784D01*
X154952675Y-127208792D01*
X154871741Y-127371982D01*
X154871738Y-127371988D01*
X154827774Y-127548769D01*
X154827773Y-127548774D01*
X154825000Y-127589661D01*
X154825000Y-127749999D01*
X154825001Y-127750000D01*
X155684314Y-127750000D01*
X155672359Y-127761955D01*
X155614835Y-127874852D01*
X155595014Y-128000000D01*
X155614835Y-128125148D01*
X155672359Y-128238045D01*
X155684314Y-128250000D01*
X154825002Y-128250000D01*
X154825001Y-128250001D01*
X154825001Y-128410340D01*
X154827774Y-128451227D01*
X154871738Y-128628012D01*
X154871739Y-128628014D01*
X154885874Y-128656514D01*
X154894790Y-128717046D01*
X154866423Y-128771258D01*
X154811608Y-128798443D01*
X154797182Y-128799500D01*
X146202818Y-128799500D01*
X146144627Y-128780593D01*
X146108663Y-128731093D01*
X146108663Y-128669907D01*
X146114126Y-128656514D01*
X146128260Y-128628014D01*
X146128261Y-128628011D01*
X146172225Y-128451230D01*
X146172226Y-128451225D01*
X146174999Y-128410338D01*
X146175000Y-128410319D01*
X146175000Y-128250001D01*
X146174999Y-128250000D01*
X145315686Y-128250000D01*
X145327641Y-128238045D01*
X145385165Y-128125148D01*
X145404986Y-128000000D01*
X145385165Y-127874852D01*
X145327641Y-127761955D01*
X145315686Y-127750000D01*
X146174998Y-127750000D01*
X146174999Y-127749999D01*
X146174999Y-127589684D01*
X146174998Y-127589659D01*
X146172225Y-127548772D01*
X146128261Y-127371987D01*
X146128258Y-127371982D01*
X146047324Y-127208792D01*
X146047319Y-127208784D01*
X145933199Y-127066812D01*
X145933187Y-127066800D01*
X145791215Y-126952680D01*
X145791207Y-126952675D01*
X145707927Y-126911372D01*
X145664196Y-126868579D01*
X145653971Y-126808254D01*
X145681156Y-126753440D01*
X145692089Y-126743802D01*
X145721500Y-126721500D01*
X145810862Y-126603658D01*
X145865117Y-126466077D01*
X145875500Y-126379618D01*
X145875500Y-125620382D01*
X145865117Y-125533923D01*
X145810862Y-125396342D01*
X145721500Y-125278500D01*
X145603658Y-125189138D01*
X145466079Y-125134883D01*
X145379620Y-125124500D01*
X145379618Y-125124500D01*
X145299500Y-125124500D01*
X145241309Y-125105593D01*
X145205345Y-125056093D01*
X145200500Y-125025500D01*
X145200500Y-124974500D01*
X145219407Y-124916309D01*
X145268907Y-124880345D01*
X145299500Y-124875500D01*
X145379616Y-124875500D01*
X145379618Y-124875500D01*
X145466077Y-124865117D01*
X145603658Y-124810862D01*
X145721500Y-124721500D01*
X145810862Y-124603658D01*
X145865117Y-124466077D01*
X145875500Y-124379618D01*
X145875500Y-123620382D01*
X145865117Y-123533923D01*
X145810862Y-123396342D01*
X145721500Y-123278500D01*
X145603658Y-123189138D01*
X145466079Y-123134883D01*
X145379620Y-123124500D01*
X145379618Y-123124500D01*
X145299500Y-123124500D01*
X145241309Y-123105593D01*
X145205345Y-123056093D01*
X145200500Y-123025500D01*
X145200500Y-122974500D01*
X145219407Y-122916309D01*
X145268907Y-122880345D01*
X145299500Y-122875500D01*
X145379616Y-122875500D01*
X145379618Y-122875500D01*
X145466077Y-122865117D01*
X145603658Y-122810862D01*
X145721500Y-122721500D01*
X145810862Y-122603658D01*
X145812304Y-122600002D01*
X153894353Y-122600002D01*
X153914834Y-122742456D01*
X153974622Y-122873371D01*
X153974623Y-122873373D01*
X154068872Y-122982143D01*
X154068873Y-122982144D01*
X154189942Y-123059950D01*
X154189947Y-123059953D01*
X154296403Y-123091211D01*
X154328035Y-123100499D01*
X154328036Y-123100499D01*
X154328039Y-123100500D01*
X154328041Y-123100500D01*
X154471959Y-123100500D01*
X154471961Y-123100500D01*
X154610053Y-123059953D01*
X154731128Y-122982143D01*
X154825377Y-122873373D01*
X154885165Y-122742457D01*
X154905647Y-122600000D01*
X154885165Y-122457543D01*
X154825377Y-122326627D01*
X154731128Y-122217857D01*
X154731127Y-122217856D01*
X154731126Y-122217855D01*
X154677331Y-122183284D01*
X154638600Y-122135919D01*
X154635106Y-122074833D01*
X154668185Y-122023360D01*
X154677331Y-122016716D01*
X154731126Y-121982144D01*
X154731125Y-121982144D01*
X154731128Y-121982143D01*
X154825377Y-121873373D01*
X154885165Y-121742457D01*
X154891992Y-121694971D01*
X154905647Y-121600002D01*
X154905647Y-121599997D01*
X154885165Y-121457543D01*
X154857215Y-121396342D01*
X154825377Y-121326627D01*
X154731128Y-121217857D01*
X154731127Y-121217856D01*
X154731126Y-121217855D01*
X154610057Y-121140049D01*
X154610054Y-121140047D01*
X154610053Y-121140047D01*
X154610050Y-121140046D01*
X154471964Y-121099500D01*
X154471961Y-121099500D01*
X154328039Y-121099500D01*
X154328035Y-121099500D01*
X154189949Y-121140046D01*
X154189942Y-121140049D01*
X154068873Y-121217855D01*
X153974622Y-121326628D01*
X153914834Y-121457543D01*
X153894353Y-121599997D01*
X153894353Y-121600002D01*
X153914834Y-121742456D01*
X153974622Y-121873371D01*
X153974623Y-121873373D01*
X154068872Y-121982143D01*
X154122669Y-122016716D01*
X154161400Y-122064082D01*
X154164893Y-122125168D01*
X154131813Y-122176640D01*
X154122669Y-122183284D01*
X154068872Y-122217857D01*
X153974622Y-122326628D01*
X153914834Y-122457543D01*
X153894353Y-122599997D01*
X153894353Y-122600002D01*
X145812304Y-122600002D01*
X145865117Y-122466077D01*
X145875500Y-122379618D01*
X145875500Y-121620382D01*
X145865117Y-121533923D01*
X145810862Y-121396342D01*
X145721500Y-121278500D01*
X145603658Y-121189138D01*
X145466079Y-121134883D01*
X145379620Y-121124500D01*
X145379618Y-121124500D01*
X145299500Y-121124500D01*
X145241309Y-121105593D01*
X145205345Y-121056093D01*
X145200500Y-121025500D01*
X145200500Y-120974500D01*
X145219407Y-120916309D01*
X145268907Y-120880345D01*
X145299500Y-120875500D01*
X145379616Y-120875500D01*
X145379618Y-120875500D01*
X145466077Y-120865117D01*
X145603658Y-120810862D01*
X145721500Y-120721500D01*
X145810862Y-120603658D01*
X145865117Y-120466077D01*
X145875500Y-120379618D01*
X145875500Y-119620382D01*
X145865117Y-119533923D01*
X145810862Y-119396342D01*
X145721500Y-119278500D01*
X145603658Y-119189138D01*
X145466079Y-119134883D01*
X145379620Y-119124500D01*
X145379618Y-119124500D01*
X145299500Y-119124500D01*
X145241309Y-119105593D01*
X145205345Y-119056093D01*
X145200500Y-119025500D01*
X145200500Y-118974500D01*
X145219407Y-118916309D01*
X145268907Y-118880345D01*
X145299500Y-118875500D01*
X145379616Y-118875500D01*
X145379618Y-118875500D01*
X145466077Y-118865117D01*
X145603658Y-118810862D01*
X145721500Y-118721500D01*
X145810862Y-118603658D01*
X145865117Y-118466077D01*
X145875500Y-118379618D01*
X145875500Y-117620382D01*
X145865117Y-117533923D01*
X145810862Y-117396342D01*
X145782787Y-117359319D01*
X145762692Y-117301528D01*
X145780403Y-117242962D01*
X145829156Y-117205992D01*
X145861671Y-117200500D01*
X155138329Y-117200500D01*
X155196520Y-117219407D01*
G37*
%TD.AperFunction*%
%TD*%
M02*
