%TF.GenerationSoftware,KiCad,Pcbnew,7.0.11*%
%TF.CreationDate,2024-12-11T11:32:47-03:00*%
%TF.ProjectId,Placa_SiPM,506c6163-615f-4536-9950-4d2e6b696361,rev?*%
%TF.SameCoordinates,Original*%
%TF.FileFunction,Copper,L1,Top*%
%TF.FilePolarity,Positive*%
%FSLAX46Y46*%
G04 Gerber Fmt 4.6, Leading zero omitted, Abs format (unit mm)*
G04 Created by KiCad (PCBNEW 7.0.11) date 2024-12-11 11:32:47*
%MOMM*%
%LPD*%
G01*
G04 APERTURE LIST*
G04 Aperture macros list*
%AMRoundRect*
0 Rectangle with rounded corners*
0 $1 Rounding radius*
0 $2 $3 $4 $5 $6 $7 $8 $9 X,Y pos of 4 corners*
0 Add a 4 corners polygon primitive as box body*
4,1,4,$2,$3,$4,$5,$6,$7,$8,$9,$2,$3,0*
0 Add four circle primitives for the rounded corners*
1,1,$1+$1,$2,$3*
1,1,$1+$1,$4,$5*
1,1,$1+$1,$6,$7*
1,1,$1+$1,$8,$9*
0 Add four rect primitives between the rounded corners*
20,1,$1+$1,$2,$3,$4,$5,0*
20,1,$1+$1,$4,$5,$6,$7,0*
20,1,$1+$1,$6,$7,$8,$9,0*
20,1,$1+$1,$8,$9,$2,$3,0*%
G04 Aperture macros list end*
%TA.AperFunction,SMDPad,CuDef*%
%ADD10C,0.203200*%
%TD*%
%TA.AperFunction,ComponentPad*%
%ADD11RoundRect,0.337500X-0.337500X-0.337500X0.337500X-0.337500X0.337500X0.337500X-0.337500X0.337500X0*%
%TD*%
%TA.AperFunction,ComponentPad*%
%ADD12RoundRect,0.337500X0.337500X0.337500X-0.337500X0.337500X-0.337500X-0.337500X0.337500X-0.337500X0*%
%TD*%
%TA.AperFunction,ViaPad*%
%ADD13C,0.600000*%
%TD*%
%TA.AperFunction,Conductor*%
%ADD14C,0.200000*%
%TD*%
G04 APERTURE END LIST*
D10*
%TO.P,U1,A1,CATHODE*%
%TO.N,Cat*%
X148000000Y-120500000D03*
%TO.P,U1,A2,NC*%
%TO.N,GND*%
X149000000Y-120500000D03*
%TO.P,U1,A3,NC*%
X150000000Y-120500000D03*
%TO.P,U1,A4,NC*%
X151000000Y-120500000D03*
%TO.P,U1,A5,NC*%
X152000000Y-120500000D03*
%TO.P,U1,A6,NC*%
X153000000Y-120500000D03*
%TO.P,U1,B1,NC*%
X148000000Y-121500000D03*
%TO.P,U1,B2,NC*%
X149000000Y-121500000D03*
%TO.P,U1,B3,NC*%
X150000000Y-121500000D03*
%TO.P,U1,B4,NC*%
X151000000Y-121500000D03*
%TO.P,U1,B5,NC*%
X152000000Y-121500000D03*
%TO.P,U1,B6,NC*%
X153000000Y-121500000D03*
%TO.P,U1,C1,ANODE*%
%TO.N,An*%
X148000000Y-122500000D03*
%TO.P,U1,C2,NC*%
%TO.N,GND*%
X149000000Y-122500000D03*
%TO.P,U1,C3,NC*%
X150000000Y-122500000D03*
%TO.P,U1,C4,NC*%
X151000000Y-122500000D03*
%TO.P,U1,C5,NC*%
X152000000Y-122500000D03*
%TO.P,U1,C6,FAST_OUTPUT*%
%TO.N,Fout*%
X153000000Y-122500000D03*
%TO.P,U1,D1,ANODE*%
%TO.N,An2*%
X148000000Y-123500000D03*
%TO.P,U1,D2,NC*%
%TO.N,GND*%
X149000000Y-123500000D03*
%TO.P,U1,D3,NC*%
X150000000Y-123500000D03*
%TO.P,U1,D4,NC*%
X151000000Y-123500000D03*
%TO.P,U1,D5,NC*%
X152000000Y-123500000D03*
%TO.P,U1,D6,FAST_OUTPUT*%
%TO.N,Fout2*%
X153000000Y-123500000D03*
%TO.P,U1,E1,NC*%
%TO.N,GND*%
X148000000Y-124500000D03*
%TO.P,U1,E2,NC*%
X149000000Y-124500000D03*
%TO.P,U1,E3,NC*%
X150000000Y-124500000D03*
%TO.P,U1,E4,NC*%
X151000000Y-124500000D03*
%TO.P,U1,E5,NC*%
X152000000Y-124500000D03*
%TO.P,U1,E6,NC*%
X153000000Y-124500000D03*
%TO.P,U1,F1,NC*%
X148000000Y-125500000D03*
%TO.P,U1,F2,NC*%
X149000000Y-125500000D03*
%TO.P,U1,F3,NC*%
X150000000Y-125500000D03*
%TO.P,U1,F4,NC*%
X151000000Y-125500000D03*
%TO.P,U1,F5,NC*%
X152000000Y-125500000D03*
%TO.P,U1,F6,CATHODE*%
%TO.N,Cat2*%
X153000000Y-125500000D03*
%TD*%
D11*
%TO.P,J1,1,Pin_1*%
%TO.N,Cat*%
X145000000Y-118000000D03*
%TO.P,J1,2,Pin_2*%
X145000000Y-120000000D03*
%TO.P,J1,3,Pin_3*%
%TO.N,An*%
X145000000Y-122000000D03*
%TO.P,J1,4,Pin_4*%
X145000000Y-124000000D03*
%TO.P,J1,5,Pin_5*%
%TO.N,Fout*%
X145000000Y-126000000D03*
%TO.P,J1,6,Pin_6*%
%TO.N,GND*%
X145000000Y-128000000D03*
%TD*%
D12*
%TO.P,J2,1,Pin_1*%
%TO.N,GND*%
X156000000Y-128000000D03*
%TO.P,J2,2,Pin_2*%
%TO.N,Fout2*%
X156000000Y-126000000D03*
%TO.P,J2,3,Pin_3*%
%TO.N,An2*%
X156000000Y-124000000D03*
%TO.P,J2,4,Pin_4*%
X156000000Y-122000000D03*
%TO.P,J2,5,Pin_5*%
%TO.N,Cat2*%
X156000000Y-120000000D03*
%TO.P,J2,6,Pin_6*%
X156000000Y-118000000D03*
%TD*%
D13*
%TO.N,Fout*%
X154400000Y-121600000D03*
%TO.N,GND*%
X150300000Y-118600000D03*
X148900000Y-127600000D03*
X151500000Y-118000000D03*
X149900000Y-118000000D03*
X149700000Y-128400000D03*
X152100000Y-127600000D03*
X149500000Y-118600000D03*
X150700000Y-118000000D03*
X148900000Y-128400000D03*
X148700000Y-118600000D03*
X149100000Y-118000000D03*
X148300000Y-118000000D03*
X151900000Y-118600000D03*
X151100000Y-118600000D03*
X150500000Y-128400000D03*
X155100000Y-121000000D03*
X151300000Y-128400000D03*
X152100000Y-128400000D03*
X152300000Y-118000000D03*
%TO.N,Fout2*%
X154400000Y-122600000D03*
%TD*%
D14*
%TO.N,Cat*%
X146100000Y-118000000D02*
X145000000Y-118000000D01*
X148000000Y-120500000D02*
X148000000Y-119200000D01*
X146800000Y-118000000D02*
X146100000Y-118000000D01*
X146400000Y-118300000D02*
X146100000Y-118000000D01*
X146400000Y-118600000D02*
X145000000Y-120000000D01*
X147400000Y-118600000D02*
X146800000Y-118000000D01*
X146400000Y-118600000D02*
X146400000Y-118300000D01*
X147400000Y-118600000D02*
X146400000Y-118600000D01*
X148000000Y-119200000D02*
X147400000Y-118600000D01*
%TO.N,An*%
X146800000Y-122500000D02*
X146700000Y-122500000D01*
X146500000Y-122500000D02*
X146500000Y-122300000D01*
X146500000Y-122300000D02*
X146200000Y-122000000D01*
X146600000Y-122000000D02*
X146400000Y-122000000D01*
X146500000Y-122500000D02*
X145000000Y-124000000D01*
X146400000Y-122000000D02*
X146200000Y-122000000D01*
X146200000Y-122000000D02*
X145000000Y-122000000D01*
X147100000Y-122500000D02*
X146600000Y-122000000D01*
X146700000Y-122500000D02*
X146500000Y-122500000D01*
X147100000Y-122500000D02*
X146900000Y-122500000D01*
X146900000Y-122500000D02*
X146800000Y-122500000D01*
X148000000Y-122500000D02*
X147100000Y-122500000D01*
%TO.N,Fout*%
X153500000Y-122500000D02*
X154400000Y-121600000D01*
X153000000Y-122500000D02*
X153500000Y-122500000D01*
%TO.N,Fout2*%
X153500000Y-123500000D02*
X154400000Y-122600000D01*
X153000000Y-123500000D02*
X153500000Y-123500000D01*
%TO.N,An2*%
X156000000Y-122000000D02*
X154300000Y-123700000D01*
X146800000Y-126500000D02*
X147200000Y-126900000D01*
X154900000Y-125100000D02*
X154600000Y-125100000D01*
X154300000Y-126600000D02*
X154300000Y-125700000D01*
X154300000Y-124800000D02*
X154600000Y-125100000D01*
X148000000Y-123500000D02*
X146800000Y-124700000D01*
X154000000Y-126900000D02*
X154300000Y-126600000D01*
X154300000Y-125400000D02*
X154300000Y-125700000D01*
X154300000Y-125200000D02*
X154300000Y-125400000D01*
X146800000Y-124700000D02*
X146800000Y-126500000D01*
X154300000Y-123700000D02*
X154300000Y-124800000D01*
X154300000Y-124800000D02*
X154300000Y-125000000D01*
X154900000Y-125100000D02*
X154750000Y-125250000D01*
X147200000Y-126900000D02*
X154000000Y-126900000D01*
X156000000Y-124000000D02*
X154900000Y-125100000D01*
X154300000Y-125000000D02*
X154300000Y-125200000D01*
X154750000Y-125250000D02*
X154300000Y-125700000D01*
%TO.N,Cat2*%
X154900000Y-120000000D02*
X153900000Y-119000000D01*
X153900000Y-119000000D02*
X152900000Y-119000000D01*
X153900000Y-118500000D02*
X154400000Y-118000000D01*
X152500000Y-125000000D02*
X152500000Y-119400000D01*
X153900000Y-118000000D02*
X153900000Y-118500000D01*
X153000000Y-125500000D02*
X152500000Y-125000000D01*
X153900000Y-118500000D02*
X153900000Y-119000000D01*
X152500000Y-119400000D02*
X152900000Y-119000000D01*
X152900000Y-119000000D02*
X153900000Y-118000000D01*
X153900000Y-118000000D02*
X154400000Y-118000000D01*
X154400000Y-118000000D02*
X156000000Y-118000000D01*
X156000000Y-120000000D02*
X154900000Y-120000000D01*
%TD*%
%TA.AperFunction,Conductor*%
%TO.N,An2*%
G36*
X154510203Y-125010649D02*
G01*
X154516681Y-125016681D01*
X154600000Y-125100000D01*
X154600001Y-125100000D01*
X154615671Y-125106491D01*
X154660604Y-125119685D01*
X154706359Y-125172489D01*
X154716303Y-125241647D01*
X154687278Y-125305203D01*
X154681246Y-125311681D01*
X154516681Y-125476246D01*
X154455358Y-125509731D01*
X154385666Y-125504747D01*
X154329733Y-125462875D01*
X154305316Y-125397411D01*
X154305000Y-125388565D01*
X154305000Y-125104362D01*
X154324685Y-125037323D01*
X154377489Y-124991568D01*
X154446647Y-124981624D01*
X154510203Y-125010649D01*
G37*
%TD.AperFunction*%
%TD*%
%TA.AperFunction,Conductor*%
%TO.N,Cat*%
G36*
X146814318Y-118024685D02*
G01*
X146840756Y-118047820D01*
X146840828Y-118047754D01*
X146841446Y-118048424D01*
X146841781Y-118048717D01*
X146842544Y-118049615D01*
X146842549Y-118049620D01*
X147176247Y-118383319D01*
X147209732Y-118444642D01*
X147204748Y-118514334D01*
X147162876Y-118570267D01*
X147097412Y-118594684D01*
X147088566Y-118595000D01*
X146565468Y-118595000D01*
X146541518Y-118595940D01*
X146533727Y-118596554D01*
X146465350Y-118582189D01*
X146415594Y-118533137D01*
X146400000Y-118472936D01*
X146400000Y-118300000D01*
X146316681Y-118216681D01*
X146283196Y-118155358D01*
X146288180Y-118085666D01*
X146330052Y-118029733D01*
X146395516Y-118005316D01*
X146404362Y-118005000D01*
X146747279Y-118005000D01*
X146814318Y-118024685D01*
G37*
%TD.AperFunction*%
%TD*%
%TA.AperFunction,Conductor*%
%TO.N,GND*%
G36*
X155196520Y-117219407D02*
G01*
X155232484Y-117268907D01*
X155232484Y-117330093D01*
X155217213Y-117359319D01*
X155189138Y-117396341D01*
X155134883Y-117533920D01*
X155125470Y-117612305D01*
X155099759Y-117667826D01*
X155046324Y-117697631D01*
X155027176Y-117699500D01*
X154465165Y-117699500D01*
X154451489Y-117697267D01*
X154451318Y-117698494D01*
X154442234Y-117697226D01*
X154395359Y-117699394D01*
X154390787Y-117699500D01*
X153965170Y-117699500D01*
X153951489Y-117697267D01*
X153951318Y-117698493D01*
X153935260Y-117696252D01*
X153928207Y-117695599D01*
X153890662Y-117699078D01*
X153881528Y-117699500D01*
X153872156Y-117699500D01*
X153872151Y-117699500D01*
X153872149Y-117699501D01*
X153872016Y-117699526D01*
X153858430Y-117701100D01*
X153834450Y-117702209D01*
X153830009Y-117702415D01*
X153830007Y-117702415D01*
X153823138Y-117704030D01*
X153816333Y-117705967D01*
X153815924Y-117706171D01*
X153790015Y-117714855D01*
X153789567Y-117714938D01*
X153789564Y-117714939D01*
X153765382Y-117729912D01*
X153753258Y-117736303D01*
X153727232Y-117747794D01*
X153721432Y-117751767D01*
X153715769Y-117756044D01*
X153715468Y-117756375D01*
X153694436Y-117773840D01*
X153694049Y-117774079D01*
X153676907Y-117796778D01*
X153667909Y-117807118D01*
X152727235Y-118747793D01*
X152727229Y-118747799D01*
X152720280Y-118754747D01*
X152702404Y-118768905D01*
X152694050Y-118774078D01*
X152676907Y-118796778D01*
X152667909Y-118807117D01*
X152333592Y-119141435D01*
X152322361Y-119149550D01*
X152323090Y-119150515D01*
X152315771Y-119156041D01*
X152284141Y-119190737D01*
X152280989Y-119194038D01*
X152267830Y-119207198D01*
X152267818Y-119207212D01*
X152267749Y-119207314D01*
X152259255Y-119218035D01*
X152240083Y-119239066D01*
X152240083Y-119239067D01*
X152236529Y-119248240D01*
X152225896Y-119268412D01*
X152220346Y-119276515D01*
X152220341Y-119276524D01*
X152213830Y-119304206D01*
X152209777Y-119317296D01*
X152199501Y-119343823D01*
X152199500Y-119343829D01*
X152199500Y-119353651D01*
X152196870Y-119376318D01*
X152194621Y-119385879D01*
X152198551Y-119414053D01*
X152199500Y-119427730D01*
X152199500Y-119806585D01*
X152180593Y-119864776D01*
X152131093Y-119900740D01*
X152087579Y-119904738D01*
X152000002Y-119893209D01*
X151999999Y-119893209D01*
X151842952Y-119913884D01*
X151696602Y-119974505D01*
X151652233Y-120008549D01*
X151652233Y-120008550D01*
X151999999Y-120356316D01*
X152000000Y-120356316D01*
X152073680Y-120429996D01*
X152101457Y-120484513D01*
X152091886Y-120544945D01*
X152073680Y-120570004D01*
X151652234Y-120991449D01*
X151652370Y-120993525D01*
X151652370Y-121006473D01*
X151652233Y-121008549D01*
X151999999Y-121356316D01*
X152000000Y-121356316D01*
X152073680Y-121429996D01*
X152101457Y-121484513D01*
X152091886Y-121544945D01*
X152073680Y-121570004D01*
X151652234Y-121991449D01*
X151652370Y-121993525D01*
X151652370Y-122006473D01*
X151652233Y-122008549D01*
X151999999Y-122356316D01*
X152000000Y-122356316D01*
X152073680Y-122429996D01*
X152101457Y-122484513D01*
X152091886Y-122544945D01*
X152073680Y-122570004D01*
X151652234Y-122991449D01*
X151652370Y-122993525D01*
X151652370Y-123006473D01*
X151652233Y-123008549D01*
X151999999Y-123356316D01*
X152000000Y-123356316D01*
X152073680Y-123429996D01*
X152101457Y-123484513D01*
X152091886Y-123544945D01*
X152073680Y-123570004D01*
X151652234Y-123991449D01*
X151652370Y-123993525D01*
X151652370Y-124006473D01*
X151652233Y-124008549D01*
X151999999Y-124356316D01*
X152000000Y-124356316D01*
X152073680Y-124429996D01*
X152101457Y-124484513D01*
X152091886Y-124544945D01*
X152073680Y-124570004D01*
X151652234Y-124991449D01*
X151652370Y-124993525D01*
X151652370Y-125006473D01*
X151652233Y-125008549D01*
X151999999Y-125356316D01*
X152000000Y-125356316D01*
X152491449Y-125847764D01*
X152525496Y-125803395D01*
X152525498Y-125803391D01*
X152572166Y-125690724D01*
X152611902Y-125644198D01*
X152671397Y-125629914D01*
X152727925Y-125653328D01*
X152733634Y-125658605D01*
X152745953Y-125670924D01*
X152761684Y-125691425D01*
X152765008Y-125697182D01*
X152846620Y-125765662D01*
X152855062Y-125768734D01*
X152875034Y-125779001D01*
X152876514Y-125779654D01*
X152876516Y-125779654D01*
X152876520Y-125779657D01*
X152895007Y-125784004D01*
X152906176Y-125787338D01*
X152946732Y-125802100D01*
X152960453Y-125802100D01*
X152983121Y-125804730D01*
X152983615Y-125804846D01*
X152985881Y-125805379D01*
X153000685Y-125803313D01*
X153002585Y-125803049D01*
X153016261Y-125802100D01*
X153053266Y-125802100D01*
X153053268Y-125802100D01*
X153070712Y-125795750D01*
X153090895Y-125790729D01*
X153097151Y-125789857D01*
X153109585Y-125782930D01*
X153123873Y-125776401D01*
X153153380Y-125765662D01*
X153171411Y-125750531D01*
X153186870Y-125739884D01*
X153195299Y-125735190D01*
X153202478Y-125726543D01*
X153215003Y-125713953D01*
X153234992Y-125697182D01*
X153249341Y-125672326D01*
X153258913Y-125658582D01*
X153260189Y-125657045D01*
X153267071Y-125648758D01*
X153269615Y-125641166D01*
X153277746Y-125623126D01*
X153288260Y-125604918D01*
X153294189Y-125571287D01*
X153297814Y-125557030D01*
X153302773Y-125542236D01*
X153302560Y-125537644D01*
X153303958Y-125515886D01*
X153306760Y-125500000D01*
X153299813Y-125460604D01*
X153298416Y-125448002D01*
X153297585Y-125430009D01*
X153297160Y-125429048D01*
X153290229Y-125406254D01*
X153288260Y-125395082D01*
X153265878Y-125356315D01*
X153265009Y-125354809D01*
X153260180Y-125345295D01*
X153259532Y-125343827D01*
X153252206Y-125327235D01*
X153252205Y-125327234D01*
X153252205Y-125327233D01*
X153248648Y-125322040D01*
X153238311Y-125308567D01*
X153234991Y-125302817D01*
X153193539Y-125268034D01*
X153187171Y-125262200D01*
X153158605Y-125233634D01*
X153130828Y-125179117D01*
X153140399Y-125118685D01*
X153183664Y-125075420D01*
X153190724Y-125072166D01*
X153303391Y-125025498D01*
X153303395Y-125025496D01*
X153347764Y-124991449D01*
X152926319Y-124570004D01*
X152898542Y-124515487D01*
X152900995Y-124499999D01*
X153143684Y-124499999D01*
X153491449Y-124847764D01*
X153525496Y-124803395D01*
X153525498Y-124803391D01*
X153586113Y-124657053D01*
X153586115Y-124657045D01*
X153606791Y-124500000D01*
X153606791Y-124499999D01*
X153586115Y-124342951D01*
X153525496Y-124196606D01*
X153491448Y-124152234D01*
X153143684Y-124499999D01*
X152900995Y-124499999D01*
X152908113Y-124455055D01*
X152926320Y-124429996D01*
X153000001Y-124356316D01*
X153347764Y-124008550D01*
X153308006Y-123978042D01*
X153273351Y-123927617D01*
X153274953Y-123866453D01*
X153312200Y-123817911D01*
X153368274Y-123800500D01*
X153434836Y-123800500D01*
X153448511Y-123802732D01*
X153448683Y-123801506D01*
X153457764Y-123802772D01*
X153457765Y-123802773D01*
X153457765Y-123802772D01*
X153457766Y-123802773D01*
X153504642Y-123800606D01*
X153509214Y-123800500D01*
X153527842Y-123800500D01*
X153527844Y-123800500D01*
X153527948Y-123800480D01*
X153541571Y-123798898D01*
X153569992Y-123797585D01*
X153578976Y-123793617D01*
X153600777Y-123786865D01*
X153610433Y-123785061D01*
X153634618Y-123770086D01*
X153646728Y-123763701D01*
X153672765Y-123752206D01*
X153679709Y-123745260D01*
X153697601Y-123731089D01*
X153705952Y-123725919D01*
X153723089Y-123703223D01*
X153732082Y-123692887D01*
X153827168Y-123597801D01*
X153881683Y-123570026D01*
X153942115Y-123579597D01*
X153985380Y-123622862D01*
X153993900Y-123676662D01*
X153995044Y-123676715D01*
X153994787Y-123682262D01*
X153994951Y-123683294D01*
X153994675Y-123684698D01*
X153994620Y-123685876D01*
X153998551Y-123714053D01*
X153999500Y-123727730D01*
X153999500Y-124734835D01*
X153997280Y-124748513D01*
X153998494Y-124748683D01*
X153997226Y-124757766D01*
X153999394Y-124804641D01*
X153999500Y-124809213D01*
X153999500Y-125653651D01*
X153996870Y-125676318D01*
X153995972Y-125680139D01*
X153994621Y-125685881D01*
X153998536Y-125713949D01*
X153998551Y-125714053D01*
X153999500Y-125727730D01*
X153999500Y-126434521D01*
X153980593Y-126492712D01*
X153970504Y-126504525D01*
X153904525Y-126570504D01*
X153850008Y-126598281D01*
X153834521Y-126599500D01*
X147365480Y-126599500D01*
X147307289Y-126580593D01*
X147295476Y-126570504D01*
X147129496Y-126404524D01*
X147101719Y-126350007D01*
X147100500Y-126334520D01*
X147100500Y-125991449D01*
X147652233Y-125991449D01*
X147696601Y-126025494D01*
X147696606Y-126025497D01*
X147842946Y-126086113D01*
X147842954Y-126086115D01*
X147999999Y-126106791D01*
X148000001Y-126106791D01*
X148157045Y-126086115D01*
X148157053Y-126086113D01*
X148303391Y-126025498D01*
X148303395Y-126025496D01*
X148347764Y-125991449D01*
X148652233Y-125991449D01*
X148696601Y-126025494D01*
X148696606Y-126025497D01*
X148842946Y-126086113D01*
X148842954Y-126086115D01*
X148999999Y-126106791D01*
X149000001Y-126106791D01*
X149157045Y-126086115D01*
X149157053Y-126086113D01*
X149303391Y-126025498D01*
X149303395Y-126025496D01*
X149347764Y-125991449D01*
X149652233Y-125991449D01*
X149696601Y-126025494D01*
X149696606Y-126025497D01*
X149842946Y-126086113D01*
X149842954Y-126086115D01*
X149999999Y-126106791D01*
X150000001Y-126106791D01*
X150157045Y-126086115D01*
X150157053Y-126086113D01*
X150303391Y-126025498D01*
X150303395Y-126025496D01*
X150347764Y-125991449D01*
X150652233Y-125991449D01*
X150696601Y-126025494D01*
X150696606Y-126025497D01*
X150842946Y-126086113D01*
X150842954Y-126086115D01*
X150999999Y-126106791D01*
X151000001Y-126106791D01*
X151157045Y-126086115D01*
X151157053Y-126086113D01*
X151303391Y-126025498D01*
X151303395Y-126025496D01*
X151347764Y-125991449D01*
X151652233Y-125991449D01*
X151696601Y-126025494D01*
X151696606Y-126025497D01*
X151842946Y-126086113D01*
X151842954Y-126086115D01*
X151999999Y-126106791D01*
X152000001Y-126106791D01*
X152157045Y-126086115D01*
X152157053Y-126086113D01*
X152303391Y-126025498D01*
X152303395Y-126025496D01*
X152347764Y-125991449D01*
X151999999Y-125643684D01*
X151652233Y-125991448D01*
X151652233Y-125991449D01*
X151347764Y-125991449D01*
X150999999Y-125643684D01*
X150652233Y-125991448D01*
X150652233Y-125991449D01*
X150347764Y-125991449D01*
X149999999Y-125643684D01*
X149652233Y-125991448D01*
X149652233Y-125991449D01*
X149347764Y-125991449D01*
X148999999Y-125643684D01*
X148652233Y-125991448D01*
X148652233Y-125991449D01*
X148347764Y-125991449D01*
X147999999Y-125643684D01*
X147652233Y-125991448D01*
X147652233Y-125991449D01*
X147100500Y-125991449D01*
X147100500Y-125500000D01*
X147393209Y-125500000D01*
X147413884Y-125657045D01*
X147413886Y-125657053D01*
X147474502Y-125803393D01*
X147474505Y-125803398D01*
X147508549Y-125847764D01*
X147508550Y-125847764D01*
X147856315Y-125500000D01*
X147856314Y-125499999D01*
X148143684Y-125499999D01*
X148491450Y-125847765D01*
X148493531Y-125847629D01*
X148506476Y-125847629D01*
X148508550Y-125847764D01*
X148856315Y-125500000D01*
X148856314Y-125499999D01*
X149143684Y-125499999D01*
X149491450Y-125847765D01*
X149493531Y-125847629D01*
X149506476Y-125847629D01*
X149508550Y-125847764D01*
X149856315Y-125500000D01*
X149856314Y-125499999D01*
X150143684Y-125499999D01*
X150491450Y-125847765D01*
X150493531Y-125847629D01*
X150506476Y-125847629D01*
X150508550Y-125847764D01*
X150856315Y-125500000D01*
X150856314Y-125499999D01*
X151143684Y-125499999D01*
X151491450Y-125847765D01*
X151493531Y-125847629D01*
X151506476Y-125847629D01*
X151508550Y-125847764D01*
X151856315Y-125500000D01*
X151508548Y-125152233D01*
X151506473Y-125152370D01*
X151493525Y-125152370D01*
X151491449Y-125152233D01*
X151143684Y-125499999D01*
X150856314Y-125499999D01*
X150508548Y-125152233D01*
X150506473Y-125152370D01*
X150493525Y-125152370D01*
X150491449Y-125152233D01*
X150143684Y-125499999D01*
X149856314Y-125499999D01*
X149508548Y-125152233D01*
X149506473Y-125152370D01*
X149493525Y-125152370D01*
X149491449Y-125152233D01*
X149143684Y-125499999D01*
X148856314Y-125499999D01*
X148508548Y-125152233D01*
X148506473Y-125152370D01*
X148493525Y-125152370D01*
X148491449Y-125152233D01*
X148143684Y-125499999D01*
X147856314Y-125499999D01*
X147508549Y-125152234D01*
X147474505Y-125196602D01*
X147413884Y-125342952D01*
X147393209Y-125499999D01*
X147393209Y-125500000D01*
X147100500Y-125500000D01*
X147100500Y-125008548D01*
X147652233Y-125008548D01*
X148000000Y-125356315D01*
X148347765Y-125008549D01*
X148347765Y-125008548D01*
X148652233Y-125008548D01*
X149000000Y-125356315D01*
X149347765Y-125008549D01*
X149347765Y-125008548D01*
X149652233Y-125008548D01*
X150000000Y-125356315D01*
X150347765Y-125008549D01*
X150347765Y-125008548D01*
X150652233Y-125008548D01*
X151000000Y-125356315D01*
X151347765Y-125008549D01*
X151347629Y-125006473D01*
X151347629Y-124993529D01*
X151347765Y-124991450D01*
X150999999Y-124643684D01*
X150652233Y-124991449D01*
X150652370Y-124993525D01*
X150652370Y-125006473D01*
X150652233Y-125008548D01*
X150347765Y-125008548D01*
X150347629Y-125006473D01*
X150347629Y-124993529D01*
X150347765Y-124991450D01*
X149999999Y-124643684D01*
X149652233Y-124991449D01*
X149652370Y-124993525D01*
X149652370Y-125006473D01*
X149652233Y-125008548D01*
X149347765Y-125008548D01*
X149347629Y-125006473D01*
X149347629Y-124993529D01*
X149347765Y-124991450D01*
X148999999Y-124643684D01*
X148652233Y-124991449D01*
X148652370Y-124993525D01*
X148652370Y-125006473D01*
X148652233Y-125008548D01*
X148347765Y-125008548D01*
X148347629Y-125006473D01*
X148347629Y-124993529D01*
X148347765Y-124991450D01*
X147999999Y-124643684D01*
X147652233Y-124991449D01*
X147652370Y-124993525D01*
X147652370Y-125006473D01*
X147652233Y-125008548D01*
X147100500Y-125008548D01*
X147100500Y-124865477D01*
X147119407Y-124807286D01*
X147129484Y-124795486D01*
X147266368Y-124658602D01*
X147320882Y-124630827D01*
X147381314Y-124640398D01*
X147424579Y-124683663D01*
X147427833Y-124690723D01*
X147474502Y-124803393D01*
X147474505Y-124803398D01*
X147508549Y-124847764D01*
X147508550Y-124847764D01*
X147856317Y-124499999D01*
X148143684Y-124499999D01*
X148491450Y-124847765D01*
X148493531Y-124847629D01*
X148506476Y-124847629D01*
X148508550Y-124847764D01*
X148856315Y-124500000D01*
X148856314Y-124499999D01*
X149143684Y-124499999D01*
X149491450Y-124847765D01*
X149493531Y-124847629D01*
X149506476Y-124847629D01*
X149508550Y-124847764D01*
X149856315Y-124500000D01*
X149856314Y-124499999D01*
X150143684Y-124499999D01*
X150491450Y-124847765D01*
X150493531Y-124847629D01*
X150506476Y-124847629D01*
X150508550Y-124847764D01*
X150856315Y-124500000D01*
X150856314Y-124499999D01*
X151143684Y-124499999D01*
X151491450Y-124847765D01*
X151493531Y-124847629D01*
X151506476Y-124847629D01*
X151508550Y-124847764D01*
X151856315Y-124500000D01*
X151508548Y-124152233D01*
X151506473Y-124152370D01*
X151493525Y-124152370D01*
X151491449Y-124152233D01*
X151143684Y-124499999D01*
X150856314Y-124499999D01*
X150508548Y-124152233D01*
X150506473Y-124152370D01*
X150493525Y-124152370D01*
X150491449Y-124152233D01*
X150143684Y-124499999D01*
X149856314Y-124499999D01*
X149508548Y-124152233D01*
X149506473Y-124152370D01*
X149493525Y-124152370D01*
X149491449Y-124152233D01*
X149143684Y-124499999D01*
X148856314Y-124499999D01*
X148508548Y-124152233D01*
X148506473Y-124152370D01*
X148493525Y-124152370D01*
X148491449Y-124152233D01*
X148143684Y-124499999D01*
X147856317Y-124499999D01*
X148000001Y-124356316D01*
X148347764Y-124008550D01*
X148347764Y-124008549D01*
X148347763Y-124008548D01*
X148652233Y-124008548D01*
X149000000Y-124356315D01*
X149347765Y-124008549D01*
X149347765Y-124008548D01*
X149652233Y-124008548D01*
X150000000Y-124356315D01*
X150347765Y-124008549D01*
X150347765Y-124008548D01*
X150652233Y-124008548D01*
X151000000Y-124356315D01*
X151347765Y-124008549D01*
X151347629Y-124006473D01*
X151347629Y-123993529D01*
X151347765Y-123991450D01*
X150999999Y-123643684D01*
X150652233Y-123991449D01*
X150652370Y-123993525D01*
X150652370Y-124006473D01*
X150652233Y-124008548D01*
X150347765Y-124008548D01*
X150347629Y-124006473D01*
X150347629Y-123993529D01*
X150347765Y-123991450D01*
X149999999Y-123643684D01*
X149652233Y-123991449D01*
X149652370Y-123993525D01*
X149652370Y-124006473D01*
X149652233Y-124008548D01*
X149347765Y-124008548D01*
X149347629Y-124006473D01*
X149347629Y-123993529D01*
X149347765Y-123991450D01*
X148999999Y-123643684D01*
X148652233Y-123991449D01*
X148652370Y-123993525D01*
X148652370Y-124006473D01*
X148652233Y-124008548D01*
X148347763Y-124008548D01*
X148303398Y-123974505D01*
X148303395Y-123974503D01*
X148190721Y-123927832D01*
X148144196Y-123888095D01*
X148129912Y-123828600D01*
X148153327Y-123772072D01*
X148158580Y-123766389D01*
X148187182Y-123737787D01*
X148193524Y-123731975D01*
X148234992Y-123697182D01*
X148248456Y-123673859D01*
X148293923Y-123632918D01*
X148354773Y-123626519D01*
X148407762Y-123657110D01*
X148425658Y-123685472D01*
X148474502Y-123803393D01*
X148474505Y-123803398D01*
X148508549Y-123847764D01*
X148508550Y-123847764D01*
X148856315Y-123500000D01*
X148856314Y-123499999D01*
X149143684Y-123499999D01*
X149491450Y-123847765D01*
X149493531Y-123847629D01*
X149506476Y-123847629D01*
X149508550Y-123847764D01*
X149856315Y-123500000D01*
X149856314Y-123499999D01*
X150143684Y-123499999D01*
X150491450Y-123847765D01*
X150493531Y-123847629D01*
X150506476Y-123847629D01*
X150508550Y-123847764D01*
X150856315Y-123500000D01*
X150856314Y-123499999D01*
X151143684Y-123499999D01*
X151491450Y-123847765D01*
X151493531Y-123847629D01*
X151506476Y-123847629D01*
X151508550Y-123847764D01*
X151856315Y-123500000D01*
X151508548Y-123152233D01*
X151506473Y-123152370D01*
X151493525Y-123152370D01*
X151491449Y-123152233D01*
X151143684Y-123499999D01*
X150856314Y-123499999D01*
X150508548Y-123152233D01*
X150506473Y-123152370D01*
X150493525Y-123152370D01*
X150491449Y-123152233D01*
X150143684Y-123499999D01*
X149856314Y-123499999D01*
X149508548Y-123152233D01*
X149506473Y-123152370D01*
X149493525Y-123152370D01*
X149491449Y-123152233D01*
X149143684Y-123499999D01*
X148856314Y-123499999D01*
X148508549Y-123152234D01*
X148474505Y-123196602D01*
X148425658Y-123314527D01*
X148385921Y-123361053D01*
X148326426Y-123375336D01*
X148269898Y-123351921D01*
X148248457Y-123326140D01*
X148234993Y-123302819D01*
X148234992Y-123302818D01*
X148153380Y-123234338D01*
X148153377Y-123234337D01*
X148153376Y-123234336D01*
X148053270Y-123197900D01*
X148052839Y-123197824D01*
X148043431Y-123197171D01*
X148029970Y-123197794D01*
X148025397Y-123197900D01*
X147946732Y-123197900D01*
X147946731Y-123197900D01*
X147946198Y-123197994D01*
X147936525Y-123200881D01*
X147930010Y-123202413D01*
X147912760Y-123210030D01*
X147906636Y-123212493D01*
X147874806Y-123224079D01*
X147846620Y-123234338D01*
X147846619Y-123234338D01*
X147846616Y-123234340D01*
X147845074Y-123235635D01*
X147834526Y-123242203D01*
X147834804Y-123242608D01*
X147827235Y-123247793D01*
X147812821Y-123262205D01*
X147806462Y-123268032D01*
X147765007Y-123302818D01*
X147765006Y-123302819D01*
X147761681Y-123308578D01*
X147745954Y-123329073D01*
X146633590Y-124441437D01*
X146622361Y-124449550D01*
X146623090Y-124450515D01*
X146615771Y-124456041D01*
X146584141Y-124490737D01*
X146580989Y-124494038D01*
X146567830Y-124507198D01*
X146567818Y-124507212D01*
X146567749Y-124507314D01*
X146559255Y-124518035D01*
X146540083Y-124539066D01*
X146540083Y-124539067D01*
X146536529Y-124548240D01*
X146525896Y-124568412D01*
X146520346Y-124576515D01*
X146520341Y-124576524D01*
X146513830Y-124604206D01*
X146509777Y-124617296D01*
X146499501Y-124643823D01*
X146499500Y-124643829D01*
X146499500Y-124653651D01*
X146496870Y-124676318D01*
X146495143Y-124683663D01*
X146494621Y-124685881D01*
X146497222Y-124704525D01*
X146498551Y-124714053D01*
X146499500Y-124727730D01*
X146499500Y-126434835D01*
X146497280Y-126448513D01*
X146498494Y-126448683D01*
X146497226Y-126457766D01*
X146499394Y-126504641D01*
X146499500Y-126509213D01*
X146499500Y-126527844D01*
X146499522Y-126527966D01*
X146501101Y-126541577D01*
X146502414Y-126569987D01*
X146502415Y-126569994D01*
X146506384Y-126578982D01*
X146513132Y-126600772D01*
X146514939Y-126610433D01*
X146523140Y-126623678D01*
X146529912Y-126634617D01*
X146536301Y-126646738D01*
X146541460Y-126658420D01*
X146547794Y-126672765D01*
X146554745Y-126679716D01*
X146568907Y-126697596D01*
X146574081Y-126705952D01*
X146596781Y-126723094D01*
X146607117Y-126732088D01*
X146941436Y-127066407D01*
X146949537Y-127077647D01*
X146950516Y-127076909D01*
X146956044Y-127084230D01*
X146990724Y-127115845D01*
X146994032Y-127119003D01*
X147007203Y-127132174D01*
X147007295Y-127132237D01*
X147018042Y-127140750D01*
X147039064Y-127159914D01*
X147039065Y-127159914D01*
X147039067Y-127159916D01*
X147048230Y-127163466D01*
X147068416Y-127174105D01*
X147076519Y-127179656D01*
X147104215Y-127186170D01*
X147117293Y-127190220D01*
X147143827Y-127200500D01*
X147153652Y-127200500D01*
X147176316Y-127203129D01*
X147185881Y-127205379D01*
X147213645Y-127201506D01*
X147214054Y-127201449D01*
X147227731Y-127200500D01*
X153934836Y-127200500D01*
X153948511Y-127202732D01*
X153948683Y-127201506D01*
X153957764Y-127202772D01*
X153957765Y-127202773D01*
X153957765Y-127202772D01*
X153957766Y-127202773D01*
X154004642Y-127200606D01*
X154009214Y-127200500D01*
X154027842Y-127200500D01*
X154027844Y-127200500D01*
X154027948Y-127200480D01*
X154041571Y-127198898D01*
X154069992Y-127197585D01*
X154078976Y-127193617D01*
X154100777Y-127186865D01*
X154110433Y-127185061D01*
X154134618Y-127170086D01*
X154146728Y-127163701D01*
X154172765Y-127152206D01*
X154179709Y-127145260D01*
X154197601Y-127131089D01*
X154205952Y-127125919D01*
X154223089Y-127103223D01*
X154232082Y-127092887D01*
X154466405Y-126858564D01*
X154477664Y-126850493D01*
X154476905Y-126849487D01*
X154484221Y-126843961D01*
X154484228Y-126843958D01*
X154515877Y-126809239D01*
X154518995Y-126805974D01*
X154532174Y-126792797D01*
X154532238Y-126792702D01*
X154540753Y-126781953D01*
X154559916Y-126760933D01*
X154563465Y-126751770D01*
X154574106Y-126731582D01*
X154579656Y-126723481D01*
X154586169Y-126695785D01*
X154590220Y-126682706D01*
X154600500Y-126656173D01*
X154600500Y-126646348D01*
X154603129Y-126623683D01*
X154605379Y-126614119D01*
X154601449Y-126585944D01*
X154600500Y-126572268D01*
X154600500Y-125865478D01*
X154619407Y-125807287D01*
X154629496Y-125795475D01*
X154795057Y-125629914D01*
X154965731Y-125459239D01*
X155020246Y-125431463D01*
X155080678Y-125441034D01*
X155123943Y-125484299D01*
X155134027Y-125541048D01*
X155124500Y-125620377D01*
X155124500Y-126379620D01*
X155134883Y-126466079D01*
X155180042Y-126580593D01*
X155189138Y-126603658D01*
X155278500Y-126721500D01*
X155278504Y-126721503D01*
X155278506Y-126721505D01*
X155307903Y-126743797D01*
X155342846Y-126794023D01*
X155341593Y-126855195D01*
X155304624Y-126903948D01*
X155292073Y-126911372D01*
X155208789Y-126952677D01*
X155208784Y-126952680D01*
X155066812Y-127066800D01*
X155066800Y-127066812D01*
X154952680Y-127208784D01*
X154952675Y-127208792D01*
X154871741Y-127371982D01*
X154871738Y-127371988D01*
X154827774Y-127548769D01*
X154827773Y-127548774D01*
X154825000Y-127589661D01*
X154825000Y-127749999D01*
X154825001Y-127750000D01*
X155684314Y-127750000D01*
X155672359Y-127761955D01*
X155614835Y-127874852D01*
X155595014Y-128000000D01*
X155614835Y-128125148D01*
X155672359Y-128238045D01*
X155684314Y-128250000D01*
X154825002Y-128250000D01*
X154825001Y-128250001D01*
X154825001Y-128410340D01*
X154827774Y-128451227D01*
X154871738Y-128628012D01*
X154871739Y-128628014D01*
X154885874Y-128656514D01*
X154894790Y-128717046D01*
X154866423Y-128771258D01*
X154811608Y-128798443D01*
X154797182Y-128799500D01*
X146202818Y-128799500D01*
X146144627Y-128780593D01*
X146108663Y-128731093D01*
X146108663Y-128669907D01*
X146114126Y-128656514D01*
X146128260Y-128628014D01*
X146128261Y-128628011D01*
X146172225Y-128451230D01*
X146172226Y-128451225D01*
X146174999Y-128410338D01*
X146175000Y-128410319D01*
X146175000Y-128250001D01*
X146174999Y-128250000D01*
X145315686Y-128250000D01*
X145327641Y-128238045D01*
X145385165Y-128125148D01*
X145404986Y-128000000D01*
X145385165Y-127874852D01*
X145327641Y-127761955D01*
X145315686Y-127750000D01*
X146174998Y-127750000D01*
X146174999Y-127749999D01*
X146174999Y-127589684D01*
X146174998Y-127589659D01*
X146172225Y-127548772D01*
X146128261Y-127371987D01*
X146128258Y-127371982D01*
X146047324Y-127208792D01*
X146047319Y-127208784D01*
X145933199Y-127066812D01*
X145933187Y-127066800D01*
X145791215Y-126952680D01*
X145791207Y-126952675D01*
X145707927Y-126911372D01*
X145664196Y-126868579D01*
X145653971Y-126808254D01*
X145681156Y-126753440D01*
X145692089Y-126743802D01*
X145721500Y-126721500D01*
X145810862Y-126603658D01*
X145865117Y-126466077D01*
X145875500Y-126379618D01*
X145875500Y-125620382D01*
X145865117Y-125533923D01*
X145862263Y-125526687D01*
X145831228Y-125447987D01*
X145810862Y-125396342D01*
X145721500Y-125278500D01*
X145603658Y-125189138D01*
X145578247Y-125179117D01*
X145466079Y-125134883D01*
X145379620Y-125124500D01*
X145379618Y-125124500D01*
X145299500Y-125124500D01*
X145241309Y-125105593D01*
X145205345Y-125056093D01*
X145200500Y-125025500D01*
X145200500Y-124974500D01*
X145219407Y-124916309D01*
X145268907Y-124880345D01*
X145299500Y-124875500D01*
X145379616Y-124875500D01*
X145379618Y-124875500D01*
X145466077Y-124865117D01*
X145603658Y-124810862D01*
X145721500Y-124721500D01*
X145810862Y-124603658D01*
X145865117Y-124466077D01*
X145875500Y-124379618D01*
X145875500Y-123620382D01*
X145873635Y-123604853D01*
X145885469Y-123544823D01*
X145901926Y-123523044D01*
X146416423Y-123008548D01*
X148652233Y-123008548D01*
X149000000Y-123356315D01*
X149347765Y-123008549D01*
X149347765Y-123008548D01*
X149652233Y-123008548D01*
X150000000Y-123356315D01*
X150347765Y-123008549D01*
X150347765Y-123008548D01*
X150652233Y-123008548D01*
X151000000Y-123356315D01*
X151347765Y-123008549D01*
X151347629Y-123006473D01*
X151347629Y-122993529D01*
X151347765Y-122991450D01*
X150999999Y-122643684D01*
X150652233Y-122991449D01*
X150652370Y-122993525D01*
X150652370Y-123006473D01*
X150652233Y-123008548D01*
X150347765Y-123008548D01*
X150347629Y-123006473D01*
X150347629Y-122993529D01*
X150347765Y-122991450D01*
X149999999Y-122643684D01*
X149652233Y-122991449D01*
X149652370Y-122993525D01*
X149652370Y-123006473D01*
X149652233Y-123008548D01*
X149347765Y-123008548D01*
X149347629Y-123006473D01*
X149347629Y-122993529D01*
X149347765Y-122991450D01*
X148999999Y-122643684D01*
X148652233Y-122991449D01*
X148652370Y-122993525D01*
X148652370Y-123006473D01*
X148652233Y-123008548D01*
X146416423Y-123008548D01*
X146595476Y-122829496D01*
X146649992Y-122801719D01*
X146665479Y-122800500D01*
X146743827Y-122800500D01*
X146843827Y-122800500D01*
X147043827Y-122800500D01*
X147053652Y-122800500D01*
X147076316Y-122803129D01*
X147085881Y-122805379D01*
X147113645Y-122801506D01*
X147114054Y-122801449D01*
X147127731Y-122800500D01*
X147928997Y-122800500D01*
X147946188Y-122802004D01*
X147946732Y-122802100D01*
X148053267Y-122802100D01*
X148053268Y-122802100D01*
X148081499Y-122791823D01*
X148097158Y-122787542D01*
X148110433Y-122785061D01*
X148116523Y-122781290D01*
X148134769Y-122772435D01*
X148153380Y-122765662D01*
X148180623Y-122742802D01*
X148192137Y-122734472D01*
X148205952Y-122725919D01*
X148208190Y-122722954D01*
X148223560Y-122706774D01*
X148234992Y-122697182D01*
X148248457Y-122673857D01*
X148293922Y-122632918D01*
X148354772Y-122626519D01*
X148407761Y-122657110D01*
X148425657Y-122685471D01*
X148474503Y-122803395D01*
X148474505Y-122803398D01*
X148508549Y-122847764D01*
X148508550Y-122847764D01*
X148856315Y-122500000D01*
X148856314Y-122499999D01*
X149143684Y-122499999D01*
X149491450Y-122847765D01*
X149493531Y-122847629D01*
X149506476Y-122847629D01*
X149508550Y-122847764D01*
X149856315Y-122500000D01*
X149856314Y-122499999D01*
X150143684Y-122499999D01*
X150491450Y-122847765D01*
X150493531Y-122847629D01*
X150506476Y-122847629D01*
X150508550Y-122847764D01*
X150856315Y-122500000D01*
X150856314Y-122499999D01*
X151143684Y-122499999D01*
X151491450Y-122847765D01*
X151493531Y-122847629D01*
X151506476Y-122847629D01*
X151508550Y-122847764D01*
X151856315Y-122500000D01*
X151508548Y-122152233D01*
X151506473Y-122152370D01*
X151493525Y-122152370D01*
X151491449Y-122152233D01*
X151143684Y-122499999D01*
X150856314Y-122499999D01*
X150508548Y-122152233D01*
X150506473Y-122152370D01*
X150493525Y-122152370D01*
X150491449Y-122152233D01*
X150143684Y-122499999D01*
X149856314Y-122499999D01*
X149508548Y-122152233D01*
X149506473Y-122152370D01*
X149493525Y-122152370D01*
X149491449Y-122152233D01*
X149143684Y-122499999D01*
X148856314Y-122499999D01*
X148508549Y-122152234D01*
X148474505Y-122196602D01*
X148426055Y-122313570D01*
X148386318Y-122360096D01*
X148326823Y-122374379D01*
X148270295Y-122350964D01*
X148245969Y-122319810D01*
X148243959Y-122315773D01*
X148241321Y-122312280D01*
X148235274Y-122303153D01*
X148234992Y-122302817D01*
X148170641Y-122248820D01*
X148167586Y-122246148D01*
X148158761Y-122238104D01*
X148128492Y-122184931D01*
X148135258Y-122124121D01*
X148176475Y-122078901D01*
X148187567Y-122073474D01*
X148303391Y-122025498D01*
X148303395Y-122025496D01*
X148325481Y-122008548D01*
X148652233Y-122008548D01*
X149000000Y-122356315D01*
X149347765Y-122008549D01*
X149347765Y-122008548D01*
X149652233Y-122008548D01*
X150000000Y-122356315D01*
X150347765Y-122008549D01*
X150347765Y-122008548D01*
X150652233Y-122008548D01*
X151000000Y-122356315D01*
X151347765Y-122008549D01*
X151347629Y-122006473D01*
X151347629Y-121993529D01*
X151347765Y-121991450D01*
X150999999Y-121643684D01*
X150652233Y-121991449D01*
X150652370Y-121993525D01*
X150652370Y-122006473D01*
X150652233Y-122008548D01*
X150347765Y-122008548D01*
X150347629Y-122006473D01*
X150347629Y-121993529D01*
X150347765Y-121991450D01*
X149999999Y-121643684D01*
X149652233Y-121991449D01*
X149652370Y-121993525D01*
X149652370Y-122006473D01*
X149652233Y-122008548D01*
X149347765Y-122008548D01*
X149347629Y-122006473D01*
X149347629Y-121993529D01*
X149347765Y-121991450D01*
X148999999Y-121643684D01*
X148652233Y-121991449D01*
X148652370Y-121993525D01*
X148652370Y-122006473D01*
X148652233Y-122008548D01*
X148325481Y-122008548D01*
X148347764Y-121991449D01*
X147999999Y-121643684D01*
X147652233Y-121991448D01*
X147652233Y-121991449D01*
X147691994Y-122021959D01*
X147726649Y-122072383D01*
X147725047Y-122133548D01*
X147687799Y-122182089D01*
X147631726Y-122199500D01*
X147265479Y-122199500D01*
X147207288Y-122180593D01*
X147195475Y-122170504D01*
X146858565Y-121833594D01*
X146850479Y-121822344D01*
X146849487Y-121823094D01*
X146843958Y-121815772D01*
X146809272Y-121784151D01*
X146805968Y-121780996D01*
X146792800Y-121767828D01*
X146792796Y-121767825D01*
X146792693Y-121767755D01*
X146781962Y-121759255D01*
X146760933Y-121740084D01*
X146751762Y-121736531D01*
X146731586Y-121725895D01*
X146723484Y-121720345D01*
X146723479Y-121720343D01*
X146695797Y-121713832D01*
X146682703Y-121709777D01*
X146656177Y-121699500D01*
X146656173Y-121699500D01*
X146646348Y-121699500D01*
X146623683Y-121696870D01*
X146614119Y-121694621D01*
X146614118Y-121694621D01*
X146585946Y-121698551D01*
X146572269Y-121699500D01*
X146246348Y-121699500D01*
X146223683Y-121696870D01*
X146214119Y-121694621D01*
X146214118Y-121694621D01*
X146185946Y-121698551D01*
X146172269Y-121699500D01*
X145972824Y-121699500D01*
X145914633Y-121680593D01*
X145878669Y-121631093D01*
X145874530Y-121612305D01*
X145873053Y-121600003D01*
X145865117Y-121533923D01*
X145851739Y-121500000D01*
X147393209Y-121500000D01*
X147413884Y-121657045D01*
X147413886Y-121657053D01*
X147474502Y-121803393D01*
X147474505Y-121803398D01*
X147508549Y-121847764D01*
X147508550Y-121847764D01*
X147856315Y-121500000D01*
X147856314Y-121499999D01*
X148143684Y-121499999D01*
X148491450Y-121847765D01*
X148493531Y-121847629D01*
X148506476Y-121847629D01*
X148508550Y-121847764D01*
X148856315Y-121500000D01*
X148856314Y-121499999D01*
X149143684Y-121499999D01*
X149491450Y-121847765D01*
X149493531Y-121847629D01*
X149506476Y-121847629D01*
X149508550Y-121847764D01*
X149856315Y-121500000D01*
X149856314Y-121499999D01*
X150143684Y-121499999D01*
X150491450Y-121847765D01*
X150493531Y-121847629D01*
X150506476Y-121847629D01*
X150508550Y-121847764D01*
X150856315Y-121500000D01*
X150856314Y-121499999D01*
X151143684Y-121499999D01*
X151491450Y-121847765D01*
X151493531Y-121847629D01*
X151506476Y-121847629D01*
X151508550Y-121847764D01*
X151856315Y-121500000D01*
X151508548Y-121152233D01*
X151506473Y-121152370D01*
X151493525Y-121152370D01*
X151491449Y-121152233D01*
X151143684Y-121499999D01*
X150856314Y-121499999D01*
X150508548Y-121152233D01*
X150506473Y-121152370D01*
X150493525Y-121152370D01*
X150491449Y-121152233D01*
X150143684Y-121499999D01*
X149856314Y-121499999D01*
X149508548Y-121152233D01*
X149506473Y-121152370D01*
X149493525Y-121152370D01*
X149491449Y-121152233D01*
X149143684Y-121499999D01*
X148856314Y-121499999D01*
X148508548Y-121152233D01*
X148506473Y-121152370D01*
X148493525Y-121152370D01*
X148491449Y-121152233D01*
X148143684Y-121499999D01*
X147856314Y-121499999D01*
X147508549Y-121152234D01*
X147474505Y-121196602D01*
X147413884Y-121342952D01*
X147393209Y-121499999D01*
X147393209Y-121500000D01*
X145851739Y-121500000D01*
X145810862Y-121396342D01*
X145721500Y-121278500D01*
X145603658Y-121189138D01*
X145466079Y-121134883D01*
X145379620Y-121124500D01*
X145379618Y-121124500D01*
X145299500Y-121124500D01*
X145241309Y-121105593D01*
X145205345Y-121056093D01*
X145200500Y-121025500D01*
X145200500Y-120974500D01*
X145219407Y-120916309D01*
X145268907Y-120880345D01*
X145299500Y-120875500D01*
X145379616Y-120875500D01*
X145379618Y-120875500D01*
X145466077Y-120865117D01*
X145603658Y-120810862D01*
X145721500Y-120721500D01*
X145810862Y-120603658D01*
X145865117Y-120466077D01*
X145875500Y-120379618D01*
X145875500Y-119620382D01*
X145873635Y-119604853D01*
X145885469Y-119544823D01*
X145901926Y-119523044D01*
X146495476Y-118929496D01*
X146549992Y-118901719D01*
X146565479Y-118900500D01*
X147234521Y-118900500D01*
X147292712Y-118919407D01*
X147304525Y-118929496D01*
X147670504Y-119295475D01*
X147698281Y-119349992D01*
X147699500Y-119365479D01*
X147699500Y-120455836D01*
X147697996Y-120473027D01*
X147693240Y-120499999D01*
X147693240Y-120500000D01*
X147711739Y-120604917D01*
X147765008Y-120697183D01*
X147765257Y-120697480D01*
X147774052Y-120705920D01*
X147774082Y-120705953D01*
X147785825Y-120714821D01*
X147789800Y-120717986D01*
X147838693Y-120759011D01*
X147871117Y-120810898D01*
X147866850Y-120871935D01*
X147827521Y-120918806D01*
X147812944Y-120926314D01*
X147696602Y-120974505D01*
X147652234Y-121008549D01*
X148000000Y-121356315D01*
X148347764Y-121008550D01*
X148347764Y-121008549D01*
X148347763Y-121008548D01*
X148652233Y-121008548D01*
X149000000Y-121356315D01*
X149347765Y-121008549D01*
X149347765Y-121008548D01*
X149652233Y-121008548D01*
X150000000Y-121356315D01*
X150347765Y-121008549D01*
X150347765Y-121008548D01*
X150652233Y-121008548D01*
X151000000Y-121356315D01*
X151347765Y-121008549D01*
X151347629Y-121006473D01*
X151347629Y-120993529D01*
X151347765Y-120991450D01*
X150999999Y-120643684D01*
X150652233Y-120991449D01*
X150652370Y-120993525D01*
X150652370Y-121006473D01*
X150652233Y-121008548D01*
X150347765Y-121008548D01*
X150347629Y-121006473D01*
X150347629Y-120993529D01*
X150347765Y-120991450D01*
X149999999Y-120643684D01*
X149652233Y-120991449D01*
X149652370Y-120993525D01*
X149652370Y-121006473D01*
X149652233Y-121008548D01*
X149347765Y-121008548D01*
X149347629Y-121006473D01*
X149347629Y-120993529D01*
X149347765Y-120991450D01*
X148999999Y-120643684D01*
X148652233Y-120991449D01*
X148652370Y-120993525D01*
X148652370Y-121006473D01*
X148652233Y-121008548D01*
X148347763Y-121008548D01*
X148303398Y-120974505D01*
X148303396Y-120974503D01*
X148187055Y-120926314D01*
X148140530Y-120886577D01*
X148126246Y-120827083D01*
X148149661Y-120770555D01*
X148161278Y-120759035D01*
X148162950Y-120757631D01*
X148182493Y-120744821D01*
X148184228Y-120743958D01*
X148195984Y-120731060D01*
X148205501Y-120721925D01*
X148234992Y-120697182D01*
X148243660Y-120682166D01*
X148256231Y-120664974D01*
X148259916Y-120660933D01*
X148259917Y-120660929D01*
X148261899Y-120658756D01*
X148315075Y-120628490D01*
X148375884Y-120635261D01*
X148421101Y-120676481D01*
X148426525Y-120687566D01*
X148474503Y-120803395D01*
X148474505Y-120803398D01*
X148508549Y-120847764D01*
X148508550Y-120847764D01*
X148856315Y-120500000D01*
X148856314Y-120499999D01*
X149143684Y-120499999D01*
X149491450Y-120847765D01*
X149493531Y-120847629D01*
X149506476Y-120847629D01*
X149508550Y-120847764D01*
X149856315Y-120500000D01*
X149856314Y-120499999D01*
X150143684Y-120499999D01*
X150491450Y-120847765D01*
X150493531Y-120847629D01*
X150506476Y-120847629D01*
X150508550Y-120847764D01*
X150856315Y-120500000D01*
X150856314Y-120499999D01*
X151143684Y-120499999D01*
X151491450Y-120847765D01*
X151493531Y-120847629D01*
X151506476Y-120847629D01*
X151508550Y-120847764D01*
X151856315Y-120500000D01*
X151508548Y-120152233D01*
X151506473Y-120152370D01*
X151493525Y-120152370D01*
X151491449Y-120152233D01*
X151143684Y-120499999D01*
X150856314Y-120499999D01*
X150508548Y-120152233D01*
X150506473Y-120152370D01*
X150493525Y-120152370D01*
X150491449Y-120152233D01*
X150143684Y-120499999D01*
X149856314Y-120499999D01*
X149508548Y-120152233D01*
X149506473Y-120152370D01*
X149493525Y-120152370D01*
X149491449Y-120152233D01*
X149143684Y-120499999D01*
X148856314Y-120499999D01*
X148508549Y-120152234D01*
X148478042Y-120191992D01*
X148427618Y-120226648D01*
X148366453Y-120225047D01*
X148317912Y-120187799D01*
X148300500Y-120131725D01*
X148300500Y-120008549D01*
X148652234Y-120008549D01*
X149000000Y-120356315D01*
X149347764Y-120008550D01*
X149347764Y-120008549D01*
X149652234Y-120008549D01*
X150000000Y-120356315D01*
X150347764Y-120008550D01*
X150347764Y-120008549D01*
X150652234Y-120008549D01*
X151000000Y-120356315D01*
X151347764Y-120008550D01*
X151347764Y-120008549D01*
X151303398Y-119974505D01*
X151303393Y-119974502D01*
X151157053Y-119913886D01*
X151157045Y-119913884D01*
X151000001Y-119893209D01*
X150999999Y-119893209D01*
X150842952Y-119913884D01*
X150696602Y-119974505D01*
X150652234Y-120008549D01*
X150347764Y-120008549D01*
X150303398Y-119974505D01*
X150303393Y-119974502D01*
X150157053Y-119913886D01*
X150157045Y-119913884D01*
X150000001Y-119893209D01*
X149999999Y-119893209D01*
X149842952Y-119913884D01*
X149696602Y-119974505D01*
X149652234Y-120008549D01*
X149347764Y-120008549D01*
X149303398Y-119974505D01*
X149303393Y-119974502D01*
X149157053Y-119913886D01*
X149157045Y-119913884D01*
X149000001Y-119893209D01*
X148999999Y-119893209D01*
X148842952Y-119913884D01*
X148696602Y-119974505D01*
X148652234Y-120008549D01*
X148300500Y-120008549D01*
X148300500Y-119265168D01*
X148302731Y-119251495D01*
X148301505Y-119251324D01*
X148302773Y-119242232D01*
X148300606Y-119195357D01*
X148300500Y-119190785D01*
X148300500Y-119172160D01*
X148300500Y-119172156D01*
X148300478Y-119172042D01*
X148298898Y-119158430D01*
X148297585Y-119130008D01*
X148293615Y-119121017D01*
X148286864Y-119099215D01*
X148285061Y-119089568D01*
X148285061Y-119089567D01*
X148270085Y-119065379D01*
X148263698Y-119053262D01*
X148252206Y-119027235D01*
X148252205Y-119027233D01*
X148245256Y-119020284D01*
X148231090Y-119002399D01*
X148225919Y-118994048D01*
X148203221Y-118976907D01*
X148192879Y-118967908D01*
X147658565Y-118433594D01*
X147650479Y-118422344D01*
X147649487Y-118423094D01*
X147643959Y-118415774D01*
X147643958Y-118415772D01*
X147643955Y-118415769D01*
X147609274Y-118384152D01*
X147605966Y-118380995D01*
X147058565Y-117833594D01*
X147050479Y-117822344D01*
X147049487Y-117823094D01*
X147043958Y-117815772D01*
X147009272Y-117784151D01*
X147005968Y-117780996D01*
X146992800Y-117767828D01*
X146992796Y-117767825D01*
X146992693Y-117767755D01*
X146981962Y-117759255D01*
X146960933Y-117740084D01*
X146951762Y-117736531D01*
X146931586Y-117725895D01*
X146923484Y-117720345D01*
X146923479Y-117720343D01*
X146895797Y-117713832D01*
X146882703Y-117709777D01*
X146856177Y-117699500D01*
X146856173Y-117699500D01*
X146846348Y-117699500D01*
X146823683Y-117696870D01*
X146814119Y-117694621D01*
X146814118Y-117694621D01*
X146785946Y-117698551D01*
X146772269Y-117699500D01*
X146146348Y-117699500D01*
X146123683Y-117696870D01*
X146114119Y-117694621D01*
X146114118Y-117694621D01*
X146085946Y-117698551D01*
X146072269Y-117699500D01*
X145972824Y-117699500D01*
X145914633Y-117680593D01*
X145878669Y-117631093D01*
X145874530Y-117612305D01*
X145865117Y-117533923D01*
X145810862Y-117396342D01*
X145782787Y-117359319D01*
X145762692Y-117301528D01*
X145780403Y-117242962D01*
X145829156Y-117205992D01*
X145861671Y-117200500D01*
X155138329Y-117200500D01*
X155196520Y-117219407D01*
G37*
%TD.AperFunction*%
%TA.AperFunction,Conductor*%
G36*
X153792712Y-119319407D02*
G01*
X153804525Y-119329496D01*
X154641437Y-120166409D01*
X154649537Y-120177648D01*
X154650516Y-120176909D01*
X154656044Y-120184230D01*
X154690714Y-120215836D01*
X154694019Y-120218992D01*
X154701676Y-120226648D01*
X154707203Y-120232175D01*
X154707300Y-120232241D01*
X154718049Y-120240756D01*
X154733803Y-120255117D01*
X154739067Y-120259916D01*
X154739070Y-120259917D01*
X154748226Y-120263464D01*
X154768416Y-120274105D01*
X154776520Y-120279657D01*
X154804212Y-120286169D01*
X154817299Y-120290222D01*
X154843827Y-120300500D01*
X154853653Y-120300500D01*
X154876317Y-120303129D01*
X154885882Y-120305379D01*
X154914056Y-120301448D01*
X154927732Y-120300500D01*
X155027176Y-120300500D01*
X155085367Y-120319407D01*
X155121331Y-120368907D01*
X155125470Y-120387695D01*
X155134883Y-120466079D01*
X155177222Y-120573441D01*
X155189138Y-120603658D01*
X155278500Y-120721500D01*
X155396342Y-120810862D01*
X155533923Y-120865117D01*
X155620382Y-120875500D01*
X155700500Y-120875500D01*
X155758691Y-120894407D01*
X155794655Y-120943907D01*
X155799500Y-120974500D01*
X155799500Y-121025500D01*
X155780593Y-121083691D01*
X155731093Y-121119655D01*
X155700500Y-121124500D01*
X155620379Y-121124500D01*
X155533920Y-121134883D01*
X155396341Y-121189138D01*
X155278503Y-121278497D01*
X155278497Y-121278503D01*
X155189138Y-121396341D01*
X155134883Y-121533920D01*
X155124500Y-121620379D01*
X155124500Y-122379627D01*
X155126364Y-122395147D01*
X155114528Y-122455177D01*
X155098074Y-122476953D01*
X155054218Y-122520809D01*
X154999701Y-122548586D01*
X154939269Y-122539015D01*
X154896004Y-122495750D01*
X154886221Y-122464890D01*
X154885165Y-122457543D01*
X154825377Y-122326627D01*
X154731128Y-122217857D01*
X154731127Y-122217856D01*
X154731126Y-122217855D01*
X154677331Y-122183284D01*
X154638600Y-122135919D01*
X154635106Y-122074833D01*
X154668185Y-122023360D01*
X154677331Y-122016716D01*
X154690041Y-122008548D01*
X154731128Y-121982143D01*
X154825377Y-121873373D01*
X154885165Y-121742457D01*
X154901177Y-121631093D01*
X154905647Y-121600002D01*
X154905647Y-121599997D01*
X154885165Y-121457543D01*
X154884028Y-121455054D01*
X154825377Y-121326627D01*
X154731128Y-121217857D01*
X154731127Y-121217856D01*
X154731126Y-121217855D01*
X154610057Y-121140049D01*
X154610054Y-121140047D01*
X154610053Y-121140047D01*
X154610050Y-121140046D01*
X154471964Y-121099500D01*
X154471961Y-121099500D01*
X154328039Y-121099500D01*
X154328035Y-121099500D01*
X154189949Y-121140046D01*
X154189942Y-121140049D01*
X154068873Y-121217855D01*
X153974622Y-121326628D01*
X153914834Y-121457543D01*
X153894353Y-121599997D01*
X153894353Y-121600003D01*
X153897441Y-121621482D01*
X153887007Y-121681771D01*
X153869453Y-121705573D01*
X153703384Y-121871643D01*
X153648867Y-121899421D01*
X153588435Y-121889850D01*
X153545170Y-121846585D01*
X153535599Y-121786153D01*
X153541916Y-121763754D01*
X153586113Y-121657050D01*
X153586115Y-121657045D01*
X153606791Y-121500000D01*
X153606791Y-121499999D01*
X153586115Y-121342951D01*
X153525496Y-121196606D01*
X153491448Y-121152234D01*
X153070004Y-121573680D01*
X153015487Y-121601457D01*
X152955055Y-121591886D01*
X152929996Y-121573680D01*
X152926319Y-121570003D01*
X152898542Y-121515486D01*
X152908113Y-121455054D01*
X152926319Y-121429995D01*
X153347765Y-121008548D01*
X153347629Y-121006473D01*
X153347629Y-120993529D01*
X153347765Y-120991450D01*
X152926319Y-120570004D01*
X152898542Y-120515487D01*
X152900995Y-120499999D01*
X153143684Y-120499999D01*
X153491449Y-120847764D01*
X153525496Y-120803395D01*
X153525498Y-120803391D01*
X153586113Y-120657053D01*
X153586115Y-120657045D01*
X153606791Y-120500000D01*
X153606791Y-120499999D01*
X153586115Y-120342951D01*
X153525496Y-120196606D01*
X153491448Y-120152234D01*
X153143684Y-120499999D01*
X152900995Y-120499999D01*
X152908113Y-120455055D01*
X152926320Y-120429996D01*
X153000001Y-120356316D01*
X153347764Y-120008550D01*
X153347764Y-120008549D01*
X153303398Y-119974505D01*
X153303393Y-119974502D01*
X153157053Y-119913886D01*
X153157045Y-119913884D01*
X153000001Y-119893209D01*
X152999998Y-119893209D01*
X152912421Y-119904738D01*
X152852261Y-119893588D01*
X152810144Y-119849205D01*
X152800500Y-119806585D01*
X152800500Y-119565479D01*
X152819407Y-119507288D01*
X152829496Y-119495475D01*
X152995475Y-119329496D01*
X153049992Y-119301719D01*
X153065479Y-119300500D01*
X153734521Y-119300500D01*
X153792712Y-119319407D01*
G37*
%TD.AperFunction*%
%TD*%
%TA.AperFunction,Conductor*%
%TO.N,An*%
G36*
X146614318Y-122024685D02*
G01*
X146640756Y-122047820D01*
X146640828Y-122047754D01*
X146641446Y-122048424D01*
X146641781Y-122048717D01*
X146642544Y-122049615D01*
X146642549Y-122049620D01*
X146876247Y-122283319D01*
X146909732Y-122344642D01*
X146904748Y-122414334D01*
X146862876Y-122470267D01*
X146797412Y-122494684D01*
X146788566Y-122495000D01*
X146665468Y-122495000D01*
X146641518Y-122495940D01*
X146633727Y-122496554D01*
X146565350Y-122482189D01*
X146515594Y-122433137D01*
X146500000Y-122372936D01*
X146500000Y-122300000D01*
X146416681Y-122216681D01*
X146383196Y-122155358D01*
X146388180Y-122085666D01*
X146430052Y-122029733D01*
X146495516Y-122005316D01*
X146504362Y-122005000D01*
X146547279Y-122005000D01*
X146614318Y-122024685D01*
G37*
%TD.AperFunction*%
%TD*%
%TA.AperFunction,Conductor*%
%TO.N,Cat2*%
G36*
X153963525Y-118004933D02*
G01*
X153963981Y-118004903D01*
X153965170Y-118005000D01*
X153965182Y-118005000D01*
X154088566Y-118005000D01*
X154155605Y-118024685D01*
X154201360Y-118077489D01*
X154211304Y-118146647D01*
X154182279Y-118210203D01*
X154176247Y-118216681D01*
X154013479Y-118379448D01*
X153997194Y-118397066D01*
X153987092Y-118408894D01*
X153982573Y-118414310D01*
X153982536Y-118414366D01*
X153967685Y-118432313D01*
X153900000Y-118500000D01*
X153900000Y-118624151D01*
X153898473Y-118643551D01*
X153895000Y-118665476D01*
X153895000Y-118834531D01*
X153895941Y-118858486D01*
X153896517Y-118865807D01*
X153882151Y-118934184D01*
X153833098Y-118983939D01*
X153764932Y-118999276D01*
X153753503Y-118998006D01*
X153734522Y-118995000D01*
X153734521Y-118995000D01*
X153211431Y-118995000D01*
X153144392Y-118975315D01*
X153098637Y-118922511D01*
X153088693Y-118853353D01*
X153117718Y-118789797D01*
X153123750Y-118783319D01*
X153492767Y-118414302D01*
X153866256Y-118040812D01*
X153927577Y-118007329D01*
X153962659Y-118004991D01*
X153962663Y-118004899D01*
X153963525Y-118004933D01*
G37*
%TD.AperFunction*%
%TD*%
M02*
