%TF.GenerationSoftware,KiCad,Pcbnew,7.0.11*%
%TF.CreationDate,2024-12-11T15:28:39-03:00*%
%TF.ProjectId,Placa_DetectorParticulas,506c6163-615f-4446-9574-6563746f7250,rev?*%
%TF.SameCoordinates,Original*%
%TF.FileFunction,Soldermask,Bot*%
%TF.FilePolarity,Negative*%
%FSLAX46Y46*%
G04 Gerber Fmt 4.6, Leading zero omitted, Abs format (unit mm)*
G04 Created by KiCad (PCBNEW 7.0.11) date 2024-12-11 15:28:39*
%MOMM*%
%LPD*%
G01*
G04 APERTURE LIST*
G04 Aperture macros list*
%AMRoundRect*
0 Rectangle with rounded corners*
0 $1 Rounding radius*
0 $2 $3 $4 $5 $6 $7 $8 $9 X,Y pos of 4 corners*
0 Add a 4 corners polygon primitive as box body*
4,1,4,$2,$3,$4,$5,$6,$7,$8,$9,$2,$3,0*
0 Add four circle primitives for the rounded corners*
1,1,$1+$1,$2,$3*
1,1,$1+$1,$4,$5*
1,1,$1+$1,$6,$7*
1,1,$1+$1,$8,$9*
0 Add four rect primitives between the rounded corners*
20,1,$1+$1,$2,$3,$4,$5,0*
20,1,$1+$1,$4,$5,$6,$7,0*
20,1,$1+$1,$6,$7,$8,$9,0*
20,1,$1+$1,$8,$9,$2,$3,0*%
G04 Aperture macros list end*
%ADD10R,1.700000X1.700000*%
%ADD11O,1.700000X1.700000*%
%ADD12C,5.000000*%
%ADD13RoundRect,0.162500X-0.162500X0.447500X-0.162500X-0.447500X0.162500X-0.447500X0.162500X0.447500X0*%
%ADD14RoundRect,0.250000X-0.262500X-0.450000X0.262500X-0.450000X0.262500X0.450000X-0.262500X0.450000X0*%
%ADD15RoundRect,0.200000X-0.275000X0.200000X-0.275000X-0.200000X0.275000X-0.200000X0.275000X0.200000X0*%
%ADD16RoundRect,0.250000X0.450000X-0.262500X0.450000X0.262500X-0.450000X0.262500X-0.450000X-0.262500X0*%
%ADD17R,1.327899X0.431000*%
%ADD18RoundRect,0.250000X-0.325000X-0.650000X0.325000X-0.650000X0.325000X0.650000X-0.325000X0.650000X0*%
%ADD19RoundRect,0.250000X-0.475000X0.250000X-0.475000X-0.250000X0.475000X-0.250000X0.475000X0.250000X0*%
%ADD20RoundRect,0.250000X0.262500X0.450000X-0.262500X0.450000X-0.262500X-0.450000X0.262500X-0.450000X0*%
%ADD21RoundRect,0.250000X-0.450000X0.262500X-0.450000X-0.262500X0.450000X-0.262500X0.450000X0.262500X0*%
%ADD22RoundRect,0.250000X-0.250000X-0.475000X0.250000X-0.475000X0.250000X0.475000X-0.250000X0.475000X0*%
%ADD23RoundRect,0.225000X-0.225000X-0.375000X0.225000X-0.375000X0.225000X0.375000X-0.225000X0.375000X0*%
%ADD24RoundRect,0.225000X-0.225000X-0.250000X0.225000X-0.250000X0.225000X0.250000X-0.225000X0.250000X0*%
%ADD25RoundRect,0.250000X0.250000X0.475000X-0.250000X0.475000X-0.250000X-0.475000X0.250000X-0.475000X0*%
%ADD26R,1.311200X0.560800*%
%ADD27RoundRect,0.250000X1.075000X-0.375000X1.075000X0.375000X-1.075000X0.375000X-1.075000X-0.375000X0*%
%ADD28R,0.807999X0.254800*%
%ADD29R,0.254800X0.807999*%
%ADD30R,3.149600X1.143000*%
%ADD31R,0.960399X0.305600*%
%ADD32R,0.305600X0.960399*%
%ADD33R,2.260600X2.260600*%
%ADD34R,0.254000X0.711200*%
%ADD35R,1.701800X0.990600*%
%ADD36R,0.304800X0.863600*%
%ADD37R,2.413000X1.600200*%
%ADD38RoundRect,0.225000X-0.250000X0.225000X-0.250000X-0.225000X0.250000X-0.225000X0.250000X0.225000X0*%
%ADD39R,0.304800X0.845299*%
%ADD40RoundRect,0.200000X0.275000X-0.200000X0.275000X0.200000X-0.275000X0.200000X-0.275000X-0.200000X0*%
%ADD41R,0.736600X0.254000*%
%ADD42R,0.457200X1.600200*%
%ADD43RoundRect,0.200000X-0.200000X-0.275000X0.200000X-0.275000X0.200000X0.275000X-0.200000X0.275000X0*%
%ADD44R,0.254000X0.660400*%
%ADD45R,0.279400X1.207999*%
%ADD46R,0.254000X0.736600*%
%ADD47R,1.600200X0.457200*%
%ADD48RoundRect,0.250000X0.325000X0.650000X-0.325000X0.650000X-0.325000X-0.650000X0.325000X-0.650000X0*%
%ADD49R,1.299999X0.570000*%
%ADD50RoundRect,0.250000X0.475000X-0.250000X0.475000X0.250000X-0.475000X0.250000X-0.475000X-0.250000X0*%
%ADD51RoundRect,0.250000X-1.450000X0.312500X-1.450000X-0.312500X1.450000X-0.312500X1.450000X0.312500X0*%
%ADD52R,0.558000X1.454899*%
%ADD53R,1.454899X0.558000*%
%ADD54RoundRect,0.200000X0.200000X0.275000X-0.200000X0.275000X-0.200000X-0.275000X0.200000X-0.275000X0*%
%ADD55R,0.570000X1.299999*%
G04 APERTURE END LIST*
D10*
%TO.C,J4*%
X109220000Y-138000000D03*
D11*
X109220000Y-135460000D03*
X111760000Y-138000000D03*
X111760000Y-135460000D03*
X114300000Y-138000000D03*
X114300000Y-135460000D03*
X116840000Y-138000000D03*
X116840000Y-135460000D03*
X119380000Y-138000000D03*
X119380000Y-135460000D03*
X121920000Y-138000000D03*
X121920000Y-135460000D03*
X124460000Y-138000000D03*
X124460000Y-135460000D03*
X127000000Y-138000000D03*
X127000000Y-135460000D03*
%TD*%
D10*
%TO.C,J2*%
X60000000Y-72540000D03*
D11*
X60000000Y-70000000D03*
X62540000Y-72540000D03*
X62540000Y-70000000D03*
X65080000Y-72540000D03*
X65080000Y-70000000D03*
X67620000Y-72540000D03*
X67620000Y-70000000D03*
X70160000Y-72540000D03*
X70160000Y-70000000D03*
X72700000Y-72540000D03*
X72700000Y-70000000D03*
X75240000Y-72540000D03*
X75240000Y-70000000D03*
X77780000Y-72540000D03*
X77780000Y-70000000D03*
%TD*%
D12*
%TO.C,U17*%
X54000000Y-80000000D03*
X90000000Y-80000000D03*
X126000000Y-80000000D03*
X54000000Y-130500000D03*
X90000000Y-130500000D03*
X126000000Y-130500000D03*
%TD*%
D10*
%TO.C,J1*%
X53000000Y-138000000D03*
D11*
X53000000Y-135460000D03*
X55540000Y-138000000D03*
X55540000Y-135460000D03*
X58080000Y-138000000D03*
X58080000Y-135460000D03*
X60620000Y-138000000D03*
X60620000Y-135460000D03*
X63160000Y-138000000D03*
X63160000Y-135460000D03*
X65700000Y-138000000D03*
X65700000Y-135460000D03*
X68240000Y-138000000D03*
X68240000Y-135460000D03*
X70780000Y-138000000D03*
X70780000Y-135460000D03*
%TD*%
D10*
%TO.C,J3*%
X102220000Y-72540000D03*
D11*
X102220000Y-70000000D03*
X104760000Y-72540000D03*
X104760000Y-70000000D03*
X107300000Y-72540000D03*
X107300000Y-70000000D03*
X109840000Y-72540000D03*
X109840000Y-70000000D03*
X112380000Y-72540000D03*
X112380000Y-70000000D03*
X114920000Y-72540000D03*
X114920000Y-70000000D03*
X117460000Y-72540000D03*
X117460000Y-70000000D03*
X120000000Y-72540000D03*
X120000000Y-70000000D03*
%TD*%
D13*
%TO.C,Q2*%
X102325000Y-124355000D03*
X104225000Y-124355000D03*
X103275000Y-126975000D03*
%TD*%
D14*
%TO.C,R32*%
X121937498Y-97568000D03*
X123762498Y-97568000D03*
%TD*%
D15*
%TO.C,R43*%
X76525000Y-116425000D03*
X76525000Y-118075000D03*
%TD*%
D16*
%TO.C,R28*%
X93450000Y-94662500D03*
X93450000Y-92837500D03*
%TD*%
D17*
%TO.C,U26*%
X76650000Y-135000000D03*
X76650000Y-134350002D03*
X76650000Y-133700000D03*
X76650000Y-133050002D03*
X81076696Y-133050002D03*
X81076696Y-133700000D03*
X81076696Y-134350002D03*
X81076696Y-135000000D03*
%TD*%
D18*
%TO.C,C37*%
X93925000Y-114975000D03*
X96875000Y-114975000D03*
%TD*%
D19*
%TO.C,C19*%
X87150001Y-93571700D03*
X87150001Y-95471700D03*
%TD*%
D20*
%TO.C,R77*%
X96562500Y-133100000D03*
X94737500Y-133100000D03*
%TD*%
D21*
%TO.C,R57*%
X63314674Y-91759400D03*
X63314674Y-93584400D03*
%TD*%
D16*
%TO.C,R66*%
X92300000Y-85862500D03*
X92300000Y-84037500D03*
%TD*%
D22*
%TO.C,C55*%
X100850000Y-137100000D03*
X102750000Y-137100000D03*
%TD*%
D23*
%TO.C,D2*%
X97375000Y-126775000D03*
X100675000Y-126775000D03*
%TD*%
D16*
%TO.C,R61*%
X117375000Y-92112500D03*
X117375000Y-90287500D03*
%TD*%
D24*
%TO.C,C33*%
X105125000Y-117175000D03*
X106675000Y-117175000D03*
%TD*%
D25*
%TO.C,C7*%
X81250252Y-107868876D03*
X79350252Y-107868876D03*
%TD*%
D16*
%TO.C,R67*%
X80300000Y-92025000D03*
X80300000Y-90200000D03*
%TD*%
D19*
%TO.C,C52*%
X102600000Y-103650000D03*
X102600000Y-105550000D03*
%TD*%
D26*
%TO.C,U27*%
X96150000Y-135135002D03*
X96150000Y-137050000D03*
X94245000Y-136092501D03*
%TD*%
D14*
%TO.C,R16*%
X56325000Y-118350000D03*
X58150000Y-118350000D03*
%TD*%
%TO.C,R64*%
X79405252Y-101788876D03*
X81230252Y-101788876D03*
%TD*%
D19*
%TO.C,C22*%
X97171700Y-89121700D03*
X97171700Y-91021700D03*
%TD*%
D16*
%TO.C,R73*%
X55750000Y-88125000D03*
X55750000Y-86300000D03*
%TD*%
D22*
%TO.C,C39*%
X62314674Y-96959400D03*
X64214674Y-96959400D03*
%TD*%
D19*
%TO.C,C51*%
X88100252Y-105418876D03*
X88100252Y-107318876D03*
%TD*%
D21*
%TO.C,R52*%
X91450000Y-117150000D03*
X91450000Y-118975000D03*
%TD*%
D27*
%TO.C,L4*%
X94675000Y-119975000D03*
X94675000Y-117175000D03*
%TD*%
D14*
%TO.C,R23*%
X65987500Y-122800000D03*
X67812500Y-122800000D03*
%TD*%
D28*
%TO.C,U19*%
X117900000Y-131600000D03*
D29*
X117455299Y-132541400D03*
X116955300Y-132541400D03*
X116455301Y-132541400D03*
X115955300Y-132541400D03*
X115455300Y-132541400D03*
X114955299Y-132541400D03*
X114455300Y-132541400D03*
X113955301Y-132541400D03*
D28*
X113510600Y-131600000D03*
X113510600Y-131100000D03*
D29*
X113955301Y-130158600D03*
X114455300Y-130158600D03*
X114955299Y-130158600D03*
X115455300Y-130158600D03*
X115955300Y-130158600D03*
X116455301Y-130158600D03*
X116955300Y-130158600D03*
X117455299Y-130158600D03*
D28*
X117900000Y-131100000D03*
D30*
X115705300Y-131350000D03*
%TD*%
D19*
%TO.C,C46*%
X86700252Y-101868876D03*
X86700252Y-103768876D03*
%TD*%
D31*
%TO.C,U1*%
X75296000Y-123525000D03*
X75296000Y-122724999D03*
X75296000Y-121924998D03*
D32*
X76360499Y-120860499D03*
X77160500Y-120860499D03*
X77960501Y-120860499D03*
D31*
X79025000Y-121924998D03*
X79025000Y-122724999D03*
X79025000Y-123525000D03*
D32*
X77960501Y-124589499D03*
X77160500Y-124589499D03*
X76360499Y-124589499D03*
D33*
X77160500Y-122724999D03*
%TD*%
D19*
%TO.C,C27*%
X76950000Y-83646200D03*
X76950000Y-85546200D03*
%TD*%
%TO.C,C24*%
X126649998Y-99568000D03*
X126649998Y-101468000D03*
%TD*%
D34*
%TO.C,U2*%
X84250252Y-107475476D03*
X83750126Y-107475476D03*
X83250000Y-107475476D03*
X82749874Y-107475476D03*
X82749874Y-105468876D03*
X83250000Y-105468876D03*
X83750126Y-105468876D03*
X84250252Y-105468876D03*
D35*
X83500063Y-106472176D03*
%TD*%
D19*
%TO.C,C25*%
X125549998Y-93768000D03*
X125549998Y-95668000D03*
%TD*%
D14*
%TO.C,R40*%
X102850000Y-95978800D03*
X104675000Y-95978800D03*
%TD*%
D36*
%TO.C,U8*%
X124749998Y-102211200D03*
X124100000Y-102211200D03*
X123449998Y-102211200D03*
X122800000Y-102211200D03*
X122800000Y-99468000D03*
X123449998Y-99468000D03*
X124100000Y-99468000D03*
X124749998Y-99468000D03*
D37*
X123774999Y-100839600D03*
%TD*%
D38*
%TO.C,C36*%
X93675000Y-121825000D03*
X93675000Y-123375000D03*
%TD*%
D39*
%TO.C,U10*%
X71950000Y-88346200D03*
X72599999Y-88346200D03*
X73249998Y-88346200D03*
X73249998Y-90588502D03*
X71950000Y-90588502D03*
%TD*%
D20*
%TO.C,R31*%
X64600001Y-86208600D03*
X62775001Y-86208600D03*
%TD*%
D28*
%TO.C,U18*%
X62330300Y-80750000D03*
D29*
X62775001Y-79808600D03*
X63275000Y-79808600D03*
X63774999Y-79808600D03*
X64275000Y-79808600D03*
X64775000Y-79808600D03*
X65275001Y-79808600D03*
X65775000Y-79808600D03*
X66274999Y-79808600D03*
D28*
X66719700Y-80750000D03*
X66719700Y-81250000D03*
D29*
X66274999Y-82191400D03*
X65775000Y-82191400D03*
X65275001Y-82191400D03*
X64775000Y-82191400D03*
X64275000Y-82191400D03*
X63774999Y-82191400D03*
X63275000Y-82191400D03*
X62775001Y-82191400D03*
D28*
X62330300Y-81250000D03*
D30*
X64525000Y-81000000D03*
%TD*%
D16*
%TO.C,R29*%
X92271700Y-89321700D03*
X92271700Y-87496700D03*
%TD*%
D19*
%TO.C,C43*%
X60425000Y-84700000D03*
X60425000Y-86600000D03*
%TD*%
D40*
%TO.C,R3*%
X71725000Y-125325000D03*
X71725000Y-123675000D03*
%TD*%
D22*
%TO.C,C44*%
X119450000Y-132300000D03*
X121350000Y-132300000D03*
%TD*%
D41*
%TO.C,U23*%
X61682000Y-115950000D03*
X61682000Y-116450001D03*
X61682000Y-116950001D03*
X61682000Y-117450002D03*
X59650000Y-117450002D03*
X59650000Y-116950001D03*
X59650000Y-116450001D03*
X59650000Y-115950000D03*
D42*
X60666000Y-116700001D03*
%TD*%
D25*
%TO.C,C28*%
X75950000Y-80846200D03*
X74050000Y-80846200D03*
%TD*%
D43*
%TO.C,R74*%
X73250000Y-132300000D03*
X74900000Y-132300000D03*
%TD*%
D22*
%TO.C,C40*%
X120375000Y-90800000D03*
X122275000Y-90800000D03*
%TD*%
D31*
%TO.C,U20*%
X99046000Y-121625000D03*
X99046000Y-120824999D03*
X99046000Y-120024998D03*
D32*
X100110499Y-118960499D03*
X100910500Y-118960499D03*
X101710501Y-118960499D03*
D31*
X102775000Y-120024998D03*
X102775000Y-120824999D03*
X102775000Y-121625000D03*
D32*
X101710501Y-122689499D03*
X100910500Y-122689499D03*
X100110499Y-122689499D03*
D33*
X100910500Y-120824999D03*
%TD*%
D22*
%TO.C,C50*%
X59750000Y-114200000D03*
X61650000Y-114200000D03*
%TD*%
D20*
%TO.C,R27*%
X97196700Y-92921700D03*
X95371700Y-92921700D03*
%TD*%
D16*
%TO.C,R25*%
X83400000Y-99212500D03*
X83400000Y-97387500D03*
%TD*%
D22*
%TO.C,C53*%
X77850000Y-136950000D03*
X79750000Y-136950000D03*
%TD*%
D17*
%TO.C,U28*%
X99573304Y-133200000D03*
X99573304Y-132550002D03*
X99573304Y-131900000D03*
X99573304Y-131250002D03*
X104000000Y-131250002D03*
X104000000Y-131900000D03*
X104000000Y-132550002D03*
X104000000Y-133200000D03*
%TD*%
D16*
%TO.C,R26*%
X82250001Y-93771700D03*
X82250001Y-91946700D03*
%TD*%
D44*
%TO.C,U7*%
X95471700Y-91028300D03*
X94971699Y-91028300D03*
X94471699Y-91028300D03*
X93971698Y-91028300D03*
X93971698Y-89021700D03*
X94471699Y-89021700D03*
X94971699Y-89021700D03*
X95471700Y-89021700D03*
D35*
X94721699Y-90025000D03*
%TD*%
D21*
%TO.C,R18*%
X64050000Y-115525000D03*
X64050000Y-117350000D03*
%TD*%
D20*
%TO.C,R19*%
X61975000Y-119200000D03*
X60150000Y-119200000D03*
%TD*%
D43*
%TO.C,R1*%
X81300000Y-120675000D03*
X82950000Y-120675000D03*
%TD*%
D16*
%TO.C,R58*%
X65314674Y-93584400D03*
X65314674Y-91759400D03*
%TD*%
D19*
%TO.C,C38*%
X54814674Y-100059400D03*
X54814674Y-101959400D03*
%TD*%
D20*
%TO.C,R30*%
X64600001Y-84008600D03*
X62775001Y-84008600D03*
%TD*%
D22*
%TO.C,C49*%
X70200000Y-114400000D03*
X72100000Y-114400000D03*
%TD*%
D25*
%TO.C,C20*%
X85950001Y-91571700D03*
X84050001Y-91571700D03*
%TD*%
D14*
%TO.C,R53*%
X89787500Y-120850000D03*
X91612500Y-120850000D03*
%TD*%
D16*
%TO.C,R50*%
X68575001Y-81833600D03*
X68575001Y-80008600D03*
%TD*%
D40*
%TO.C,R46*%
X95475000Y-123425000D03*
X95475000Y-121775000D03*
%TD*%
D16*
%TO.C,R68*%
X111550000Y-132250000D03*
X111550000Y-130425000D03*
%TD*%
D22*
%TO.C,C21*%
X95271700Y-95021700D03*
X97171700Y-95021700D03*
%TD*%
D21*
%TO.C,R54*%
X57414674Y-105534400D03*
X57414674Y-107359400D03*
%TD*%
D41*
%TO.C,U3*%
X57934001Y-94966001D03*
X57934001Y-94466000D03*
X57934001Y-93966000D03*
X57934001Y-93465999D03*
X59966001Y-93465999D03*
X59966001Y-93966000D03*
X59966001Y-94466000D03*
X59966001Y-94966001D03*
D42*
X58950001Y-94216000D03*
%TD*%
D20*
%TO.C,R24*%
X87175001Y-97371700D03*
X85350001Y-97371700D03*
%TD*%
%TO.C,R2*%
X81212752Y-109918876D03*
X79387752Y-109918876D03*
%TD*%
D38*
%TO.C,C4*%
X69925000Y-123725000D03*
X69925000Y-125275000D03*
%TD*%
D14*
%TO.C,R7*%
X83387752Y-112768876D03*
X85212752Y-112768876D03*
%TD*%
D39*
%TO.C,U12*%
X106850000Y-86378800D03*
X106200001Y-86378800D03*
X105550002Y-86378800D03*
X105550002Y-84136498D03*
X106850000Y-84136498D03*
%TD*%
D40*
%TO.C,R48*%
X98675000Y-116175000D03*
X98675000Y-114525000D03*
%TD*%
D45*
%TO.C,U13*%
X103999999Y-88732600D03*
X104500000Y-88732600D03*
X105000000Y-88732600D03*
X105500001Y-88732600D03*
X105500001Y-91425000D03*
X105000000Y-91425000D03*
X104500000Y-91425000D03*
X103999999Y-91425000D03*
%TD*%
D14*
%TO.C,R59*%
X125850000Y-88200000D03*
X127675000Y-88200000D03*
%TD*%
D43*
%TO.C,R44*%
X105050000Y-118775000D03*
X106700000Y-118775000D03*
%TD*%
D22*
%TO.C,C56*%
X100850000Y-135100000D03*
X102750000Y-135100000D03*
%TD*%
D14*
%TO.C,R34*%
X72437500Y-92346200D03*
X74262500Y-92346200D03*
%TD*%
D22*
%TO.C,C12*%
X93825126Y-102093400D03*
X95725126Y-102093400D03*
%TD*%
%TO.C,C18*%
X85250001Y-99471700D03*
X87150001Y-99471700D03*
%TD*%
D21*
%TO.C,R22*%
X67650000Y-119100000D03*
X67650000Y-120925000D03*
%TD*%
D46*
%TO.C,U9*%
X123750000Y-95800000D03*
X123249999Y-95800000D03*
X122749999Y-95800000D03*
X122249998Y-95800000D03*
X122249998Y-93768000D03*
X122749999Y-93768000D03*
X123249999Y-93768000D03*
X123750000Y-93768000D03*
D47*
X122999999Y-94784000D03*
%TD*%
D48*
%TO.C,C34*%
X108225000Y-120775000D03*
X105275000Y-120775000D03*
%TD*%
D25*
%TO.C,C14*%
X103050000Y-111100000D03*
X101150000Y-111100000D03*
%TD*%
D20*
%TO.C,R63*%
X113900000Y-80300000D03*
X112075000Y-80300000D03*
%TD*%
D14*
%TO.C,R65*%
X93880126Y-100063400D03*
X95705126Y-100063400D03*
%TD*%
D23*
%TO.C,D1*%
X73625000Y-128675000D03*
X76925000Y-128675000D03*
%TD*%
D22*
%TO.C,C11*%
X83350252Y-114768876D03*
X85250252Y-114768876D03*
%TD*%
D16*
%TO.C,R72*%
X53700000Y-88125000D03*
X53700000Y-86300000D03*
%TD*%
D22*
%TO.C,C45*%
X119450000Y-130308601D03*
X121350000Y-130308601D03*
%TD*%
D25*
%TO.C,C54*%
X76250000Y-136950000D03*
X74350000Y-136950000D03*
%TD*%
D14*
%TO.C,R56*%
X53502174Y-97059400D03*
X55327174Y-97059400D03*
%TD*%
D38*
%TO.C,C3*%
X71725000Y-127125000D03*
X71725000Y-128675000D03*
%TD*%
D22*
%TO.C,C16*%
X93850000Y-110250000D03*
X95750000Y-110250000D03*
%TD*%
D14*
%TO.C,R13*%
X97437500Y-101950000D03*
X99262500Y-101950000D03*
%TD*%
D19*
%TO.C,C42*%
X60625000Y-75950000D03*
X60625000Y-77850000D03*
%TD*%
%TO.C,C9*%
X86050252Y-105418876D03*
X86050252Y-107318876D03*
%TD*%
D25*
%TO.C,C47*%
X101150000Y-99900000D03*
X99250000Y-99900000D03*
%TD*%
D21*
%TO.C,R14*%
X57850000Y-113825000D03*
X57850000Y-115650000D03*
%TD*%
D49*
%TO.C,U21*%
X119615998Y-100319002D03*
X119615998Y-102234000D03*
X117710998Y-101276501D03*
%TD*%
D48*
%TO.C,C2*%
X84475000Y-122675000D03*
X81525000Y-122675000D03*
%TD*%
D16*
%TO.C,R55*%
X54814674Y-94784400D03*
X54814674Y-92959400D03*
%TD*%
D15*
%TO.C,R49*%
X101900000Y-114525000D03*
X101900000Y-116175000D03*
%TD*%
D20*
%TO.C,R6*%
X81230252Y-105848876D03*
X79405252Y-105848876D03*
%TD*%
D21*
%TO.C,R10*%
X87450252Y-109068876D03*
X87450252Y-110893876D03*
%TD*%
D20*
%TO.C,R47*%
X64575001Y-77808600D03*
X62750001Y-77808600D03*
%TD*%
%TO.C,R15*%
X95705126Y-104123400D03*
X93880126Y-104123400D03*
%TD*%
D50*
%TO.C,C26*%
X70750000Y-86746200D03*
X70750000Y-84846200D03*
%TD*%
D20*
%TO.C,R38*%
X106362500Y-82378800D03*
X104537500Y-82378800D03*
%TD*%
D14*
%TO.C,R33*%
X72450000Y-94346200D03*
X74275000Y-94346200D03*
%TD*%
D44*
%TO.C,U6*%
X85450001Y-95478300D03*
X84950000Y-95478300D03*
X84450000Y-95478300D03*
X83949999Y-95478300D03*
X83949999Y-93471700D03*
X84450000Y-93471700D03*
X84950000Y-93471700D03*
X85450001Y-93471700D03*
D35*
X84700000Y-94475000D03*
%TD*%
D16*
%TO.C,R69*%
X89950000Y-124512500D03*
X89950000Y-122687500D03*
%TD*%
D40*
%TO.C,R5*%
X74925000Y-118075000D03*
X74925000Y-116425000D03*
%TD*%
D34*
%TO.C,U4*%
X98750000Y-105756600D03*
X98249874Y-105756600D03*
X97749748Y-105756600D03*
X97249622Y-105756600D03*
X97249622Y-103750000D03*
X97749748Y-103750000D03*
X98249874Y-103750000D03*
X98750000Y-103750000D03*
D35*
X97999811Y-104753300D03*
%TD*%
D21*
%TO.C,R12*%
X101950000Y-107350000D03*
X101950000Y-109175000D03*
%TD*%
D20*
%TO.C,R37*%
X106350000Y-80378800D03*
X104525000Y-80378800D03*
%TD*%
D19*
%TO.C,C29*%
X108050000Y-87978800D03*
X108050000Y-89878800D03*
%TD*%
D18*
%TO.C,C5*%
X70175000Y-116875000D03*
X73125000Y-116875000D03*
%TD*%
D50*
%TO.C,C8*%
X85450252Y-110968876D03*
X85450252Y-109068876D03*
%TD*%
D51*
%TO.C,L3*%
X107075000Y-122775000D03*
X107075000Y-127050000D03*
%TD*%
D43*
%TO.C,R75*%
X106475000Y-129350000D03*
X108125000Y-129350000D03*
%TD*%
D50*
%TO.C,C30*%
X101850000Y-91078800D03*
X101850000Y-89178800D03*
%TD*%
D20*
%TO.C,R36*%
X75950000Y-78746200D03*
X74125000Y-78746200D03*
%TD*%
D52*
%TO.C,U22*%
X60714674Y-103602096D03*
X59444674Y-103602096D03*
X58174674Y-103602096D03*
X56904674Y-103602096D03*
X56904674Y-98159400D03*
X58174674Y-98159400D03*
X59444674Y-98159400D03*
X60714674Y-98159400D03*
%TD*%
D25*
%TO.C,C23*%
X95971700Y-87121700D03*
X94071700Y-87121700D03*
%TD*%
D14*
%TO.C,R9*%
X97725000Y-111050000D03*
X99550000Y-111050000D03*
%TD*%
D16*
%TO.C,R71*%
X91500000Y-94662500D03*
X91500000Y-92837500D03*
%TD*%
D20*
%TO.C,R11*%
X95712500Y-108200000D03*
X93887500Y-108200000D03*
%TD*%
D15*
%TO.C,R51*%
X100275000Y-114525000D03*
X100275000Y-116175000D03*
%TD*%
D21*
%TO.C,R21*%
X97950000Y-107387500D03*
X97950000Y-109212500D03*
%TD*%
D50*
%TO.C,C41*%
X117275000Y-83300000D03*
X117275000Y-81400000D03*
%TD*%
D22*
%TO.C,C10*%
X79350252Y-111968876D03*
X81250252Y-111968876D03*
%TD*%
%TO.C,C6*%
X79350252Y-103818876D03*
X81250252Y-103818876D03*
%TD*%
D38*
%TO.C,C35*%
X95475000Y-125125000D03*
X95475000Y-126675000D03*
%TD*%
D22*
%TO.C,C31*%
X102850000Y-93878800D03*
X104750000Y-93878800D03*
%TD*%
D51*
%TO.C,L1*%
X83325000Y-124675000D03*
X83325000Y-128950000D03*
%TD*%
D25*
%TO.C,C13*%
X95725126Y-106143400D03*
X93825126Y-106143400D03*
%TD*%
D19*
%TO.C,C15*%
X100525126Y-103693400D03*
X100525126Y-105593400D03*
%TD*%
D14*
%TO.C,R62*%
X112075000Y-82300000D03*
X113900000Y-82300000D03*
%TD*%
D53*
%TO.C,U24*%
X123917696Y-84900000D03*
X123917696Y-86170000D03*
X123917696Y-87440000D03*
X123917696Y-88710000D03*
X118475000Y-88710000D03*
X118475000Y-87440000D03*
X118475000Y-86170000D03*
X118475000Y-84900000D03*
%TD*%
D24*
%TO.C,C1*%
X81375000Y-119075000D03*
X82925000Y-119075000D03*
%TD*%
D20*
%TO.C,R60*%
X115100000Y-90800000D03*
X113275000Y-90800000D03*
%TD*%
D54*
%TO.C,R78*%
X108125000Y-130850000D03*
X106475000Y-130850000D03*
%TD*%
D50*
%TO.C,C17*%
X99950000Y-109250000D03*
X99950000Y-107350000D03*
%TD*%
D20*
%TO.C,R17*%
X54675000Y-118350000D03*
X52850000Y-118350000D03*
%TD*%
D14*
%TO.C,R39*%
X101525000Y-86178800D03*
X103350000Y-86178800D03*
%TD*%
D13*
%TO.C,Q1*%
X78575000Y-126255000D03*
X80475000Y-126255000D03*
X79525000Y-128875000D03*
%TD*%
D20*
%TO.C,R42*%
X64575001Y-75608600D03*
X62750001Y-75608600D03*
%TD*%
D16*
%TO.C,R70*%
X81350000Y-99225000D03*
X81350000Y-97400000D03*
%TD*%
D21*
%TO.C,R20*%
X83350252Y-109093876D03*
X83350252Y-110918876D03*
%TD*%
D54*
%TO.C,R76*%
X74900000Y-133800000D03*
X73250000Y-133800000D03*
%TD*%
D15*
%TO.C,R41*%
X78100000Y-116425000D03*
X78100000Y-118075000D03*
%TD*%
D14*
%TO.C,R8*%
X83037752Y-103518876D03*
X84862752Y-103518876D03*
%TD*%
D46*
%TO.C,U5*%
X115275002Y-88022000D03*
X114775001Y-88022000D03*
X114275001Y-88022000D03*
X113775000Y-88022000D03*
X113775000Y-85990000D03*
X114275001Y-85990000D03*
X114775001Y-85990000D03*
X115275002Y-85990000D03*
D47*
X114525001Y-87006000D03*
%TD*%
D27*
%TO.C,L2*%
X70925000Y-121875000D03*
X70925000Y-119075000D03*
%TD*%
D21*
%TO.C,R4*%
X119215998Y-104234000D03*
X119215998Y-106059000D03*
%TD*%
D45*
%TO.C,U11*%
X74800001Y-85992400D03*
X74300000Y-85992400D03*
X73800000Y-85992400D03*
X73299999Y-85992400D03*
X73299999Y-83300000D03*
X73800000Y-83300000D03*
X74300000Y-83300000D03*
X74800001Y-83300000D03*
%TD*%
D22*
%TO.C,C48*%
X93200000Y-112550000D03*
X95100000Y-112550000D03*
%TD*%
D16*
%TO.C,R45*%
X64100000Y-124462500D03*
X64100000Y-122637500D03*
%TD*%
D55*
%TO.C,U25*%
X56150000Y-116350000D03*
X54235002Y-116350000D03*
X55192501Y-114445000D03*
%TD*%
D20*
%TO.C,R35*%
X77275000Y-88546200D03*
X75450000Y-88546200D03*
%TD*%
M02*
