%TF.GenerationSoftware,KiCad,Pcbnew,7.0.11*%
%TF.CreationDate,2024-12-11T15:28:39-03:00*%
%TF.ProjectId,Placa_DetectorParticulas,506c6163-615f-4446-9574-6563746f7250,rev?*%
%TF.SameCoordinates,Original*%
%TF.FileFunction,Soldermask,Top*%
%TF.FilePolarity,Negative*%
%FSLAX46Y46*%
G04 Gerber Fmt 4.6, Leading zero omitted, Abs format (unit mm)*
G04 Created by KiCad (PCBNEW 7.0.11) date 2024-12-11 15:28:39*
%MOMM*%
%LPD*%
G01*
G04 APERTURE LIST*
G04 Aperture macros list*
%AMRoundRect*
0 Rectangle with rounded corners*
0 $1 Rounding radius*
0 $2 $3 $4 $5 $6 $7 $8 $9 X,Y pos of 4 corners*
0 Add a 4 corners polygon primitive as box body*
4,1,4,$2,$3,$4,$5,$6,$7,$8,$9,$2,$3,0*
0 Add four circle primitives for the rounded corners*
1,1,$1+$1,$2,$3*
1,1,$1+$1,$4,$5*
1,1,$1+$1,$6,$7*
1,1,$1+$1,$8,$9*
0 Add four rect primitives between the rounded corners*
20,1,$1+$1,$2,$3,$4,$5,0*
20,1,$1+$1,$4,$5,$6,$7,0*
20,1,$1+$1,$6,$7,$8,$9,0*
20,1,$1+$1,$8,$9,$2,$3,0*%
G04 Aperture macros list end*
%ADD10R,1.700000X1.700000*%
%ADD11O,1.700000X1.700000*%
%ADD12R,0.977900X0.558800*%
%ADD13RoundRect,0.218750X-0.256250X0.218750X-0.256250X-0.218750X0.256250X-0.218750X0.256250X0.218750X0*%
%ADD14RoundRect,0.250000X-0.250000X-0.475000X0.250000X-0.475000X0.250000X0.475000X-0.250000X0.475000X0*%
%ADD15C,5.000000*%
%ADD16RoundRect,0.337500X-0.337500X-0.337500X0.337500X-0.337500X0.337500X0.337500X-0.337500X0.337500X0*%
G04 APERTURE END LIST*
D10*
%TO.C,J4*%
X109220000Y-138000000D03*
D11*
X109220000Y-135460000D03*
X111760000Y-138000000D03*
X111760000Y-135460000D03*
X114300000Y-138000000D03*
X114300000Y-135460000D03*
X116840000Y-138000000D03*
X116840000Y-135460000D03*
X119380000Y-138000000D03*
X119380000Y-135460000D03*
X121920000Y-138000000D03*
X121920000Y-135460000D03*
X124460000Y-138000000D03*
X124460000Y-135460000D03*
X127000000Y-138000000D03*
X127000000Y-135460000D03*
%TD*%
D12*
%TO.C,U14*%
X91000000Y-107300000D03*
X91000000Y-106349999D03*
X91000000Y-105399998D03*
X88269500Y-105399998D03*
X88269500Y-106349999D03*
X88269500Y-107300000D03*
%TD*%
D13*
%TO.C,D3*%
X80000000Y-104462500D03*
X80000000Y-106037500D03*
%TD*%
D10*
%TO.C,J2*%
X60000000Y-72540000D03*
D11*
X60000000Y-70000000D03*
X62540000Y-72540000D03*
X62540000Y-70000000D03*
X65080000Y-72540000D03*
X65080000Y-70000000D03*
X67620000Y-72540000D03*
X67620000Y-70000000D03*
X70160000Y-72540000D03*
X70160000Y-70000000D03*
X72700000Y-72540000D03*
X72700000Y-70000000D03*
X75240000Y-72540000D03*
X75240000Y-70000000D03*
X77780000Y-72540000D03*
X77780000Y-70000000D03*
%TD*%
D14*
%TO.C,C32*%
X88700000Y-103500000D03*
X90600000Y-103500000D03*
%TD*%
D15*
%TO.C,U17*%
X54000000Y-80000000D03*
X90000000Y-80000000D03*
X126000000Y-80000000D03*
X54000000Y-130500000D03*
X90000000Y-130500000D03*
X126000000Y-130500000D03*
%TD*%
D13*
%TO.C,D4*%
X100000000Y-104462500D03*
X100000000Y-106037500D03*
%TD*%
D10*
%TO.C,J1*%
X53000000Y-138000000D03*
D11*
X53000000Y-135460000D03*
X55540000Y-138000000D03*
X55540000Y-135460000D03*
X58080000Y-138000000D03*
X58080000Y-135460000D03*
X60620000Y-138000000D03*
X60620000Y-135460000D03*
X63160000Y-138000000D03*
X63160000Y-135460000D03*
X65700000Y-138000000D03*
X65700000Y-135460000D03*
X68240000Y-138000000D03*
X68240000Y-135460000D03*
X70780000Y-138000000D03*
X70780000Y-135460000D03*
%TD*%
D10*
%TO.C,J3*%
X102220000Y-72540000D03*
D11*
X102220000Y-70000000D03*
X104760000Y-72540000D03*
X104760000Y-70000000D03*
X107300000Y-72540000D03*
X107300000Y-70000000D03*
X109840000Y-72540000D03*
X109840000Y-70000000D03*
X112380000Y-72540000D03*
X112380000Y-70000000D03*
X114920000Y-72540000D03*
X114920000Y-70000000D03*
X117460000Y-72540000D03*
X117460000Y-70000000D03*
X120000000Y-72540000D03*
X120000000Y-70000000D03*
%TD*%
D16*
%TO.C,U15*%
X64500000Y-100250000D03*
X64500000Y-102250000D03*
X64500000Y-104250000D03*
X64500000Y-106250000D03*
X64500000Y-108250000D03*
X64500000Y-110250000D03*
X75500000Y-110250000D03*
X75500000Y-108250000D03*
X75500000Y-106250000D03*
X75500000Y-104250000D03*
X75500000Y-102250000D03*
X75500000Y-100250000D03*
%TD*%
%TO.C,U16*%
X104500000Y-100250000D03*
X104500000Y-102250000D03*
X104500000Y-104250000D03*
X104500000Y-106250000D03*
X104500000Y-108250000D03*
X104500000Y-110250000D03*
X115500000Y-110250000D03*
X115500000Y-108250000D03*
X115500000Y-106250000D03*
X115500000Y-104250000D03*
X115500000Y-102250000D03*
X115500000Y-100250000D03*
%TD*%
M02*
