%TF.GenerationSoftware,KiCad,Pcbnew,7.0.11*%
%TF.CreationDate,2024-12-11T15:28:39-03:00*%
%TF.ProjectId,Placa_DetectorParticulas,506c6163-615f-4446-9574-6563746f7250,rev?*%
%TF.SameCoordinates,Original*%
%TF.FileFunction,Copper,L3,Inr*%
%TF.FilePolarity,Positive*%
%FSLAX46Y46*%
G04 Gerber Fmt 4.6, Leading zero omitted, Abs format (unit mm)*
G04 Created by KiCad (PCBNEW 7.0.11) date 2024-12-11 15:28:39*
%MOMM*%
%LPD*%
G01*
G04 APERTURE LIST*
%TA.AperFunction,ComponentPad*%
%ADD10R,1.700000X1.700000*%
%TD*%
%TA.AperFunction,ComponentPad*%
%ADD11O,1.700000X1.700000*%
%TD*%
%TA.AperFunction,ComponentPad*%
%ADD12C,5.000000*%
%TD*%
%TA.AperFunction,ViaPad*%
%ADD13C,0.800000*%
%TD*%
G04 APERTURE END LIST*
D10*
%TO.N,+3.3VP*%
%TO.C,J4*%
X109220000Y-138000000D03*
D11*
%TO.N,unconnected-(J4-Pin_2-Pad2)*%
X109220000Y-135460000D03*
%TO.N,MAX2_nCS*%
X111760000Y-138000000D03*
%TO.N,SPI3V_MAX2_nCS*%
X111760000Y-135460000D03*
%TO.N,MAX1_nCS*%
X114300000Y-138000000D03*
%TO.N,SPI3V_MAX1_nCS*%
X114300000Y-135460000D03*
%TO.N,MAX1_MOSI*%
X116840000Y-138000000D03*
%TO.N,SPI3V_MOSI*%
X116840000Y-135460000D03*
%TO.N,MAX1_SCK*%
X119380000Y-138000000D03*
%TO.N,SPI3V_SCK*%
X119380000Y-135460000D03*
%TO.N,+3.3VP*%
X121920000Y-138000000D03*
%TO.N,SPI3V_MISO*%
X121920000Y-135460000D03*
%TO.N,DAC2_nCS*%
X124460000Y-138000000D03*
%TO.N,SPI3V_DAC2_nCS*%
X124460000Y-135460000D03*
%TO.N,DAC1_nCS*%
X127000000Y-138000000D03*
%TO.N,SPI3V_DAC1_nCS*%
X127000000Y-135460000D03*
%TD*%
D10*
%TO.N,I2C3V_SDA*%
%TO.C,J2*%
X60000000Y-72540000D03*
D11*
%TO.N,+3.3VA*%
X60000000Y-70000000D03*
%TO.N,I2C3V_SCL*%
X62540000Y-72540000D03*
%TO.N,LED_SIPM1*%
X62540000Y-70000000D03*
%TO.N,I2C5V_SDA*%
X65080000Y-72540000D03*
%TO.N,LED_SIPM2*%
X65080000Y-70000000D03*
%TO.N,I2C5V_SCL*%
X67620000Y-72540000D03*
%TO.N,unconnected-(J2-Pin_8-Pad8)*%
X67620000Y-70000000D03*
%TO.N,unconnected-(J2-Pin_9-Pad9)*%
X70160000Y-72540000D03*
%TO.N,unconnected-(J2-Pin_10-Pad10)*%
X70160000Y-70000000D03*
%TO.N,unconnected-(J2-Pin_11-Pad11)*%
X72700000Y-72540000D03*
%TO.N,unconnected-(J2-Pin_12-Pad12)*%
X72700000Y-70000000D03*
%TO.N,PULSO1_EXT*%
X75240000Y-72540000D03*
%TO.N,PULSO1_SENSE*%
X75240000Y-70000000D03*
%TO.N,VCurrOut1*%
X77780000Y-72540000D03*
%TO.N,PULSO1_FOUT5V*%
X77780000Y-70000000D03*
%TD*%
D12*
%TO.N,unconnected-(U17-Pad1)*%
%TO.C,U17*%
X54000000Y-80000000D03*
%TO.N,unconnected-(U17-Pad2)*%
X90000000Y-80000000D03*
%TO.N,unconnected-(U17-Pad3)*%
X126000000Y-80000000D03*
%TO.N,unconnected-(U17-Pad4)*%
X54000000Y-130500000D03*
%TO.N,unconnected-(U17-Pad5)*%
X90000000Y-130500000D03*
%TO.N,unconnected-(U17-Pad6)*%
X126000000Y-130500000D03*
%TD*%
D10*
%TO.N,+3.3V*%
%TO.C,J1*%
X53000000Y-138000000D03*
D11*
X53000000Y-135460000D03*
%TO.N,unconnected-(J1-Pin_3-Pad3)*%
X55540000Y-138000000D03*
%TO.N,unconnected-(J1-Pin_4-Pad4)*%
X55540000Y-135460000D03*
%TO.N,GND*%
X58080000Y-138000000D03*
X58080000Y-135460000D03*
%TO.N,MAX2_VSense*%
X60620000Y-138000000D03*
%TO.N,MAX1_VSense*%
X60620000Y-135460000D03*
%TO.N,+5V*%
X63160000Y-138000000D03*
%TO.N,GND*%
X63160000Y-135460000D03*
X65700000Y-138000000D03*
%TO.N,+5V*%
X65700000Y-135460000D03*
X68240000Y-138000000D03*
%TO.N,GND*%
X68240000Y-135460000D03*
X70780000Y-138000000D03*
%TO.N,+5V*%
X70780000Y-135460000D03*
%TD*%
D10*
%TO.N,VCurrOut2*%
%TO.C,J3*%
X102220000Y-72540000D03*
D11*
%TO.N,unconnected-(J3-Pin_2-Pad2)*%
X102220000Y-70000000D03*
%TO.N,PULSO2_FOUT5V*%
X104760000Y-72540000D03*
%TO.N,PULSO2_SENSE*%
X104760000Y-70000000D03*
%TO.N,PULSO2_EXT*%
X107300000Y-72540000D03*
%TO.N,unconnected-(J3-Pin_6-Pad6)*%
X107300000Y-70000000D03*
%TO.N,unconnected-(J3-Pin_7-Pad7)*%
X109840000Y-72540000D03*
%TO.N,unconnected-(J3-Pin_8-Pad8)*%
X109840000Y-70000000D03*
%TO.N,GND*%
X112380000Y-72540000D03*
%TO.N,unconnected-(J3-Pin_10-Pad10)*%
X112380000Y-70000000D03*
%TO.N,GND*%
X114920000Y-72540000D03*
%TO.N,unconnected-(J3-Pin_12-Pad12)*%
X114920000Y-70000000D03*
%TO.N,unconnected-(J3-Pin_13-Pad13)*%
X117460000Y-72540000D03*
%TO.N,unconnected-(J3-Pin_14-Pad14)*%
X117460000Y-70000000D03*
%TO.N,unconnected-(J3-Pin_15-Pad15)*%
X120000000Y-72540000D03*
%TO.N,unconnected-(J3-Pin_16-Pad16)*%
X120000000Y-70000000D03*
%TD*%
D13*
%TO.N,*%
X150000000Y-112500000D03*
X150000000Y-117500000D03*
X150000000Y-115000000D03*
X152500000Y-117500000D03*
%TO.N,SIPM1_CA*%
X77650000Y-105350000D03*
%TO.N,SIPM2_CA*%
X92550000Y-103775000D03*
%TO.N,SIPM1_AN*%
X82350252Y-109868876D03*
%TO.N,+5V*%
X60500000Y-112800000D03*
X100450000Y-86178800D03*
X102600000Y-102400000D03*
X70750000Y-89346200D03*
X89500252Y-105418876D03*
X118200000Y-126500000D03*
X97171700Y-87921700D03*
X99550000Y-135100000D03*
X87150001Y-92371700D03*
X120215998Y-107634000D03*
X102200000Y-92350000D03*
X108050000Y-85378800D03*
X106500000Y-103650000D03*
X100875000Y-123975000D03*
X110250000Y-120775000D03*
X76575000Y-82325000D03*
X119175000Y-90800000D03*
X106500000Y-101950000D03*
X118675000Y-83300000D03*
X85925000Y-122675000D03*
X54814674Y-98859400D03*
X126849998Y-93768000D03*
X78350000Y-88546200D03*
X62314674Y-98359400D03*
X61575001Y-83008600D03*
X77125000Y-125875000D03*
X127400000Y-98450000D03*
%TO.N,SIPM2_AN*%
X102950000Y-108450000D03*
%TO.N,VREF*%
X99550000Y-95300000D03*
X88550000Y-97300000D03*
%TO.N,Net-(U9-IN1-)*%
X127049998Y-97368000D03*
X121115998Y-93850000D03*
%TO.N,I2C5V_SDA*%
X66300000Y-86100000D03*
X121949998Y-104068000D03*
%TO.N,MAX2_VPol*%
X92300000Y-100650000D03*
X108000000Y-96300000D03*
X127450000Y-86125000D03*
X116650000Y-95100000D03*
%TO.N,VCurrPreAmp1*%
X53000000Y-94700000D03*
X57964674Y-96659400D03*
%TO.N,VCurrPreAmp2*%
X115175000Y-92600000D03*
X116975000Y-87650000D03*
%TO.N,MAX1_SCK*%
X97475000Y-122775000D03*
X116000000Y-128000000D03*
X101700000Y-133400000D03*
X73725000Y-124675000D03*
X113990000Y-125750000D03*
X79500000Y-133150000D03*
%TO.N,MAX1_MOSI*%
X115000000Y-128000000D03*
X102750000Y-132550002D03*
X78150000Y-133150000D03*
X97475000Y-121575000D03*
X73725000Y-123475000D03*
%TO.N,MAX1_nCS*%
X73725000Y-125875000D03*
X114000000Y-128000000D03*
%TO.N,MAX2_nCS*%
X113000000Y-128000000D03*
X97475000Y-124800000D03*
%TO.N,S2C-*%
X108400000Y-97400000D03*
X118087500Y-95137500D03*
X126475000Y-85440000D03*
X95700000Y-98850000D03*
%TO.N,I2C5V_SCL*%
X65825000Y-85000000D03*
X82700000Y-85700000D03*
X81900000Y-83800000D03*
X124100000Y-104000000D03*
%TO.N,V3.5REF*%
X58000000Y-116950000D03*
X92650000Y-110250000D03*
X80850252Y-113518876D03*
%TO.N,Net-(U3-IN2+)*%
X61000000Y-93000000D03*
X57000000Y-95800000D03*
%TO.N,Net-(U5-IN2+)*%
X115975000Y-89290000D03*
X113175000Y-85090000D03*
%TO.N,V0.6REF*%
X112500000Y-115000000D03*
X106250000Y-115000000D03*
X61700000Y-104800000D03*
X62650000Y-116150000D03*
%TO.N,GND*%
X62662500Y-124462500D03*
X107500000Y-100000000D03*
X107500000Y-105000000D03*
X85000000Y-140000000D03*
X104075000Y-117175000D03*
X104075000Y-122575000D03*
X71760500Y-130039499D03*
X88450001Y-95471700D03*
X57500000Y-125000000D03*
X77000000Y-110250000D03*
X75000000Y-140000000D03*
X125549998Y-96868000D03*
X60000000Y-132500000D03*
X122500000Y-75000000D03*
X120000000Y-77500000D03*
X87500000Y-70000000D03*
X53614674Y-92959400D03*
X121649998Y-102268000D03*
X95475000Y-127675000D03*
X95000000Y-77500000D03*
X112500000Y-105000000D03*
X63000000Y-110250000D03*
X59825000Y-79300000D03*
X122500000Y-110000000D03*
X102500000Y-98900000D03*
X101600000Y-106300000D03*
X82500000Y-80000000D03*
X120600001Y-128900001D03*
X76950000Y-86746200D03*
X117500000Y-125000000D03*
X121549998Y-95868000D03*
X82500000Y-142500000D03*
X112500000Y-110000000D03*
X125000000Y-117500000D03*
X111450000Y-129100000D03*
X54814674Y-103559400D03*
X90000000Y-140000000D03*
X88500000Y-101868876D03*
X75350000Y-94346200D03*
X81000000Y-136950000D03*
X90000000Y-72500000D03*
X92500000Y-142500000D03*
X112500000Y-100000000D03*
X80325000Y-119075000D03*
X62500000Y-130000000D03*
X107500000Y-110000000D03*
X88350001Y-99871700D03*
X100000000Y-140000000D03*
X125000000Y-122500000D03*
X68725000Y-125275000D03*
X101850000Y-95978800D03*
X97500000Y-70000000D03*
X80000000Y-140000000D03*
X56714674Y-92359400D03*
X115000000Y-122500000D03*
X65314674Y-96959400D03*
X122500000Y-70000000D03*
X95000000Y-140000000D03*
X98471700Y-91021700D03*
X112500000Y-75000000D03*
X82500000Y-70000000D03*
X62650000Y-114200000D03*
X98346700Y-95421700D03*
X123875000Y-90800000D03*
X74050000Y-88346200D03*
X92475000Y-123375000D03*
X87500000Y-75000000D03*
X97500000Y-75000000D03*
X89500252Y-107318876D03*
X82300252Y-114768876D03*
X112050000Y-90200000D03*
X55000000Y-122500000D03*
X67500000Y-100000000D03*
X115000000Y-77500000D03*
X106550000Y-88078800D03*
X115500000Y-112000000D03*
X76950000Y-78746200D03*
X112675000Y-88900000D03*
X112500000Y-120000000D03*
X72500000Y-107500000D03*
X80325000Y-124475000D03*
X87500000Y-142500000D03*
X102500000Y-142500000D03*
X104750000Y-86378800D03*
X117500000Y-75000000D03*
X120000000Y-112500000D03*
X85000000Y-77500000D03*
X67500000Y-110000000D03*
X53800000Y-113700000D03*
X122500000Y-125000000D03*
X97500000Y-142500000D03*
X112075000Y-83500000D03*
X96875000Y-116575000D03*
X52500000Y-125000000D03*
X125749998Y-102668000D03*
X125000000Y-107500000D03*
X82500000Y-75000000D03*
X103750000Y-135100000D03*
X92725126Y-102143400D03*
X127500000Y-75000000D03*
X125000000Y-112500000D03*
X72500000Y-100000000D03*
X96150000Y-137800000D03*
X67500000Y-105000000D03*
X85000000Y-72500000D03*
X60425000Y-87900000D03*
X127500000Y-115000000D03*
X73125000Y-118475000D03*
X104500000Y-112000000D03*
X78250252Y-103868876D03*
X72250000Y-86646200D03*
X92500000Y-70000000D03*
X100275000Y-117200000D03*
X101850000Y-87978800D03*
X127500000Y-120000000D03*
X127500000Y-70000000D03*
X77500000Y-142500000D03*
X92500000Y-75000000D03*
X110000000Y-102500000D03*
X103450000Y-80378800D03*
X117275000Y-80300000D03*
X76525000Y-119200000D03*
X62114674Y-91759400D03*
X110000000Y-107500000D03*
X127500000Y-110000000D03*
X95000000Y-72500000D03*
X60000000Y-127500000D03*
X67375001Y-83008600D03*
%TO.N,LED_SIPM1*%
X53700000Y-85050000D03*
%TO.N,LED_SIPM2*%
X56400000Y-85050000D03*
%TO.N,Net-(D3-A)*%
X53700000Y-89250000D03*
%TO.N,Net-(D4-A)*%
X55750000Y-89250000D03*
%TO.N,2.5VRef*%
X85000000Y-135050000D03*
X78800000Y-135050000D03*
X95150000Y-131750000D03*
X91850000Y-135050000D03*
%TO.N,DAC1_nCS*%
X91500000Y-138500000D03*
X118000000Y-128000000D03*
X89850000Y-136950000D03*
%TO.N,DAC2_nCS*%
X117000000Y-128000000D03*
%TD*%
%TA.AperFunction,Conductor*%
%TO.N,GND*%
G36*
X58330000Y-137564498D02*
G01*
X58222315Y-137515320D01*
X58115763Y-137500000D01*
X58044237Y-137500000D01*
X57937685Y-137515320D01*
X57830000Y-137564498D01*
X57830000Y-135895501D01*
X57937685Y-135944680D01*
X58044237Y-135960000D01*
X58115763Y-135960000D01*
X58222315Y-135944680D01*
X58330000Y-135895501D01*
X58330000Y-137564498D01*
G37*
%TD.AperFunction*%
%TA.AperFunction,Conductor*%
G36*
X114460507Y-72330156D02*
G01*
X114420000Y-72468111D01*
X114420000Y-72611889D01*
X114460507Y-72749844D01*
X114486314Y-72790000D01*
X112813686Y-72790000D01*
X112839493Y-72749844D01*
X112880000Y-72611889D01*
X112880000Y-72468111D01*
X112839493Y-72330156D01*
X112813686Y-72290000D01*
X114486314Y-72290000D01*
X114460507Y-72330156D01*
G37*
%TD.AperFunction*%
%TA.AperFunction,Conductor*%
G36*
X127849784Y-67420185D02*
G01*
X127870426Y-67436819D01*
X129563181Y-69129573D01*
X129596666Y-69190896D01*
X129599500Y-69217254D01*
X129599500Y-143782745D01*
X129579815Y-143849784D01*
X129563181Y-143870426D01*
X127870426Y-145563181D01*
X127809103Y-145596666D01*
X127782745Y-145599500D01*
X52217254Y-145599500D01*
X52150215Y-145579815D01*
X52129573Y-145563181D01*
X50436819Y-143870426D01*
X50403334Y-143809103D01*
X50400500Y-143782745D01*
X50400500Y-142700000D01*
X52694564Y-142700000D01*
X52714287Y-143000918D01*
X52714288Y-143000930D01*
X52773118Y-143296683D01*
X52773122Y-143296698D01*
X52870053Y-143582247D01*
X52870062Y-143582268D01*
X53003431Y-143852713D01*
X53003435Y-143852720D01*
X53170973Y-144103459D01*
X53369810Y-144330189D01*
X53596540Y-144529026D01*
X53847279Y-144696564D01*
X53847286Y-144696568D01*
X54117731Y-144829937D01*
X54117736Y-144829939D01*
X54117748Y-144829945D01*
X54403309Y-144926880D01*
X54603251Y-144966651D01*
X54699069Y-144985711D01*
X54699070Y-144985711D01*
X54699080Y-144985713D01*
X55000000Y-145005436D01*
X55300920Y-144985713D01*
X55596691Y-144926880D01*
X55882252Y-144829945D01*
X56152718Y-144696566D01*
X56403461Y-144529025D01*
X56630189Y-144330189D01*
X56829025Y-144103461D01*
X56996566Y-143852718D01*
X57129945Y-143582252D01*
X57226880Y-143296691D01*
X57285713Y-143000920D01*
X57305436Y-142700000D01*
X122694564Y-142700000D01*
X122714287Y-143000918D01*
X122714288Y-143000930D01*
X122773118Y-143296683D01*
X122773122Y-143296698D01*
X122870053Y-143582247D01*
X122870062Y-143582268D01*
X123003431Y-143852713D01*
X123003435Y-143852720D01*
X123170973Y-144103459D01*
X123369810Y-144330189D01*
X123596540Y-144529026D01*
X123847279Y-144696564D01*
X123847286Y-144696568D01*
X124117731Y-144829937D01*
X124117736Y-144829939D01*
X124117748Y-144829945D01*
X124403309Y-144926880D01*
X124603251Y-144966651D01*
X124699069Y-144985711D01*
X124699070Y-144985711D01*
X124699080Y-144985713D01*
X125000000Y-145005436D01*
X125300920Y-144985713D01*
X125596691Y-144926880D01*
X125882252Y-144829945D01*
X126152718Y-144696566D01*
X126403461Y-144529025D01*
X126630189Y-144330189D01*
X126829025Y-144103461D01*
X126996566Y-143852718D01*
X127129945Y-143582252D01*
X127226880Y-143296691D01*
X127285713Y-143000920D01*
X127305436Y-142700000D01*
X127285713Y-142399080D01*
X127226880Y-142103309D01*
X127129945Y-141817748D01*
X126996566Y-141547282D01*
X126928002Y-141444669D01*
X126829026Y-141296540D01*
X126630189Y-141069810D01*
X126403459Y-140870973D01*
X126152720Y-140703435D01*
X126152713Y-140703431D01*
X125882268Y-140570062D01*
X125882247Y-140570053D01*
X125596698Y-140473122D01*
X125596692Y-140473120D01*
X125596691Y-140473120D01*
X125596689Y-140473119D01*
X125596683Y-140473118D01*
X125300930Y-140414288D01*
X125300921Y-140414287D01*
X125300920Y-140414287D01*
X125000000Y-140394564D01*
X124699080Y-140414287D01*
X124699079Y-140414287D01*
X124699069Y-140414288D01*
X124403316Y-140473118D01*
X124403301Y-140473122D01*
X124117752Y-140570053D01*
X124117731Y-140570062D01*
X123847286Y-140703431D01*
X123847279Y-140703435D01*
X123596540Y-140870973D01*
X123369810Y-141069810D01*
X123170973Y-141296540D01*
X123003435Y-141547279D01*
X123003431Y-141547286D01*
X122870062Y-141817731D01*
X122870053Y-141817752D01*
X122773122Y-142103301D01*
X122773118Y-142103316D01*
X122714288Y-142399069D01*
X122714287Y-142399081D01*
X122694564Y-142700000D01*
X57305436Y-142700000D01*
X57285713Y-142399080D01*
X57226880Y-142103309D01*
X57129945Y-141817748D01*
X56996566Y-141547282D01*
X56928002Y-141444669D01*
X56829026Y-141296540D01*
X56630189Y-141069810D01*
X56403459Y-140870973D01*
X56152720Y-140703435D01*
X56152713Y-140703431D01*
X55882268Y-140570062D01*
X55882247Y-140570053D01*
X55596698Y-140473122D01*
X55596692Y-140473120D01*
X55596691Y-140473120D01*
X55596689Y-140473119D01*
X55596683Y-140473118D01*
X55300930Y-140414288D01*
X55300921Y-140414287D01*
X55300920Y-140414287D01*
X55000000Y-140394564D01*
X54699080Y-140414287D01*
X54699079Y-140414287D01*
X54699069Y-140414288D01*
X54403316Y-140473118D01*
X54403301Y-140473122D01*
X54117752Y-140570053D01*
X54117731Y-140570062D01*
X53847286Y-140703431D01*
X53847279Y-140703435D01*
X53596540Y-140870973D01*
X53369810Y-141069810D01*
X53170973Y-141296540D01*
X53003435Y-141547279D01*
X53003431Y-141547286D01*
X52870062Y-141817731D01*
X52870053Y-141817752D01*
X52773122Y-142103301D01*
X52773118Y-142103316D01*
X52714288Y-142399069D01*
X52714287Y-142399081D01*
X52694564Y-142700000D01*
X50400500Y-142700000D01*
X50400500Y-135460000D01*
X51644341Y-135460000D01*
X51664936Y-135695403D01*
X51664938Y-135695413D01*
X51726094Y-135923655D01*
X51726096Y-135923659D01*
X51726097Y-135923663D01*
X51805801Y-136094588D01*
X51825965Y-136137830D01*
X51825967Y-136137834D01*
X51923491Y-136277111D01*
X51961504Y-136331400D01*
X51961506Y-136331402D01*
X52083430Y-136453326D01*
X52116915Y-136514649D01*
X52111931Y-136584341D01*
X52070059Y-136640274D01*
X52039083Y-136657189D01*
X51907669Y-136706203D01*
X51907664Y-136706206D01*
X51792455Y-136792452D01*
X51792452Y-136792455D01*
X51706206Y-136907664D01*
X51706202Y-136907671D01*
X51655908Y-137042517D01*
X51649501Y-137102116D01*
X51649500Y-137102135D01*
X51649500Y-138897870D01*
X51649501Y-138897876D01*
X51655908Y-138957483D01*
X51706202Y-139092328D01*
X51706206Y-139092335D01*
X51792452Y-139207544D01*
X51792455Y-139207547D01*
X51907664Y-139293793D01*
X51907671Y-139293797D01*
X52042517Y-139344091D01*
X52042516Y-139344091D01*
X52049444Y-139344835D01*
X52102127Y-139350500D01*
X53897872Y-139350499D01*
X53957483Y-139344091D01*
X54092331Y-139293796D01*
X54207546Y-139207546D01*
X54293796Y-139092331D01*
X54342810Y-138960916D01*
X54384681Y-138904984D01*
X54450145Y-138880566D01*
X54518418Y-138895417D01*
X54546673Y-138916569D01*
X54668599Y-139038495D01*
X54765384Y-139106265D01*
X54862165Y-139174032D01*
X54862167Y-139174033D01*
X54862170Y-139174035D01*
X55076337Y-139273903D01*
X55076343Y-139273904D01*
X55076344Y-139273905D01*
X55131285Y-139288626D01*
X55304592Y-139335063D01*
X55481034Y-139350500D01*
X55539999Y-139355659D01*
X55540000Y-139355659D01*
X55540001Y-139355659D01*
X55598966Y-139350500D01*
X55775408Y-139335063D01*
X56003663Y-139273903D01*
X56217830Y-139174035D01*
X56411401Y-139038495D01*
X56578495Y-138871401D01*
X56708730Y-138685405D01*
X56763307Y-138641781D01*
X56832805Y-138634587D01*
X56895160Y-138666110D01*
X56911879Y-138685405D01*
X57041890Y-138871078D01*
X57208917Y-139038105D01*
X57402421Y-139173600D01*
X57616507Y-139273429D01*
X57616516Y-139273433D01*
X57830000Y-139330634D01*
X57830000Y-138435501D01*
X57937685Y-138484680D01*
X58044237Y-138500000D01*
X58115763Y-138500000D01*
X58222315Y-138484680D01*
X58330000Y-138435501D01*
X58330000Y-139330633D01*
X58543483Y-139273433D01*
X58543492Y-139273429D01*
X58757578Y-139173600D01*
X58951082Y-139038105D01*
X59118105Y-138871082D01*
X59248119Y-138685405D01*
X59302696Y-138641781D01*
X59372195Y-138634588D01*
X59434549Y-138666110D01*
X59451269Y-138685405D01*
X59581505Y-138871401D01*
X59748599Y-139038495D01*
X59845384Y-139106265D01*
X59942165Y-139174032D01*
X59942167Y-139174033D01*
X59942170Y-139174035D01*
X60156337Y-139273903D01*
X60156343Y-139273904D01*
X60156344Y-139273905D01*
X60211285Y-139288626D01*
X60384592Y-139335063D01*
X60561034Y-139350500D01*
X60619999Y-139355659D01*
X60620000Y-139355659D01*
X60620001Y-139355659D01*
X60678966Y-139350500D01*
X60855408Y-139335063D01*
X61083663Y-139273903D01*
X61297830Y-139174035D01*
X61491401Y-139038495D01*
X61658495Y-138871401D01*
X61788425Y-138685842D01*
X61843002Y-138642217D01*
X61912500Y-138635023D01*
X61974855Y-138666546D01*
X61991575Y-138685842D01*
X62121500Y-138871395D01*
X62121505Y-138871401D01*
X62288599Y-139038495D01*
X62385384Y-139106265D01*
X62482165Y-139174032D01*
X62482167Y-139174033D01*
X62482170Y-139174035D01*
X62696337Y-139273903D01*
X62696343Y-139273904D01*
X62696344Y-139273905D01*
X62751285Y-139288626D01*
X62924592Y-139335063D01*
X63101034Y-139350500D01*
X63159999Y-139355659D01*
X63160000Y-139355659D01*
X63160001Y-139355659D01*
X63218966Y-139350500D01*
X63395408Y-139335063D01*
X63623663Y-139273903D01*
X63837830Y-139174035D01*
X64031401Y-139038495D01*
X64198495Y-138871401D01*
X64328730Y-138685405D01*
X64383307Y-138641781D01*
X64452805Y-138634587D01*
X64515160Y-138666110D01*
X64531879Y-138685405D01*
X64661890Y-138871078D01*
X64828917Y-139038105D01*
X65022421Y-139173600D01*
X65236507Y-139273429D01*
X65236516Y-139273433D01*
X65450000Y-139330634D01*
X65450000Y-138435501D01*
X65557685Y-138484680D01*
X65664237Y-138500000D01*
X65735763Y-138500000D01*
X65842315Y-138484680D01*
X65950000Y-138435501D01*
X65950000Y-139330633D01*
X66163483Y-139273433D01*
X66163492Y-139273429D01*
X66377578Y-139173600D01*
X66571082Y-139038105D01*
X66738105Y-138871082D01*
X66868119Y-138685405D01*
X66922696Y-138641781D01*
X66992195Y-138634588D01*
X67054549Y-138666110D01*
X67071269Y-138685405D01*
X67201505Y-138871401D01*
X67368599Y-139038495D01*
X67465384Y-139106265D01*
X67562165Y-139174032D01*
X67562167Y-139174033D01*
X67562170Y-139174035D01*
X67776337Y-139273903D01*
X67776343Y-139273904D01*
X67776344Y-139273905D01*
X67831285Y-139288626D01*
X68004592Y-139335063D01*
X68181034Y-139350500D01*
X68239999Y-139355659D01*
X68240000Y-139355659D01*
X68240001Y-139355659D01*
X68298966Y-139350500D01*
X68475408Y-139335063D01*
X68703663Y-139273903D01*
X68917830Y-139174035D01*
X69111401Y-139038495D01*
X69278495Y-138871401D01*
X69408730Y-138685405D01*
X69463307Y-138641781D01*
X69532805Y-138634587D01*
X69595160Y-138666110D01*
X69611879Y-138685405D01*
X69741890Y-138871078D01*
X69908917Y-139038105D01*
X70102421Y-139173600D01*
X70316507Y-139273429D01*
X70316516Y-139273433D01*
X70530000Y-139330634D01*
X70530000Y-138435501D01*
X70637685Y-138484680D01*
X70744237Y-138500000D01*
X70815763Y-138500000D01*
X70922315Y-138484680D01*
X71030000Y-138435501D01*
X71030000Y-139330633D01*
X71243483Y-139273433D01*
X71243492Y-139273429D01*
X71457578Y-139173600D01*
X71651082Y-139038105D01*
X71818105Y-138871082D01*
X71953600Y-138677578D01*
X72036405Y-138500000D01*
X90594540Y-138500000D01*
X90614326Y-138688256D01*
X90614327Y-138688259D01*
X90672818Y-138868277D01*
X90672821Y-138868284D01*
X90767467Y-139032216D01*
X90821595Y-139092331D01*
X90894129Y-139172888D01*
X91047265Y-139284148D01*
X91047270Y-139284151D01*
X91220192Y-139361142D01*
X91220197Y-139361144D01*
X91405354Y-139400500D01*
X91405355Y-139400500D01*
X91594644Y-139400500D01*
X91594646Y-139400500D01*
X91779803Y-139361144D01*
X91952730Y-139284151D01*
X92105871Y-139172888D01*
X92232533Y-139032216D01*
X92327179Y-138868284D01*
X92385674Y-138688256D01*
X92405460Y-138500000D01*
X92385674Y-138311744D01*
X92327179Y-138131716D01*
X92232533Y-137967784D01*
X92105871Y-137827112D01*
X92083893Y-137811144D01*
X91952734Y-137715851D01*
X91952729Y-137715848D01*
X91779807Y-137638857D01*
X91779802Y-137638855D01*
X91634001Y-137607865D01*
X91594646Y-137599500D01*
X91405354Y-137599500D01*
X91372897Y-137606398D01*
X91220197Y-137638855D01*
X91220192Y-137638857D01*
X91047270Y-137715848D01*
X91047265Y-137715851D01*
X90894129Y-137827111D01*
X90767466Y-137967785D01*
X90672821Y-138131715D01*
X90672818Y-138131722D01*
X90614327Y-138311740D01*
X90614326Y-138311744D01*
X90594540Y-138500000D01*
X72036405Y-138500000D01*
X72053429Y-138463492D01*
X72053432Y-138463486D01*
X72110636Y-138250000D01*
X71213686Y-138250000D01*
X71239493Y-138209844D01*
X71280000Y-138071889D01*
X71280000Y-137928111D01*
X71239493Y-137790156D01*
X71213686Y-137750000D01*
X72110636Y-137750000D01*
X72110635Y-137749999D01*
X72053432Y-137536513D01*
X72053429Y-137536507D01*
X71953600Y-137322422D01*
X71953599Y-137322420D01*
X71818113Y-137128926D01*
X71818108Y-137128920D01*
X71651078Y-136961890D01*
X71634097Y-136950000D01*
X88944540Y-136950000D01*
X88964326Y-137138256D01*
X88964327Y-137138259D01*
X89022818Y-137318277D01*
X89022821Y-137318284D01*
X89117467Y-137482216D01*
X89201054Y-137575048D01*
X89244129Y-137622888D01*
X89397265Y-137734148D01*
X89397270Y-137734151D01*
X89570192Y-137811142D01*
X89570197Y-137811144D01*
X89755354Y-137850500D01*
X89755355Y-137850500D01*
X89944644Y-137850500D01*
X89944646Y-137850500D01*
X90129803Y-137811144D01*
X90302730Y-137734151D01*
X90455871Y-137622888D01*
X90582533Y-137482216D01*
X90677179Y-137318284D01*
X90735674Y-137138256D01*
X90755460Y-136950000D01*
X90735674Y-136761744D01*
X90677179Y-136581716D01*
X90582533Y-136417784D01*
X90455871Y-136277112D01*
X90455870Y-136277111D01*
X90302734Y-136165851D01*
X90302729Y-136165848D01*
X90129807Y-136088857D01*
X90129802Y-136088855D01*
X89984001Y-136057865D01*
X89944646Y-136049500D01*
X89755354Y-136049500D01*
X89722897Y-136056398D01*
X89570197Y-136088855D01*
X89570192Y-136088857D01*
X89397270Y-136165848D01*
X89397265Y-136165851D01*
X89244129Y-136277111D01*
X89117466Y-136417785D01*
X89022821Y-136581715D01*
X89022818Y-136581722D01*
X88967329Y-136752501D01*
X88964326Y-136761744D01*
X88944540Y-136950000D01*
X71634097Y-136950000D01*
X71465405Y-136831879D01*
X71421780Y-136777302D01*
X71414588Y-136707804D01*
X71446110Y-136645449D01*
X71465406Y-136628730D01*
X71466279Y-136628119D01*
X71651401Y-136498495D01*
X71818495Y-136331401D01*
X71954035Y-136137830D01*
X72053903Y-135923663D01*
X72115063Y-135695408D01*
X72135659Y-135460000D01*
X72115063Y-135224592D01*
X72053903Y-134996337D01*
X71954035Y-134782171D01*
X71948731Y-134774595D01*
X71818494Y-134588597D01*
X71651402Y-134421506D01*
X71651395Y-134421501D01*
X71457834Y-134285967D01*
X71457830Y-134285965D01*
X71457828Y-134285964D01*
X71243663Y-134186097D01*
X71243659Y-134186096D01*
X71243655Y-134186094D01*
X71015413Y-134124938D01*
X71015403Y-134124936D01*
X70780001Y-134104341D01*
X70779999Y-134104341D01*
X70544596Y-134124936D01*
X70544586Y-134124938D01*
X70316344Y-134186094D01*
X70316337Y-134186096D01*
X70316337Y-134186097D01*
X70310420Y-134188856D01*
X70102171Y-134285964D01*
X70102169Y-134285965D01*
X69908597Y-134421505D01*
X69741508Y-134588594D01*
X69611269Y-134774595D01*
X69556692Y-134818219D01*
X69487193Y-134825412D01*
X69424839Y-134793890D01*
X69408119Y-134774594D01*
X69278113Y-134588926D01*
X69278108Y-134588920D01*
X69111082Y-134421894D01*
X68917578Y-134286399D01*
X68703492Y-134186570D01*
X68703486Y-134186567D01*
X68490000Y-134129364D01*
X68490000Y-135024498D01*
X68382315Y-134975320D01*
X68275763Y-134960000D01*
X68204237Y-134960000D01*
X68097685Y-134975320D01*
X67990000Y-135024498D01*
X67990000Y-134129364D01*
X67989999Y-134129364D01*
X67776513Y-134186567D01*
X67776507Y-134186570D01*
X67562422Y-134286399D01*
X67562420Y-134286400D01*
X67368926Y-134421886D01*
X67368920Y-134421891D01*
X67201891Y-134588920D01*
X67201890Y-134588922D01*
X67071880Y-134774595D01*
X67017303Y-134818219D01*
X66947804Y-134825412D01*
X66885450Y-134793890D01*
X66868730Y-134774594D01*
X66738494Y-134588597D01*
X66571402Y-134421506D01*
X66571395Y-134421501D01*
X66377834Y-134285967D01*
X66377830Y-134285965D01*
X66377828Y-134285964D01*
X66163663Y-134186097D01*
X66163659Y-134186096D01*
X66163655Y-134186094D01*
X65935413Y-134124938D01*
X65935403Y-134124936D01*
X65700001Y-134104341D01*
X65699999Y-134104341D01*
X65464596Y-134124936D01*
X65464586Y-134124938D01*
X65236344Y-134186094D01*
X65236337Y-134186096D01*
X65236337Y-134186097D01*
X65230420Y-134188856D01*
X65022171Y-134285964D01*
X65022169Y-134285965D01*
X64828597Y-134421505D01*
X64661508Y-134588594D01*
X64531269Y-134774595D01*
X64476692Y-134818219D01*
X64407193Y-134825412D01*
X64344839Y-134793890D01*
X64328119Y-134774594D01*
X64198113Y-134588926D01*
X64198108Y-134588920D01*
X64031082Y-134421894D01*
X63837578Y-134286399D01*
X63623492Y-134186570D01*
X63623486Y-134186567D01*
X63410000Y-134129364D01*
X63410000Y-135024498D01*
X63302315Y-134975320D01*
X63195763Y-134960000D01*
X63124237Y-134960000D01*
X63017685Y-134975320D01*
X62910000Y-135024498D01*
X62910000Y-134129364D01*
X62909999Y-134129364D01*
X62696513Y-134186567D01*
X62696507Y-134186570D01*
X62482422Y-134286399D01*
X62482420Y-134286400D01*
X62288926Y-134421886D01*
X62288920Y-134421891D01*
X62121891Y-134588920D01*
X62121890Y-134588922D01*
X61991880Y-134774595D01*
X61937303Y-134818219D01*
X61867804Y-134825412D01*
X61805450Y-134793890D01*
X61788730Y-134774594D01*
X61658494Y-134588597D01*
X61491402Y-134421506D01*
X61491395Y-134421501D01*
X61297834Y-134285967D01*
X61297830Y-134285965D01*
X61297828Y-134285964D01*
X61083663Y-134186097D01*
X61083659Y-134186096D01*
X61083655Y-134186094D01*
X60855413Y-134124938D01*
X60855403Y-134124936D01*
X60620001Y-134104341D01*
X60619999Y-134104341D01*
X60384596Y-134124936D01*
X60384586Y-134124938D01*
X60156344Y-134186094D01*
X60156337Y-134186096D01*
X60156337Y-134186097D01*
X60150420Y-134188856D01*
X59942171Y-134285964D01*
X59942169Y-134285965D01*
X59748597Y-134421505D01*
X59581508Y-134588594D01*
X59451269Y-134774595D01*
X59396692Y-134818219D01*
X59327193Y-134825412D01*
X59264839Y-134793890D01*
X59248119Y-134774594D01*
X59118113Y-134588926D01*
X59118108Y-134588920D01*
X58951082Y-134421894D01*
X58757578Y-134286399D01*
X58543492Y-134186570D01*
X58543486Y-134186567D01*
X58330000Y-134129364D01*
X58330000Y-135024498D01*
X58222315Y-134975320D01*
X58115763Y-134960000D01*
X58044237Y-134960000D01*
X57937685Y-134975320D01*
X57830000Y-135024498D01*
X57830000Y-134129364D01*
X57829999Y-134129364D01*
X57616513Y-134186567D01*
X57616507Y-134186570D01*
X57402422Y-134286399D01*
X57402420Y-134286400D01*
X57208926Y-134421886D01*
X57208920Y-134421891D01*
X57041891Y-134588920D01*
X57041890Y-134588922D01*
X56911880Y-134774595D01*
X56857303Y-134818219D01*
X56787804Y-134825412D01*
X56725450Y-134793890D01*
X56708730Y-134774594D01*
X56578494Y-134588597D01*
X56411402Y-134421506D01*
X56411395Y-134421501D01*
X56217834Y-134285967D01*
X56217830Y-134285965D01*
X56217828Y-134285964D01*
X56003663Y-134186097D01*
X56003659Y-134186096D01*
X56003655Y-134186094D01*
X55775413Y-134124938D01*
X55775403Y-134124936D01*
X55540001Y-134104341D01*
X55539999Y-134104341D01*
X55304596Y-134124936D01*
X55304586Y-134124938D01*
X55076344Y-134186094D01*
X55076337Y-134186096D01*
X55076337Y-134186097D01*
X55070420Y-134188856D01*
X54862171Y-134285964D01*
X54862169Y-134285965D01*
X54668597Y-134421505D01*
X54501505Y-134588597D01*
X54371575Y-134774158D01*
X54316998Y-134817783D01*
X54247500Y-134824977D01*
X54185145Y-134793454D01*
X54168425Y-134774158D01*
X54038494Y-134588597D01*
X53871402Y-134421506D01*
X53871395Y-134421501D01*
X53677834Y-134285967D01*
X53677830Y-134285965D01*
X53677828Y-134285964D01*
X53463663Y-134186097D01*
X53463659Y-134186096D01*
X53463655Y-134186094D01*
X53235413Y-134124938D01*
X53235403Y-134124936D01*
X53000001Y-134104341D01*
X52999999Y-134104341D01*
X52764596Y-134124936D01*
X52764586Y-134124938D01*
X52536344Y-134186094D01*
X52536337Y-134186096D01*
X52536337Y-134186097D01*
X52530420Y-134188856D01*
X52322171Y-134285964D01*
X52322169Y-134285965D01*
X52128597Y-134421505D01*
X51961505Y-134588597D01*
X51825965Y-134782169D01*
X51825964Y-134782171D01*
X51726098Y-134996335D01*
X51726094Y-134996344D01*
X51664938Y-135224586D01*
X51664936Y-135224596D01*
X51644341Y-135459999D01*
X51644341Y-135460000D01*
X50400500Y-135460000D01*
X50400500Y-130500003D01*
X50994415Y-130500003D01*
X51014738Y-130848927D01*
X51014739Y-130848938D01*
X51075428Y-131193127D01*
X51075430Y-131193134D01*
X51175674Y-131527972D01*
X51314107Y-131848895D01*
X51314113Y-131848908D01*
X51488870Y-132151597D01*
X51697584Y-132431949D01*
X51697589Y-132431955D01*
X51759770Y-132497862D01*
X51937442Y-132686183D01*
X52113903Y-132834251D01*
X52205186Y-132910847D01*
X52205194Y-132910853D01*
X52497203Y-133102911D01*
X52497207Y-133102913D01*
X52809549Y-133259777D01*
X53137989Y-133379319D01*
X53478086Y-133459923D01*
X53825241Y-133500500D01*
X53825248Y-133500500D01*
X54174752Y-133500500D01*
X54174759Y-133500500D01*
X54521914Y-133459923D01*
X54862011Y-133379319D01*
X55190451Y-133259777D01*
X55409035Y-133150000D01*
X77244540Y-133150000D01*
X77264326Y-133338256D01*
X77264327Y-133338259D01*
X77322818Y-133518277D01*
X77322821Y-133518284D01*
X77417467Y-133682216D01*
X77544129Y-133822888D01*
X77697265Y-133934148D01*
X77697270Y-133934151D01*
X77870192Y-134011142D01*
X77870197Y-134011144D01*
X78055354Y-134050500D01*
X78055355Y-134050500D01*
X78244644Y-134050500D01*
X78244646Y-134050500D01*
X78244647Y-134050499D01*
X78250908Y-134049841D01*
X78319639Y-134062403D01*
X78370668Y-134110130D01*
X78387793Y-134177868D01*
X78365577Y-134244112D01*
X78336768Y-134273478D01*
X78194127Y-134377113D01*
X78067466Y-134517785D01*
X77972821Y-134681715D01*
X77972818Y-134681722D01*
X77928468Y-134818219D01*
X77914326Y-134861744D01*
X77894540Y-135050000D01*
X77914326Y-135238256D01*
X77914327Y-135238259D01*
X77972818Y-135418277D01*
X77972821Y-135418284D01*
X78067467Y-135582216D01*
X78146368Y-135669844D01*
X78194129Y-135722888D01*
X78347265Y-135834148D01*
X78347270Y-135834151D01*
X78520192Y-135911142D01*
X78520197Y-135911144D01*
X78705354Y-135950500D01*
X78705355Y-135950500D01*
X78894644Y-135950500D01*
X78894646Y-135950500D01*
X79079803Y-135911144D01*
X79252730Y-135834151D01*
X79405871Y-135722888D01*
X79532533Y-135582216D01*
X79627179Y-135418284D01*
X79685674Y-135238256D01*
X79705460Y-135050000D01*
X84094540Y-135050000D01*
X84114326Y-135238256D01*
X84114327Y-135238259D01*
X84172818Y-135418277D01*
X84172821Y-135418284D01*
X84267467Y-135582216D01*
X84346368Y-135669844D01*
X84394129Y-135722888D01*
X84547265Y-135834148D01*
X84547270Y-135834151D01*
X84720192Y-135911142D01*
X84720197Y-135911144D01*
X84905354Y-135950500D01*
X84905355Y-135950500D01*
X85094644Y-135950500D01*
X85094646Y-135950500D01*
X85279803Y-135911144D01*
X85452730Y-135834151D01*
X85605871Y-135722888D01*
X85732533Y-135582216D01*
X85827179Y-135418284D01*
X85885674Y-135238256D01*
X85905460Y-135050000D01*
X90944540Y-135050000D01*
X90964326Y-135238256D01*
X90964327Y-135238259D01*
X91022818Y-135418277D01*
X91022821Y-135418284D01*
X91117467Y-135582216D01*
X91196368Y-135669844D01*
X91244129Y-135722888D01*
X91397265Y-135834148D01*
X91397270Y-135834151D01*
X91570192Y-135911142D01*
X91570197Y-135911144D01*
X91755354Y-135950500D01*
X91755355Y-135950500D01*
X91944644Y-135950500D01*
X91944646Y-135950500D01*
X92129803Y-135911144D01*
X92302730Y-135834151D01*
X92455871Y-135722888D01*
X92582533Y-135582216D01*
X92677179Y-135418284D01*
X92735674Y-135238256D01*
X92750205Y-135100000D01*
X98644540Y-135100000D01*
X98664326Y-135288256D01*
X98664327Y-135288259D01*
X98722818Y-135468277D01*
X98722821Y-135468284D01*
X98817467Y-135632216D01*
X98899109Y-135722888D01*
X98944129Y-135772888D01*
X99097265Y-135884148D01*
X99097270Y-135884151D01*
X99270192Y-135961142D01*
X99270197Y-135961144D01*
X99455354Y-136000500D01*
X99455355Y-136000500D01*
X99644644Y-136000500D01*
X99644646Y-136000500D01*
X99829803Y-135961144D01*
X100002730Y-135884151D01*
X100155871Y-135772888D01*
X100282533Y-135632216D01*
X100377179Y-135468284D01*
X100379871Y-135460000D01*
X107864341Y-135460000D01*
X107884936Y-135695403D01*
X107884938Y-135695413D01*
X107946094Y-135923655D01*
X107946096Y-135923659D01*
X107946097Y-135923663D01*
X108025801Y-136094588D01*
X108045965Y-136137830D01*
X108045967Y-136137834D01*
X108143491Y-136277111D01*
X108181504Y-136331400D01*
X108181506Y-136331402D01*
X108303430Y-136453326D01*
X108336915Y-136514649D01*
X108331931Y-136584341D01*
X108290059Y-136640274D01*
X108259083Y-136657189D01*
X108127669Y-136706203D01*
X108127664Y-136706206D01*
X108012455Y-136792452D01*
X108012452Y-136792455D01*
X107926206Y-136907664D01*
X107926202Y-136907671D01*
X107875908Y-137042517D01*
X107869501Y-137102116D01*
X107869500Y-137102135D01*
X107869500Y-138897870D01*
X107869501Y-138897876D01*
X107875908Y-138957483D01*
X107926202Y-139092328D01*
X107926206Y-139092335D01*
X108012452Y-139207544D01*
X108012455Y-139207547D01*
X108127664Y-139293793D01*
X108127671Y-139293797D01*
X108262517Y-139344091D01*
X108262516Y-139344091D01*
X108269444Y-139344835D01*
X108322127Y-139350500D01*
X110117872Y-139350499D01*
X110177483Y-139344091D01*
X110312331Y-139293796D01*
X110427546Y-139207546D01*
X110513796Y-139092331D01*
X110562810Y-138960916D01*
X110604681Y-138904984D01*
X110670145Y-138880566D01*
X110738418Y-138895417D01*
X110766673Y-138916569D01*
X110888599Y-139038495D01*
X110985384Y-139106265D01*
X111082165Y-139174032D01*
X111082167Y-139174033D01*
X111082170Y-139174035D01*
X111296337Y-139273903D01*
X111296343Y-139273904D01*
X111296344Y-139273905D01*
X111351285Y-139288626D01*
X111524592Y-139335063D01*
X111701034Y-139350500D01*
X111759999Y-139355659D01*
X111760000Y-139355659D01*
X111760001Y-139355659D01*
X111818966Y-139350500D01*
X111995408Y-139335063D01*
X112223663Y-139273903D01*
X112437830Y-139174035D01*
X112631401Y-139038495D01*
X112798495Y-138871401D01*
X112928425Y-138685842D01*
X112983002Y-138642217D01*
X113052500Y-138635023D01*
X113114855Y-138666546D01*
X113131575Y-138685842D01*
X113261500Y-138871395D01*
X113261505Y-138871401D01*
X113428599Y-139038495D01*
X113525384Y-139106265D01*
X113622165Y-139174032D01*
X113622167Y-139174033D01*
X113622170Y-139174035D01*
X113836337Y-139273903D01*
X113836343Y-139273904D01*
X113836344Y-139273905D01*
X113891285Y-139288626D01*
X114064592Y-139335063D01*
X114241034Y-139350500D01*
X114299999Y-139355659D01*
X114300000Y-139355659D01*
X114300001Y-139355659D01*
X114358966Y-139350500D01*
X114535408Y-139335063D01*
X114763663Y-139273903D01*
X114977830Y-139174035D01*
X115171401Y-139038495D01*
X115338495Y-138871401D01*
X115468425Y-138685842D01*
X115523002Y-138642217D01*
X115592500Y-138635023D01*
X115654855Y-138666546D01*
X115671575Y-138685842D01*
X115801500Y-138871395D01*
X115801505Y-138871401D01*
X115968599Y-139038495D01*
X116065384Y-139106265D01*
X116162165Y-139174032D01*
X116162167Y-139174033D01*
X116162170Y-139174035D01*
X116376337Y-139273903D01*
X116376343Y-139273904D01*
X116376344Y-139273905D01*
X116431285Y-139288626D01*
X116604592Y-139335063D01*
X116781034Y-139350500D01*
X116839999Y-139355659D01*
X116840000Y-139355659D01*
X116840001Y-139355659D01*
X116898966Y-139350500D01*
X117075408Y-139335063D01*
X117303663Y-139273903D01*
X117517830Y-139174035D01*
X117711401Y-139038495D01*
X117878495Y-138871401D01*
X118008425Y-138685842D01*
X118063002Y-138642217D01*
X118132500Y-138635023D01*
X118194855Y-138666546D01*
X118211575Y-138685842D01*
X118341500Y-138871395D01*
X118341505Y-138871401D01*
X118508599Y-139038495D01*
X118605384Y-139106265D01*
X118702165Y-139174032D01*
X118702167Y-139174033D01*
X118702170Y-139174035D01*
X118916337Y-139273903D01*
X118916343Y-139273904D01*
X118916344Y-139273905D01*
X118971285Y-139288626D01*
X119144592Y-139335063D01*
X119321034Y-139350500D01*
X119379999Y-139355659D01*
X119380000Y-139355659D01*
X119380001Y-139355659D01*
X119438966Y-139350500D01*
X119615408Y-139335063D01*
X119843663Y-139273903D01*
X120057830Y-139174035D01*
X120251401Y-139038495D01*
X120418495Y-138871401D01*
X120548425Y-138685842D01*
X120603002Y-138642217D01*
X120672500Y-138635023D01*
X120734855Y-138666546D01*
X120751575Y-138685842D01*
X120881500Y-138871395D01*
X120881505Y-138871401D01*
X121048599Y-139038495D01*
X121145384Y-139106265D01*
X121242165Y-139174032D01*
X121242167Y-139174033D01*
X121242170Y-139174035D01*
X121456337Y-139273903D01*
X121456343Y-139273904D01*
X121456344Y-139273905D01*
X121511285Y-139288626D01*
X121684592Y-139335063D01*
X121861034Y-139350500D01*
X121919999Y-139355659D01*
X121920000Y-139355659D01*
X121920001Y-139355659D01*
X121978966Y-139350500D01*
X122155408Y-139335063D01*
X122383663Y-139273903D01*
X122597830Y-139174035D01*
X122791401Y-139038495D01*
X122958495Y-138871401D01*
X123088425Y-138685842D01*
X123143002Y-138642217D01*
X123212500Y-138635023D01*
X123274855Y-138666546D01*
X123291575Y-138685842D01*
X123421500Y-138871395D01*
X123421505Y-138871401D01*
X123588599Y-139038495D01*
X123685384Y-139106265D01*
X123782165Y-139174032D01*
X123782167Y-139174033D01*
X123782170Y-139174035D01*
X123996337Y-139273903D01*
X123996343Y-139273904D01*
X123996344Y-139273905D01*
X124051285Y-139288626D01*
X124224592Y-139335063D01*
X124401034Y-139350500D01*
X124459999Y-139355659D01*
X124460000Y-139355659D01*
X124460001Y-139355659D01*
X124518966Y-139350500D01*
X124695408Y-139335063D01*
X124923663Y-139273903D01*
X125137830Y-139174035D01*
X125331401Y-139038495D01*
X125498495Y-138871401D01*
X125628425Y-138685842D01*
X125683002Y-138642217D01*
X125752500Y-138635023D01*
X125814855Y-138666546D01*
X125831575Y-138685842D01*
X125961500Y-138871395D01*
X125961505Y-138871401D01*
X126128599Y-139038495D01*
X126225384Y-139106265D01*
X126322165Y-139174032D01*
X126322167Y-139174033D01*
X126322170Y-139174035D01*
X126536337Y-139273903D01*
X126536343Y-139273904D01*
X126536344Y-139273905D01*
X126591285Y-139288626D01*
X126764592Y-139335063D01*
X126941034Y-139350500D01*
X126999999Y-139355659D01*
X127000000Y-139355659D01*
X127000001Y-139355659D01*
X127058966Y-139350500D01*
X127235408Y-139335063D01*
X127463663Y-139273903D01*
X127677830Y-139174035D01*
X127871401Y-139038495D01*
X128038495Y-138871401D01*
X128174035Y-138677830D01*
X128273903Y-138463663D01*
X128335063Y-138235408D01*
X128355659Y-138000000D01*
X128352840Y-137967785D01*
X128339136Y-137811144D01*
X128335063Y-137764592D01*
X128273903Y-137536337D01*
X128174035Y-137322171D01*
X128171314Y-137318284D01*
X128038494Y-137128597D01*
X127871402Y-136961506D01*
X127871396Y-136961501D01*
X127685842Y-136831575D01*
X127642217Y-136776998D01*
X127635023Y-136707500D01*
X127666546Y-136645145D01*
X127685842Y-136628425D01*
X127748800Y-136584341D01*
X127871401Y-136498495D01*
X128038495Y-136331401D01*
X128174035Y-136137830D01*
X128273903Y-135923663D01*
X128335063Y-135695408D01*
X128355659Y-135460000D01*
X128335063Y-135224592D01*
X128273903Y-134996337D01*
X128174035Y-134782171D01*
X128168731Y-134774595D01*
X128038494Y-134588597D01*
X127871402Y-134421506D01*
X127871395Y-134421501D01*
X127677834Y-134285967D01*
X127677830Y-134285965D01*
X127677828Y-134285964D01*
X127463663Y-134186097D01*
X127463659Y-134186096D01*
X127463655Y-134186094D01*
X127235413Y-134124938D01*
X127235403Y-134124936D01*
X127000001Y-134104341D01*
X126999999Y-134104341D01*
X126764596Y-134124936D01*
X126764586Y-134124938D01*
X126536344Y-134186094D01*
X126536337Y-134186096D01*
X126536337Y-134186097D01*
X126530420Y-134188856D01*
X126322171Y-134285964D01*
X126322169Y-134285965D01*
X126128597Y-134421505D01*
X125961505Y-134588597D01*
X125831575Y-134774158D01*
X125776998Y-134817783D01*
X125707500Y-134824977D01*
X125645145Y-134793454D01*
X125628425Y-134774158D01*
X125498494Y-134588597D01*
X125331402Y-134421506D01*
X125331395Y-134421501D01*
X125137834Y-134285967D01*
X125137830Y-134285965D01*
X125137828Y-134285964D01*
X124923663Y-134186097D01*
X124923659Y-134186096D01*
X124923655Y-134186094D01*
X124695413Y-134124938D01*
X124695403Y-134124936D01*
X124460001Y-134104341D01*
X124459999Y-134104341D01*
X124224596Y-134124936D01*
X124224586Y-134124938D01*
X123996344Y-134186094D01*
X123996337Y-134186096D01*
X123996337Y-134186097D01*
X123990420Y-134188856D01*
X123782171Y-134285964D01*
X123782169Y-134285965D01*
X123588597Y-134421505D01*
X123421505Y-134588597D01*
X123291575Y-134774158D01*
X123236998Y-134817783D01*
X123167500Y-134824977D01*
X123105145Y-134793454D01*
X123088425Y-134774158D01*
X122958494Y-134588597D01*
X122791402Y-134421506D01*
X122791395Y-134421501D01*
X122597834Y-134285967D01*
X122597830Y-134285965D01*
X122597828Y-134285964D01*
X122383663Y-134186097D01*
X122383659Y-134186096D01*
X122383655Y-134186094D01*
X122155413Y-134124938D01*
X122155403Y-134124936D01*
X121920001Y-134104341D01*
X121919999Y-134104341D01*
X121684596Y-134124936D01*
X121684586Y-134124938D01*
X121456344Y-134186094D01*
X121456337Y-134186096D01*
X121456337Y-134186097D01*
X121450420Y-134188856D01*
X121242171Y-134285964D01*
X121242169Y-134285965D01*
X121048597Y-134421505D01*
X120881505Y-134588597D01*
X120751575Y-134774158D01*
X120696998Y-134817783D01*
X120627500Y-134824977D01*
X120565145Y-134793454D01*
X120548425Y-134774158D01*
X120418494Y-134588597D01*
X120251402Y-134421506D01*
X120251395Y-134421501D01*
X120057834Y-134285967D01*
X120057830Y-134285965D01*
X120057828Y-134285964D01*
X119843663Y-134186097D01*
X119843659Y-134186096D01*
X119843655Y-134186094D01*
X119615413Y-134124938D01*
X119615403Y-134124936D01*
X119380001Y-134104341D01*
X119379999Y-134104341D01*
X119144596Y-134124936D01*
X119144586Y-134124938D01*
X118916344Y-134186094D01*
X118916337Y-134186096D01*
X118916337Y-134186097D01*
X118910420Y-134188856D01*
X118702171Y-134285964D01*
X118702169Y-134285965D01*
X118508597Y-134421505D01*
X118341505Y-134588597D01*
X118211575Y-134774158D01*
X118156998Y-134817783D01*
X118087500Y-134824977D01*
X118025145Y-134793454D01*
X118008425Y-134774158D01*
X117878494Y-134588597D01*
X117711402Y-134421506D01*
X117711395Y-134421501D01*
X117517834Y-134285967D01*
X117517830Y-134285965D01*
X117517828Y-134285964D01*
X117303663Y-134186097D01*
X117303659Y-134186096D01*
X117303655Y-134186094D01*
X117075413Y-134124938D01*
X117075403Y-134124936D01*
X116840001Y-134104341D01*
X116839999Y-134104341D01*
X116604596Y-134124936D01*
X116604586Y-134124938D01*
X116376344Y-134186094D01*
X116376337Y-134186096D01*
X116376337Y-134186097D01*
X116370420Y-134188856D01*
X116162171Y-134285964D01*
X116162169Y-134285965D01*
X115968597Y-134421505D01*
X115801505Y-134588597D01*
X115671575Y-134774158D01*
X115616998Y-134817783D01*
X115547500Y-134824977D01*
X115485145Y-134793454D01*
X115468425Y-134774158D01*
X115338494Y-134588597D01*
X115171402Y-134421506D01*
X115171395Y-134421501D01*
X114977834Y-134285967D01*
X114977830Y-134285965D01*
X114977828Y-134285964D01*
X114763663Y-134186097D01*
X114763659Y-134186096D01*
X114763655Y-134186094D01*
X114535413Y-134124938D01*
X114535403Y-134124936D01*
X114300001Y-134104341D01*
X114299999Y-134104341D01*
X114064596Y-134124936D01*
X114064586Y-134124938D01*
X113836344Y-134186094D01*
X113836337Y-134186096D01*
X113836337Y-134186097D01*
X113830420Y-134188856D01*
X113622171Y-134285964D01*
X113622169Y-134285965D01*
X113428597Y-134421505D01*
X113261505Y-134588597D01*
X113131575Y-134774158D01*
X113076998Y-134817783D01*
X113007500Y-134824977D01*
X112945145Y-134793454D01*
X112928425Y-134774158D01*
X112798494Y-134588597D01*
X112631402Y-134421506D01*
X112631395Y-134421501D01*
X112437834Y-134285967D01*
X112437830Y-134285965D01*
X112437828Y-134285964D01*
X112223663Y-134186097D01*
X112223659Y-134186096D01*
X112223655Y-134186094D01*
X111995413Y-134124938D01*
X111995403Y-134124936D01*
X111760001Y-134104341D01*
X111759999Y-134104341D01*
X111524596Y-134124936D01*
X111524586Y-134124938D01*
X111296344Y-134186094D01*
X111296337Y-134186096D01*
X111296337Y-134186097D01*
X111290420Y-134188856D01*
X111082171Y-134285964D01*
X111082169Y-134285965D01*
X110888597Y-134421505D01*
X110721505Y-134588597D01*
X110591575Y-134774158D01*
X110536998Y-134817783D01*
X110467500Y-134824977D01*
X110405145Y-134793454D01*
X110388425Y-134774158D01*
X110258494Y-134588597D01*
X110091402Y-134421506D01*
X110091395Y-134421501D01*
X109897834Y-134285967D01*
X109897830Y-134285965D01*
X109897828Y-134285964D01*
X109683663Y-134186097D01*
X109683659Y-134186096D01*
X109683655Y-134186094D01*
X109455413Y-134124938D01*
X109455403Y-134124936D01*
X109220001Y-134104341D01*
X109219999Y-134104341D01*
X108984596Y-134124936D01*
X108984586Y-134124938D01*
X108756344Y-134186094D01*
X108756337Y-134186096D01*
X108756337Y-134186097D01*
X108750420Y-134188856D01*
X108542171Y-134285964D01*
X108542169Y-134285965D01*
X108348597Y-134421505D01*
X108181505Y-134588597D01*
X108045965Y-134782169D01*
X108045964Y-134782171D01*
X107946098Y-134996335D01*
X107946094Y-134996344D01*
X107884938Y-135224586D01*
X107884936Y-135224596D01*
X107864341Y-135459999D01*
X107864341Y-135460000D01*
X100379871Y-135460000D01*
X100435674Y-135288256D01*
X100455460Y-135100000D01*
X100435674Y-134911744D01*
X100377179Y-134731716D01*
X100282533Y-134567784D01*
X100155871Y-134427112D01*
X100148154Y-134421505D01*
X100002734Y-134315851D01*
X100002729Y-134315848D01*
X99829807Y-134238857D01*
X99829802Y-134238855D01*
X99684001Y-134207865D01*
X99644646Y-134199500D01*
X99455354Y-134199500D01*
X99422897Y-134206398D01*
X99270197Y-134238855D01*
X99270192Y-134238857D01*
X99097270Y-134315848D01*
X99097265Y-134315851D01*
X98944129Y-134427111D01*
X98817466Y-134567785D01*
X98722821Y-134731715D01*
X98722818Y-134731722D01*
X98680573Y-134861740D01*
X98664326Y-134911744D01*
X98644540Y-135100000D01*
X92750205Y-135100000D01*
X92755460Y-135050000D01*
X92735674Y-134861744D01*
X92677179Y-134681716D01*
X92582533Y-134517784D01*
X92455871Y-134377112D01*
X92455870Y-134377111D01*
X92302734Y-134265851D01*
X92302729Y-134265848D01*
X92129807Y-134188857D01*
X92129802Y-134188855D01*
X91984001Y-134157865D01*
X91944646Y-134149500D01*
X91755354Y-134149500D01*
X91722897Y-134156398D01*
X91570197Y-134188855D01*
X91570192Y-134188857D01*
X91397270Y-134265848D01*
X91397265Y-134265851D01*
X91244129Y-134377111D01*
X91117466Y-134517785D01*
X91022821Y-134681715D01*
X91022818Y-134681722D01*
X90978468Y-134818219D01*
X90964326Y-134861744D01*
X90944540Y-135050000D01*
X85905460Y-135050000D01*
X85885674Y-134861744D01*
X85827179Y-134681716D01*
X85732533Y-134517784D01*
X85605871Y-134377112D01*
X85605870Y-134377111D01*
X85452734Y-134265851D01*
X85452729Y-134265848D01*
X85279807Y-134188857D01*
X85279802Y-134188855D01*
X85134001Y-134157865D01*
X85094646Y-134149500D01*
X84905354Y-134149500D01*
X84872897Y-134156398D01*
X84720197Y-134188855D01*
X84720192Y-134188857D01*
X84547270Y-134265848D01*
X84547265Y-134265851D01*
X84394129Y-134377111D01*
X84267466Y-134517785D01*
X84172821Y-134681715D01*
X84172818Y-134681722D01*
X84128468Y-134818219D01*
X84114326Y-134861744D01*
X84094540Y-135050000D01*
X79705460Y-135050000D01*
X79685674Y-134861744D01*
X79627179Y-134681716D01*
X79532533Y-134517784D01*
X79405871Y-134377112D01*
X79252730Y-134265849D01*
X79252724Y-134265846D01*
X79251486Y-134265131D01*
X79250907Y-134264524D01*
X79247473Y-134262029D01*
X79247929Y-134261400D01*
X79203269Y-134214565D01*
X79190044Y-134145959D01*
X79216010Y-134081093D01*
X79272923Y-134040563D01*
X79339263Y-134036452D01*
X79405354Y-134050500D01*
X79405355Y-134050500D01*
X79594644Y-134050500D01*
X79594646Y-134050500D01*
X79779803Y-134011144D01*
X79952730Y-133934151D01*
X80105871Y-133822888D01*
X80232533Y-133682216D01*
X80327179Y-133518284D01*
X80385674Y-133338256D01*
X80405460Y-133150000D01*
X80385674Y-132961744D01*
X80327179Y-132781716D01*
X80232533Y-132617784D01*
X80105871Y-132477112D01*
X80105870Y-132477111D01*
X79952734Y-132365851D01*
X79952729Y-132365848D01*
X79779807Y-132288857D01*
X79779802Y-132288855D01*
X79634001Y-132257865D01*
X79594646Y-132249500D01*
X79405354Y-132249500D01*
X79372897Y-132256398D01*
X79220197Y-132288855D01*
X79220192Y-132288857D01*
X79047270Y-132365848D01*
X79047265Y-132365851D01*
X78897885Y-132474382D01*
X78832078Y-132497862D01*
X78764025Y-132482036D01*
X78752115Y-132474382D01*
X78602734Y-132365851D01*
X78602729Y-132365848D01*
X78429807Y-132288857D01*
X78429802Y-132288855D01*
X78284001Y-132257865D01*
X78244646Y-132249500D01*
X78055354Y-132249500D01*
X78022897Y-132256398D01*
X77870197Y-132288855D01*
X77870192Y-132288857D01*
X77697270Y-132365848D01*
X77697265Y-132365851D01*
X77544129Y-132477111D01*
X77417466Y-132617785D01*
X77322821Y-132781715D01*
X77322818Y-132781722D01*
X77278446Y-132918286D01*
X77264326Y-132961744D01*
X77244540Y-133150000D01*
X55409035Y-133150000D01*
X55502793Y-133102913D01*
X55794811Y-132910849D01*
X56062558Y-132686183D01*
X56302412Y-132431953D01*
X56511130Y-132151596D01*
X56685889Y-131848904D01*
X56824326Y-131527971D01*
X56924569Y-131193136D01*
X56985262Y-130848927D01*
X57005585Y-130500003D01*
X86994415Y-130500003D01*
X87014738Y-130848927D01*
X87014739Y-130848938D01*
X87075428Y-131193127D01*
X87075430Y-131193134D01*
X87175674Y-131527972D01*
X87314107Y-131848895D01*
X87314113Y-131848908D01*
X87488870Y-132151597D01*
X87697584Y-132431949D01*
X87697589Y-132431955D01*
X87759770Y-132497862D01*
X87937442Y-132686183D01*
X88113903Y-132834251D01*
X88205186Y-132910847D01*
X88205194Y-132910853D01*
X88497203Y-133102911D01*
X88497207Y-133102913D01*
X88809549Y-133259777D01*
X89137989Y-133379319D01*
X89478086Y-133459923D01*
X89825241Y-133500500D01*
X89825248Y-133500500D01*
X90174752Y-133500500D01*
X90174759Y-133500500D01*
X90521914Y-133459923D01*
X90774750Y-133400000D01*
X100794540Y-133400000D01*
X100814326Y-133588256D01*
X100814327Y-133588259D01*
X100872818Y-133768277D01*
X100872821Y-133768284D01*
X100967467Y-133932216D01*
X101073377Y-134049841D01*
X101094129Y-134072888D01*
X101247265Y-134184148D01*
X101247270Y-134184151D01*
X101420192Y-134261142D01*
X101420197Y-134261144D01*
X101605354Y-134300500D01*
X101605355Y-134300500D01*
X101794644Y-134300500D01*
X101794646Y-134300500D01*
X101979803Y-134261144D01*
X102152730Y-134184151D01*
X102305871Y-134072888D01*
X102432533Y-133932216D01*
X102527179Y-133768284D01*
X102585674Y-133588256D01*
X102588482Y-133561541D01*
X102615066Y-133496926D01*
X102672363Y-133456941D01*
X102711803Y-133450502D01*
X102844644Y-133450502D01*
X102844646Y-133450502D01*
X103029803Y-133411146D01*
X103202730Y-133334153D01*
X103355871Y-133222890D01*
X103482533Y-133082218D01*
X103577179Y-132918286D01*
X103635674Y-132738258D01*
X103655460Y-132550002D01*
X103635674Y-132361746D01*
X103577179Y-132181718D01*
X103482533Y-132017786D01*
X103355871Y-131877114D01*
X103317049Y-131848908D01*
X103202734Y-131765853D01*
X103202729Y-131765850D01*
X103029807Y-131688859D01*
X103029802Y-131688857D01*
X102884001Y-131657867D01*
X102844646Y-131649502D01*
X102655354Y-131649502D01*
X102622897Y-131656400D01*
X102470197Y-131688857D01*
X102470192Y-131688859D01*
X102297270Y-131765850D01*
X102297265Y-131765853D01*
X102144129Y-131877113D01*
X102017466Y-132017787D01*
X101922821Y-132181717D01*
X101922818Y-132181724D01*
X101864327Y-132361741D01*
X101864326Y-132361744D01*
X101864326Y-132361746D01*
X101861517Y-132388463D01*
X101834935Y-132453075D01*
X101777638Y-132493061D01*
X101738198Y-132499500D01*
X101605354Y-132499500D01*
X101572897Y-132506398D01*
X101420197Y-132538855D01*
X101420192Y-132538857D01*
X101247270Y-132615848D01*
X101247265Y-132615851D01*
X101094129Y-132727111D01*
X100967466Y-132867785D01*
X100872821Y-133031715D01*
X100872818Y-133031722D01*
X100814327Y-133211740D01*
X100814326Y-133211744D01*
X100794540Y-133400000D01*
X90774750Y-133400000D01*
X90862011Y-133379319D01*
X91190451Y-133259777D01*
X91502793Y-133102913D01*
X91794811Y-132910849D01*
X92062558Y-132686183D01*
X92302412Y-132431953D01*
X92511130Y-132151596D01*
X92685889Y-131848904D01*
X92728552Y-131750000D01*
X94244540Y-131750000D01*
X94264326Y-131938256D01*
X94264327Y-131938259D01*
X94322818Y-132118277D01*
X94322821Y-132118284D01*
X94417467Y-132282216D01*
X94492770Y-132365848D01*
X94544129Y-132422888D01*
X94697265Y-132534148D01*
X94697270Y-132534151D01*
X94870192Y-132611142D01*
X94870197Y-132611144D01*
X95055354Y-132650500D01*
X95055355Y-132650500D01*
X95244644Y-132650500D01*
X95244646Y-132650500D01*
X95429803Y-132611144D01*
X95602730Y-132534151D01*
X95755871Y-132422888D01*
X95882533Y-132282216D01*
X95977179Y-132118284D01*
X96035674Y-131938256D01*
X96055460Y-131750000D01*
X96035674Y-131561744D01*
X95977179Y-131381716D01*
X95882533Y-131217784D01*
X95755871Y-131077112D01*
X95755870Y-131077111D01*
X95602734Y-130965851D01*
X95602729Y-130965848D01*
X95429807Y-130888857D01*
X95429802Y-130888855D01*
X95284001Y-130857865D01*
X95244646Y-130849500D01*
X95055354Y-130849500D01*
X95022897Y-130856398D01*
X94870197Y-130888855D01*
X94870192Y-130888857D01*
X94697270Y-130965848D01*
X94697265Y-130965851D01*
X94544129Y-131077111D01*
X94417466Y-131217785D01*
X94322821Y-131381715D01*
X94322818Y-131381722D01*
X94275299Y-131527972D01*
X94264326Y-131561744D01*
X94244540Y-131750000D01*
X92728552Y-131750000D01*
X92824326Y-131527971D01*
X92924569Y-131193136D01*
X92985262Y-130848927D01*
X93005585Y-130500003D01*
X122994415Y-130500003D01*
X123014738Y-130848927D01*
X123014739Y-130848938D01*
X123075428Y-131193127D01*
X123075430Y-131193134D01*
X123175674Y-131527972D01*
X123314107Y-131848895D01*
X123314113Y-131848908D01*
X123488870Y-132151597D01*
X123697584Y-132431949D01*
X123697589Y-132431955D01*
X123759770Y-132497862D01*
X123937442Y-132686183D01*
X124113903Y-132834251D01*
X124205186Y-132910847D01*
X124205194Y-132910853D01*
X124497203Y-133102911D01*
X124497207Y-133102913D01*
X124809549Y-133259777D01*
X125137989Y-133379319D01*
X125478086Y-133459923D01*
X125825241Y-133500500D01*
X125825248Y-133500500D01*
X126174752Y-133500500D01*
X126174759Y-133500500D01*
X126521914Y-133459923D01*
X126862011Y-133379319D01*
X127190451Y-133259777D01*
X127502793Y-133102913D01*
X127794811Y-132910849D01*
X128062558Y-132686183D01*
X128302412Y-132431953D01*
X128511130Y-132151596D01*
X128685889Y-131848904D01*
X128824326Y-131527971D01*
X128924569Y-131193136D01*
X128985262Y-130848927D01*
X129005585Y-130500000D01*
X128985262Y-130151073D01*
X128985260Y-130151061D01*
X128924571Y-129806872D01*
X128924569Y-129806865D01*
X128824325Y-129472027D01*
X128685892Y-129151104D01*
X128685889Y-129151096D01*
X128541208Y-128900500D01*
X128511129Y-128848402D01*
X128302415Y-128568050D01*
X128302410Y-128568044D01*
X128113938Y-128368277D01*
X128062558Y-128313817D01*
X127912920Y-128188256D01*
X127794813Y-128089152D01*
X127794805Y-128089146D01*
X127502796Y-127897088D01*
X127190458Y-127740226D01*
X127190452Y-127740223D01*
X126862012Y-127620681D01*
X126862009Y-127620680D01*
X126521915Y-127540077D01*
X126478519Y-127535004D01*
X126174759Y-127499500D01*
X125825241Y-127499500D01*
X125521480Y-127535004D01*
X125478085Y-127540077D01*
X125478083Y-127540077D01*
X125137990Y-127620680D01*
X125137987Y-127620681D01*
X124809547Y-127740223D01*
X124809541Y-127740226D01*
X124497203Y-127897088D01*
X124205194Y-128089146D01*
X124205186Y-128089152D01*
X123937442Y-128313817D01*
X123937440Y-128313819D01*
X123697589Y-128568044D01*
X123697584Y-128568050D01*
X123488870Y-128848402D01*
X123314113Y-129151091D01*
X123314107Y-129151104D01*
X123175674Y-129472027D01*
X123075430Y-129806865D01*
X123075428Y-129806872D01*
X123014739Y-130151061D01*
X123014738Y-130151072D01*
X122994415Y-130499996D01*
X122994415Y-130500003D01*
X93005585Y-130500003D01*
X93005585Y-130500000D01*
X92985262Y-130151073D01*
X92985260Y-130151061D01*
X92924571Y-129806872D01*
X92924569Y-129806865D01*
X92824325Y-129472027D01*
X92685892Y-129151104D01*
X92685889Y-129151096D01*
X92541208Y-128900500D01*
X92511129Y-128848402D01*
X92302415Y-128568050D01*
X92302410Y-128568044D01*
X92113938Y-128368277D01*
X92062558Y-128313817D01*
X91912920Y-128188256D01*
X91794813Y-128089152D01*
X91794805Y-128089146D01*
X91659266Y-128000000D01*
X112094540Y-128000000D01*
X112114326Y-128188256D01*
X112114327Y-128188259D01*
X112172818Y-128368277D01*
X112172821Y-128368284D01*
X112267467Y-128532216D01*
X112394129Y-128672888D01*
X112547265Y-128784148D01*
X112547270Y-128784151D01*
X112720192Y-128861142D01*
X112720197Y-128861144D01*
X112905354Y-128900500D01*
X112905355Y-128900500D01*
X113094644Y-128900500D01*
X113094646Y-128900500D01*
X113279803Y-128861144D01*
X113449566Y-128785559D01*
X113518813Y-128776275D01*
X113550430Y-128785557D01*
X113720197Y-128861144D01*
X113905354Y-128900500D01*
X113905355Y-128900500D01*
X114094644Y-128900500D01*
X114094646Y-128900500D01*
X114279803Y-128861144D01*
X114449566Y-128785559D01*
X114518813Y-128776275D01*
X114550430Y-128785557D01*
X114720197Y-128861144D01*
X114905354Y-128900500D01*
X114905355Y-128900500D01*
X115094644Y-128900500D01*
X115094646Y-128900500D01*
X115279803Y-128861144D01*
X115449566Y-128785559D01*
X115518813Y-128776275D01*
X115550430Y-128785557D01*
X115720197Y-128861144D01*
X115905354Y-128900500D01*
X115905355Y-128900500D01*
X116094644Y-128900500D01*
X116094646Y-128900500D01*
X116279803Y-128861144D01*
X116449566Y-128785559D01*
X116518813Y-128776275D01*
X116550430Y-128785557D01*
X116720197Y-128861144D01*
X116905354Y-128900500D01*
X116905355Y-128900500D01*
X117094644Y-128900500D01*
X117094646Y-128900500D01*
X117279803Y-128861144D01*
X117449566Y-128785559D01*
X117518813Y-128776275D01*
X117550430Y-128785557D01*
X117720197Y-128861144D01*
X117905354Y-128900500D01*
X117905355Y-128900500D01*
X118094644Y-128900500D01*
X118094646Y-128900500D01*
X118279803Y-128861144D01*
X118452730Y-128784151D01*
X118605871Y-128672888D01*
X118732533Y-128532216D01*
X118827179Y-128368284D01*
X118885674Y-128188256D01*
X118905460Y-128000000D01*
X118885674Y-127811744D01*
X118827179Y-127631716D01*
X118732533Y-127467784D01*
X118710073Y-127442840D01*
X118693167Y-127424063D01*
X118662938Y-127361072D01*
X118671564Y-127291736D01*
X118712430Y-127240776D01*
X118805871Y-127172888D01*
X118932533Y-127032216D01*
X119027179Y-126868284D01*
X119085674Y-126688256D01*
X119105460Y-126500000D01*
X119085674Y-126311744D01*
X119027179Y-126131716D01*
X118932533Y-125967784D01*
X118805871Y-125827112D01*
X118805870Y-125827111D01*
X118652734Y-125715851D01*
X118652729Y-125715848D01*
X118479807Y-125638857D01*
X118479802Y-125638855D01*
X118334001Y-125607865D01*
X118294646Y-125599500D01*
X118105354Y-125599500D01*
X118072897Y-125606398D01*
X117920197Y-125638855D01*
X117920192Y-125638857D01*
X117747270Y-125715848D01*
X117747265Y-125715851D01*
X117594129Y-125827111D01*
X117467466Y-125967785D01*
X117372821Y-126131715D01*
X117372818Y-126131722D01*
X117336572Y-126243277D01*
X117314326Y-126311744D01*
X117294540Y-126500000D01*
X117314326Y-126688256D01*
X117314327Y-126688259D01*
X117372818Y-126868277D01*
X117372821Y-126868284D01*
X117425070Y-126958782D01*
X117441543Y-127026683D01*
X117418690Y-127092709D01*
X117363769Y-127135900D01*
X117294215Y-127142541D01*
X117280450Y-127138993D01*
X117148343Y-127110913D01*
X117094646Y-127099500D01*
X116905354Y-127099500D01*
X116872897Y-127106398D01*
X116720197Y-127138855D01*
X116720192Y-127138857D01*
X116550436Y-127214439D01*
X116481186Y-127223724D01*
X116449564Y-127214439D01*
X116279807Y-127138857D01*
X116279802Y-127138855D01*
X116134001Y-127107865D01*
X116094646Y-127099500D01*
X115905354Y-127099500D01*
X115872897Y-127106398D01*
X115720197Y-127138855D01*
X115720192Y-127138857D01*
X115550436Y-127214439D01*
X115481186Y-127223724D01*
X115449564Y-127214439D01*
X115279807Y-127138857D01*
X115279802Y-127138855D01*
X115134001Y-127107865D01*
X115094646Y-127099500D01*
X114905354Y-127099500D01*
X114872897Y-127106398D01*
X114720197Y-127138855D01*
X114720192Y-127138857D01*
X114550436Y-127214439D01*
X114481186Y-127223724D01*
X114449564Y-127214439D01*
X114279807Y-127138857D01*
X114279802Y-127138855D01*
X114134001Y-127107865D01*
X114094646Y-127099500D01*
X113905354Y-127099500D01*
X113872897Y-127106398D01*
X113720197Y-127138855D01*
X113720192Y-127138857D01*
X113550436Y-127214439D01*
X113481186Y-127223724D01*
X113449564Y-127214439D01*
X113279807Y-127138857D01*
X113279802Y-127138855D01*
X113134001Y-127107865D01*
X113094646Y-127099500D01*
X112905354Y-127099500D01*
X112872897Y-127106398D01*
X112720197Y-127138855D01*
X112720192Y-127138857D01*
X112547270Y-127215848D01*
X112547265Y-127215851D01*
X112394129Y-127327111D01*
X112267466Y-127467785D01*
X112172821Y-127631715D01*
X112172818Y-127631722D01*
X112114327Y-127811740D01*
X112114326Y-127811744D01*
X112094540Y-128000000D01*
X91659266Y-128000000D01*
X91502796Y-127897088D01*
X91190458Y-127740226D01*
X91190452Y-127740223D01*
X90862012Y-127620681D01*
X90862009Y-127620680D01*
X90521915Y-127540077D01*
X90478519Y-127535004D01*
X90174759Y-127499500D01*
X89825241Y-127499500D01*
X89521480Y-127535004D01*
X89478085Y-127540077D01*
X89478083Y-127540077D01*
X89137990Y-127620680D01*
X89137987Y-127620681D01*
X88809547Y-127740223D01*
X88809541Y-127740226D01*
X88497203Y-127897088D01*
X88205194Y-128089146D01*
X88205186Y-128089152D01*
X87937442Y-128313817D01*
X87937440Y-128313819D01*
X87697589Y-128568044D01*
X87697584Y-128568050D01*
X87488870Y-128848402D01*
X87314113Y-129151091D01*
X87314107Y-129151104D01*
X87175674Y-129472027D01*
X87075430Y-129806865D01*
X87075428Y-129806872D01*
X87014739Y-130151061D01*
X87014738Y-130151072D01*
X86994415Y-130499996D01*
X86994415Y-130500003D01*
X57005585Y-130500003D01*
X57005585Y-130500000D01*
X56985262Y-130151073D01*
X56985260Y-130151061D01*
X56924571Y-129806872D01*
X56924569Y-129806865D01*
X56824325Y-129472027D01*
X56685892Y-129151104D01*
X56685889Y-129151096D01*
X56541208Y-128900500D01*
X56511129Y-128848402D01*
X56302415Y-128568050D01*
X56302410Y-128568044D01*
X56113938Y-128368277D01*
X56062558Y-128313817D01*
X55912920Y-128188256D01*
X55794813Y-128089152D01*
X55794805Y-128089146D01*
X55502796Y-127897088D01*
X55190458Y-127740226D01*
X55190452Y-127740223D01*
X54862012Y-127620681D01*
X54862009Y-127620680D01*
X54521915Y-127540077D01*
X54478519Y-127535004D01*
X54174759Y-127499500D01*
X53825241Y-127499500D01*
X53521480Y-127535004D01*
X53478085Y-127540077D01*
X53478083Y-127540077D01*
X53137990Y-127620680D01*
X53137987Y-127620681D01*
X52809547Y-127740223D01*
X52809541Y-127740226D01*
X52497203Y-127897088D01*
X52205194Y-128089146D01*
X52205186Y-128089152D01*
X51937442Y-128313817D01*
X51937440Y-128313819D01*
X51697589Y-128568044D01*
X51697584Y-128568050D01*
X51488870Y-128848402D01*
X51314113Y-129151091D01*
X51314107Y-129151104D01*
X51175674Y-129472027D01*
X51075430Y-129806865D01*
X51075428Y-129806872D01*
X51014739Y-130151061D01*
X51014738Y-130151072D01*
X50994415Y-130499996D01*
X50994415Y-130500003D01*
X50400500Y-130500003D01*
X50400500Y-125875000D01*
X72819540Y-125875000D01*
X72839326Y-126063256D01*
X72839327Y-126063259D01*
X72897818Y-126243277D01*
X72897821Y-126243284D01*
X72992467Y-126407216D01*
X73106757Y-126534148D01*
X73119129Y-126547888D01*
X73272265Y-126659148D01*
X73272270Y-126659151D01*
X73445192Y-126736142D01*
X73445197Y-126736144D01*
X73630354Y-126775500D01*
X73630355Y-126775500D01*
X73819644Y-126775500D01*
X73819646Y-126775500D01*
X74004803Y-126736144D01*
X74177730Y-126659151D01*
X74330871Y-126547888D01*
X74457533Y-126407216D01*
X74552179Y-126243284D01*
X74610674Y-126063256D01*
X74630460Y-125875000D01*
X76219540Y-125875000D01*
X76239326Y-126063256D01*
X76239327Y-126063259D01*
X76297818Y-126243277D01*
X76297821Y-126243284D01*
X76392467Y-126407216D01*
X76506757Y-126534148D01*
X76519129Y-126547888D01*
X76672265Y-126659148D01*
X76672270Y-126659151D01*
X76845192Y-126736142D01*
X76845197Y-126736144D01*
X77030354Y-126775500D01*
X77030355Y-126775500D01*
X77219644Y-126775500D01*
X77219646Y-126775500D01*
X77404803Y-126736144D01*
X77577730Y-126659151D01*
X77730871Y-126547888D01*
X77857533Y-126407216D01*
X77952179Y-126243284D01*
X78010674Y-126063256D01*
X78030460Y-125875000D01*
X78017322Y-125750000D01*
X113084540Y-125750000D01*
X113104326Y-125938256D01*
X113104327Y-125938259D01*
X113162818Y-126118277D01*
X113162821Y-126118284D01*
X113257467Y-126282216D01*
X113370016Y-126407214D01*
X113384129Y-126422888D01*
X113537265Y-126534148D01*
X113537270Y-126534151D01*
X113710192Y-126611142D01*
X113710197Y-126611144D01*
X113895354Y-126650500D01*
X113895355Y-126650500D01*
X114084644Y-126650500D01*
X114084646Y-126650500D01*
X114269803Y-126611144D01*
X114442730Y-126534151D01*
X114595871Y-126422888D01*
X114722533Y-126282216D01*
X114817179Y-126118284D01*
X114875674Y-125938256D01*
X114895460Y-125750000D01*
X114875674Y-125561744D01*
X114817179Y-125381716D01*
X114722533Y-125217784D01*
X114595871Y-125077112D01*
X114549311Y-125043284D01*
X114442734Y-124965851D01*
X114442729Y-124965848D01*
X114269807Y-124888857D01*
X114269802Y-124888855D01*
X114124001Y-124857865D01*
X114084646Y-124849500D01*
X113895354Y-124849500D01*
X113862897Y-124856398D01*
X113710197Y-124888855D01*
X113710192Y-124888857D01*
X113537270Y-124965848D01*
X113537265Y-124965851D01*
X113384129Y-125077111D01*
X113257466Y-125217785D01*
X113162821Y-125381715D01*
X113162818Y-125381722D01*
X113104327Y-125561740D01*
X113104326Y-125561744D01*
X113084540Y-125750000D01*
X78017322Y-125750000D01*
X78010674Y-125686744D01*
X77952179Y-125506716D01*
X77857533Y-125342784D01*
X77730871Y-125202112D01*
X77684311Y-125168284D01*
X77577734Y-125090851D01*
X77577729Y-125090848D01*
X77404807Y-125013857D01*
X77404802Y-125013855D01*
X77259001Y-124982865D01*
X77219646Y-124974500D01*
X77030354Y-124974500D01*
X76997897Y-124981398D01*
X76845197Y-125013855D01*
X76845192Y-125013857D01*
X76672270Y-125090848D01*
X76672265Y-125090851D01*
X76519129Y-125202111D01*
X76392466Y-125342785D01*
X76297821Y-125506715D01*
X76297818Y-125506722D01*
X76247644Y-125661144D01*
X76239326Y-125686744D01*
X76219540Y-125875000D01*
X74630460Y-125875000D01*
X74610674Y-125686744D01*
X74552179Y-125506716D01*
X74457533Y-125342784D01*
X74454284Y-125337156D01*
X74456929Y-125335628D01*
X74437779Y-125282421D01*
X74453417Y-125214323D01*
X74454344Y-125212879D01*
X74454284Y-125212844D01*
X74524717Y-125090849D01*
X74552179Y-125043284D01*
X74610674Y-124863256D01*
X74617322Y-124800000D01*
X96569540Y-124800000D01*
X96589326Y-124988256D01*
X96589327Y-124988259D01*
X96647818Y-125168277D01*
X96647821Y-125168284D01*
X96742467Y-125332216D01*
X96787043Y-125381722D01*
X96869129Y-125472888D01*
X97022265Y-125584148D01*
X97022270Y-125584151D01*
X97195192Y-125661142D01*
X97195197Y-125661144D01*
X97380354Y-125700500D01*
X97380355Y-125700500D01*
X97569644Y-125700500D01*
X97569646Y-125700500D01*
X97754803Y-125661144D01*
X97927730Y-125584151D01*
X98080871Y-125472888D01*
X98207533Y-125332216D01*
X98302179Y-125168284D01*
X98360674Y-124988256D01*
X98380460Y-124800000D01*
X98360674Y-124611744D01*
X98302179Y-124431716D01*
X98207533Y-124267784D01*
X98080871Y-124127112D01*
X98080870Y-124127111D01*
X97927734Y-124015851D01*
X97927729Y-124015848D01*
X97835984Y-123975000D01*
X99969540Y-123975000D01*
X99989326Y-124163256D01*
X99989327Y-124163259D01*
X100047818Y-124343277D01*
X100047821Y-124343284D01*
X100142467Y-124507216D01*
X100236581Y-124611740D01*
X100269129Y-124647888D01*
X100422265Y-124759148D01*
X100422270Y-124759151D01*
X100595192Y-124836142D01*
X100595197Y-124836144D01*
X100780354Y-124875500D01*
X100780355Y-124875500D01*
X100969644Y-124875500D01*
X100969646Y-124875500D01*
X101154803Y-124836144D01*
X101327730Y-124759151D01*
X101480871Y-124647888D01*
X101607533Y-124507216D01*
X101702179Y-124343284D01*
X101760674Y-124163256D01*
X101780460Y-123975000D01*
X101760674Y-123786744D01*
X101702179Y-123606716D01*
X101607533Y-123442784D01*
X101480871Y-123302112D01*
X101459719Y-123286744D01*
X101327734Y-123190851D01*
X101327729Y-123190848D01*
X101154807Y-123113857D01*
X101154802Y-123113855D01*
X101009001Y-123082865D01*
X100969646Y-123074500D01*
X100780354Y-123074500D01*
X100747897Y-123081398D01*
X100595197Y-123113855D01*
X100595192Y-123113857D01*
X100422270Y-123190848D01*
X100422265Y-123190851D01*
X100269129Y-123302111D01*
X100142466Y-123442785D01*
X100047821Y-123606715D01*
X100047818Y-123606722D01*
X100017705Y-123699402D01*
X99989326Y-123786744D01*
X99969540Y-123975000D01*
X97835984Y-123975000D01*
X97754807Y-123938857D01*
X97754800Y-123938855D01*
X97613352Y-123908790D01*
X97551870Y-123875598D01*
X97518093Y-123814435D01*
X97522745Y-123744721D01*
X97564349Y-123688588D01*
X97613352Y-123666210D01*
X97754803Y-123636144D01*
X97927730Y-123559151D01*
X98080871Y-123447888D01*
X98207533Y-123307216D01*
X98302179Y-123143284D01*
X98360674Y-122963256D01*
X98380460Y-122775000D01*
X98360674Y-122586744D01*
X98302179Y-122406716D01*
X98207533Y-122242784D01*
X98204284Y-122237156D01*
X98206929Y-122235628D01*
X98187779Y-122182421D01*
X98203417Y-122114323D01*
X98204344Y-122112879D01*
X98204284Y-122112844D01*
X98228071Y-122071642D01*
X98302179Y-121943284D01*
X98360674Y-121763256D01*
X98380460Y-121575000D01*
X98360674Y-121386744D01*
X98302179Y-121206716D01*
X98207533Y-121042784D01*
X98080871Y-120902112D01*
X98080870Y-120902111D01*
X97927734Y-120790851D01*
X97927729Y-120790848D01*
X97892134Y-120775000D01*
X109344540Y-120775000D01*
X109364326Y-120963256D01*
X109364327Y-120963259D01*
X109422818Y-121143277D01*
X109422821Y-121143284D01*
X109517467Y-121307216D01*
X109589071Y-121386740D01*
X109644129Y-121447888D01*
X109797265Y-121559148D01*
X109797270Y-121559151D01*
X109970192Y-121636142D01*
X109970197Y-121636144D01*
X110155354Y-121675500D01*
X110155355Y-121675500D01*
X110344644Y-121675500D01*
X110344646Y-121675500D01*
X110529803Y-121636144D01*
X110702730Y-121559151D01*
X110855871Y-121447888D01*
X110982533Y-121307216D01*
X111077179Y-121143284D01*
X111135674Y-120963256D01*
X111155460Y-120775000D01*
X111135674Y-120586744D01*
X111077179Y-120406716D01*
X110982533Y-120242784D01*
X110855871Y-120102112D01*
X110855870Y-120102111D01*
X110702734Y-119990851D01*
X110702729Y-119990848D01*
X110529807Y-119913857D01*
X110529802Y-119913855D01*
X110384001Y-119882865D01*
X110344646Y-119874500D01*
X110155354Y-119874500D01*
X110122897Y-119881398D01*
X109970197Y-119913855D01*
X109970192Y-119913857D01*
X109797270Y-119990848D01*
X109797265Y-119990851D01*
X109644129Y-120102111D01*
X109517466Y-120242785D01*
X109422821Y-120406715D01*
X109422818Y-120406722D01*
X109364327Y-120586740D01*
X109364326Y-120586744D01*
X109344540Y-120775000D01*
X97892134Y-120775000D01*
X97754807Y-120713857D01*
X97754802Y-120713855D01*
X97609001Y-120682865D01*
X97569646Y-120674500D01*
X97380354Y-120674500D01*
X97347897Y-120681398D01*
X97195197Y-120713855D01*
X97195192Y-120713857D01*
X97022270Y-120790848D01*
X97022265Y-120790851D01*
X96869129Y-120902111D01*
X96742466Y-121042785D01*
X96647821Y-121206715D01*
X96647818Y-121206722D01*
X96615166Y-121307216D01*
X96589326Y-121386744D01*
X96569540Y-121575000D01*
X96589326Y-121763256D01*
X96589327Y-121763259D01*
X96647818Y-121943277D01*
X96647821Y-121943284D01*
X96745716Y-122112844D01*
X96743150Y-122114325D01*
X96762250Y-122168098D01*
X96746327Y-122236129D01*
X96745680Y-122237135D01*
X96745716Y-122237156D01*
X96647821Y-122406715D01*
X96647818Y-122406722D01*
X96593304Y-122574500D01*
X96589326Y-122586744D01*
X96569540Y-122775000D01*
X96589326Y-122963256D01*
X96589327Y-122963259D01*
X96647818Y-123143277D01*
X96647821Y-123143284D01*
X96742467Y-123307216D01*
X96864533Y-123442784D01*
X96869129Y-123447888D01*
X97022265Y-123559148D01*
X97022270Y-123559151D01*
X97195192Y-123636142D01*
X97195197Y-123636144D01*
X97336648Y-123666210D01*
X97398130Y-123699402D01*
X97431906Y-123760565D01*
X97427254Y-123830280D01*
X97385649Y-123886412D01*
X97336648Y-123908790D01*
X97195197Y-123938855D01*
X97195192Y-123938857D01*
X97022270Y-124015848D01*
X97022265Y-124015851D01*
X96869129Y-124127111D01*
X96742466Y-124267785D01*
X96647821Y-124431715D01*
X96647818Y-124431722D01*
X96623289Y-124507216D01*
X96589326Y-124611744D01*
X96569540Y-124800000D01*
X74617322Y-124800000D01*
X74630460Y-124675000D01*
X74610674Y-124486744D01*
X74552179Y-124306716D01*
X74469354Y-124163259D01*
X74454284Y-124137156D01*
X74456929Y-124135628D01*
X74437779Y-124082421D01*
X74453417Y-124014323D01*
X74454344Y-124012879D01*
X74454284Y-124012844D01*
X74497000Y-123938857D01*
X74552179Y-123843284D01*
X74610674Y-123663256D01*
X74630460Y-123475000D01*
X74610674Y-123286744D01*
X74552179Y-123106716D01*
X74457533Y-122942784D01*
X74330871Y-122802112D01*
X74330870Y-122802111D01*
X74177734Y-122690851D01*
X74177729Y-122690848D01*
X74142134Y-122675000D01*
X85019540Y-122675000D01*
X85039326Y-122863256D01*
X85039327Y-122863259D01*
X85097818Y-123043277D01*
X85097821Y-123043284D01*
X85192467Y-123207216D01*
X85264071Y-123286740D01*
X85319129Y-123347888D01*
X85472265Y-123459148D01*
X85472270Y-123459151D01*
X85645192Y-123536142D01*
X85645197Y-123536144D01*
X85830354Y-123575500D01*
X85830355Y-123575500D01*
X86019644Y-123575500D01*
X86019646Y-123575500D01*
X86204803Y-123536144D01*
X86377730Y-123459151D01*
X86530871Y-123347888D01*
X86657533Y-123207216D01*
X86752179Y-123043284D01*
X86810674Y-122863256D01*
X86830460Y-122675000D01*
X86810674Y-122486744D01*
X86752179Y-122306716D01*
X86657533Y-122142784D01*
X86530871Y-122002112D01*
X86530870Y-122002111D01*
X86377734Y-121890851D01*
X86377729Y-121890848D01*
X86204807Y-121813857D01*
X86204802Y-121813855D01*
X86059001Y-121782865D01*
X86019646Y-121774500D01*
X85830354Y-121774500D01*
X85797897Y-121781398D01*
X85645197Y-121813855D01*
X85645192Y-121813857D01*
X85472270Y-121890848D01*
X85472265Y-121890851D01*
X85319129Y-122002111D01*
X85192466Y-122142785D01*
X85097821Y-122306715D01*
X85097818Y-122306722D01*
X85039327Y-122486740D01*
X85039326Y-122486744D01*
X85019540Y-122675000D01*
X74142134Y-122675000D01*
X74004807Y-122613857D01*
X74004802Y-122613855D01*
X73859001Y-122582865D01*
X73819646Y-122574500D01*
X73630354Y-122574500D01*
X73597897Y-122581398D01*
X73445197Y-122613855D01*
X73445192Y-122613857D01*
X73272270Y-122690848D01*
X73272265Y-122690851D01*
X73119129Y-122802111D01*
X72992466Y-122942785D01*
X72897821Y-123106715D01*
X72897818Y-123106722D01*
X72865166Y-123207216D01*
X72839326Y-123286744D01*
X72819540Y-123475000D01*
X72839326Y-123663256D01*
X72839327Y-123663259D01*
X72897818Y-123843277D01*
X72897821Y-123843284D01*
X72995716Y-124012844D01*
X72993150Y-124014325D01*
X73012250Y-124068098D01*
X72996327Y-124136129D01*
X72995680Y-124137135D01*
X72995716Y-124137156D01*
X72897821Y-124306715D01*
X72897818Y-124306722D01*
X72839327Y-124486740D01*
X72839326Y-124486744D01*
X72819540Y-124675000D01*
X72839326Y-124863256D01*
X72839327Y-124863259D01*
X72897818Y-125043277D01*
X72897821Y-125043284D01*
X72995716Y-125212844D01*
X72993150Y-125214325D01*
X73012250Y-125268098D01*
X72996327Y-125336129D01*
X72995680Y-125337135D01*
X72995716Y-125337156D01*
X72897821Y-125506715D01*
X72897818Y-125506722D01*
X72847644Y-125661144D01*
X72839326Y-125686744D01*
X72819540Y-125875000D01*
X50400500Y-125875000D01*
X50400500Y-116950000D01*
X57094540Y-116950000D01*
X57114326Y-117138256D01*
X57114327Y-117138259D01*
X57172818Y-117318277D01*
X57172821Y-117318284D01*
X57267467Y-117482216D01*
X57394129Y-117622888D01*
X57547265Y-117734148D01*
X57547270Y-117734151D01*
X57720192Y-117811142D01*
X57720197Y-117811144D01*
X57905354Y-117850500D01*
X57905355Y-117850500D01*
X58094644Y-117850500D01*
X58094646Y-117850500D01*
X58279803Y-117811144D01*
X58452730Y-117734151D01*
X58605871Y-117622888D01*
X58732533Y-117482216D01*
X58827179Y-117318284D01*
X58885674Y-117138256D01*
X58905460Y-116950000D01*
X58885674Y-116761744D01*
X58827179Y-116581716D01*
X58732533Y-116417784D01*
X58605871Y-116277112D01*
X58605870Y-116277111D01*
X58452734Y-116165851D01*
X58452729Y-116165848D01*
X58417134Y-116150000D01*
X61744540Y-116150000D01*
X61764326Y-116338256D01*
X61764327Y-116338259D01*
X61822818Y-116518277D01*
X61822821Y-116518284D01*
X61917467Y-116682216D01*
X61989071Y-116761740D01*
X62044129Y-116822888D01*
X62197265Y-116934148D01*
X62197270Y-116934151D01*
X62370192Y-117011142D01*
X62370197Y-117011144D01*
X62555354Y-117050500D01*
X62555355Y-117050500D01*
X62744644Y-117050500D01*
X62744646Y-117050500D01*
X62929803Y-117011144D01*
X63102730Y-116934151D01*
X63255871Y-116822888D01*
X63382533Y-116682216D01*
X63477179Y-116518284D01*
X63535674Y-116338256D01*
X63555460Y-116150000D01*
X63535674Y-115961744D01*
X63477179Y-115781716D01*
X63382533Y-115617784D01*
X63255871Y-115477112D01*
X63255870Y-115477111D01*
X63102734Y-115365851D01*
X63102729Y-115365848D01*
X62929807Y-115288857D01*
X62929802Y-115288855D01*
X62784001Y-115257865D01*
X62744646Y-115249500D01*
X62555354Y-115249500D01*
X62522897Y-115256398D01*
X62370197Y-115288855D01*
X62370192Y-115288857D01*
X62197270Y-115365848D01*
X62197265Y-115365851D01*
X62044129Y-115477111D01*
X61917466Y-115617785D01*
X61822821Y-115781715D01*
X61822818Y-115781722D01*
X61764327Y-115961740D01*
X61764326Y-115961744D01*
X61744540Y-116150000D01*
X58417134Y-116150000D01*
X58279807Y-116088857D01*
X58279802Y-116088855D01*
X58134001Y-116057865D01*
X58094646Y-116049500D01*
X57905354Y-116049500D01*
X57872897Y-116056398D01*
X57720197Y-116088855D01*
X57720192Y-116088857D01*
X57547270Y-116165848D01*
X57547265Y-116165851D01*
X57394129Y-116277111D01*
X57267466Y-116417785D01*
X57172821Y-116581715D01*
X57172818Y-116581722D01*
X57140166Y-116682216D01*
X57114326Y-116761744D01*
X57094540Y-116950000D01*
X50400500Y-116950000D01*
X50400500Y-115000000D01*
X105344540Y-115000000D01*
X105364326Y-115188256D01*
X105364327Y-115188259D01*
X105422818Y-115368277D01*
X105422821Y-115368284D01*
X105517467Y-115532216D01*
X105594513Y-115617784D01*
X105644129Y-115672888D01*
X105797265Y-115784148D01*
X105797270Y-115784151D01*
X105970192Y-115861142D01*
X105970197Y-115861144D01*
X106155354Y-115900500D01*
X106155355Y-115900500D01*
X106344644Y-115900500D01*
X106344646Y-115900500D01*
X106529803Y-115861144D01*
X106702730Y-115784151D01*
X106855871Y-115672888D01*
X106982533Y-115532216D01*
X107077179Y-115368284D01*
X107135674Y-115188256D01*
X107155460Y-115000000D01*
X111594540Y-115000000D01*
X111614326Y-115188256D01*
X111614327Y-115188259D01*
X111672818Y-115368277D01*
X111672821Y-115368284D01*
X111767467Y-115532216D01*
X111844513Y-115617784D01*
X111894129Y-115672888D01*
X112047265Y-115784148D01*
X112047270Y-115784151D01*
X112220192Y-115861142D01*
X112220197Y-115861144D01*
X112405354Y-115900500D01*
X112405355Y-115900500D01*
X112594644Y-115900500D01*
X112594646Y-115900500D01*
X112779803Y-115861144D01*
X112952730Y-115784151D01*
X113105871Y-115672888D01*
X113232533Y-115532216D01*
X113327179Y-115368284D01*
X113385674Y-115188256D01*
X113405460Y-115000000D01*
X113385674Y-114811744D01*
X113327179Y-114631716D01*
X113232533Y-114467784D01*
X113105871Y-114327112D01*
X113072717Y-114303024D01*
X112952734Y-114215851D01*
X112952729Y-114215848D01*
X112779807Y-114138857D01*
X112779802Y-114138855D01*
X112634001Y-114107865D01*
X112594646Y-114099500D01*
X112405354Y-114099500D01*
X112372897Y-114106398D01*
X112220197Y-114138855D01*
X112220192Y-114138857D01*
X112047270Y-114215848D01*
X112047265Y-114215851D01*
X111894129Y-114327111D01*
X111767466Y-114467785D01*
X111672821Y-114631715D01*
X111672818Y-114631722D01*
X111614327Y-114811740D01*
X111614326Y-114811744D01*
X111594540Y-115000000D01*
X107155460Y-115000000D01*
X107135674Y-114811744D01*
X107077179Y-114631716D01*
X106982533Y-114467784D01*
X106855871Y-114327112D01*
X106822717Y-114303024D01*
X106702734Y-114215851D01*
X106702729Y-114215848D01*
X106529807Y-114138857D01*
X106529802Y-114138855D01*
X106384001Y-114107865D01*
X106344646Y-114099500D01*
X106155354Y-114099500D01*
X106122897Y-114106398D01*
X105970197Y-114138855D01*
X105970192Y-114138857D01*
X105797270Y-114215848D01*
X105797265Y-114215851D01*
X105644129Y-114327111D01*
X105517466Y-114467785D01*
X105422821Y-114631715D01*
X105422818Y-114631722D01*
X105364327Y-114811740D01*
X105364326Y-114811744D01*
X105344540Y-115000000D01*
X50400500Y-115000000D01*
X50400500Y-112800000D01*
X59594540Y-112800000D01*
X59614326Y-112988256D01*
X59614327Y-112988259D01*
X59672818Y-113168277D01*
X59672821Y-113168284D01*
X59767467Y-113332216D01*
X59894129Y-113472888D01*
X60047265Y-113584148D01*
X60047270Y-113584151D01*
X60220192Y-113661142D01*
X60220197Y-113661144D01*
X60405354Y-113700500D01*
X60405355Y-113700500D01*
X60594644Y-113700500D01*
X60594646Y-113700500D01*
X60779803Y-113661144D01*
X60952730Y-113584151D01*
X61042574Y-113518876D01*
X79944792Y-113518876D01*
X79964578Y-113707132D01*
X79964579Y-113707135D01*
X80023070Y-113887153D01*
X80023073Y-113887160D01*
X80117719Y-114051092D01*
X80196743Y-114138857D01*
X80244381Y-114191764D01*
X80397517Y-114303024D01*
X80397522Y-114303027D01*
X80570444Y-114380018D01*
X80570449Y-114380020D01*
X80755606Y-114419376D01*
X80755607Y-114419376D01*
X80944896Y-114419376D01*
X80944898Y-114419376D01*
X81130055Y-114380020D01*
X81302982Y-114303027D01*
X81456123Y-114191764D01*
X81582785Y-114051092D01*
X81677431Y-113887160D01*
X81735926Y-113707132D01*
X81755712Y-113518876D01*
X81735926Y-113330620D01*
X81677431Y-113150592D01*
X81582785Y-112986660D01*
X81456123Y-112845988D01*
X81392826Y-112800000D01*
X81302986Y-112734727D01*
X81302981Y-112734724D01*
X81130059Y-112657733D01*
X81130054Y-112657731D01*
X80984253Y-112626741D01*
X80944898Y-112618376D01*
X80755606Y-112618376D01*
X80723149Y-112625274D01*
X80570449Y-112657731D01*
X80570444Y-112657733D01*
X80397522Y-112734724D01*
X80397517Y-112734727D01*
X80244381Y-112845987D01*
X80117718Y-112986661D01*
X80023073Y-113150591D01*
X80023070Y-113150598D01*
X80017324Y-113168284D01*
X79964578Y-113330620D01*
X79944792Y-113518876D01*
X61042574Y-113518876D01*
X61105871Y-113472888D01*
X61232533Y-113332216D01*
X61327179Y-113168284D01*
X61385674Y-112988256D01*
X61405460Y-112800000D01*
X61385674Y-112611744D01*
X61327179Y-112431716D01*
X61232533Y-112267784D01*
X61105871Y-112127112D01*
X61105870Y-112127111D01*
X60952734Y-112015851D01*
X60952729Y-112015848D01*
X60779807Y-111938857D01*
X60779802Y-111938855D01*
X60634001Y-111907865D01*
X60594646Y-111899500D01*
X60405354Y-111899500D01*
X60372897Y-111906398D01*
X60220197Y-111938855D01*
X60220192Y-111938857D01*
X60047270Y-112015848D01*
X60047265Y-112015851D01*
X59894129Y-112127111D01*
X59767466Y-112267785D01*
X59672821Y-112431715D01*
X59672818Y-112431722D01*
X59614327Y-112611740D01*
X59614326Y-112611744D01*
X59594540Y-112800000D01*
X50400500Y-112800000D01*
X50400500Y-109868876D01*
X81444792Y-109868876D01*
X81464578Y-110057132D01*
X81464579Y-110057135D01*
X81523070Y-110237153D01*
X81523073Y-110237160D01*
X81617719Y-110401092D01*
X81744381Y-110541764D01*
X81897517Y-110653024D01*
X81897522Y-110653027D01*
X82070444Y-110730018D01*
X82070449Y-110730020D01*
X82255606Y-110769376D01*
X82255607Y-110769376D01*
X82444896Y-110769376D01*
X82444898Y-110769376D01*
X82630055Y-110730020D01*
X82802982Y-110653027D01*
X82956123Y-110541764D01*
X83082785Y-110401092D01*
X83170018Y-110250000D01*
X91744540Y-110250000D01*
X91764326Y-110438256D01*
X91764327Y-110438259D01*
X91822818Y-110618277D01*
X91822821Y-110618284D01*
X91917467Y-110782216D01*
X92044129Y-110922888D01*
X92197265Y-111034148D01*
X92197270Y-111034151D01*
X92370192Y-111111142D01*
X92370197Y-111111144D01*
X92555354Y-111150500D01*
X92555355Y-111150500D01*
X92744644Y-111150500D01*
X92744646Y-111150500D01*
X92929803Y-111111144D01*
X93102730Y-111034151D01*
X93255871Y-110922888D01*
X93382533Y-110782216D01*
X93477179Y-110618284D01*
X93535674Y-110438256D01*
X93555460Y-110250000D01*
X93535674Y-110061744D01*
X93477179Y-109881716D01*
X93382533Y-109717784D01*
X93255871Y-109577112D01*
X93255870Y-109577111D01*
X93102734Y-109465851D01*
X93102729Y-109465848D01*
X92929807Y-109388857D01*
X92929802Y-109388855D01*
X92784001Y-109357865D01*
X92744646Y-109349500D01*
X92555354Y-109349500D01*
X92522897Y-109356398D01*
X92370197Y-109388855D01*
X92370192Y-109388857D01*
X92197270Y-109465848D01*
X92197265Y-109465851D01*
X92044129Y-109577111D01*
X91917466Y-109717785D01*
X91822821Y-109881715D01*
X91822818Y-109881722D01*
X91764327Y-110061740D01*
X91764326Y-110061744D01*
X91744540Y-110250000D01*
X83170018Y-110250000D01*
X83177431Y-110237160D01*
X83235926Y-110057132D01*
X83255712Y-109868876D01*
X83235926Y-109680620D01*
X83177431Y-109500592D01*
X83082785Y-109336660D01*
X82956123Y-109195988D01*
X82956122Y-109195987D01*
X82802986Y-109084727D01*
X82802981Y-109084724D01*
X82630059Y-109007733D01*
X82630054Y-109007731D01*
X82484253Y-108976741D01*
X82444898Y-108968376D01*
X82255606Y-108968376D01*
X82223149Y-108975274D01*
X82070449Y-109007731D01*
X82070444Y-109007733D01*
X81897522Y-109084724D01*
X81897517Y-109084727D01*
X81744381Y-109195987D01*
X81617718Y-109336661D01*
X81523073Y-109500591D01*
X81523070Y-109500598D01*
X81464579Y-109680616D01*
X81464578Y-109680620D01*
X81444792Y-109868876D01*
X50400500Y-109868876D01*
X50400500Y-108450000D01*
X102044540Y-108450000D01*
X102064326Y-108638256D01*
X102064327Y-108638259D01*
X102122818Y-108818277D01*
X102122821Y-108818284D01*
X102217467Y-108982216D01*
X102240442Y-109007732D01*
X102344129Y-109122888D01*
X102497265Y-109234148D01*
X102497270Y-109234151D01*
X102670192Y-109311142D01*
X102670197Y-109311144D01*
X102855354Y-109350500D01*
X102855355Y-109350500D01*
X103044644Y-109350500D01*
X103044646Y-109350500D01*
X103229803Y-109311144D01*
X103402730Y-109234151D01*
X103555871Y-109122888D01*
X103682533Y-108982216D01*
X103777179Y-108818284D01*
X103835674Y-108638256D01*
X103855460Y-108450000D01*
X103835674Y-108261744D01*
X103777179Y-108081716D01*
X103682533Y-107917784D01*
X103555871Y-107777112D01*
X103555870Y-107777111D01*
X103402734Y-107665851D01*
X103402729Y-107665848D01*
X103331198Y-107634000D01*
X119310538Y-107634000D01*
X119330324Y-107822256D01*
X119330325Y-107822259D01*
X119388816Y-108002277D01*
X119388819Y-108002284D01*
X119483465Y-108166216D01*
X119569479Y-108261744D01*
X119610127Y-108306888D01*
X119763263Y-108418148D01*
X119763268Y-108418151D01*
X119936190Y-108495142D01*
X119936195Y-108495144D01*
X120121352Y-108534500D01*
X120121353Y-108534500D01*
X120310642Y-108534500D01*
X120310644Y-108534500D01*
X120495801Y-108495144D01*
X120668728Y-108418151D01*
X120821869Y-108306888D01*
X120948531Y-108166216D01*
X121043177Y-108002284D01*
X121101672Y-107822256D01*
X121121458Y-107634000D01*
X121101672Y-107445744D01*
X121043177Y-107265716D01*
X120948531Y-107101784D01*
X120821869Y-106961112D01*
X120821868Y-106961111D01*
X120668732Y-106849851D01*
X120668727Y-106849848D01*
X120495805Y-106772857D01*
X120495800Y-106772855D01*
X120349999Y-106741865D01*
X120310644Y-106733500D01*
X120121352Y-106733500D01*
X120088895Y-106740398D01*
X119936195Y-106772855D01*
X119936190Y-106772857D01*
X119763268Y-106849848D01*
X119763263Y-106849851D01*
X119610127Y-106961111D01*
X119483464Y-107101785D01*
X119388819Y-107265715D01*
X119388816Y-107265722D01*
X119330325Y-107445740D01*
X119330324Y-107445744D01*
X119310538Y-107634000D01*
X103331198Y-107634000D01*
X103229807Y-107588857D01*
X103229802Y-107588855D01*
X103084001Y-107557865D01*
X103044646Y-107549500D01*
X102855354Y-107549500D01*
X102822897Y-107556398D01*
X102670197Y-107588855D01*
X102670192Y-107588857D01*
X102497270Y-107665848D01*
X102497265Y-107665851D01*
X102344129Y-107777111D01*
X102217466Y-107917785D01*
X102122821Y-108081715D01*
X102122818Y-108081722D01*
X102064327Y-108261740D01*
X102064326Y-108261744D01*
X102044540Y-108450000D01*
X50400500Y-108450000D01*
X50400500Y-104800000D01*
X60794540Y-104800000D01*
X60814326Y-104988256D01*
X60814327Y-104988259D01*
X60872818Y-105168277D01*
X60872821Y-105168284D01*
X60967467Y-105332216D01*
X61094129Y-105472888D01*
X61247265Y-105584148D01*
X61247270Y-105584151D01*
X61420192Y-105661142D01*
X61420197Y-105661144D01*
X61605354Y-105700500D01*
X61605355Y-105700500D01*
X61794644Y-105700500D01*
X61794646Y-105700500D01*
X61979803Y-105661144D01*
X62152730Y-105584151D01*
X62305871Y-105472888D01*
X62416520Y-105350000D01*
X76744540Y-105350000D01*
X76764326Y-105538256D01*
X76764327Y-105538259D01*
X76822818Y-105718277D01*
X76822821Y-105718284D01*
X76917467Y-105882216D01*
X77044129Y-106022888D01*
X77197265Y-106134148D01*
X77197270Y-106134151D01*
X77370192Y-106211142D01*
X77370197Y-106211144D01*
X77555354Y-106250500D01*
X77555355Y-106250500D01*
X77744644Y-106250500D01*
X77744646Y-106250500D01*
X77929803Y-106211144D01*
X78102730Y-106134151D01*
X78255871Y-106022888D01*
X78382533Y-105882216D01*
X78477179Y-105718284D01*
X78535674Y-105538256D01*
X78548221Y-105418876D01*
X88594792Y-105418876D01*
X88614578Y-105607132D01*
X88614579Y-105607135D01*
X88673070Y-105787153D01*
X88673073Y-105787160D01*
X88767719Y-105951092D01*
X88832365Y-106022888D01*
X88894381Y-106091764D01*
X89047517Y-106203024D01*
X89047522Y-106203027D01*
X89220444Y-106280018D01*
X89220449Y-106280020D01*
X89405606Y-106319376D01*
X89405607Y-106319376D01*
X89594896Y-106319376D01*
X89594898Y-106319376D01*
X89780055Y-106280020D01*
X89952982Y-106203027D01*
X90106123Y-106091764D01*
X90232785Y-105951092D01*
X90327431Y-105787160D01*
X90385926Y-105607132D01*
X90405712Y-105418876D01*
X90385926Y-105230620D01*
X90327431Y-105050592D01*
X90232785Y-104886660D01*
X90106123Y-104745988D01*
X90106122Y-104745987D01*
X89952986Y-104634727D01*
X89952981Y-104634724D01*
X89780059Y-104557733D01*
X89780054Y-104557731D01*
X89634253Y-104526741D01*
X89594898Y-104518376D01*
X89405606Y-104518376D01*
X89373149Y-104525274D01*
X89220449Y-104557731D01*
X89220444Y-104557733D01*
X89047522Y-104634724D01*
X89047517Y-104634727D01*
X88894381Y-104745987D01*
X88767718Y-104886661D01*
X88673073Y-105050591D01*
X88673070Y-105050598D01*
X88634832Y-105168284D01*
X88614578Y-105230620D01*
X88594792Y-105418876D01*
X78548221Y-105418876D01*
X78555460Y-105350000D01*
X78535674Y-105161744D01*
X78477179Y-104981716D01*
X78382533Y-104817784D01*
X78255871Y-104677112D01*
X78255870Y-104677111D01*
X78102734Y-104565851D01*
X78102729Y-104565848D01*
X77929807Y-104488857D01*
X77929802Y-104488855D01*
X77784001Y-104457865D01*
X77744646Y-104449500D01*
X77555354Y-104449500D01*
X77522897Y-104456398D01*
X77370197Y-104488855D01*
X77370192Y-104488857D01*
X77197270Y-104565848D01*
X77197265Y-104565851D01*
X77044129Y-104677111D01*
X76917466Y-104817785D01*
X76822821Y-104981715D01*
X76822818Y-104981722D01*
X76764327Y-105161740D01*
X76764326Y-105161744D01*
X76744540Y-105350000D01*
X62416520Y-105350000D01*
X62432533Y-105332216D01*
X62527179Y-105168284D01*
X62585674Y-104988256D01*
X62605460Y-104800000D01*
X62585674Y-104611744D01*
X62527179Y-104431716D01*
X62432533Y-104267784D01*
X62305871Y-104127112D01*
X62305870Y-104127111D01*
X62152734Y-104015851D01*
X62152729Y-104015848D01*
X61979807Y-103938857D01*
X61979802Y-103938855D01*
X61834001Y-103907865D01*
X61794646Y-103899500D01*
X61605354Y-103899500D01*
X61572897Y-103906398D01*
X61420197Y-103938855D01*
X61420192Y-103938857D01*
X61247270Y-104015848D01*
X61247265Y-104015851D01*
X61094129Y-104127111D01*
X60967466Y-104267785D01*
X60872821Y-104431715D01*
X60872818Y-104431722D01*
X60814327Y-104611740D01*
X60814326Y-104611744D01*
X60794540Y-104800000D01*
X50400500Y-104800000D01*
X50400500Y-103775000D01*
X91644540Y-103775000D01*
X91664326Y-103963256D01*
X91664327Y-103963259D01*
X91722818Y-104143277D01*
X91722821Y-104143284D01*
X91817467Y-104307216D01*
X91872447Y-104368277D01*
X91944129Y-104447888D01*
X92097265Y-104559148D01*
X92097270Y-104559151D01*
X92270192Y-104636142D01*
X92270197Y-104636144D01*
X92455354Y-104675500D01*
X92455355Y-104675500D01*
X92644644Y-104675500D01*
X92644646Y-104675500D01*
X92829803Y-104636144D01*
X93002730Y-104559151D01*
X93155871Y-104447888D01*
X93282533Y-104307216D01*
X93377179Y-104143284D01*
X93435674Y-103963256D01*
X93455460Y-103775000D01*
X93442322Y-103650000D01*
X105594540Y-103650000D01*
X105614326Y-103838256D01*
X105614327Y-103838259D01*
X105672818Y-104018277D01*
X105672821Y-104018284D01*
X105767467Y-104182216D01*
X105834133Y-104256256D01*
X105894129Y-104322888D01*
X106047265Y-104434148D01*
X106047270Y-104434151D01*
X106220192Y-104511142D01*
X106220197Y-104511144D01*
X106405354Y-104550500D01*
X106405355Y-104550500D01*
X106594644Y-104550500D01*
X106594646Y-104550500D01*
X106779803Y-104511144D01*
X106952730Y-104434151D01*
X107105871Y-104322888D01*
X107232533Y-104182216D01*
X107298476Y-104068000D01*
X121044538Y-104068000D01*
X121064324Y-104256256D01*
X121064325Y-104256259D01*
X121122816Y-104436277D01*
X121122819Y-104436284D01*
X121217465Y-104600216D01*
X121286702Y-104677111D01*
X121344127Y-104740888D01*
X121497263Y-104852148D01*
X121497268Y-104852151D01*
X121670190Y-104929142D01*
X121670195Y-104929144D01*
X121855352Y-104968500D01*
X121855353Y-104968500D01*
X122044642Y-104968500D01*
X122044644Y-104968500D01*
X122229801Y-104929144D01*
X122402728Y-104852151D01*
X122555869Y-104740888D01*
X122682531Y-104600216D01*
X122777177Y-104436284D01*
X122835672Y-104256256D01*
X122855458Y-104068000D01*
X122848311Y-104000000D01*
X123194540Y-104000000D01*
X123214326Y-104188256D01*
X123214327Y-104188259D01*
X123272818Y-104368277D01*
X123272821Y-104368284D01*
X123367467Y-104532216D01*
X123494129Y-104672888D01*
X123647265Y-104784148D01*
X123647270Y-104784151D01*
X123820192Y-104861142D01*
X123820197Y-104861144D01*
X124005354Y-104900500D01*
X124005355Y-104900500D01*
X124194644Y-104900500D01*
X124194646Y-104900500D01*
X124379803Y-104861144D01*
X124552730Y-104784151D01*
X124705871Y-104672888D01*
X124832533Y-104532216D01*
X124927179Y-104368284D01*
X124985674Y-104188256D01*
X125005460Y-104000000D01*
X124985674Y-103811744D01*
X124927179Y-103631716D01*
X124832533Y-103467784D01*
X124705871Y-103327112D01*
X124669243Y-103300500D01*
X124552734Y-103215851D01*
X124552729Y-103215848D01*
X124379807Y-103138857D01*
X124379802Y-103138855D01*
X124234001Y-103107865D01*
X124194646Y-103099500D01*
X124005354Y-103099500D01*
X123972897Y-103106398D01*
X123820197Y-103138855D01*
X123820192Y-103138857D01*
X123647270Y-103215848D01*
X123647265Y-103215851D01*
X123494129Y-103327111D01*
X123367466Y-103467785D01*
X123272821Y-103631715D01*
X123272818Y-103631722D01*
X123214327Y-103811740D01*
X123214326Y-103811744D01*
X123194540Y-104000000D01*
X122848311Y-104000000D01*
X122835672Y-103879744D01*
X122777177Y-103699716D01*
X122682531Y-103535784D01*
X122555869Y-103395112D01*
X122555868Y-103395111D01*
X122402732Y-103283851D01*
X122402727Y-103283848D01*
X122229805Y-103206857D01*
X122229800Y-103206855D01*
X122083999Y-103175865D01*
X122044644Y-103167500D01*
X121855352Y-103167500D01*
X121822895Y-103174398D01*
X121670195Y-103206855D01*
X121670190Y-103206857D01*
X121497268Y-103283848D01*
X121497263Y-103283851D01*
X121344127Y-103395111D01*
X121217464Y-103535785D01*
X121122819Y-103699715D01*
X121122816Y-103699722D01*
X121077804Y-103838256D01*
X121064324Y-103879744D01*
X121044538Y-104068000D01*
X107298476Y-104068000D01*
X107327179Y-104018284D01*
X107385674Y-103838256D01*
X107405460Y-103650000D01*
X107385674Y-103461744D01*
X107327179Y-103281716D01*
X107232533Y-103117784D01*
X107105871Y-102977112D01*
X107018806Y-102913856D01*
X107000173Y-102900318D01*
X106957507Y-102844988D01*
X106951528Y-102775375D01*
X106984134Y-102713580D01*
X107000173Y-102699682D01*
X107024565Y-102681959D01*
X107105871Y-102622888D01*
X107232533Y-102482216D01*
X107327179Y-102318284D01*
X107385674Y-102138256D01*
X107405460Y-101950000D01*
X107385674Y-101761744D01*
X107327179Y-101581716D01*
X107232533Y-101417784D01*
X107105871Y-101277112D01*
X107105870Y-101277111D01*
X106952734Y-101165851D01*
X106952729Y-101165848D01*
X106779807Y-101088857D01*
X106779802Y-101088855D01*
X106634001Y-101057865D01*
X106594646Y-101049500D01*
X106405354Y-101049500D01*
X106372897Y-101056398D01*
X106220197Y-101088855D01*
X106220192Y-101088857D01*
X106047270Y-101165848D01*
X106047265Y-101165851D01*
X105894129Y-101277111D01*
X105767466Y-101417785D01*
X105672821Y-101581715D01*
X105672818Y-101581722D01*
X105614327Y-101761740D01*
X105614326Y-101761744D01*
X105594540Y-101950000D01*
X105614326Y-102138256D01*
X105614327Y-102138259D01*
X105672818Y-102318277D01*
X105672821Y-102318284D01*
X105767467Y-102482216D01*
X105894129Y-102622888D01*
X105969705Y-102677797D01*
X105999827Y-102699682D01*
X106042492Y-102755012D01*
X106048471Y-102824626D01*
X106015865Y-102886421D01*
X105999827Y-102900318D01*
X105894127Y-102977113D01*
X105767466Y-103117785D01*
X105672821Y-103281715D01*
X105672818Y-103281722D01*
X105614327Y-103461740D01*
X105614326Y-103461744D01*
X105594540Y-103650000D01*
X93442322Y-103650000D01*
X93435674Y-103586744D01*
X93377179Y-103406716D01*
X93282533Y-103242784D01*
X93155871Y-103102112D01*
X93152276Y-103099500D01*
X93002734Y-102990851D01*
X93002729Y-102990848D01*
X92829807Y-102913857D01*
X92829802Y-102913855D01*
X92684001Y-102882865D01*
X92644646Y-102874500D01*
X92455354Y-102874500D01*
X92422897Y-102881398D01*
X92270197Y-102913855D01*
X92270192Y-102913857D01*
X92097270Y-102990848D01*
X92097265Y-102990851D01*
X91944129Y-103102111D01*
X91817466Y-103242785D01*
X91722821Y-103406715D01*
X91722818Y-103406722D01*
X91664327Y-103586740D01*
X91664326Y-103586744D01*
X91644540Y-103775000D01*
X50400500Y-103775000D01*
X50400500Y-102400000D01*
X101694540Y-102400000D01*
X101714326Y-102588256D01*
X101714327Y-102588259D01*
X101772818Y-102768277D01*
X101772821Y-102768284D01*
X101867467Y-102932216D01*
X101994129Y-103072888D01*
X102147265Y-103184148D01*
X102147270Y-103184151D01*
X102320192Y-103261142D01*
X102320197Y-103261144D01*
X102505354Y-103300500D01*
X102505355Y-103300500D01*
X102694644Y-103300500D01*
X102694646Y-103300500D01*
X102879803Y-103261144D01*
X103052730Y-103184151D01*
X103205871Y-103072888D01*
X103332533Y-102932216D01*
X103427179Y-102768284D01*
X103485674Y-102588256D01*
X103505460Y-102400000D01*
X103485674Y-102211744D01*
X103427179Y-102031716D01*
X103332533Y-101867784D01*
X103205871Y-101727112D01*
X103205870Y-101727111D01*
X103052734Y-101615851D01*
X103052729Y-101615848D01*
X102879807Y-101538857D01*
X102879802Y-101538855D01*
X102734001Y-101507865D01*
X102694646Y-101499500D01*
X102505354Y-101499500D01*
X102472897Y-101506398D01*
X102320197Y-101538855D01*
X102320192Y-101538857D01*
X102147270Y-101615848D01*
X102147265Y-101615851D01*
X101994129Y-101727111D01*
X101867466Y-101867785D01*
X101772821Y-102031715D01*
X101772818Y-102031722D01*
X101714327Y-102211740D01*
X101714326Y-102211744D01*
X101694540Y-102400000D01*
X50400500Y-102400000D01*
X50400500Y-100650000D01*
X91394540Y-100650000D01*
X91414326Y-100838256D01*
X91414327Y-100838259D01*
X91472818Y-101018277D01*
X91472821Y-101018284D01*
X91567467Y-101182216D01*
X91652911Y-101277111D01*
X91694129Y-101322888D01*
X91847265Y-101434148D01*
X91847270Y-101434151D01*
X92020192Y-101511142D01*
X92020197Y-101511144D01*
X92205354Y-101550500D01*
X92205355Y-101550500D01*
X92394644Y-101550500D01*
X92394646Y-101550500D01*
X92579803Y-101511144D01*
X92752730Y-101434151D01*
X92905871Y-101322888D01*
X93032533Y-101182216D01*
X93127179Y-101018284D01*
X93185674Y-100838256D01*
X93205460Y-100650000D01*
X93185674Y-100461744D01*
X93127179Y-100281716D01*
X93032533Y-100117784D01*
X92905871Y-99977112D01*
X92905870Y-99977111D01*
X92752734Y-99865851D01*
X92752729Y-99865848D01*
X92579807Y-99788857D01*
X92579802Y-99788855D01*
X92434001Y-99757865D01*
X92394646Y-99749500D01*
X92205354Y-99749500D01*
X92172897Y-99756398D01*
X92020197Y-99788855D01*
X92020192Y-99788857D01*
X91847270Y-99865848D01*
X91847265Y-99865851D01*
X91694129Y-99977111D01*
X91567466Y-100117785D01*
X91472821Y-100281715D01*
X91472818Y-100281722D01*
X91414327Y-100461740D01*
X91414326Y-100461744D01*
X91394540Y-100650000D01*
X50400500Y-100650000D01*
X50400500Y-98859400D01*
X53909214Y-98859400D01*
X53929000Y-99047656D01*
X53929001Y-99047659D01*
X53987492Y-99227677D01*
X53987495Y-99227684D01*
X54082141Y-99391616D01*
X54200339Y-99522888D01*
X54208803Y-99532288D01*
X54361939Y-99643548D01*
X54361944Y-99643551D01*
X54534866Y-99720542D01*
X54534871Y-99720544D01*
X54720028Y-99759900D01*
X54720029Y-99759900D01*
X54909318Y-99759900D01*
X54909320Y-99759900D01*
X55094477Y-99720544D01*
X55267404Y-99643551D01*
X55420545Y-99532288D01*
X55547207Y-99391616D01*
X55641853Y-99227684D01*
X55700348Y-99047656D01*
X55720134Y-98859400D01*
X55700348Y-98671144D01*
X55641853Y-98491116D01*
X55565807Y-98359400D01*
X61409214Y-98359400D01*
X61429000Y-98547656D01*
X61429001Y-98547659D01*
X61487492Y-98727677D01*
X61487495Y-98727684D01*
X61582141Y-98891616D01*
X61663716Y-98982214D01*
X61708803Y-99032288D01*
X61861939Y-99143548D01*
X61861944Y-99143551D01*
X62034866Y-99220542D01*
X62034871Y-99220544D01*
X62220028Y-99259900D01*
X62220029Y-99259900D01*
X62409318Y-99259900D01*
X62409320Y-99259900D01*
X62594477Y-99220544D01*
X62767404Y-99143551D01*
X62920545Y-99032288D01*
X63047207Y-98891616D01*
X63071234Y-98850000D01*
X94794540Y-98850000D01*
X94814326Y-99038256D01*
X94814327Y-99038259D01*
X94872818Y-99218277D01*
X94872821Y-99218284D01*
X94967467Y-99382216D01*
X95094129Y-99522888D01*
X95247265Y-99634148D01*
X95247270Y-99634151D01*
X95420192Y-99711142D01*
X95420197Y-99711144D01*
X95605354Y-99750500D01*
X95605355Y-99750500D01*
X95794644Y-99750500D01*
X95794646Y-99750500D01*
X95979803Y-99711144D01*
X96152730Y-99634151D01*
X96305871Y-99522888D01*
X96432533Y-99382216D01*
X96527179Y-99218284D01*
X96585674Y-99038256D01*
X96605460Y-98850000D01*
X96585674Y-98661744D01*
X96527179Y-98481716D01*
X96432533Y-98317784D01*
X96305871Y-98177112D01*
X96297657Y-98171144D01*
X96152734Y-98065851D01*
X96152729Y-98065848D01*
X95979807Y-97988857D01*
X95979802Y-97988855D01*
X95834001Y-97957865D01*
X95794646Y-97949500D01*
X95605354Y-97949500D01*
X95572897Y-97956398D01*
X95420197Y-97988855D01*
X95420192Y-97988857D01*
X95247270Y-98065848D01*
X95247265Y-98065851D01*
X95094129Y-98177111D01*
X94967466Y-98317785D01*
X94872821Y-98481715D01*
X94872818Y-98481722D01*
X94814327Y-98661740D01*
X94814326Y-98661744D01*
X94794540Y-98850000D01*
X63071234Y-98850000D01*
X63141853Y-98727684D01*
X63200348Y-98547656D01*
X63220134Y-98359400D01*
X63200348Y-98171144D01*
X63141853Y-97991116D01*
X63047207Y-97827184D01*
X62920545Y-97686512D01*
X62920544Y-97686511D01*
X62767408Y-97575251D01*
X62767403Y-97575248D01*
X62594481Y-97498257D01*
X62594476Y-97498255D01*
X62448675Y-97467265D01*
X62409320Y-97458900D01*
X62220028Y-97458900D01*
X62187571Y-97465798D01*
X62034871Y-97498255D01*
X62034866Y-97498257D01*
X61861944Y-97575248D01*
X61861939Y-97575251D01*
X61708803Y-97686511D01*
X61582140Y-97827185D01*
X61487495Y-97991115D01*
X61487492Y-97991122D01*
X61444211Y-98124329D01*
X61429000Y-98171144D01*
X61409214Y-98359400D01*
X55565807Y-98359400D01*
X55547207Y-98327184D01*
X55420545Y-98186512D01*
X55420544Y-98186511D01*
X55267408Y-98075251D01*
X55267403Y-98075248D01*
X55094481Y-97998257D01*
X55094476Y-97998255D01*
X54948675Y-97967265D01*
X54909320Y-97958900D01*
X54720028Y-97958900D01*
X54687571Y-97965798D01*
X54534871Y-97998255D01*
X54534866Y-97998257D01*
X54361944Y-98075248D01*
X54361939Y-98075251D01*
X54208803Y-98186511D01*
X54082140Y-98327185D01*
X53987495Y-98491115D01*
X53987492Y-98491122D01*
X53932054Y-98661744D01*
X53929000Y-98671144D01*
X53909214Y-98859400D01*
X50400500Y-98859400D01*
X50400500Y-95800000D01*
X56094540Y-95800000D01*
X56114326Y-95988256D01*
X56114327Y-95988259D01*
X56172818Y-96168277D01*
X56172821Y-96168284D01*
X56267467Y-96332216D01*
X56363487Y-96438857D01*
X56394129Y-96472888D01*
X56547265Y-96584148D01*
X56547270Y-96584151D01*
X56720192Y-96661142D01*
X56720197Y-96661144D01*
X56905354Y-96700500D01*
X56951883Y-96700500D01*
X57018922Y-96720185D01*
X57064677Y-96772989D01*
X57075204Y-96811539D01*
X57078999Y-96847654D01*
X57137492Y-97027677D01*
X57137495Y-97027684D01*
X57232141Y-97191616D01*
X57329731Y-97300000D01*
X57358803Y-97332288D01*
X57511939Y-97443548D01*
X57511944Y-97443551D01*
X57684866Y-97520542D01*
X57684871Y-97520544D01*
X57870028Y-97559900D01*
X57870029Y-97559900D01*
X58059318Y-97559900D01*
X58059320Y-97559900D01*
X58244477Y-97520544D01*
X58417404Y-97443551D01*
X58570545Y-97332288D01*
X58599617Y-97300000D01*
X87644540Y-97300000D01*
X87664326Y-97488256D01*
X87664327Y-97488259D01*
X87722818Y-97668277D01*
X87722821Y-97668284D01*
X87817467Y-97832216D01*
X87878693Y-97900214D01*
X87944129Y-97972888D01*
X88097265Y-98084148D01*
X88097270Y-98084151D01*
X88270192Y-98161142D01*
X88270197Y-98161144D01*
X88455354Y-98200500D01*
X88455355Y-98200500D01*
X88644644Y-98200500D01*
X88644646Y-98200500D01*
X88829803Y-98161144D01*
X89002730Y-98084151D01*
X89155871Y-97972888D01*
X89282533Y-97832216D01*
X89377179Y-97668284D01*
X89435674Y-97488256D01*
X89455460Y-97300000D01*
X89435674Y-97111744D01*
X89377179Y-96931716D01*
X89282533Y-96767784D01*
X89155871Y-96627112D01*
X89140369Y-96615849D01*
X89002734Y-96515851D01*
X89002729Y-96515848D01*
X88829807Y-96438857D01*
X88829802Y-96438855D01*
X88684001Y-96407865D01*
X88644646Y-96399500D01*
X88455354Y-96399500D01*
X88422897Y-96406398D01*
X88270197Y-96438855D01*
X88270192Y-96438857D01*
X88097270Y-96515848D01*
X88097265Y-96515851D01*
X87944129Y-96627111D01*
X87817466Y-96767785D01*
X87722821Y-96931715D01*
X87722818Y-96931722D01*
X87670894Y-97091529D01*
X87664326Y-97111744D01*
X87644540Y-97300000D01*
X58599617Y-97300000D01*
X58697207Y-97191616D01*
X58791853Y-97027684D01*
X58850348Y-96847656D01*
X58870134Y-96659400D01*
X58850348Y-96471144D01*
X58794740Y-96300000D01*
X107094540Y-96300000D01*
X107114326Y-96488256D01*
X107114327Y-96488259D01*
X107172818Y-96668277D01*
X107172821Y-96668284D01*
X107267467Y-96832216D01*
X107394129Y-96972888D01*
X107475107Y-97031722D01*
X107481271Y-97036200D01*
X107523937Y-97091529D01*
X107529916Y-97161143D01*
X107526318Y-97174832D01*
X107514328Y-97211736D01*
X107514327Y-97211740D01*
X107514326Y-97211744D01*
X107494540Y-97400000D01*
X107514326Y-97588256D01*
X107514327Y-97588259D01*
X107572818Y-97768277D01*
X107572821Y-97768284D01*
X107667467Y-97932216D01*
X107726929Y-97998255D01*
X107794129Y-98072888D01*
X107947265Y-98184148D01*
X107947270Y-98184151D01*
X108120192Y-98261142D01*
X108120197Y-98261144D01*
X108305354Y-98300500D01*
X108305355Y-98300500D01*
X108494644Y-98300500D01*
X108494646Y-98300500D01*
X108679803Y-98261144D01*
X108852730Y-98184151D01*
X109005871Y-98072888D01*
X109132533Y-97932216D01*
X109227179Y-97768284D01*
X109285674Y-97588256D01*
X109305460Y-97400000D01*
X109302097Y-97368000D01*
X126144538Y-97368000D01*
X126164324Y-97556256D01*
X126164325Y-97556259D01*
X126222816Y-97736277D01*
X126222819Y-97736284D01*
X126317465Y-97900216D01*
X126444127Y-98040888D01*
X126478482Y-98065848D01*
X126486089Y-98071375D01*
X126528754Y-98126705D01*
X126534733Y-98196319D01*
X126531135Y-98210009D01*
X126514326Y-98261742D01*
X126514326Y-98261743D01*
X126514326Y-98261744D01*
X126494540Y-98450000D01*
X126514326Y-98638256D01*
X126514327Y-98638259D01*
X126572818Y-98818277D01*
X126572821Y-98818284D01*
X126667467Y-98982216D01*
X126794129Y-99122888D01*
X126947265Y-99234148D01*
X126947270Y-99234151D01*
X127120192Y-99311142D01*
X127120197Y-99311144D01*
X127305354Y-99350500D01*
X127305355Y-99350500D01*
X127494644Y-99350500D01*
X127494646Y-99350500D01*
X127679803Y-99311144D01*
X127852730Y-99234151D01*
X128005871Y-99122888D01*
X128132533Y-98982216D01*
X128227179Y-98818284D01*
X128285674Y-98638256D01*
X128305460Y-98450000D01*
X128285674Y-98261744D01*
X128227179Y-98081716D01*
X128132533Y-97917784D01*
X128005871Y-97777112D01*
X127993720Y-97768284D01*
X127963908Y-97746624D01*
X127921242Y-97691294D01*
X127915263Y-97621681D01*
X127918859Y-97607997D01*
X127935672Y-97556256D01*
X127955458Y-97368000D01*
X127935672Y-97179744D01*
X127877177Y-96999716D01*
X127782531Y-96835784D01*
X127655869Y-96695112D01*
X127655868Y-96695111D01*
X127502732Y-96583851D01*
X127502727Y-96583848D01*
X127329805Y-96506857D01*
X127329800Y-96506855D01*
X127183999Y-96475865D01*
X127144644Y-96467500D01*
X126955352Y-96467500D01*
X126930003Y-96472888D01*
X126770195Y-96506855D01*
X126770190Y-96506857D01*
X126597268Y-96583848D01*
X126597263Y-96583851D01*
X126444127Y-96695111D01*
X126317464Y-96835785D01*
X126222819Y-96999715D01*
X126222816Y-96999722D01*
X126165920Y-97174832D01*
X126164324Y-97179744D01*
X126144538Y-97368000D01*
X109302097Y-97368000D01*
X109285674Y-97211744D01*
X109227179Y-97031716D01*
X109132533Y-96867784D01*
X109005871Y-96727112D01*
X108924901Y-96668284D01*
X108918727Y-96663798D01*
X108876062Y-96608468D01*
X108870083Y-96538854D01*
X108873679Y-96525171D01*
X108885674Y-96488256D01*
X108905460Y-96300000D01*
X108885674Y-96111744D01*
X108827179Y-95931716D01*
X108732533Y-95767784D01*
X108605871Y-95627112D01*
X108605870Y-95627111D01*
X108452734Y-95515851D01*
X108452729Y-95515848D01*
X108279807Y-95438857D01*
X108279802Y-95438855D01*
X108134001Y-95407865D01*
X108094646Y-95399500D01*
X107905354Y-95399500D01*
X107872897Y-95406398D01*
X107720197Y-95438855D01*
X107720192Y-95438857D01*
X107547270Y-95515848D01*
X107547265Y-95515851D01*
X107394129Y-95627111D01*
X107267466Y-95767785D01*
X107172821Y-95931715D01*
X107172818Y-95931722D01*
X107114327Y-96111740D01*
X107114326Y-96111744D01*
X107094540Y-96300000D01*
X58794740Y-96300000D01*
X58791853Y-96291116D01*
X58697207Y-96127184D01*
X58570545Y-95986512D01*
X58570544Y-95986511D01*
X58417408Y-95875251D01*
X58417403Y-95875248D01*
X58244481Y-95798257D01*
X58244476Y-95798255D01*
X58098675Y-95767265D01*
X58059320Y-95758900D01*
X58059319Y-95758900D01*
X58012791Y-95758900D01*
X57945752Y-95739215D01*
X57899997Y-95686411D01*
X57889470Y-95647861D01*
X57885674Y-95611745D01*
X57885672Y-95611740D01*
X57827179Y-95431716D01*
X57751133Y-95300000D01*
X98644540Y-95300000D01*
X98664326Y-95488256D01*
X98664327Y-95488259D01*
X98722818Y-95668277D01*
X98722821Y-95668284D01*
X98817467Y-95832216D01*
X98907063Y-95931722D01*
X98944129Y-95972888D01*
X99097265Y-96084148D01*
X99097270Y-96084151D01*
X99270192Y-96161142D01*
X99270197Y-96161144D01*
X99455354Y-96200500D01*
X99455355Y-96200500D01*
X99644644Y-96200500D01*
X99644646Y-96200500D01*
X99829803Y-96161144D01*
X100002730Y-96084151D01*
X100155871Y-95972888D01*
X100282533Y-95832216D01*
X100377179Y-95668284D01*
X100435674Y-95488256D01*
X100455460Y-95300000D01*
X100435674Y-95111744D01*
X100431858Y-95100000D01*
X115744540Y-95100000D01*
X115764326Y-95288256D01*
X115764327Y-95288259D01*
X115822818Y-95468277D01*
X115822821Y-95468284D01*
X115917467Y-95632216D01*
X116008480Y-95733296D01*
X116044129Y-95772888D01*
X116197265Y-95884148D01*
X116197270Y-95884151D01*
X116370192Y-95961142D01*
X116370197Y-95961144D01*
X116555354Y-96000500D01*
X116555355Y-96000500D01*
X116744644Y-96000500D01*
X116744646Y-96000500D01*
X116929803Y-95961144D01*
X117102730Y-95884151D01*
X117255871Y-95772888D01*
X117259715Y-95768617D01*
X117319199Y-95731968D01*
X117389057Y-95733296D01*
X117444015Y-95768613D01*
X117481629Y-95810388D01*
X117481632Y-95810390D01*
X117634765Y-95921648D01*
X117634770Y-95921651D01*
X117807692Y-95998642D01*
X117807697Y-95998644D01*
X117992854Y-96038000D01*
X117992855Y-96038000D01*
X118182144Y-96038000D01*
X118182146Y-96038000D01*
X118367303Y-95998644D01*
X118540230Y-95921651D01*
X118693371Y-95810388D01*
X118820033Y-95669716D01*
X118914679Y-95505784D01*
X118973174Y-95325756D01*
X118992960Y-95137500D01*
X118973174Y-94949244D01*
X118914679Y-94769216D01*
X118820033Y-94605284D01*
X118693371Y-94464612D01*
X118660718Y-94440888D01*
X118540234Y-94353351D01*
X118540229Y-94353348D01*
X118367307Y-94276357D01*
X118367302Y-94276355D01*
X118221501Y-94245365D01*
X118182146Y-94237000D01*
X117992854Y-94237000D01*
X117960397Y-94243898D01*
X117807697Y-94276355D01*
X117807692Y-94276357D01*
X117634770Y-94353348D01*
X117634765Y-94353351D01*
X117481629Y-94464611D01*
X117481626Y-94464614D01*
X117477775Y-94468891D01*
X117418285Y-94505535D01*
X117348428Y-94504198D01*
X117293482Y-94468883D01*
X117255870Y-94427111D01*
X117102734Y-94315851D01*
X117102729Y-94315848D01*
X116929807Y-94238857D01*
X116929802Y-94238855D01*
X116784001Y-94207865D01*
X116744646Y-94199500D01*
X116555354Y-94199500D01*
X116522897Y-94206398D01*
X116370197Y-94238855D01*
X116370192Y-94238857D01*
X116197270Y-94315848D01*
X116197265Y-94315851D01*
X116044129Y-94427111D01*
X115917466Y-94567785D01*
X115822821Y-94731715D01*
X115822818Y-94731722D01*
X115768304Y-94899500D01*
X115764326Y-94911744D01*
X115744540Y-95100000D01*
X100431858Y-95100000D01*
X100377179Y-94931716D01*
X100282533Y-94767784D01*
X100155871Y-94627112D01*
X100125829Y-94605285D01*
X100002734Y-94515851D01*
X100002729Y-94515848D01*
X99829807Y-94438857D01*
X99829802Y-94438855D01*
X99684001Y-94407865D01*
X99644646Y-94399500D01*
X99455354Y-94399500D01*
X99422897Y-94406398D01*
X99270197Y-94438855D01*
X99270192Y-94438857D01*
X99097270Y-94515848D01*
X99097265Y-94515851D01*
X98944129Y-94627111D01*
X98817466Y-94767785D01*
X98722821Y-94931715D01*
X98722818Y-94931722D01*
X98678449Y-95068277D01*
X98664326Y-95111744D01*
X98644540Y-95300000D01*
X57751133Y-95300000D01*
X57732533Y-95267784D01*
X57605871Y-95127112D01*
X57584719Y-95111744D01*
X57452734Y-95015851D01*
X57452729Y-95015848D01*
X57279807Y-94938857D01*
X57279802Y-94938855D01*
X57134001Y-94907865D01*
X57094646Y-94899500D01*
X56905354Y-94899500D01*
X56872897Y-94906398D01*
X56720197Y-94938855D01*
X56720192Y-94938857D01*
X56547270Y-95015848D01*
X56547265Y-95015851D01*
X56394129Y-95127111D01*
X56267466Y-95267785D01*
X56172821Y-95431715D01*
X56172818Y-95431722D01*
X56130767Y-95561144D01*
X56114326Y-95611744D01*
X56094540Y-95800000D01*
X50400500Y-95800000D01*
X50400500Y-94700000D01*
X52094540Y-94700000D01*
X52114326Y-94888256D01*
X52114327Y-94888259D01*
X52172818Y-95068277D01*
X52172821Y-95068284D01*
X52267467Y-95232216D01*
X52351691Y-95325756D01*
X52394129Y-95372888D01*
X52547265Y-95484148D01*
X52547270Y-95484151D01*
X52720192Y-95561142D01*
X52720197Y-95561144D01*
X52905354Y-95600500D01*
X52905355Y-95600500D01*
X53094644Y-95600500D01*
X53094646Y-95600500D01*
X53279803Y-95561144D01*
X53452730Y-95484151D01*
X53605871Y-95372888D01*
X53732533Y-95232216D01*
X53827179Y-95068284D01*
X53885674Y-94888256D01*
X53905460Y-94700000D01*
X53885674Y-94511744D01*
X53827179Y-94331716D01*
X53732533Y-94167784D01*
X53605871Y-94027112D01*
X53605870Y-94027111D01*
X53452734Y-93915851D01*
X53452729Y-93915848D01*
X53279807Y-93838857D01*
X53279802Y-93838855D01*
X53134001Y-93807865D01*
X53094646Y-93799500D01*
X52905354Y-93799500D01*
X52872897Y-93806398D01*
X52720197Y-93838855D01*
X52720192Y-93838857D01*
X52547270Y-93915848D01*
X52547265Y-93915851D01*
X52394129Y-94027111D01*
X52267466Y-94167785D01*
X52172821Y-94331715D01*
X52172818Y-94331722D01*
X52116778Y-94504198D01*
X52114326Y-94511744D01*
X52094540Y-94700000D01*
X50400500Y-94700000D01*
X50400500Y-93000000D01*
X60094540Y-93000000D01*
X60114326Y-93188256D01*
X60114327Y-93188259D01*
X60172818Y-93368277D01*
X60172821Y-93368284D01*
X60267467Y-93532216D01*
X60310258Y-93579740D01*
X60394129Y-93672888D01*
X60547265Y-93784148D01*
X60547270Y-93784151D01*
X60720192Y-93861142D01*
X60720197Y-93861144D01*
X60905354Y-93900500D01*
X60905355Y-93900500D01*
X61094644Y-93900500D01*
X61094646Y-93900500D01*
X61279803Y-93861144D01*
X61304833Y-93850000D01*
X120210538Y-93850000D01*
X120230324Y-94038256D01*
X120230325Y-94038259D01*
X120288816Y-94218277D01*
X120288819Y-94218284D01*
X120383465Y-94382216D01*
X120494502Y-94505535D01*
X120510127Y-94522888D01*
X120663263Y-94634148D01*
X120663268Y-94634151D01*
X120836190Y-94711142D01*
X120836195Y-94711144D01*
X121021352Y-94750500D01*
X121021353Y-94750500D01*
X121210642Y-94750500D01*
X121210644Y-94750500D01*
X121395801Y-94711144D01*
X121568728Y-94634151D01*
X121721869Y-94522888D01*
X121848531Y-94382216D01*
X121943177Y-94218284D01*
X122001672Y-94038256D01*
X122021458Y-93850000D01*
X122012840Y-93768000D01*
X125944538Y-93768000D01*
X125964324Y-93956256D01*
X125964325Y-93956259D01*
X126022816Y-94136277D01*
X126022819Y-94136284D01*
X126117465Y-94300216D01*
X126206861Y-94399500D01*
X126244127Y-94440888D01*
X126397263Y-94552148D01*
X126397268Y-94552151D01*
X126570190Y-94629142D01*
X126570195Y-94629144D01*
X126755352Y-94668500D01*
X126755353Y-94668500D01*
X126944642Y-94668500D01*
X126944644Y-94668500D01*
X127129801Y-94629144D01*
X127302728Y-94552151D01*
X127455869Y-94440888D01*
X127582531Y-94300216D01*
X127677177Y-94136284D01*
X127735672Y-93956256D01*
X127755458Y-93768000D01*
X127735672Y-93579744D01*
X127677177Y-93399716D01*
X127582531Y-93235784D01*
X127455869Y-93095112D01*
X127415592Y-93065849D01*
X127302732Y-92983851D01*
X127302727Y-92983848D01*
X127129805Y-92906857D01*
X127129800Y-92906855D01*
X126983999Y-92875865D01*
X126944644Y-92867500D01*
X126755352Y-92867500D01*
X126722895Y-92874398D01*
X126570195Y-92906855D01*
X126570190Y-92906857D01*
X126397268Y-92983848D01*
X126397263Y-92983851D01*
X126244127Y-93095111D01*
X126117464Y-93235785D01*
X126022819Y-93399715D01*
X126022816Y-93399722D01*
X125964325Y-93579740D01*
X125964324Y-93579744D01*
X125944538Y-93768000D01*
X122012840Y-93768000D01*
X122001672Y-93661744D01*
X121943177Y-93481716D01*
X121848531Y-93317784D01*
X121721869Y-93177112D01*
X121692606Y-93155851D01*
X121568732Y-93065851D01*
X121568727Y-93065848D01*
X121395805Y-92988857D01*
X121395800Y-92988855D01*
X121249999Y-92957865D01*
X121210644Y-92949500D01*
X121021352Y-92949500D01*
X120988895Y-92956398D01*
X120836195Y-92988855D01*
X120836190Y-92988857D01*
X120663268Y-93065848D01*
X120663263Y-93065851D01*
X120510127Y-93177111D01*
X120383464Y-93317785D01*
X120288819Y-93481715D01*
X120288816Y-93481722D01*
X120230325Y-93661740D01*
X120230324Y-93661744D01*
X120210538Y-93850000D01*
X61304833Y-93850000D01*
X61452730Y-93784151D01*
X61605871Y-93672888D01*
X61732533Y-93532216D01*
X61827179Y-93368284D01*
X61885674Y-93188256D01*
X61905460Y-93000000D01*
X61885674Y-92811744D01*
X61827179Y-92631716D01*
X61732533Y-92467784D01*
X61646018Y-92371700D01*
X86244541Y-92371700D01*
X86264327Y-92559956D01*
X86264328Y-92559959D01*
X86322819Y-92739977D01*
X86322822Y-92739984D01*
X86417468Y-92903916D01*
X86503983Y-93000000D01*
X86544130Y-93044588D01*
X86697266Y-93155848D01*
X86697271Y-93155851D01*
X86870193Y-93232842D01*
X86870198Y-93232844D01*
X87055355Y-93272200D01*
X87055356Y-93272200D01*
X87244645Y-93272200D01*
X87244647Y-93272200D01*
X87429804Y-93232844D01*
X87602731Y-93155851D01*
X87755872Y-93044588D01*
X87882534Y-92903916D01*
X87977180Y-92739984D01*
X88035675Y-92559956D01*
X88055461Y-92371700D01*
X88053180Y-92350000D01*
X101294540Y-92350000D01*
X101314326Y-92538256D01*
X101314327Y-92538259D01*
X101372818Y-92718277D01*
X101372821Y-92718284D01*
X101467467Y-92882216D01*
X101594129Y-93022888D01*
X101747265Y-93134148D01*
X101747270Y-93134151D01*
X101920192Y-93211142D01*
X101920197Y-93211144D01*
X102105354Y-93250500D01*
X102105355Y-93250500D01*
X102294644Y-93250500D01*
X102294646Y-93250500D01*
X102479803Y-93211144D01*
X102652730Y-93134151D01*
X102805871Y-93022888D01*
X102932533Y-92882216D01*
X103027179Y-92718284D01*
X103065612Y-92600000D01*
X114269540Y-92600000D01*
X114289326Y-92788256D01*
X114289327Y-92788259D01*
X114347818Y-92968277D01*
X114347821Y-92968284D01*
X114442467Y-93132216D01*
X114535721Y-93235785D01*
X114569129Y-93272888D01*
X114722265Y-93384148D01*
X114722270Y-93384151D01*
X114895192Y-93461142D01*
X114895197Y-93461144D01*
X115080354Y-93500500D01*
X115080355Y-93500500D01*
X115269644Y-93500500D01*
X115269646Y-93500500D01*
X115454803Y-93461144D01*
X115627730Y-93384151D01*
X115780871Y-93272888D01*
X115907533Y-93132216D01*
X116002179Y-92968284D01*
X116060674Y-92788256D01*
X116080460Y-92600000D01*
X116060674Y-92411744D01*
X116002179Y-92231716D01*
X115907533Y-92067784D01*
X115780871Y-91927112D01*
X115780870Y-91927111D01*
X115627734Y-91815851D01*
X115627729Y-91815848D01*
X115454807Y-91738857D01*
X115454802Y-91738855D01*
X115309001Y-91707865D01*
X115269646Y-91699500D01*
X115080354Y-91699500D01*
X115047897Y-91706398D01*
X114895197Y-91738855D01*
X114895192Y-91738857D01*
X114722270Y-91815848D01*
X114722265Y-91815851D01*
X114569129Y-91927111D01*
X114442466Y-92067785D01*
X114347821Y-92231715D01*
X114347818Y-92231722D01*
X114302337Y-92371700D01*
X114289326Y-92411744D01*
X114269540Y-92600000D01*
X103065612Y-92600000D01*
X103085674Y-92538256D01*
X103105460Y-92350000D01*
X103085674Y-92161744D01*
X103027179Y-91981716D01*
X102932533Y-91817784D01*
X102805871Y-91677112D01*
X102783893Y-91661144D01*
X102652734Y-91565851D01*
X102652729Y-91565848D01*
X102479807Y-91488857D01*
X102479802Y-91488855D01*
X102334001Y-91457865D01*
X102294646Y-91449500D01*
X102105354Y-91449500D01*
X102072897Y-91456398D01*
X101920197Y-91488855D01*
X101920192Y-91488857D01*
X101747270Y-91565848D01*
X101747265Y-91565851D01*
X101594129Y-91677111D01*
X101467466Y-91817785D01*
X101372821Y-91981715D01*
X101372818Y-91981722D01*
X101321762Y-92138857D01*
X101314326Y-92161744D01*
X101294540Y-92350000D01*
X88053180Y-92350000D01*
X88035675Y-92183444D01*
X87977180Y-92003416D01*
X87882534Y-91839484D01*
X87755872Y-91698812D01*
X87755871Y-91698811D01*
X87602735Y-91587551D01*
X87602730Y-91587548D01*
X87429808Y-91510557D01*
X87429803Y-91510555D01*
X87252588Y-91472888D01*
X87244647Y-91471200D01*
X87055355Y-91471200D01*
X87047414Y-91472888D01*
X86870198Y-91510555D01*
X86870193Y-91510557D01*
X86697271Y-91587548D01*
X86697266Y-91587551D01*
X86544130Y-91698811D01*
X86417467Y-91839485D01*
X86322822Y-92003415D01*
X86322819Y-92003422D01*
X86264328Y-92183440D01*
X86264327Y-92183444D01*
X86244541Y-92371700D01*
X61646018Y-92371700D01*
X61605871Y-92327112D01*
X61605870Y-92327111D01*
X61452734Y-92215851D01*
X61452729Y-92215848D01*
X61279807Y-92138857D01*
X61279802Y-92138855D01*
X61134001Y-92107865D01*
X61094646Y-92099500D01*
X60905354Y-92099500D01*
X60872897Y-92106398D01*
X60720197Y-92138855D01*
X60720192Y-92138857D01*
X60547270Y-92215848D01*
X60547265Y-92215851D01*
X60394129Y-92327111D01*
X60267466Y-92467785D01*
X60172821Y-92631715D01*
X60172818Y-92631722D01*
X60114327Y-92811740D01*
X60114326Y-92811744D01*
X60094540Y-93000000D01*
X50400500Y-93000000D01*
X50400500Y-90800000D01*
X118269540Y-90800000D01*
X118289326Y-90988256D01*
X118289327Y-90988259D01*
X118347818Y-91168277D01*
X118347821Y-91168284D01*
X118442467Y-91332216D01*
X118548070Y-91449500D01*
X118569129Y-91472888D01*
X118722265Y-91584148D01*
X118722270Y-91584151D01*
X118895192Y-91661142D01*
X118895197Y-91661144D01*
X119080354Y-91700500D01*
X119080355Y-91700500D01*
X119269644Y-91700500D01*
X119269646Y-91700500D01*
X119454803Y-91661144D01*
X119627730Y-91584151D01*
X119780871Y-91472888D01*
X119907533Y-91332216D01*
X120002179Y-91168284D01*
X120060674Y-90988256D01*
X120080460Y-90800000D01*
X120060674Y-90611744D01*
X120002179Y-90431716D01*
X119907533Y-90267784D01*
X119780871Y-90127112D01*
X119758893Y-90111144D01*
X119627734Y-90015851D01*
X119627729Y-90015848D01*
X119454807Y-89938857D01*
X119454802Y-89938855D01*
X119309001Y-89907865D01*
X119269646Y-89899500D01*
X119080354Y-89899500D01*
X119047897Y-89906398D01*
X118895197Y-89938855D01*
X118895192Y-89938857D01*
X118722270Y-90015848D01*
X118722265Y-90015851D01*
X118569129Y-90127111D01*
X118442466Y-90267785D01*
X118347821Y-90431715D01*
X118347818Y-90431722D01*
X118289327Y-90611740D01*
X118289326Y-90611744D01*
X118269540Y-90800000D01*
X50400500Y-90800000D01*
X50400500Y-89250000D01*
X52794540Y-89250000D01*
X52814326Y-89438256D01*
X52814327Y-89438259D01*
X52872818Y-89618277D01*
X52872821Y-89618284D01*
X52967467Y-89782216D01*
X53054086Y-89878416D01*
X53094129Y-89922888D01*
X53247265Y-90034148D01*
X53247270Y-90034151D01*
X53420192Y-90111142D01*
X53420197Y-90111144D01*
X53605354Y-90150500D01*
X53605355Y-90150500D01*
X53794644Y-90150500D01*
X53794646Y-90150500D01*
X53979803Y-90111144D01*
X54152730Y-90034151D01*
X54305871Y-89922888D01*
X54432533Y-89782216D01*
X54527179Y-89618284D01*
X54585674Y-89438256D01*
X54601679Y-89285969D01*
X54616456Y-89250053D01*
X54616402Y-89249945D01*
X54833543Y-89249945D01*
X54846977Y-89276625D01*
X54848319Y-89285960D01*
X54864326Y-89438256D01*
X54864327Y-89438259D01*
X54922818Y-89618277D01*
X54922821Y-89618284D01*
X55017467Y-89782216D01*
X55104086Y-89878416D01*
X55144129Y-89922888D01*
X55297265Y-90034148D01*
X55297270Y-90034151D01*
X55470192Y-90111142D01*
X55470197Y-90111144D01*
X55655354Y-90150500D01*
X55655355Y-90150500D01*
X55844644Y-90150500D01*
X55844646Y-90150500D01*
X56029803Y-90111144D01*
X56202730Y-90034151D01*
X56355871Y-89922888D01*
X56482533Y-89782216D01*
X56577179Y-89618284D01*
X56635674Y-89438256D01*
X56645349Y-89346200D01*
X69844540Y-89346200D01*
X69864326Y-89534456D01*
X69864327Y-89534459D01*
X69922818Y-89714477D01*
X69922821Y-89714484D01*
X70017467Y-89878416D01*
X70093526Y-89962888D01*
X70144129Y-90019088D01*
X70297265Y-90130348D01*
X70297270Y-90130351D01*
X70470192Y-90207342D01*
X70470197Y-90207344D01*
X70655354Y-90246700D01*
X70655355Y-90246700D01*
X70844644Y-90246700D01*
X70844646Y-90246700D01*
X71029803Y-90207344D01*
X71202730Y-90130351D01*
X71355871Y-90019088D01*
X71482533Y-89878416D01*
X71577179Y-89714484D01*
X71635674Y-89534456D01*
X71655460Y-89346200D01*
X71635674Y-89157944D01*
X71577179Y-88977916D01*
X71482533Y-88813984D01*
X71355871Y-88673312D01*
X71355870Y-88673311D01*
X71202734Y-88562051D01*
X71202729Y-88562048D01*
X71167134Y-88546200D01*
X77444540Y-88546200D01*
X77464326Y-88734456D01*
X77464327Y-88734459D01*
X77522818Y-88914477D01*
X77522821Y-88914484D01*
X77617467Y-89078416D01*
X77638472Y-89101744D01*
X77744129Y-89219088D01*
X77897265Y-89330348D01*
X77897270Y-89330351D01*
X78070192Y-89407342D01*
X78070197Y-89407344D01*
X78255354Y-89446700D01*
X78255355Y-89446700D01*
X78444644Y-89446700D01*
X78444646Y-89446700D01*
X78629803Y-89407344D01*
X78802730Y-89330351D01*
X78858269Y-89290000D01*
X115069540Y-89290000D01*
X115089326Y-89478256D01*
X115089327Y-89478259D01*
X115147818Y-89658277D01*
X115147821Y-89658284D01*
X115242467Y-89822216D01*
X115347491Y-89938857D01*
X115369129Y-89962888D01*
X115522265Y-90074148D01*
X115522270Y-90074151D01*
X115695192Y-90151142D01*
X115695197Y-90151144D01*
X115880354Y-90190500D01*
X115880355Y-90190500D01*
X116069644Y-90190500D01*
X116069646Y-90190500D01*
X116254803Y-90151144D01*
X116427730Y-90074151D01*
X116580871Y-89962888D01*
X116707533Y-89822216D01*
X116802179Y-89658284D01*
X116860674Y-89478256D01*
X116880460Y-89290000D01*
X116860674Y-89101744D01*
X116802179Y-88921716D01*
X116707533Y-88757784D01*
X116691174Y-88739616D01*
X116660946Y-88676627D01*
X116669571Y-88607292D01*
X116714312Y-88553626D01*
X116780965Y-88532668D01*
X116809106Y-88535355D01*
X116880354Y-88550500D01*
X116880355Y-88550500D01*
X117069644Y-88550500D01*
X117069646Y-88550500D01*
X117254803Y-88511144D01*
X117427730Y-88434151D01*
X117580871Y-88322888D01*
X117707533Y-88182216D01*
X117802179Y-88018284D01*
X117860674Y-87838256D01*
X117880460Y-87650000D01*
X117860674Y-87461744D01*
X117802179Y-87281716D01*
X117707533Y-87117784D01*
X117580871Y-86977112D01*
X117558893Y-86961144D01*
X117427734Y-86865851D01*
X117427729Y-86865848D01*
X117254807Y-86788857D01*
X117254802Y-86788855D01*
X117109001Y-86757865D01*
X117069646Y-86749500D01*
X116880354Y-86749500D01*
X116847897Y-86756398D01*
X116695197Y-86788855D01*
X116695192Y-86788857D01*
X116522270Y-86865848D01*
X116522265Y-86865851D01*
X116369129Y-86977111D01*
X116242466Y-87117785D01*
X116147821Y-87281715D01*
X116147818Y-87281722D01*
X116089327Y-87461740D01*
X116089326Y-87461744D01*
X116069540Y-87650000D01*
X116089326Y-87838256D01*
X116089327Y-87838259D01*
X116147818Y-88018277D01*
X116147821Y-88018284D01*
X116242467Y-88182216D01*
X116258823Y-88200381D01*
X116289053Y-88263372D01*
X116280428Y-88332707D01*
X116235687Y-88386373D01*
X116169034Y-88407331D01*
X116140893Y-88404644D01*
X116069646Y-88389500D01*
X115880354Y-88389500D01*
X115847897Y-88396398D01*
X115695197Y-88428855D01*
X115695192Y-88428857D01*
X115522270Y-88505848D01*
X115522265Y-88505851D01*
X115369129Y-88617111D01*
X115242466Y-88757785D01*
X115147821Y-88921715D01*
X115147818Y-88921722D01*
X115089327Y-89101740D01*
X115089326Y-89101744D01*
X115069540Y-89290000D01*
X78858269Y-89290000D01*
X78955871Y-89219088D01*
X79082533Y-89078416D01*
X79177179Y-88914484D01*
X79235674Y-88734456D01*
X79255460Y-88546200D01*
X79235674Y-88357944D01*
X79177179Y-88177916D01*
X79082533Y-88013984D01*
X78999440Y-87921700D01*
X96266240Y-87921700D01*
X96286026Y-88109956D01*
X96286027Y-88109959D01*
X96344518Y-88289977D01*
X96344521Y-88289984D01*
X96439167Y-88453916D01*
X96565829Y-88594588D01*
X96718965Y-88705848D01*
X96718970Y-88705851D01*
X96891892Y-88782842D01*
X96891897Y-88782844D01*
X97077054Y-88822200D01*
X97077055Y-88822200D01*
X97266344Y-88822200D01*
X97266346Y-88822200D01*
X97451503Y-88782844D01*
X97624430Y-88705851D01*
X97777571Y-88594588D01*
X97904233Y-88453916D01*
X97998879Y-88289984D01*
X98057374Y-88109956D01*
X98077160Y-87921700D01*
X98057374Y-87733444D01*
X97998879Y-87553416D01*
X97904233Y-87389484D01*
X97777571Y-87248812D01*
X97777570Y-87248811D01*
X97624434Y-87137551D01*
X97624429Y-87137548D01*
X97451507Y-87060557D01*
X97451502Y-87060555D01*
X97286576Y-87025500D01*
X97266346Y-87021200D01*
X97077054Y-87021200D01*
X97056824Y-87025500D01*
X96891897Y-87060555D01*
X96891892Y-87060557D01*
X96718970Y-87137548D01*
X96718965Y-87137551D01*
X96565829Y-87248811D01*
X96439166Y-87389485D01*
X96344521Y-87553415D01*
X96344518Y-87553422D01*
X96286027Y-87733440D01*
X96286026Y-87733444D01*
X96266240Y-87921700D01*
X78999440Y-87921700D01*
X78955871Y-87873312D01*
X78955870Y-87873311D01*
X78802734Y-87762051D01*
X78802729Y-87762048D01*
X78629807Y-87685057D01*
X78629802Y-87685055D01*
X78464876Y-87650000D01*
X78444646Y-87645700D01*
X78255354Y-87645700D01*
X78235124Y-87650000D01*
X78070197Y-87685055D01*
X78070192Y-87685057D01*
X77897270Y-87762048D01*
X77897265Y-87762051D01*
X77744129Y-87873311D01*
X77617466Y-88013985D01*
X77522821Y-88177915D01*
X77522818Y-88177922D01*
X77464327Y-88357940D01*
X77464326Y-88357944D01*
X77444540Y-88546200D01*
X71167134Y-88546200D01*
X71029807Y-88485057D01*
X71029802Y-88485055D01*
X70883290Y-88453914D01*
X70844646Y-88445700D01*
X70655354Y-88445700D01*
X70622897Y-88452598D01*
X70470197Y-88485055D01*
X70470192Y-88485057D01*
X70297270Y-88562048D01*
X70297265Y-88562051D01*
X70144129Y-88673311D01*
X70017466Y-88813985D01*
X69922821Y-88977915D01*
X69922818Y-88977922D01*
X69864327Y-89157940D01*
X69864326Y-89157944D01*
X69844540Y-89346200D01*
X56645349Y-89346200D01*
X56655460Y-89250000D01*
X56635674Y-89061744D01*
X56577179Y-88881716D01*
X56482533Y-88717784D01*
X56355871Y-88577112D01*
X56355870Y-88577111D01*
X56202734Y-88465851D01*
X56202729Y-88465848D01*
X56029807Y-88388857D01*
X56029802Y-88388855D01*
X55884001Y-88357865D01*
X55844646Y-88349500D01*
X55655354Y-88349500D01*
X55622897Y-88356398D01*
X55470197Y-88388855D01*
X55470192Y-88388857D01*
X55297270Y-88465848D01*
X55297265Y-88465851D01*
X55144129Y-88577111D01*
X55017466Y-88717785D01*
X54922821Y-88881715D01*
X54922818Y-88881722D01*
X54864327Y-89061740D01*
X54864326Y-89061744D01*
X54848321Y-89214029D01*
X54833543Y-89249945D01*
X54616402Y-89249945D01*
X54603023Y-89223374D01*
X54601679Y-89214029D01*
X54585674Y-89061744D01*
X54527179Y-88881716D01*
X54432533Y-88717784D01*
X54305871Y-88577112D01*
X54305870Y-88577111D01*
X54152734Y-88465851D01*
X54152729Y-88465848D01*
X53979807Y-88388857D01*
X53979802Y-88388855D01*
X53834001Y-88357865D01*
X53794646Y-88349500D01*
X53605354Y-88349500D01*
X53572897Y-88356398D01*
X53420197Y-88388855D01*
X53420192Y-88388857D01*
X53247270Y-88465848D01*
X53247265Y-88465851D01*
X53094129Y-88577111D01*
X52967466Y-88717785D01*
X52872821Y-88881715D01*
X52872818Y-88881722D01*
X52814327Y-89061740D01*
X52814326Y-89061744D01*
X52794540Y-89250000D01*
X50400500Y-89250000D01*
X50400500Y-85050000D01*
X52794540Y-85050000D01*
X52814326Y-85238256D01*
X52814327Y-85238259D01*
X52872818Y-85418277D01*
X52872821Y-85418284D01*
X52967467Y-85582216D01*
X53094129Y-85722888D01*
X53247265Y-85834148D01*
X53247270Y-85834151D01*
X53420192Y-85911142D01*
X53420197Y-85911144D01*
X53605354Y-85950500D01*
X53605355Y-85950500D01*
X53794644Y-85950500D01*
X53794646Y-85950500D01*
X53979803Y-85911144D01*
X54152730Y-85834151D01*
X54305871Y-85722888D01*
X54432533Y-85582216D01*
X54527179Y-85418284D01*
X54585674Y-85238256D01*
X54605460Y-85050000D01*
X55494540Y-85050000D01*
X55514326Y-85238256D01*
X55514327Y-85238259D01*
X55572818Y-85418277D01*
X55572821Y-85418284D01*
X55667467Y-85582216D01*
X55794129Y-85722888D01*
X55947265Y-85834148D01*
X55947270Y-85834151D01*
X56120192Y-85911142D01*
X56120197Y-85911144D01*
X56305354Y-85950500D01*
X56305355Y-85950500D01*
X56494644Y-85950500D01*
X56494646Y-85950500D01*
X56679803Y-85911144D01*
X56852730Y-85834151D01*
X57005871Y-85722888D01*
X57132533Y-85582216D01*
X57227179Y-85418284D01*
X57285674Y-85238256D01*
X57305460Y-85050000D01*
X57300205Y-85000000D01*
X64919540Y-85000000D01*
X64939326Y-85188256D01*
X64939327Y-85188259D01*
X64997818Y-85368277D01*
X64997821Y-85368284D01*
X65092467Y-85532216D01*
X65147003Y-85592784D01*
X65219129Y-85672888D01*
X65367045Y-85780355D01*
X65409711Y-85835685D01*
X65415690Y-85905298D01*
X65415452Y-85906448D01*
X65414326Y-85911742D01*
X65406044Y-85990540D01*
X65394540Y-86100000D01*
X65414326Y-86288256D01*
X65414327Y-86288259D01*
X65472818Y-86468277D01*
X65472821Y-86468284D01*
X65567467Y-86632216D01*
X65638419Y-86711016D01*
X65694129Y-86772888D01*
X65847265Y-86884148D01*
X65847270Y-86884151D01*
X66020192Y-86961142D01*
X66020197Y-86961144D01*
X66205354Y-87000500D01*
X66205355Y-87000500D01*
X66394644Y-87000500D01*
X66394646Y-87000500D01*
X66579803Y-86961144D01*
X66752730Y-86884151D01*
X66905871Y-86772888D01*
X67032533Y-86632216D01*
X67127179Y-86468284D01*
X67185674Y-86288256D01*
X67205460Y-86100000D01*
X67185674Y-85911744D01*
X67127179Y-85731716D01*
X67108868Y-85700000D01*
X81794540Y-85700000D01*
X81814326Y-85888256D01*
X81814327Y-85888259D01*
X81872818Y-86068277D01*
X81872821Y-86068284D01*
X81967467Y-86232216D01*
X82040436Y-86313256D01*
X82094129Y-86372888D01*
X82247265Y-86484148D01*
X82247270Y-86484151D01*
X82420192Y-86561142D01*
X82420197Y-86561144D01*
X82605354Y-86600500D01*
X82605355Y-86600500D01*
X82794644Y-86600500D01*
X82794646Y-86600500D01*
X82979803Y-86561144D01*
X83152730Y-86484151D01*
X83305871Y-86372888D01*
X83432533Y-86232216D01*
X83463373Y-86178800D01*
X99544540Y-86178800D01*
X99564326Y-86367056D01*
X99564327Y-86367059D01*
X99622818Y-86547077D01*
X99622821Y-86547084D01*
X99717467Y-86711016D01*
X99773177Y-86772888D01*
X99844129Y-86851688D01*
X99997265Y-86962948D01*
X99997270Y-86962951D01*
X100170192Y-87039942D01*
X100170197Y-87039944D01*
X100355354Y-87079300D01*
X100355355Y-87079300D01*
X100544644Y-87079300D01*
X100544646Y-87079300D01*
X100729803Y-87039944D01*
X100902730Y-86962951D01*
X101055871Y-86851688D01*
X101182533Y-86711016D01*
X101277179Y-86547084D01*
X101335674Y-86367056D01*
X101355460Y-86178800D01*
X101335674Y-85990544D01*
X101277179Y-85810516D01*
X101182533Y-85646584D01*
X101055871Y-85505912D01*
X101055870Y-85505911D01*
X100902734Y-85394651D01*
X100902729Y-85394648D01*
X100867134Y-85378800D01*
X107144540Y-85378800D01*
X107164326Y-85567056D01*
X107164327Y-85567059D01*
X107222818Y-85747077D01*
X107222821Y-85747084D01*
X107317467Y-85911016D01*
X107372572Y-85972216D01*
X107444129Y-86051688D01*
X107597265Y-86162948D01*
X107597270Y-86162951D01*
X107770192Y-86239942D01*
X107770197Y-86239944D01*
X107955354Y-86279300D01*
X107955355Y-86279300D01*
X108144644Y-86279300D01*
X108144646Y-86279300D01*
X108329803Y-86239944D01*
X108502730Y-86162951D01*
X108655871Y-86051688D01*
X108782533Y-85911016D01*
X108877179Y-85747084D01*
X108935674Y-85567056D01*
X108955460Y-85378800D01*
X108935674Y-85190544D01*
X108903005Y-85090000D01*
X112269540Y-85090000D01*
X112289326Y-85278256D01*
X112289327Y-85278259D01*
X112347818Y-85458277D01*
X112347821Y-85458284D01*
X112442467Y-85622216D01*
X112533113Y-85722888D01*
X112569129Y-85762888D01*
X112722265Y-85874148D01*
X112722270Y-85874151D01*
X112895192Y-85951142D01*
X112895197Y-85951144D01*
X113080354Y-85990500D01*
X113080355Y-85990500D01*
X113269644Y-85990500D01*
X113269646Y-85990500D01*
X113454803Y-85951144D01*
X113627730Y-85874151D01*
X113780871Y-85762888D01*
X113907533Y-85622216D01*
X114002179Y-85458284D01*
X114008120Y-85440000D01*
X125569540Y-85440000D01*
X125589326Y-85628256D01*
X125589327Y-85628259D01*
X125647818Y-85808277D01*
X125647821Y-85808284D01*
X125742467Y-85972216D01*
X125857525Y-86100000D01*
X125869129Y-86112888D01*
X126022265Y-86224148D01*
X126022270Y-86224151D01*
X126195192Y-86301142D01*
X126195197Y-86301144D01*
X126380354Y-86340500D01*
X126380355Y-86340500D01*
X126483086Y-86340500D01*
X126550125Y-86360185D01*
X126595880Y-86412989D01*
X126601017Y-86426181D01*
X126622819Y-86493280D01*
X126622821Y-86493284D01*
X126717467Y-86657216D01*
X126765909Y-86711016D01*
X126844129Y-86797888D01*
X126997265Y-86909148D01*
X126997270Y-86909151D01*
X127170192Y-86986142D01*
X127170197Y-86986144D01*
X127355354Y-87025500D01*
X127355355Y-87025500D01*
X127544644Y-87025500D01*
X127544646Y-87025500D01*
X127729803Y-86986144D01*
X127902730Y-86909151D01*
X128055871Y-86797888D01*
X128182533Y-86657216D01*
X128277179Y-86493284D01*
X128335674Y-86313256D01*
X128355460Y-86125000D01*
X128335674Y-85936744D01*
X128277179Y-85756716D01*
X128182533Y-85592784D01*
X128055871Y-85452112D01*
X128055870Y-85452111D01*
X127902734Y-85340851D01*
X127902729Y-85340848D01*
X127729807Y-85263857D01*
X127729802Y-85263855D01*
X127584001Y-85232865D01*
X127544646Y-85224500D01*
X127441913Y-85224500D01*
X127374874Y-85204815D01*
X127329119Y-85152011D01*
X127323982Y-85138818D01*
X127302181Y-85071721D01*
X127302178Y-85071715D01*
X127289641Y-85050000D01*
X127207533Y-84907784D01*
X127080871Y-84767112D01*
X127080870Y-84767111D01*
X126927734Y-84655851D01*
X126927729Y-84655848D01*
X126754807Y-84578857D01*
X126754802Y-84578855D01*
X126609001Y-84547865D01*
X126569646Y-84539500D01*
X126380354Y-84539500D01*
X126347897Y-84546398D01*
X126195197Y-84578855D01*
X126195192Y-84578857D01*
X126022270Y-84655848D01*
X126022265Y-84655851D01*
X125869129Y-84767111D01*
X125742466Y-84907785D01*
X125647821Y-85071715D01*
X125647818Y-85071722D01*
X125589327Y-85251740D01*
X125589326Y-85251744D01*
X125569540Y-85440000D01*
X114008120Y-85440000D01*
X114060674Y-85278256D01*
X114080460Y-85090000D01*
X114060674Y-84901744D01*
X114002179Y-84721716D01*
X113907533Y-84557784D01*
X113780871Y-84417112D01*
X113725816Y-84377112D01*
X113627734Y-84305851D01*
X113627729Y-84305848D01*
X113454807Y-84228857D01*
X113454802Y-84228855D01*
X113309001Y-84197865D01*
X113269646Y-84189500D01*
X113080354Y-84189500D01*
X113047897Y-84196398D01*
X112895197Y-84228855D01*
X112895192Y-84228857D01*
X112722270Y-84305848D01*
X112722265Y-84305851D01*
X112569129Y-84417111D01*
X112442466Y-84557785D01*
X112347821Y-84721715D01*
X112347818Y-84721722D01*
X112289327Y-84901740D01*
X112289326Y-84901744D01*
X112269540Y-85090000D01*
X108903005Y-85090000D01*
X108877179Y-85010516D01*
X108782533Y-84846584D01*
X108655871Y-84705912D01*
X108648422Y-84700500D01*
X108502734Y-84594651D01*
X108502729Y-84594648D01*
X108329807Y-84517657D01*
X108329802Y-84517655D01*
X108184001Y-84486665D01*
X108144646Y-84478300D01*
X107955354Y-84478300D01*
X107922897Y-84485198D01*
X107770197Y-84517655D01*
X107770192Y-84517657D01*
X107597270Y-84594648D01*
X107597265Y-84594651D01*
X107444129Y-84705911D01*
X107317466Y-84846585D01*
X107222821Y-85010515D01*
X107222818Y-85010522D01*
X107165069Y-85188256D01*
X107164326Y-85190544D01*
X107144540Y-85378800D01*
X100867134Y-85378800D01*
X100729807Y-85317657D01*
X100729802Y-85317655D01*
X100568475Y-85283365D01*
X100544646Y-85278300D01*
X100355354Y-85278300D01*
X100331525Y-85283365D01*
X100170197Y-85317655D01*
X100170192Y-85317657D01*
X99997270Y-85394648D01*
X99997265Y-85394651D01*
X99844129Y-85505911D01*
X99717466Y-85646585D01*
X99622821Y-85810515D01*
X99622818Y-85810522D01*
X99570281Y-85972216D01*
X99564326Y-85990544D01*
X99544540Y-86178800D01*
X83463373Y-86178800D01*
X83527179Y-86068284D01*
X83585674Y-85888256D01*
X83605460Y-85700000D01*
X83585674Y-85511744D01*
X83527179Y-85331716D01*
X83432533Y-85167784D01*
X83305871Y-85027112D01*
X83283037Y-85010522D01*
X83152734Y-84915851D01*
X83152729Y-84915848D01*
X82979807Y-84838857D01*
X82979802Y-84838855D01*
X82834001Y-84807865D01*
X82794646Y-84799500D01*
X82605354Y-84799500D01*
X82572897Y-84806398D01*
X82420197Y-84838855D01*
X82420192Y-84838857D01*
X82247270Y-84915848D01*
X82247265Y-84915851D01*
X82094129Y-85027111D01*
X81967466Y-85167785D01*
X81872821Y-85331715D01*
X81872818Y-85331722D01*
X81831696Y-85458284D01*
X81814326Y-85511744D01*
X81794540Y-85700000D01*
X67108868Y-85700000D01*
X67032533Y-85567784D01*
X66905871Y-85427112D01*
X66824891Y-85368277D01*
X66757954Y-85319644D01*
X66715289Y-85264314D01*
X66709310Y-85194700D01*
X66709549Y-85193547D01*
X66710673Y-85188259D01*
X66710674Y-85188256D01*
X66730460Y-85000000D01*
X66710674Y-84811744D01*
X66652179Y-84631716D01*
X66557533Y-84467784D01*
X66430871Y-84327112D01*
X66401605Y-84305849D01*
X66277734Y-84215851D01*
X66277729Y-84215848D01*
X66104807Y-84138857D01*
X66104802Y-84138855D01*
X65959001Y-84107865D01*
X65919646Y-84099500D01*
X65730354Y-84099500D01*
X65697897Y-84106398D01*
X65545197Y-84138855D01*
X65545192Y-84138857D01*
X65372270Y-84215848D01*
X65372265Y-84215851D01*
X65219129Y-84327111D01*
X65092466Y-84467785D01*
X64997821Y-84631715D01*
X64997818Y-84631722D01*
X64943304Y-84799500D01*
X64939326Y-84811744D01*
X64919540Y-85000000D01*
X57300205Y-85000000D01*
X57285674Y-84861744D01*
X57227179Y-84681716D01*
X57132533Y-84517784D01*
X57005871Y-84377112D01*
X56944077Y-84332216D01*
X56852734Y-84265851D01*
X56852729Y-84265848D01*
X56679807Y-84188857D01*
X56679802Y-84188855D01*
X56534001Y-84157865D01*
X56494646Y-84149500D01*
X56305354Y-84149500D01*
X56272897Y-84156398D01*
X56120197Y-84188855D01*
X56120192Y-84188857D01*
X55947270Y-84265848D01*
X55947265Y-84265851D01*
X55794129Y-84377111D01*
X55667466Y-84517785D01*
X55572821Y-84681715D01*
X55572818Y-84681722D01*
X55519251Y-84846585D01*
X55514326Y-84861744D01*
X55494540Y-85050000D01*
X54605460Y-85050000D01*
X54585674Y-84861744D01*
X54527179Y-84681716D01*
X54432533Y-84517784D01*
X54305871Y-84377112D01*
X54244077Y-84332216D01*
X54152734Y-84265851D01*
X54152729Y-84265848D01*
X53979807Y-84188857D01*
X53979802Y-84188855D01*
X53834001Y-84157865D01*
X53794646Y-84149500D01*
X53605354Y-84149500D01*
X53572897Y-84156398D01*
X53420197Y-84188855D01*
X53420192Y-84188857D01*
X53247270Y-84265848D01*
X53247265Y-84265851D01*
X53094129Y-84377111D01*
X52967466Y-84517785D01*
X52872821Y-84681715D01*
X52872818Y-84681722D01*
X52819251Y-84846585D01*
X52814326Y-84861744D01*
X52794540Y-85050000D01*
X50400500Y-85050000D01*
X50400500Y-83008600D01*
X60669541Y-83008600D01*
X60689327Y-83196856D01*
X60689328Y-83196859D01*
X60747819Y-83376877D01*
X60747822Y-83376884D01*
X60842468Y-83540816D01*
X60906332Y-83611744D01*
X60969130Y-83681488D01*
X61122266Y-83792748D01*
X61122271Y-83792751D01*
X61295193Y-83869742D01*
X61295198Y-83869744D01*
X61480355Y-83909100D01*
X61480356Y-83909100D01*
X61669645Y-83909100D01*
X61669647Y-83909100D01*
X61854804Y-83869744D01*
X62011450Y-83800000D01*
X80994540Y-83800000D01*
X81014326Y-83988256D01*
X81014327Y-83988259D01*
X81072818Y-84168277D01*
X81072821Y-84168284D01*
X81167467Y-84332216D01*
X81207891Y-84377111D01*
X81294129Y-84472888D01*
X81447265Y-84584148D01*
X81447270Y-84584151D01*
X81620192Y-84661142D01*
X81620197Y-84661144D01*
X81805354Y-84700500D01*
X81805355Y-84700500D01*
X81994644Y-84700500D01*
X81994646Y-84700500D01*
X82179803Y-84661144D01*
X82352730Y-84584151D01*
X82505871Y-84472888D01*
X82632533Y-84332216D01*
X82727179Y-84168284D01*
X82785674Y-83988256D01*
X82805460Y-83800000D01*
X82785674Y-83611744D01*
X82727179Y-83431716D01*
X82651133Y-83300000D01*
X117769540Y-83300000D01*
X117789326Y-83488256D01*
X117789327Y-83488259D01*
X117847818Y-83668277D01*
X117847821Y-83668284D01*
X117942467Y-83832216D01*
X118011694Y-83909100D01*
X118069129Y-83972888D01*
X118222265Y-84084148D01*
X118222270Y-84084151D01*
X118395192Y-84161142D01*
X118395197Y-84161144D01*
X118580354Y-84200500D01*
X118580355Y-84200500D01*
X118769644Y-84200500D01*
X118769646Y-84200500D01*
X118954803Y-84161144D01*
X119127730Y-84084151D01*
X119280871Y-83972888D01*
X119407533Y-83832216D01*
X119502179Y-83668284D01*
X119560674Y-83488256D01*
X119580460Y-83300000D01*
X119560674Y-83111744D01*
X119502179Y-82931716D01*
X119407533Y-82767784D01*
X119280871Y-82627112D01*
X119247564Y-82602913D01*
X119127734Y-82515851D01*
X119127729Y-82515848D01*
X118954807Y-82438857D01*
X118954802Y-82438855D01*
X118809001Y-82407865D01*
X118769646Y-82399500D01*
X118580354Y-82399500D01*
X118547897Y-82406398D01*
X118395197Y-82438855D01*
X118395192Y-82438857D01*
X118222270Y-82515848D01*
X118222265Y-82515851D01*
X118069129Y-82627111D01*
X117942466Y-82767785D01*
X117847821Y-82931715D01*
X117847818Y-82931722D01*
X117789327Y-83111740D01*
X117789326Y-83111744D01*
X117769540Y-83300000D01*
X82651133Y-83300000D01*
X82632533Y-83267784D01*
X82505871Y-83127112D01*
X82484719Y-83111744D01*
X82352734Y-83015851D01*
X82352729Y-83015848D01*
X82179807Y-82938857D01*
X82179802Y-82938855D01*
X82034001Y-82907865D01*
X81994646Y-82899500D01*
X81805354Y-82899500D01*
X81772897Y-82906398D01*
X81620197Y-82938855D01*
X81620192Y-82938857D01*
X81447270Y-83015848D01*
X81447265Y-83015851D01*
X81294129Y-83127111D01*
X81167466Y-83267785D01*
X81072821Y-83431715D01*
X81072818Y-83431722D01*
X81014327Y-83611740D01*
X81014326Y-83611744D01*
X80994540Y-83800000D01*
X62011450Y-83800000D01*
X62027731Y-83792751D01*
X62180872Y-83681488D01*
X62307534Y-83540816D01*
X62402180Y-83376884D01*
X62460675Y-83196856D01*
X62480461Y-83008600D01*
X62460675Y-82820344D01*
X62402180Y-82640316D01*
X62307534Y-82476384D01*
X62180872Y-82335712D01*
X62180871Y-82335711D01*
X62166129Y-82325000D01*
X75669540Y-82325000D01*
X75689326Y-82513256D01*
X75689327Y-82513259D01*
X75747818Y-82693277D01*
X75747821Y-82693284D01*
X75842467Y-82857216D01*
X75915977Y-82938857D01*
X75969129Y-82997888D01*
X76122265Y-83109148D01*
X76122270Y-83109151D01*
X76295192Y-83186142D01*
X76295197Y-83186144D01*
X76480354Y-83225500D01*
X76480355Y-83225500D01*
X76669644Y-83225500D01*
X76669646Y-83225500D01*
X76854803Y-83186144D01*
X77027730Y-83109151D01*
X77180871Y-82997888D01*
X77307533Y-82857216D01*
X77402179Y-82693284D01*
X77460674Y-82513256D01*
X77480460Y-82325000D01*
X77460674Y-82136744D01*
X77402179Y-81956716D01*
X77307533Y-81792784D01*
X77180871Y-81652112D01*
X77180870Y-81652111D01*
X77027734Y-81540851D01*
X77027729Y-81540848D01*
X76854807Y-81463857D01*
X76854802Y-81463855D01*
X76709001Y-81432865D01*
X76669646Y-81424500D01*
X76480354Y-81424500D01*
X76447897Y-81431398D01*
X76295197Y-81463855D01*
X76295192Y-81463857D01*
X76122270Y-81540848D01*
X76122265Y-81540851D01*
X75969129Y-81652111D01*
X75842466Y-81792785D01*
X75747821Y-81956715D01*
X75747818Y-81956722D01*
X75698633Y-82108100D01*
X75689326Y-82136744D01*
X75669540Y-82325000D01*
X62166129Y-82325000D01*
X62027735Y-82224451D01*
X62027730Y-82224448D01*
X61854808Y-82147457D01*
X61854803Y-82147455D01*
X61709002Y-82116465D01*
X61669647Y-82108100D01*
X61480355Y-82108100D01*
X61447898Y-82114998D01*
X61295198Y-82147455D01*
X61295193Y-82147457D01*
X61122271Y-82224448D01*
X61122266Y-82224451D01*
X60969130Y-82335711D01*
X60842467Y-82476385D01*
X60747822Y-82640315D01*
X60747819Y-82640322D01*
X60689328Y-82820340D01*
X60689327Y-82820344D01*
X60669541Y-83008600D01*
X50400500Y-83008600D01*
X50400500Y-80000003D01*
X50994415Y-80000003D01*
X51014738Y-80348927D01*
X51014739Y-80348938D01*
X51075428Y-80693127D01*
X51075430Y-80693134D01*
X51175674Y-81027972D01*
X51314107Y-81348895D01*
X51314113Y-81348908D01*
X51488870Y-81651597D01*
X51697584Y-81931949D01*
X51697589Y-81931955D01*
X51720956Y-81956722D01*
X51937442Y-82186183D01*
X52102878Y-82325000D01*
X52205186Y-82410847D01*
X52205194Y-82410853D01*
X52497203Y-82602911D01*
X52677150Y-82693284D01*
X52809549Y-82759777D01*
X53137989Y-82879319D01*
X53478086Y-82959923D01*
X53825241Y-83000500D01*
X53825248Y-83000500D01*
X54174752Y-83000500D01*
X54174759Y-83000500D01*
X54521914Y-82959923D01*
X54862011Y-82879319D01*
X55190451Y-82759777D01*
X55502793Y-82602913D01*
X55794811Y-82410849D01*
X56062558Y-82186183D01*
X56302412Y-81931953D01*
X56511130Y-81651596D01*
X56685889Y-81348904D01*
X56824326Y-81027971D01*
X56924569Y-80693136D01*
X56985262Y-80348927D01*
X57005585Y-80000003D01*
X86994415Y-80000003D01*
X87014738Y-80348927D01*
X87014739Y-80348938D01*
X87075428Y-80693127D01*
X87075430Y-80693134D01*
X87175674Y-81027972D01*
X87314107Y-81348895D01*
X87314113Y-81348908D01*
X87488870Y-81651597D01*
X87697584Y-81931949D01*
X87697589Y-81931955D01*
X87720956Y-81956722D01*
X87937442Y-82186183D01*
X88102878Y-82325000D01*
X88205186Y-82410847D01*
X88205194Y-82410853D01*
X88497203Y-82602911D01*
X88677150Y-82693284D01*
X88809549Y-82759777D01*
X89137989Y-82879319D01*
X89478086Y-82959923D01*
X89825241Y-83000500D01*
X89825248Y-83000500D01*
X90174752Y-83000500D01*
X90174759Y-83000500D01*
X90521914Y-82959923D01*
X90862011Y-82879319D01*
X91190451Y-82759777D01*
X91502793Y-82602913D01*
X91794811Y-82410849D01*
X92062558Y-82186183D01*
X92302412Y-81931953D01*
X92511130Y-81651596D01*
X92685889Y-81348904D01*
X92824326Y-81027971D01*
X92924569Y-80693136D01*
X92985262Y-80348927D01*
X93005585Y-80000003D01*
X122994415Y-80000003D01*
X123014738Y-80348927D01*
X123014739Y-80348938D01*
X123075428Y-80693127D01*
X123075430Y-80693134D01*
X123175674Y-81027972D01*
X123314107Y-81348895D01*
X123314113Y-81348908D01*
X123488870Y-81651597D01*
X123697584Y-81931949D01*
X123697589Y-81931955D01*
X123720956Y-81956722D01*
X123937442Y-82186183D01*
X124102878Y-82325000D01*
X124205186Y-82410847D01*
X124205194Y-82410853D01*
X124497203Y-82602911D01*
X124677150Y-82693284D01*
X124809549Y-82759777D01*
X125137989Y-82879319D01*
X125478086Y-82959923D01*
X125825241Y-83000500D01*
X125825248Y-83000500D01*
X126174752Y-83000500D01*
X126174759Y-83000500D01*
X126521914Y-82959923D01*
X126862011Y-82879319D01*
X127190451Y-82759777D01*
X127502793Y-82602913D01*
X127794811Y-82410849D01*
X128062558Y-82186183D01*
X128302412Y-81931953D01*
X128511130Y-81651596D01*
X128685889Y-81348904D01*
X128824326Y-81027971D01*
X128924569Y-80693136D01*
X128985262Y-80348927D01*
X129005585Y-80000000D01*
X128985262Y-79651073D01*
X128985260Y-79651061D01*
X128924571Y-79306872D01*
X128924569Y-79306865D01*
X128824325Y-78972027D01*
X128685892Y-78651104D01*
X128685889Y-78651096D01*
X128511130Y-78348404D01*
X128511129Y-78348402D01*
X128302415Y-78068050D01*
X128302410Y-78068044D01*
X128186433Y-77945117D01*
X128062558Y-77813817D01*
X127914488Y-77689572D01*
X127794813Y-77589152D01*
X127794805Y-77589146D01*
X127502796Y-77397088D01*
X127190458Y-77240226D01*
X127190452Y-77240223D01*
X126862012Y-77120681D01*
X126862009Y-77120680D01*
X126521915Y-77040077D01*
X126478519Y-77035004D01*
X126174759Y-76999500D01*
X125825241Y-76999500D01*
X125521480Y-77035004D01*
X125478085Y-77040077D01*
X125478083Y-77040077D01*
X125137990Y-77120680D01*
X125137987Y-77120681D01*
X124809547Y-77240223D01*
X124809541Y-77240226D01*
X124497203Y-77397088D01*
X124205194Y-77589146D01*
X124205186Y-77589152D01*
X123937442Y-77813817D01*
X123937440Y-77813819D01*
X123697589Y-78068044D01*
X123697584Y-78068050D01*
X123488870Y-78348402D01*
X123314113Y-78651091D01*
X123314107Y-78651104D01*
X123175674Y-78972027D01*
X123075430Y-79306865D01*
X123075428Y-79306872D01*
X123014739Y-79651061D01*
X123014738Y-79651072D01*
X122994415Y-79999996D01*
X122994415Y-80000003D01*
X93005585Y-80000003D01*
X93005585Y-80000000D01*
X92985262Y-79651073D01*
X92985260Y-79651061D01*
X92924571Y-79306872D01*
X92924569Y-79306865D01*
X92824325Y-78972027D01*
X92685892Y-78651104D01*
X92685889Y-78651096D01*
X92511130Y-78348404D01*
X92511129Y-78348402D01*
X92302415Y-78068050D01*
X92302410Y-78068044D01*
X92186433Y-77945117D01*
X92062558Y-77813817D01*
X91914488Y-77689572D01*
X91794813Y-77589152D01*
X91794805Y-77589146D01*
X91502796Y-77397088D01*
X91190458Y-77240226D01*
X91190452Y-77240223D01*
X90862012Y-77120681D01*
X90862009Y-77120680D01*
X90521915Y-77040077D01*
X90478519Y-77035004D01*
X90174759Y-76999500D01*
X89825241Y-76999500D01*
X89521480Y-77035004D01*
X89478085Y-77040077D01*
X89478083Y-77040077D01*
X89137990Y-77120680D01*
X89137987Y-77120681D01*
X88809547Y-77240223D01*
X88809541Y-77240226D01*
X88497203Y-77397088D01*
X88205194Y-77589146D01*
X88205186Y-77589152D01*
X87937442Y-77813817D01*
X87937440Y-77813819D01*
X87697589Y-78068044D01*
X87697584Y-78068050D01*
X87488870Y-78348402D01*
X87314113Y-78651091D01*
X87314107Y-78651104D01*
X87175674Y-78972027D01*
X87075430Y-79306865D01*
X87075428Y-79306872D01*
X87014739Y-79651061D01*
X87014738Y-79651072D01*
X86994415Y-79999996D01*
X86994415Y-80000003D01*
X57005585Y-80000003D01*
X57005585Y-80000000D01*
X56985262Y-79651073D01*
X56985260Y-79651061D01*
X56924571Y-79306872D01*
X56924569Y-79306865D01*
X56824325Y-78972027D01*
X56685892Y-78651104D01*
X56685889Y-78651096D01*
X56511130Y-78348404D01*
X56511129Y-78348402D01*
X56302415Y-78068050D01*
X56302410Y-78068044D01*
X56186433Y-77945117D01*
X56062558Y-77813817D01*
X55914488Y-77689572D01*
X55794813Y-77589152D01*
X55794805Y-77589146D01*
X55502796Y-77397088D01*
X55190458Y-77240226D01*
X55190452Y-77240223D01*
X54862012Y-77120681D01*
X54862009Y-77120680D01*
X54521915Y-77040077D01*
X54478519Y-77035004D01*
X54174759Y-76999500D01*
X53825241Y-76999500D01*
X53521480Y-77035004D01*
X53478085Y-77040077D01*
X53478083Y-77040077D01*
X53137990Y-77120680D01*
X53137987Y-77120681D01*
X52809547Y-77240223D01*
X52809541Y-77240226D01*
X52497203Y-77397088D01*
X52205194Y-77589146D01*
X52205186Y-77589152D01*
X51937442Y-77813817D01*
X51937440Y-77813819D01*
X51697589Y-78068044D01*
X51697584Y-78068050D01*
X51488870Y-78348402D01*
X51314113Y-78651091D01*
X51314107Y-78651104D01*
X51175674Y-78972027D01*
X51075430Y-79306865D01*
X51075428Y-79306872D01*
X51014739Y-79651061D01*
X51014738Y-79651072D01*
X50994415Y-79999996D01*
X50994415Y-80000003D01*
X50400500Y-80000003D01*
X50400500Y-72700000D01*
X52694564Y-72700000D01*
X52714287Y-73000918D01*
X52714288Y-73000930D01*
X52773118Y-73296683D01*
X52773122Y-73296698D01*
X52870053Y-73582247D01*
X52870062Y-73582268D01*
X53003431Y-73852713D01*
X53003435Y-73852720D01*
X53170973Y-74103459D01*
X53369810Y-74330189D01*
X53596540Y-74529026D01*
X53847279Y-74696564D01*
X53847286Y-74696568D01*
X54117731Y-74829937D01*
X54117736Y-74829939D01*
X54117748Y-74829945D01*
X54403309Y-74926880D01*
X54603251Y-74966651D01*
X54699069Y-74985711D01*
X54699070Y-74985711D01*
X54699080Y-74985713D01*
X55000000Y-75005436D01*
X55300920Y-74985713D01*
X55596691Y-74926880D01*
X55882252Y-74829945D01*
X56152718Y-74696566D01*
X56403461Y-74529025D01*
X56630189Y-74330189D01*
X56829025Y-74103461D01*
X56996566Y-73852718D01*
X57129945Y-73582252D01*
X57226880Y-73296691D01*
X57285713Y-73000920D01*
X57305436Y-72700000D01*
X57285713Y-72399080D01*
X57226880Y-72103309D01*
X57129945Y-71817748D01*
X57056390Y-71668594D01*
X56996568Y-71547286D01*
X56996564Y-71547279D01*
X56829026Y-71296540D01*
X56630189Y-71069810D01*
X56403459Y-70870973D01*
X56152720Y-70703435D01*
X56152713Y-70703431D01*
X55882268Y-70570062D01*
X55882247Y-70570053D01*
X55596698Y-70473122D01*
X55596692Y-70473120D01*
X55596691Y-70473120D01*
X55596689Y-70473119D01*
X55596683Y-70473118D01*
X55300930Y-70414288D01*
X55300921Y-70414287D01*
X55300920Y-70414287D01*
X55000000Y-70394564D01*
X54699080Y-70414287D01*
X54699079Y-70414287D01*
X54699069Y-70414288D01*
X54403316Y-70473118D01*
X54403301Y-70473122D01*
X54117752Y-70570053D01*
X54117731Y-70570062D01*
X53847286Y-70703431D01*
X53847279Y-70703435D01*
X53596540Y-70870973D01*
X53369810Y-71069810D01*
X53170973Y-71296540D01*
X53003435Y-71547279D01*
X53003431Y-71547286D01*
X52870062Y-71817731D01*
X52870053Y-71817752D01*
X52773122Y-72103301D01*
X52773118Y-72103316D01*
X52714288Y-72399069D01*
X52714287Y-72399081D01*
X52694564Y-72700000D01*
X50400500Y-72700000D01*
X50400500Y-70000000D01*
X58644341Y-70000000D01*
X58664936Y-70235403D01*
X58664938Y-70235413D01*
X58726094Y-70463655D01*
X58726096Y-70463659D01*
X58726097Y-70463663D01*
X58730000Y-70472032D01*
X58825965Y-70677830D01*
X58825967Y-70677834D01*
X58934281Y-70832521D01*
X58961501Y-70871396D01*
X58961506Y-70871402D01*
X59083430Y-70993326D01*
X59116915Y-71054649D01*
X59111931Y-71124341D01*
X59070059Y-71180274D01*
X59039083Y-71197189D01*
X58907669Y-71246203D01*
X58907664Y-71246206D01*
X58792455Y-71332452D01*
X58792452Y-71332455D01*
X58706206Y-71447664D01*
X58706202Y-71447671D01*
X58655908Y-71582517D01*
X58649501Y-71642116D01*
X58649500Y-71642135D01*
X58649500Y-73437870D01*
X58649501Y-73437876D01*
X58655908Y-73497483D01*
X58706202Y-73632328D01*
X58706206Y-73632335D01*
X58792452Y-73747544D01*
X58792455Y-73747547D01*
X58907664Y-73833793D01*
X58907671Y-73833797D01*
X59042517Y-73884091D01*
X59042516Y-73884091D01*
X59049444Y-73884835D01*
X59102127Y-73890500D01*
X60897872Y-73890499D01*
X60957483Y-73884091D01*
X61092331Y-73833796D01*
X61207546Y-73747546D01*
X61293796Y-73632331D01*
X61342810Y-73500916D01*
X61384681Y-73444984D01*
X61450145Y-73420566D01*
X61518418Y-73435417D01*
X61546673Y-73456569D01*
X61668599Y-73578495D01*
X61765384Y-73646265D01*
X61862165Y-73714032D01*
X61862167Y-73714033D01*
X61862170Y-73714035D01*
X62076337Y-73813903D01*
X62304592Y-73875063D01*
X62481034Y-73890500D01*
X62539999Y-73895659D01*
X62540000Y-73895659D01*
X62540001Y-73895659D01*
X62598966Y-73890500D01*
X62775408Y-73875063D01*
X63003663Y-73813903D01*
X63217830Y-73714035D01*
X63411401Y-73578495D01*
X63578495Y-73411401D01*
X63708425Y-73225842D01*
X63763002Y-73182217D01*
X63832500Y-73175023D01*
X63894855Y-73206546D01*
X63911575Y-73225842D01*
X64041500Y-73411395D01*
X64041505Y-73411401D01*
X64208599Y-73578495D01*
X64305384Y-73646265D01*
X64402165Y-73714032D01*
X64402167Y-73714033D01*
X64402170Y-73714035D01*
X64616337Y-73813903D01*
X64844592Y-73875063D01*
X65021034Y-73890500D01*
X65079999Y-73895659D01*
X65080000Y-73895659D01*
X65080001Y-73895659D01*
X65138966Y-73890500D01*
X65315408Y-73875063D01*
X65543663Y-73813903D01*
X65757830Y-73714035D01*
X65951401Y-73578495D01*
X66118495Y-73411401D01*
X66248425Y-73225842D01*
X66303002Y-73182217D01*
X66372500Y-73175023D01*
X66434855Y-73206546D01*
X66451575Y-73225842D01*
X66581500Y-73411395D01*
X66581505Y-73411401D01*
X66748599Y-73578495D01*
X66845384Y-73646265D01*
X66942165Y-73714032D01*
X66942167Y-73714033D01*
X66942170Y-73714035D01*
X67156337Y-73813903D01*
X67384592Y-73875063D01*
X67561034Y-73890500D01*
X67619999Y-73895659D01*
X67620000Y-73895659D01*
X67620001Y-73895659D01*
X67678966Y-73890500D01*
X67855408Y-73875063D01*
X68083663Y-73813903D01*
X68297830Y-73714035D01*
X68491401Y-73578495D01*
X68658495Y-73411401D01*
X68788425Y-73225842D01*
X68843002Y-73182217D01*
X68912500Y-73175023D01*
X68974855Y-73206546D01*
X68991575Y-73225842D01*
X69121500Y-73411395D01*
X69121505Y-73411401D01*
X69288599Y-73578495D01*
X69385384Y-73646265D01*
X69482165Y-73714032D01*
X69482167Y-73714033D01*
X69482170Y-73714035D01*
X69696337Y-73813903D01*
X69924592Y-73875063D01*
X70101034Y-73890500D01*
X70159999Y-73895659D01*
X70160000Y-73895659D01*
X70160001Y-73895659D01*
X70218966Y-73890500D01*
X70395408Y-73875063D01*
X70623663Y-73813903D01*
X70837830Y-73714035D01*
X71031401Y-73578495D01*
X71198495Y-73411401D01*
X71328425Y-73225842D01*
X71383002Y-73182217D01*
X71452500Y-73175023D01*
X71514855Y-73206546D01*
X71531575Y-73225842D01*
X71661500Y-73411395D01*
X71661505Y-73411401D01*
X71828599Y-73578495D01*
X71925384Y-73646265D01*
X72022165Y-73714032D01*
X72022167Y-73714033D01*
X72022170Y-73714035D01*
X72236337Y-73813903D01*
X72464592Y-73875063D01*
X72641034Y-73890500D01*
X72699999Y-73895659D01*
X72700000Y-73895659D01*
X72700001Y-73895659D01*
X72758966Y-73890500D01*
X72935408Y-73875063D01*
X73163663Y-73813903D01*
X73377830Y-73714035D01*
X73571401Y-73578495D01*
X73738495Y-73411401D01*
X73868425Y-73225842D01*
X73923002Y-73182217D01*
X73992500Y-73175023D01*
X74054855Y-73206546D01*
X74071575Y-73225842D01*
X74201500Y-73411395D01*
X74201505Y-73411401D01*
X74368599Y-73578495D01*
X74465384Y-73646265D01*
X74562165Y-73714032D01*
X74562167Y-73714033D01*
X74562170Y-73714035D01*
X74776337Y-73813903D01*
X75004592Y-73875063D01*
X75181034Y-73890500D01*
X75239999Y-73895659D01*
X75240000Y-73895659D01*
X75240001Y-73895659D01*
X75298966Y-73890500D01*
X75475408Y-73875063D01*
X75703663Y-73813903D01*
X75917830Y-73714035D01*
X76111401Y-73578495D01*
X76278495Y-73411401D01*
X76408425Y-73225842D01*
X76463002Y-73182217D01*
X76532500Y-73175023D01*
X76594855Y-73206546D01*
X76611575Y-73225842D01*
X76741500Y-73411395D01*
X76741505Y-73411401D01*
X76908599Y-73578495D01*
X77005384Y-73646265D01*
X77102165Y-73714032D01*
X77102167Y-73714033D01*
X77102170Y-73714035D01*
X77316337Y-73813903D01*
X77544592Y-73875063D01*
X77721034Y-73890500D01*
X77779999Y-73895659D01*
X77780000Y-73895659D01*
X77780001Y-73895659D01*
X77838966Y-73890500D01*
X78015408Y-73875063D01*
X78243663Y-73813903D01*
X78457830Y-73714035D01*
X78651401Y-73578495D01*
X78818495Y-73411401D01*
X78954035Y-73217830D01*
X79053903Y-73003663D01*
X79115063Y-72775408D01*
X79135659Y-72540000D01*
X79115063Y-72304592D01*
X79053903Y-72076337D01*
X78954035Y-71862171D01*
X78948731Y-71854595D01*
X78818494Y-71668597D01*
X78651402Y-71501506D01*
X78651396Y-71501501D01*
X78465842Y-71371575D01*
X78422217Y-71316998D01*
X78415023Y-71247500D01*
X78446546Y-71185145D01*
X78465842Y-71168425D01*
X78606677Y-71069811D01*
X78651401Y-71038495D01*
X78818495Y-70871401D01*
X78954035Y-70677830D01*
X79053903Y-70463663D01*
X79115063Y-70235408D01*
X79135659Y-70000000D01*
X100864341Y-70000000D01*
X100884936Y-70235403D01*
X100884938Y-70235413D01*
X100946094Y-70463655D01*
X100946096Y-70463659D01*
X100946097Y-70463663D01*
X100950000Y-70472032D01*
X101045965Y-70677830D01*
X101045967Y-70677834D01*
X101154281Y-70832521D01*
X101181501Y-70871396D01*
X101181506Y-70871402D01*
X101303430Y-70993326D01*
X101336915Y-71054649D01*
X101331931Y-71124341D01*
X101290059Y-71180274D01*
X101259083Y-71197189D01*
X101127669Y-71246203D01*
X101127664Y-71246206D01*
X101012455Y-71332452D01*
X101012452Y-71332455D01*
X100926206Y-71447664D01*
X100926202Y-71447671D01*
X100875908Y-71582517D01*
X100869501Y-71642116D01*
X100869500Y-71642135D01*
X100869500Y-73437870D01*
X100869501Y-73437876D01*
X100875908Y-73497483D01*
X100926202Y-73632328D01*
X100926206Y-73632335D01*
X101012452Y-73747544D01*
X101012455Y-73747547D01*
X101127664Y-73833793D01*
X101127671Y-73833797D01*
X101262517Y-73884091D01*
X101262516Y-73884091D01*
X101269444Y-73884835D01*
X101322127Y-73890500D01*
X103117872Y-73890499D01*
X103177483Y-73884091D01*
X103312331Y-73833796D01*
X103427546Y-73747546D01*
X103513796Y-73632331D01*
X103562810Y-73500916D01*
X103604681Y-73444984D01*
X103670145Y-73420566D01*
X103738418Y-73435417D01*
X103766673Y-73456569D01*
X103888599Y-73578495D01*
X103985384Y-73646265D01*
X104082165Y-73714032D01*
X104082167Y-73714033D01*
X104082170Y-73714035D01*
X104296337Y-73813903D01*
X104524592Y-73875063D01*
X104701034Y-73890500D01*
X104759999Y-73895659D01*
X104760000Y-73895659D01*
X104760001Y-73895659D01*
X104818966Y-73890500D01*
X104995408Y-73875063D01*
X105223663Y-73813903D01*
X105437830Y-73714035D01*
X105631401Y-73578495D01*
X105798495Y-73411401D01*
X105928425Y-73225842D01*
X105983002Y-73182217D01*
X106052500Y-73175023D01*
X106114855Y-73206546D01*
X106131575Y-73225842D01*
X106261500Y-73411395D01*
X106261505Y-73411401D01*
X106428599Y-73578495D01*
X106525384Y-73646265D01*
X106622165Y-73714032D01*
X106622167Y-73714033D01*
X106622170Y-73714035D01*
X106836337Y-73813903D01*
X107064592Y-73875063D01*
X107241034Y-73890500D01*
X107299999Y-73895659D01*
X107300000Y-73895659D01*
X107300001Y-73895659D01*
X107358966Y-73890500D01*
X107535408Y-73875063D01*
X107763663Y-73813903D01*
X107977830Y-73714035D01*
X108171401Y-73578495D01*
X108338495Y-73411401D01*
X108468425Y-73225842D01*
X108523002Y-73182217D01*
X108592500Y-73175023D01*
X108654855Y-73206546D01*
X108671575Y-73225842D01*
X108801500Y-73411395D01*
X108801505Y-73411401D01*
X108968599Y-73578495D01*
X109065384Y-73646265D01*
X109162165Y-73714032D01*
X109162167Y-73714033D01*
X109162170Y-73714035D01*
X109376337Y-73813903D01*
X109604592Y-73875063D01*
X109781034Y-73890500D01*
X109839999Y-73895659D01*
X109840000Y-73895659D01*
X109840001Y-73895659D01*
X109898966Y-73890500D01*
X110075408Y-73875063D01*
X110303663Y-73813903D01*
X110517830Y-73714035D01*
X110711401Y-73578495D01*
X110878495Y-73411401D01*
X111008730Y-73225405D01*
X111063307Y-73181781D01*
X111132805Y-73174587D01*
X111195160Y-73206110D01*
X111211879Y-73225405D01*
X111341890Y-73411078D01*
X111508917Y-73578105D01*
X111702421Y-73713600D01*
X111916507Y-73813429D01*
X111916516Y-73813433D01*
X112130000Y-73870634D01*
X112130000Y-72975501D01*
X112237685Y-73024680D01*
X112344237Y-73040000D01*
X112415763Y-73040000D01*
X112522315Y-73024680D01*
X112630000Y-72975501D01*
X112630000Y-73870633D01*
X112843483Y-73813433D01*
X112843492Y-73813429D01*
X113057578Y-73713600D01*
X113251082Y-73578105D01*
X113418105Y-73411082D01*
X113548425Y-73224968D01*
X113603002Y-73181344D01*
X113672501Y-73174151D01*
X113734855Y-73205673D01*
X113751575Y-73224968D01*
X113881894Y-73411082D01*
X114048917Y-73578105D01*
X114242421Y-73713600D01*
X114456507Y-73813429D01*
X114456516Y-73813433D01*
X114670000Y-73870634D01*
X114670000Y-72975501D01*
X114777685Y-73024680D01*
X114884237Y-73040000D01*
X114955763Y-73040000D01*
X115062315Y-73024680D01*
X115170000Y-72975501D01*
X115170000Y-73870633D01*
X115383483Y-73813433D01*
X115383492Y-73813429D01*
X115597578Y-73713600D01*
X115791082Y-73578105D01*
X115958105Y-73411082D01*
X116088119Y-73225405D01*
X116142696Y-73181781D01*
X116212195Y-73174588D01*
X116274549Y-73206110D01*
X116291269Y-73225405D01*
X116421505Y-73411401D01*
X116588599Y-73578495D01*
X116685384Y-73646265D01*
X116782165Y-73714032D01*
X116782167Y-73714033D01*
X116782170Y-73714035D01*
X116996337Y-73813903D01*
X117224592Y-73875063D01*
X117401034Y-73890500D01*
X117459999Y-73895659D01*
X117460000Y-73895659D01*
X117460001Y-73895659D01*
X117518966Y-73890500D01*
X117695408Y-73875063D01*
X117923663Y-73813903D01*
X118137830Y-73714035D01*
X118331401Y-73578495D01*
X118498495Y-73411401D01*
X118628425Y-73225842D01*
X118683002Y-73182217D01*
X118752500Y-73175023D01*
X118814855Y-73206546D01*
X118831575Y-73225842D01*
X118961500Y-73411395D01*
X118961505Y-73411401D01*
X119128599Y-73578495D01*
X119225384Y-73646265D01*
X119322165Y-73714032D01*
X119322167Y-73714033D01*
X119322170Y-73714035D01*
X119536337Y-73813903D01*
X119764592Y-73875063D01*
X119941034Y-73890500D01*
X119999999Y-73895659D01*
X120000000Y-73895659D01*
X120000001Y-73895659D01*
X120058966Y-73890500D01*
X120235408Y-73875063D01*
X120463663Y-73813903D01*
X120677830Y-73714035D01*
X120871401Y-73578495D01*
X121038495Y-73411401D01*
X121174035Y-73217830D01*
X121273903Y-73003663D01*
X121335063Y-72775408D01*
X121341660Y-72700000D01*
X122694564Y-72700000D01*
X122714287Y-73000918D01*
X122714288Y-73000930D01*
X122773118Y-73296683D01*
X122773122Y-73296698D01*
X122870053Y-73582247D01*
X122870062Y-73582268D01*
X123003431Y-73852713D01*
X123003435Y-73852720D01*
X123170973Y-74103459D01*
X123369810Y-74330189D01*
X123596540Y-74529026D01*
X123847279Y-74696564D01*
X123847286Y-74696568D01*
X124117731Y-74829937D01*
X124117736Y-74829939D01*
X124117748Y-74829945D01*
X124403309Y-74926880D01*
X124603251Y-74966651D01*
X124699069Y-74985711D01*
X124699070Y-74985711D01*
X124699080Y-74985713D01*
X125000000Y-75005436D01*
X125300920Y-74985713D01*
X125596691Y-74926880D01*
X125882252Y-74829945D01*
X126152718Y-74696566D01*
X126403461Y-74529025D01*
X126630189Y-74330189D01*
X126829025Y-74103461D01*
X126996566Y-73852718D01*
X127129945Y-73582252D01*
X127226880Y-73296691D01*
X127285713Y-73000920D01*
X127305436Y-72700000D01*
X127285713Y-72399080D01*
X127226880Y-72103309D01*
X127129945Y-71817748D01*
X127056390Y-71668594D01*
X126996568Y-71547286D01*
X126996564Y-71547279D01*
X126829026Y-71296540D01*
X126630189Y-71069810D01*
X126403459Y-70870973D01*
X126152720Y-70703435D01*
X126152713Y-70703431D01*
X125882268Y-70570062D01*
X125882247Y-70570053D01*
X125596698Y-70473122D01*
X125596692Y-70473120D01*
X125596691Y-70473120D01*
X125596689Y-70473119D01*
X125596683Y-70473118D01*
X125300930Y-70414288D01*
X125300921Y-70414287D01*
X125300920Y-70414287D01*
X125000000Y-70394564D01*
X124699080Y-70414287D01*
X124699079Y-70414287D01*
X124699069Y-70414288D01*
X124403316Y-70473118D01*
X124403301Y-70473122D01*
X124117752Y-70570053D01*
X124117731Y-70570062D01*
X123847286Y-70703431D01*
X123847279Y-70703435D01*
X123596540Y-70870973D01*
X123369810Y-71069810D01*
X123170973Y-71296540D01*
X123003435Y-71547279D01*
X123003431Y-71547286D01*
X122870062Y-71817731D01*
X122870053Y-71817752D01*
X122773122Y-72103301D01*
X122773118Y-72103316D01*
X122714288Y-72399069D01*
X122714287Y-72399081D01*
X122694564Y-72700000D01*
X121341660Y-72700000D01*
X121355659Y-72540000D01*
X121335063Y-72304592D01*
X121273903Y-72076337D01*
X121174035Y-71862171D01*
X121168731Y-71854595D01*
X121038494Y-71668597D01*
X120871402Y-71501506D01*
X120871396Y-71501501D01*
X120685842Y-71371575D01*
X120642217Y-71316998D01*
X120635023Y-71247500D01*
X120666546Y-71185145D01*
X120685842Y-71168425D01*
X120826677Y-71069811D01*
X120871401Y-71038495D01*
X121038495Y-70871401D01*
X121174035Y-70677830D01*
X121273903Y-70463663D01*
X121335063Y-70235408D01*
X121355659Y-70000000D01*
X121335063Y-69764592D01*
X121273903Y-69536337D01*
X121174035Y-69322171D01*
X121168425Y-69314158D01*
X121038494Y-69128597D01*
X120871402Y-68961506D01*
X120871395Y-68961501D01*
X120677834Y-68825967D01*
X120677830Y-68825965D01*
X120600896Y-68790090D01*
X120463663Y-68726097D01*
X120463659Y-68726096D01*
X120463655Y-68726094D01*
X120235413Y-68664938D01*
X120235403Y-68664936D01*
X120000001Y-68644341D01*
X119999999Y-68644341D01*
X119764596Y-68664936D01*
X119764586Y-68664938D01*
X119536344Y-68726094D01*
X119536335Y-68726098D01*
X119322171Y-68825964D01*
X119322169Y-68825965D01*
X119128597Y-68961505D01*
X118961505Y-69128597D01*
X118831575Y-69314158D01*
X118776998Y-69357783D01*
X118707500Y-69364977D01*
X118645145Y-69333454D01*
X118628425Y-69314158D01*
X118498494Y-69128597D01*
X118331402Y-68961506D01*
X118331395Y-68961501D01*
X118137834Y-68825967D01*
X118137830Y-68825965D01*
X118060896Y-68790090D01*
X117923663Y-68726097D01*
X117923659Y-68726096D01*
X117923655Y-68726094D01*
X117695413Y-68664938D01*
X117695403Y-68664936D01*
X117460001Y-68644341D01*
X117459999Y-68644341D01*
X117224596Y-68664936D01*
X117224586Y-68664938D01*
X116996344Y-68726094D01*
X116996335Y-68726098D01*
X116782171Y-68825964D01*
X116782169Y-68825965D01*
X116588597Y-68961505D01*
X116421505Y-69128597D01*
X116291575Y-69314158D01*
X116236998Y-69357783D01*
X116167500Y-69364977D01*
X116105145Y-69333454D01*
X116088425Y-69314158D01*
X115958494Y-69128597D01*
X115791402Y-68961506D01*
X115791395Y-68961501D01*
X115597834Y-68825967D01*
X115597830Y-68825965D01*
X115520896Y-68790090D01*
X115383663Y-68726097D01*
X115383659Y-68726096D01*
X115383655Y-68726094D01*
X115155413Y-68664938D01*
X115155403Y-68664936D01*
X114920001Y-68644341D01*
X114919999Y-68644341D01*
X114684596Y-68664936D01*
X114684586Y-68664938D01*
X114456344Y-68726094D01*
X114456335Y-68726098D01*
X114242171Y-68825964D01*
X114242169Y-68825965D01*
X114048597Y-68961505D01*
X113881505Y-69128597D01*
X113751575Y-69314158D01*
X113696998Y-69357783D01*
X113627500Y-69364977D01*
X113565145Y-69333454D01*
X113548425Y-69314158D01*
X113418494Y-69128597D01*
X113251402Y-68961506D01*
X113251395Y-68961501D01*
X113057834Y-68825967D01*
X113057830Y-68825965D01*
X112980896Y-68790090D01*
X112843663Y-68726097D01*
X112843659Y-68726096D01*
X112843655Y-68726094D01*
X112615413Y-68664938D01*
X112615403Y-68664936D01*
X112380001Y-68644341D01*
X112379999Y-68644341D01*
X112144596Y-68664936D01*
X112144586Y-68664938D01*
X111916344Y-68726094D01*
X111916335Y-68726098D01*
X111702171Y-68825964D01*
X111702169Y-68825965D01*
X111508597Y-68961505D01*
X111341505Y-69128597D01*
X111211575Y-69314158D01*
X111156998Y-69357783D01*
X111087500Y-69364977D01*
X111025145Y-69333454D01*
X111008425Y-69314158D01*
X110878494Y-69128597D01*
X110711402Y-68961506D01*
X110711395Y-68961501D01*
X110517834Y-68825967D01*
X110517830Y-68825965D01*
X110440896Y-68790090D01*
X110303663Y-68726097D01*
X110303659Y-68726096D01*
X110303655Y-68726094D01*
X110075413Y-68664938D01*
X110075403Y-68664936D01*
X109840001Y-68644341D01*
X109839999Y-68644341D01*
X109604596Y-68664936D01*
X109604586Y-68664938D01*
X109376344Y-68726094D01*
X109376335Y-68726098D01*
X109162171Y-68825964D01*
X109162169Y-68825965D01*
X108968597Y-68961505D01*
X108801505Y-69128597D01*
X108671575Y-69314158D01*
X108616998Y-69357783D01*
X108547500Y-69364977D01*
X108485145Y-69333454D01*
X108468425Y-69314158D01*
X108338494Y-69128597D01*
X108171402Y-68961506D01*
X108171395Y-68961501D01*
X107977834Y-68825967D01*
X107977830Y-68825965D01*
X107900896Y-68790090D01*
X107763663Y-68726097D01*
X107763659Y-68726096D01*
X107763655Y-68726094D01*
X107535413Y-68664938D01*
X107535403Y-68664936D01*
X107300001Y-68644341D01*
X107299999Y-68644341D01*
X107064596Y-68664936D01*
X107064586Y-68664938D01*
X106836344Y-68726094D01*
X106836335Y-68726098D01*
X106622171Y-68825964D01*
X106622169Y-68825965D01*
X106428597Y-68961505D01*
X106261505Y-69128597D01*
X106131575Y-69314158D01*
X106076998Y-69357783D01*
X106007500Y-69364977D01*
X105945145Y-69333454D01*
X105928425Y-69314158D01*
X105798494Y-69128597D01*
X105631402Y-68961506D01*
X105631395Y-68961501D01*
X105437834Y-68825967D01*
X105437830Y-68825965D01*
X105360896Y-68790090D01*
X105223663Y-68726097D01*
X105223659Y-68726096D01*
X105223655Y-68726094D01*
X104995413Y-68664938D01*
X104995403Y-68664936D01*
X104760001Y-68644341D01*
X104759999Y-68644341D01*
X104524596Y-68664936D01*
X104524586Y-68664938D01*
X104296344Y-68726094D01*
X104296335Y-68726098D01*
X104082171Y-68825964D01*
X104082169Y-68825965D01*
X103888597Y-68961505D01*
X103721505Y-69128597D01*
X103591575Y-69314158D01*
X103536998Y-69357783D01*
X103467500Y-69364977D01*
X103405145Y-69333454D01*
X103388425Y-69314158D01*
X103258494Y-69128597D01*
X103091402Y-68961506D01*
X103091395Y-68961501D01*
X102897834Y-68825967D01*
X102897830Y-68825965D01*
X102820896Y-68790090D01*
X102683663Y-68726097D01*
X102683659Y-68726096D01*
X102683655Y-68726094D01*
X102455413Y-68664938D01*
X102455403Y-68664936D01*
X102220001Y-68644341D01*
X102219999Y-68644341D01*
X101984596Y-68664936D01*
X101984586Y-68664938D01*
X101756344Y-68726094D01*
X101756335Y-68726098D01*
X101542171Y-68825964D01*
X101542169Y-68825965D01*
X101348597Y-68961505D01*
X101181505Y-69128597D01*
X101045965Y-69322169D01*
X101045964Y-69322171D01*
X100946098Y-69536335D01*
X100946094Y-69536344D01*
X100884938Y-69764586D01*
X100884936Y-69764596D01*
X100864341Y-69999999D01*
X100864341Y-70000000D01*
X79135659Y-70000000D01*
X79115063Y-69764592D01*
X79053903Y-69536337D01*
X78954035Y-69322171D01*
X78948425Y-69314158D01*
X78818494Y-69128597D01*
X78651402Y-68961506D01*
X78651395Y-68961501D01*
X78457834Y-68825967D01*
X78457830Y-68825965D01*
X78380896Y-68790090D01*
X78243663Y-68726097D01*
X78243659Y-68726096D01*
X78243655Y-68726094D01*
X78015413Y-68664938D01*
X78015403Y-68664936D01*
X77780001Y-68644341D01*
X77779999Y-68644341D01*
X77544596Y-68664936D01*
X77544586Y-68664938D01*
X77316344Y-68726094D01*
X77316335Y-68726098D01*
X77102171Y-68825964D01*
X77102169Y-68825965D01*
X76908597Y-68961505D01*
X76741505Y-69128597D01*
X76611575Y-69314158D01*
X76556998Y-69357783D01*
X76487500Y-69364977D01*
X76425145Y-69333454D01*
X76408425Y-69314158D01*
X76278494Y-69128597D01*
X76111402Y-68961506D01*
X76111395Y-68961501D01*
X75917834Y-68825967D01*
X75917830Y-68825965D01*
X75840896Y-68790090D01*
X75703663Y-68726097D01*
X75703659Y-68726096D01*
X75703655Y-68726094D01*
X75475413Y-68664938D01*
X75475403Y-68664936D01*
X75240001Y-68644341D01*
X75239999Y-68644341D01*
X75004596Y-68664936D01*
X75004586Y-68664938D01*
X74776344Y-68726094D01*
X74776335Y-68726098D01*
X74562171Y-68825964D01*
X74562169Y-68825965D01*
X74368597Y-68961505D01*
X74201505Y-69128597D01*
X74071575Y-69314158D01*
X74016998Y-69357783D01*
X73947500Y-69364977D01*
X73885145Y-69333454D01*
X73868425Y-69314158D01*
X73738494Y-69128597D01*
X73571402Y-68961506D01*
X73571395Y-68961501D01*
X73377834Y-68825967D01*
X73377830Y-68825965D01*
X73300896Y-68790090D01*
X73163663Y-68726097D01*
X73163659Y-68726096D01*
X73163655Y-68726094D01*
X72935413Y-68664938D01*
X72935403Y-68664936D01*
X72700001Y-68644341D01*
X72699999Y-68644341D01*
X72464596Y-68664936D01*
X72464586Y-68664938D01*
X72236344Y-68726094D01*
X72236335Y-68726098D01*
X72022171Y-68825964D01*
X72022169Y-68825965D01*
X71828597Y-68961505D01*
X71661505Y-69128597D01*
X71531575Y-69314158D01*
X71476998Y-69357783D01*
X71407500Y-69364977D01*
X71345145Y-69333454D01*
X71328425Y-69314158D01*
X71198494Y-69128597D01*
X71031402Y-68961506D01*
X71031395Y-68961501D01*
X70837834Y-68825967D01*
X70837830Y-68825965D01*
X70760896Y-68790090D01*
X70623663Y-68726097D01*
X70623659Y-68726096D01*
X70623655Y-68726094D01*
X70395413Y-68664938D01*
X70395403Y-68664936D01*
X70160001Y-68644341D01*
X70159999Y-68644341D01*
X69924596Y-68664936D01*
X69924586Y-68664938D01*
X69696344Y-68726094D01*
X69696335Y-68726098D01*
X69482171Y-68825964D01*
X69482169Y-68825965D01*
X69288597Y-68961505D01*
X69121505Y-69128597D01*
X68991575Y-69314158D01*
X68936998Y-69357783D01*
X68867500Y-69364977D01*
X68805145Y-69333454D01*
X68788425Y-69314158D01*
X68658494Y-69128597D01*
X68491402Y-68961506D01*
X68491395Y-68961501D01*
X68297834Y-68825967D01*
X68297830Y-68825965D01*
X68220896Y-68790090D01*
X68083663Y-68726097D01*
X68083659Y-68726096D01*
X68083655Y-68726094D01*
X67855413Y-68664938D01*
X67855403Y-68664936D01*
X67620001Y-68644341D01*
X67619999Y-68644341D01*
X67384596Y-68664936D01*
X67384586Y-68664938D01*
X67156344Y-68726094D01*
X67156335Y-68726098D01*
X66942171Y-68825964D01*
X66942169Y-68825965D01*
X66748597Y-68961505D01*
X66581505Y-69128597D01*
X66451575Y-69314158D01*
X66396998Y-69357783D01*
X66327500Y-69364977D01*
X66265145Y-69333454D01*
X66248425Y-69314158D01*
X66118494Y-69128597D01*
X65951402Y-68961506D01*
X65951395Y-68961501D01*
X65757834Y-68825967D01*
X65757830Y-68825965D01*
X65680896Y-68790090D01*
X65543663Y-68726097D01*
X65543659Y-68726096D01*
X65543655Y-68726094D01*
X65315413Y-68664938D01*
X65315403Y-68664936D01*
X65080001Y-68644341D01*
X65079999Y-68644341D01*
X64844596Y-68664936D01*
X64844586Y-68664938D01*
X64616344Y-68726094D01*
X64616335Y-68726098D01*
X64402171Y-68825964D01*
X64402169Y-68825965D01*
X64208597Y-68961505D01*
X64041505Y-69128597D01*
X63911575Y-69314158D01*
X63856998Y-69357783D01*
X63787500Y-69364977D01*
X63725145Y-69333454D01*
X63708425Y-69314158D01*
X63578494Y-69128597D01*
X63411402Y-68961506D01*
X63411395Y-68961501D01*
X63217834Y-68825967D01*
X63217830Y-68825965D01*
X63140896Y-68790090D01*
X63003663Y-68726097D01*
X63003659Y-68726096D01*
X63003655Y-68726094D01*
X62775413Y-68664938D01*
X62775403Y-68664936D01*
X62540001Y-68644341D01*
X62539999Y-68644341D01*
X62304596Y-68664936D01*
X62304586Y-68664938D01*
X62076344Y-68726094D01*
X62076335Y-68726098D01*
X61862171Y-68825964D01*
X61862169Y-68825965D01*
X61668597Y-68961505D01*
X61501505Y-69128597D01*
X61371575Y-69314158D01*
X61316998Y-69357783D01*
X61247500Y-69364977D01*
X61185145Y-69333454D01*
X61168425Y-69314158D01*
X61038494Y-69128597D01*
X60871402Y-68961506D01*
X60871395Y-68961501D01*
X60677834Y-68825967D01*
X60677830Y-68825965D01*
X60600896Y-68790090D01*
X60463663Y-68726097D01*
X60463659Y-68726096D01*
X60463655Y-68726094D01*
X60235413Y-68664938D01*
X60235403Y-68664936D01*
X60000001Y-68644341D01*
X59999999Y-68644341D01*
X59764596Y-68664936D01*
X59764586Y-68664938D01*
X59536344Y-68726094D01*
X59536335Y-68726098D01*
X59322171Y-68825964D01*
X59322169Y-68825965D01*
X59128597Y-68961505D01*
X58961505Y-69128597D01*
X58825965Y-69322169D01*
X58825964Y-69322171D01*
X58726098Y-69536335D01*
X58726094Y-69536344D01*
X58664938Y-69764586D01*
X58664936Y-69764596D01*
X58644341Y-69999999D01*
X58644341Y-70000000D01*
X50400500Y-70000000D01*
X50400500Y-69217254D01*
X50420185Y-69150215D01*
X50436819Y-69129573D01*
X52129573Y-67436819D01*
X52190896Y-67403334D01*
X52217254Y-67400500D01*
X127782745Y-67400500D01*
X127849784Y-67420185D01*
G37*
%TD.AperFunction*%
%TD*%
M02*
