M48
; DRILL file {KiCad 7.0.11} date Wed Dec 11 15:28:42 2024
; FORMAT={-:-/ absolute / inch / decimal}
; #@! TF.CreationDate,2024-12-11T15:28:42-03:00
; #@! TF.GenerationSoftware,Kicad,Pcbnew,7.0.11
; #@! TF.FileFunction,Plated,1,4,PTH
FMAT,2
INCH
; #@! TA.AperFunction,Plated,PTH,ViaDrill
T1C0.0157
; #@! TA.AperFunction,Plated,PTH,ComponentDrill
T2C0.0394
; #@! TA.AperFunction,Plated,PTH,ComponentDrill
T3C0.0945
%
G90
G05
T1
X2.0669Y-4.9213
X2.0866Y-3.7283
X2.1108Y-3.6598
X2.1142Y-3.3484
X2.1142Y-3.5138
X2.1181Y-4.4764
X2.1581Y-3.8921
X2.1581Y-4.0771
X2.1654Y-4.8228
X2.1949Y-3.5138
X2.2205Y-3.3484
X2.2329Y-3.6362
X2.2441Y-3.7717
X2.2638Y-4.9213
X2.2821Y-3.8055
X2.2835Y-4.6043
X2.3553Y-3.122
X2.3622Y-5.0197
X2.3622Y-5.2165
X2.3789Y-3.4606
X2.3819Y-4.4409
X2.4016Y-3.6614
X2.4242Y-3.2681
X2.4291Y-4.126
X2.4455Y-3.6126
X2.4533Y-3.8724
X2.4606Y-5.1181
X2.4665Y-4.4961
X2.4665Y-4.5728
X2.467Y-4.9001
X2.4803Y-4.3406
X2.5714Y-3.8173
X2.5915Y-3.3465
X2.6102Y-3.3898
X2.6526Y-3.2681
X2.6575Y-3.937
X2.6575Y-4.1339
X2.6575Y-4.3307
X2.7057Y-4.9321
X2.7854Y-3.5176
X2.8252Y-5.1197
X2.8445Y-3.4113
X2.8543Y-3.937
X2.8543Y-4.2323
X2.8789Y-4.6644
X2.9026Y-4.8612
X2.9026Y-4.9085
X2.9026Y-4.9557
X2.9154Y-3.4782
X2.9528Y-5.5118
X2.9665Y-3.7144
X3.0128Y-4.6929
X3.0148Y-3.2411
X3.0295Y-3.1002
X3.0295Y-3.4152
X3.0315Y-4.3406
X3.0364Y-4.9557
X3.0512Y-5.6102
X3.0571Y-4.1476
X3.0768Y-5.2421
X3.0807Y-4.0893
X3.0846Y-3.4861
X3.1024Y-5.3169
X3.1299Y-5.2421
X3.1496Y-5.5118
X3.1624Y-4.688
X3.1624Y-4.9006
X3.1831Y-4.4692
X3.189Y-5.3917
X3.2244Y-3.2992
X3.2402Y-4.5185
X3.2421Y-4.3255
X3.248Y-2.7559
X3.248Y-2.9528
X3.248Y-3.1496
X3.248Y-5.6102
X3.2559Y-3.374
X3.3465Y-2.8543
X3.3465Y-3.0512
X3.3465Y-5.3169
X3.3465Y-5.5118
X3.3829Y-4.8297
X3.4311Y-3.6367
X3.4449Y-2.7559
X3.4449Y-2.9528
X3.4449Y-5.6102
X3.4783Y-3.932
X3.4823Y-3.7587
X3.4843Y-4.0106
X3.4862Y-3.8307
X3.5236Y-4.1503
X3.5236Y-4.2252
X3.5374Y-5.3917
X3.5433Y-2.8543
X3.5433Y-5.5118
X3.6024Y-5.4528
X3.6161Y-5.3169
X3.6339Y-3.9626
X3.6407Y-4.8573
X3.6417Y-2.7559
X3.6417Y-2.9528
X3.6417Y-5.6102
X3.6437Y-4.0856
X3.6476Y-4.3406
X3.6506Y-4.0214
X3.7402Y-2.8543
X3.7402Y-3.0512
X3.7402Y-5.5118
X3.7461Y-5.187
X3.7589Y-5.0266
X3.7677Y-3.8917
X3.7854Y-5.4252
X3.814Y-4.5896
X3.8257Y-3.4615
X3.8376Y-4.7864
X3.8376Y-4.8337
X3.8376Y-4.9134
X3.8386Y-2.7559
X3.8386Y-2.9528
X3.8386Y-5.6102
X3.8719Y-3.7568
X3.8768Y-3.5835
X3.9193Y-3.752
X3.9193Y-5.3189
X3.937Y-5.5118
X3.9478Y-4.6142
X3.9547Y-3.3929
X3.9715Y-4.8809
X4.0Y-4.185
X4.0039Y-5.252
X4.0098Y-3.4637
X4.0098Y-3.7787
X4.0236Y-3.6358
X4.0354Y-3.8937
X4.0354Y-5.6102
X4.0394Y-4.0315
X4.0453Y-5.2185
X4.0531Y-4.2697
X4.0728Y-3.1645
X4.0846Y-5.3189
X4.0974Y-4.6132
X4.0974Y-4.8258
X4.1142Y-4.4094
X4.124Y-3.4007
X4.1831Y-4.5276
X4.1929Y-4.0138
X4.1929Y-4.0807
X4.1949Y-3.4677
X4.2323Y-3.937
X4.2323Y-4.1339
X4.2323Y-4.3307
X4.252Y-3.7913
X4.2539Y-3.3614
X4.2677Y-3.8346
X4.3307Y-4.0354
X4.3307Y-4.2323
X4.3406Y-4.7549
X4.3878Y-5.0827
X4.4114Y-3.5512
X4.4124Y-3.2874
X4.4291Y-2.9528
X4.4291Y-3.937
X4.4291Y-4.1339
X4.4291Y-4.3307
X4.4291Y-4.5276
X4.4291Y-4.7244
X4.436Y-3.5
X4.4488Y-5.0394
X4.4557Y-3.35
X4.4878Y-4.9508
X4.4882Y-5.0394
X4.5276Y-3.0512
X4.5276Y-4.8228
X4.5276Y-5.0394
X4.5344Y-3.6457
X4.5472Y-4.4094
X4.5659Y-3.5154
X4.5669Y-5.0394
X4.5925Y-3.7441
X4.6053Y-3.4508
X4.6063Y-5.0394
X4.6171Y-3.1614
X4.626Y-2.9528
X4.626Y-4.9213
X4.6457Y-5.0394
X4.6491Y-3.7456
X4.6535Y-4.9803
X4.6722Y-3.2795
X4.6919Y-3.5748
X4.7244Y-3.0512
X4.7244Y-4.4291
X4.7329Y-4.2376
X4.748Y-5.0748
X4.7683Y-3.6949
X4.7854Y-3.7743
X4.7894Y-4.0263
X4.8012Y-4.0972
X4.8228Y-2.7559
X4.8228Y-2.9528
X4.8228Y-4.3307
X4.8228Y-4.9213
X4.877Y-3.5748
X4.8858Y-4.0945
X4.9213Y-4.2323
X4.9213Y-4.4291
X4.9213Y-4.626
X4.9213Y-4.8228
X4.9429Y-3.8137
X4.9508Y-4.042
X4.9793Y-3.3638
X4.9941Y-3.6917
X5.002Y-3.8334
X5.0157Y-3.876
X5.0177Y-3.3907
X5.0197Y-2.7559
X5.0197Y-2.9528
X5.0197Y-4.3307
X5.0197Y-4.5276
X5.0197Y-4.7244
X5.9055Y-4.4291
X5.9055Y-4.5276
X5.9055Y-4.626
X6.0039Y-4.626
T2
X2.0866Y-5.3331
X2.0866Y-5.4331
X2.1866Y-5.3331
X2.1866Y-5.4331
X2.2866Y-5.3331
X2.2866Y-5.4331
X2.3622Y-2.7559
X2.3622Y-2.8559
X2.3866Y-5.3331
X2.3866Y-5.4331
X2.4622Y-2.7559
X2.4622Y-2.8559
X2.4866Y-5.3331
X2.4866Y-5.4331
X2.5622Y-2.7559
X2.5622Y-2.8559
X2.5866Y-5.3331
X2.5866Y-5.4331
X2.6622Y-2.7559
X2.6622Y-2.8559
X2.6866Y-5.3331
X2.6866Y-5.4331
X2.7622Y-2.7559
X2.7622Y-2.8559
X2.7866Y-5.3331
X2.7866Y-5.4331
X2.8622Y-2.7559
X2.8622Y-2.8559
X2.9622Y-2.7559
X2.9622Y-2.8559
X3.0622Y-2.7559
X3.0622Y-2.8559
X4.0244Y-2.7559
X4.0244Y-2.8559
X4.1244Y-2.7559
X4.1244Y-2.8559
X4.2244Y-2.7559
X4.2244Y-2.8559
X4.3Y-5.3331
X4.3Y-5.4331
X4.3244Y-2.7559
X4.3244Y-2.8559
X4.4Y-5.3331
X4.4Y-5.4331
X4.4244Y-2.7559
X4.4244Y-2.8559
X4.5Y-5.3331
X4.5Y-5.4331
X4.5244Y-2.7559
X4.5244Y-2.8559
X4.6Y-5.3331
X4.6Y-5.4331
X4.6244Y-2.7559
X4.6244Y-2.8559
X4.7Y-5.3331
X4.7Y-5.4331
X4.7244Y-2.7559
X4.7244Y-2.8559
X4.8Y-5.3331
X4.8Y-5.4331
X4.9Y-5.3331
X4.9Y-5.4331
X5.0Y-5.3331
X5.0Y-5.4331
T3
X2.126Y-3.1496
X2.126Y-5.1378
X3.5433Y-3.1496
X3.5433Y-5.1378
X4.9606Y-3.1496
X4.9606Y-5.1378
M30
