%TF.GenerationSoftware,KiCad,Pcbnew,7.0.11*%
%TF.CreationDate,2024-12-11T15:28:43-03:00*%
%TF.ProjectId,Placa_DetectorParticulas,506c6163-615f-4446-9574-6563746f7250,rev?*%
%TF.SameCoordinates,Original*%
%TF.FileFunction,Drillmap*%
%TF.FilePolarity,Positive*%
%FSLAX45Y45*%
G04 Gerber Fmt 4.5, Leading zero omitted, Abs format (unit mm)*
G04 Created by KiCad (PCBNEW 7.0.11) date 2024-12-11 15:28:43*
%MOMM*%
%LPD*%
G01*
G04 APERTURE LIST*
%ADD10C,0.100000*%
%ADD11C,0.200000*%
%ADD12C,0.240000*%
G04 APERTURE END LIST*
D10*
X5200000Y-14600000D02*
X5000000Y-14400000D01*
X5000000Y-6900000D02*
X5200000Y-6700000D01*
X5000000Y-14400000D02*
X5000000Y-6900000D01*
X5200000Y-6700000D02*
X12800000Y-6700000D01*
X12690000Y-14270000D02*
G75*
G03*
X12310000Y-14270000I-190000J0D01*
G01*
X12310000Y-14270000D02*
G75*
G03*
X12690000Y-14270000I190000J0D01*
G01*
X12800000Y-14600000D02*
X5200000Y-14600000D01*
X5690000Y-7270000D02*
G75*
G03*
X5310000Y-7270000I-190000J0D01*
G01*
X5310000Y-7270000D02*
G75*
G03*
X5690000Y-7270000I190000J0D01*
G01*
X12800000Y-6700000D02*
X13000000Y-6900000D01*
X13000000Y-6900000D02*
X13000000Y-14400000D01*
X5690000Y-14270000D02*
G75*
G03*
X5310000Y-14270000I-190000J0D01*
G01*
X5310000Y-14270000D02*
G75*
G03*
X5690000Y-14270000I190000J0D01*
G01*
X12690000Y-7270000D02*
G75*
G03*
X12310000Y-7270000I-190000J0D01*
G01*
X12310000Y-7270000D02*
G75*
G03*
X12690000Y-7270000I190000J0D01*
G01*
X13000000Y-14400000D02*
X12800000Y-14600000D01*
D11*
D10*
X5230000Y-12480000D02*
X5270000Y-12520000D01*
X5270000Y-12480000D02*
X5230000Y-12520000D01*
X5280000Y-9450000D02*
X5320000Y-9490000D01*
X5320000Y-9450000D02*
X5280000Y-9490000D01*
X5341467Y-9275940D02*
X5381467Y-9315940D01*
X5381467Y-9275940D02*
X5341467Y-9315940D01*
X5350000Y-8485000D02*
X5390000Y-8525000D01*
X5390000Y-8485000D02*
X5350000Y-8525000D01*
X5350000Y-8905000D02*
X5390000Y-8945000D01*
X5390000Y-8905000D02*
X5350000Y-8945000D01*
X5360000Y-11350000D02*
X5400000Y-11390000D01*
X5400000Y-11350000D02*
X5360000Y-11390000D01*
X5461467Y-9865940D02*
X5501467Y-9905940D01*
X5501467Y-9865940D02*
X5461467Y-9905940D01*
X5461467Y-10335940D02*
X5501467Y-10375940D01*
X5501467Y-10335940D02*
X5461467Y-10375940D01*
X5480000Y-12230000D02*
X5520000Y-12270000D01*
X5520000Y-12230000D02*
X5480000Y-12270000D01*
X5555000Y-8905000D02*
X5595000Y-8945000D01*
X5595000Y-8905000D02*
X5555000Y-8945000D01*
X5620000Y-8485000D02*
X5660000Y-8525000D01*
X5660000Y-8485000D02*
X5620000Y-8525000D01*
X5651467Y-9215940D02*
X5691467Y-9255940D01*
X5691467Y-9215940D02*
X5651467Y-9255940D01*
X5680000Y-9560000D02*
X5720000Y-9600000D01*
X5720000Y-9560000D02*
X5680000Y-9600000D01*
X5730000Y-12480000D02*
X5770000Y-12520000D01*
X5770000Y-12480000D02*
X5730000Y-12520000D01*
X5776467Y-9645940D02*
X5816467Y-9685940D01*
X5816467Y-9645940D02*
X5776467Y-9685940D01*
X5780000Y-11675000D02*
X5820000Y-11715000D01*
X5820000Y-11675000D02*
X5780000Y-11715000D01*
X5962500Y-7910000D02*
X6002500Y-7950000D01*
X6002500Y-7910000D02*
X5962500Y-7950000D01*
X5980000Y-12730000D02*
X6020000Y-12770000D01*
X6020000Y-12730000D02*
X5980000Y-12770000D01*
X5980000Y-13230000D02*
X6020000Y-13270000D01*
X6020000Y-13230000D02*
X5980000Y-13270000D01*
X6022500Y-8770000D02*
X6062500Y-8810000D01*
X6062500Y-8770000D02*
X6022500Y-8810000D01*
X6030000Y-11260000D02*
X6070000Y-11300000D01*
X6070000Y-11260000D02*
X6030000Y-11300000D01*
X6080000Y-9280000D02*
X6120000Y-9320000D01*
X6120000Y-9280000D02*
X6080000Y-9320000D01*
X6137500Y-8280860D02*
X6177500Y-8320860D01*
X6177500Y-8280860D02*
X6137500Y-8320860D01*
X6150000Y-10460000D02*
X6190000Y-10500000D01*
X6190000Y-10460000D02*
X6150000Y-10500000D01*
X6191467Y-9155940D02*
X6231467Y-9195940D01*
X6231467Y-9155940D02*
X6191467Y-9195940D01*
X6211467Y-9815940D02*
X6251467Y-9855940D01*
X6251467Y-9815940D02*
X6211467Y-9855940D01*
X6230000Y-12980000D02*
X6270000Y-13020000D01*
X6270000Y-12980000D02*
X6230000Y-13020000D01*
X6245000Y-11400000D02*
X6285000Y-11440000D01*
X6285000Y-11400000D02*
X6245000Y-11440000D01*
X6245000Y-11595000D02*
X6285000Y-11635000D01*
X6285000Y-11595000D02*
X6245000Y-11635000D01*
X6246250Y-12426250D02*
X6286250Y-12466250D01*
X6286250Y-12426250D02*
X6246250Y-12466250D01*
X6280000Y-11005000D02*
X6320000Y-11045000D01*
X6320000Y-11005000D02*
X6280000Y-11045000D01*
X6511467Y-9675940D02*
X6551467Y-9715940D01*
X6551467Y-9675940D02*
X6511467Y-9715940D01*
X6562500Y-8480000D02*
X6602500Y-8520000D01*
X6602500Y-8480000D02*
X6562500Y-8520000D01*
X6610000Y-8590000D02*
X6650000Y-8630000D01*
X6650000Y-8590000D02*
X6610000Y-8630000D01*
X6717500Y-8280860D02*
X6757500Y-8320860D01*
X6757500Y-8280860D02*
X6717500Y-8320860D01*
X6730000Y-9980000D02*
X6770000Y-10020000D01*
X6770000Y-9980000D02*
X6730000Y-10020000D01*
X6730000Y-10480000D02*
X6770000Y-10520000D01*
X6770000Y-10480000D02*
X6730000Y-10520000D01*
X6730000Y-10980000D02*
X6770000Y-11020000D01*
X6770000Y-10980000D02*
X6730000Y-11020000D01*
X6852500Y-12507500D02*
X6892500Y-12547500D01*
X6892500Y-12507500D02*
X6852500Y-12547500D01*
X7055000Y-8914620D02*
X7095000Y-8954620D01*
X7095000Y-8914620D02*
X7055000Y-8954620D01*
X7156050Y-12983950D02*
X7196050Y-13023950D01*
X7196050Y-12983950D02*
X7156050Y-13023950D01*
X7205000Y-8644620D02*
X7245000Y-8684620D01*
X7245000Y-8644620D02*
X7205000Y-8684620D01*
X7230000Y-9980000D02*
X7270000Y-10020000D01*
X7270000Y-9980000D02*
X7230000Y-10020000D01*
X7230000Y-10730000D02*
X7270000Y-10770000D01*
X7270000Y-10730000D02*
X7230000Y-10770000D01*
X7292500Y-11827500D02*
X7332500Y-11867500D01*
X7332500Y-11827500D02*
X7292500Y-11867500D01*
X7352500Y-12327500D02*
X7392500Y-12367500D01*
X7392500Y-12327500D02*
X7352500Y-12367500D01*
X7352500Y-12447500D02*
X7392500Y-12487500D01*
X7392500Y-12447500D02*
X7352500Y-12487500D01*
X7352500Y-12567500D02*
X7392500Y-12607500D01*
X7392500Y-12567500D02*
X7352500Y-12607500D01*
X7385000Y-8814620D02*
X7425000Y-8854620D01*
X7425000Y-8814620D02*
X7385000Y-8854620D01*
X7480000Y-13980000D02*
X7520000Y-14020000D01*
X7520000Y-13980000D02*
X7480000Y-14020000D01*
X7515000Y-9414620D02*
X7555000Y-9454620D01*
X7555000Y-9414620D02*
X7515000Y-9454620D01*
X7632500Y-11900000D02*
X7672500Y-11940000D01*
X7672500Y-11900000D02*
X7632500Y-11940000D01*
X7637500Y-8212500D02*
X7677500Y-8252500D01*
X7677500Y-8212500D02*
X7637500Y-8252500D01*
X7675000Y-7854620D02*
X7715000Y-7894620D01*
X7715000Y-7854620D02*
X7675000Y-7894620D01*
X7675000Y-8654620D02*
X7715000Y-8694620D01*
X7715000Y-8654620D02*
X7675000Y-8694620D01*
X7680000Y-11005000D02*
X7720000Y-11045000D01*
X7720000Y-11005000D02*
X7680000Y-11045000D01*
X7692500Y-12567500D02*
X7732500Y-12607500D01*
X7732500Y-12567500D02*
X7692500Y-12607500D01*
X7730000Y-14230000D02*
X7770000Y-14270000D01*
X7770000Y-14230000D02*
X7730000Y-14270000D01*
X7745000Y-10515000D02*
X7785000Y-10555000D01*
X7785000Y-10515000D02*
X7745000Y-10555000D01*
X7795000Y-13295000D02*
X7835000Y-13335000D01*
X7835000Y-13295000D02*
X7795000Y-13335000D01*
X7805025Y-10366888D02*
X7845025Y-10406888D01*
X7845025Y-10366888D02*
X7805025Y-10406888D01*
X7815000Y-8834620D02*
X7855000Y-8874620D01*
X7855000Y-8834620D02*
X7815000Y-8874620D01*
X7860000Y-13485000D02*
X7900000Y-13525000D01*
X7900000Y-13485000D02*
X7860000Y-13525000D01*
X7930000Y-13295000D02*
X7970000Y-13335000D01*
X7970000Y-13295000D02*
X7930000Y-13335000D01*
X7980000Y-13980000D02*
X8020000Y-14020000D01*
X8020000Y-13980000D02*
X7980000Y-14020000D01*
X8012500Y-11887500D02*
X8052500Y-11927500D01*
X8052500Y-11887500D02*
X8012500Y-11927500D01*
X8012500Y-12427500D02*
X8052500Y-12467500D01*
X8052500Y-12427500D02*
X8012500Y-12467500D01*
X8065025Y-11331888D02*
X8105025Y-11371888D01*
X8105025Y-11331888D02*
X8065025Y-11371888D01*
X8080000Y-13675000D02*
X8120000Y-13715000D01*
X8120000Y-13675000D02*
X8080000Y-13715000D01*
X8170000Y-8360000D02*
X8210000Y-8400000D01*
X8210000Y-8360000D02*
X8170000Y-8400000D01*
X8210025Y-11456888D02*
X8250025Y-11496888D01*
X8250025Y-11456888D02*
X8210025Y-11496888D01*
X8215025Y-10966888D02*
X8255025Y-11006888D01*
X8255025Y-10966888D02*
X8215025Y-11006888D01*
X8230000Y-6980000D02*
X8270000Y-7020000D01*
X8270000Y-6980000D02*
X8230000Y-7020000D01*
X8230000Y-7480000D02*
X8270000Y-7520000D01*
X8270000Y-7480000D02*
X8230000Y-7520000D01*
X8230000Y-7980000D02*
X8270000Y-8020000D01*
X8270000Y-7980000D02*
X8230000Y-8020000D01*
X8230000Y-14230000D02*
X8270000Y-14270000D01*
X8270000Y-14230000D02*
X8230000Y-14270000D01*
X8250000Y-8550000D02*
X8290000Y-8590000D01*
X8290000Y-8550000D02*
X8250000Y-8590000D01*
X8480000Y-7230000D02*
X8520000Y-7270000D01*
X8520000Y-7230000D02*
X8480000Y-7270000D01*
X8480000Y-7730000D02*
X8520000Y-7770000D01*
X8520000Y-7730000D02*
X8480000Y-7770000D01*
X8480000Y-13485000D02*
X8520000Y-13525000D01*
X8520000Y-13485000D02*
X8480000Y-13525000D01*
X8480000Y-13980000D02*
X8520000Y-14020000D01*
X8520000Y-13980000D02*
X8480000Y-14020000D01*
X8572500Y-12247500D02*
X8612500Y-12287500D01*
X8612500Y-12247500D02*
X8572500Y-12287500D01*
X8695000Y-9217170D02*
X8735000Y-9257170D01*
X8735000Y-9217170D02*
X8695000Y-9257170D01*
X8730000Y-6980000D02*
X8770000Y-7020000D01*
X8770000Y-6980000D02*
X8730000Y-7020000D01*
X8730000Y-7480000D02*
X8770000Y-7520000D01*
X8770000Y-7480000D02*
X8730000Y-7520000D01*
X8730000Y-14230000D02*
X8770000Y-14270000D01*
X8770000Y-14230000D02*
X8730000Y-14270000D01*
X8815000Y-9967170D02*
X8855000Y-10007170D01*
X8855000Y-9967170D02*
X8815000Y-10007170D01*
X8825000Y-9527170D02*
X8865000Y-9567170D01*
X8865000Y-9527170D02*
X8825000Y-9567170D01*
X8830000Y-10166888D02*
X8870000Y-10206888D01*
X8870000Y-10166888D02*
X8830000Y-10206888D01*
X8835000Y-9710000D02*
X8875000Y-9750000D01*
X8875000Y-9710000D02*
X8835000Y-9750000D01*
X8930025Y-10521888D02*
X8970025Y-10561888D01*
X8970025Y-10521888D02*
X8930025Y-10561888D01*
X8930025Y-10711888D02*
X8970025Y-10751888D01*
X8970025Y-10711888D02*
X8930025Y-10751888D01*
X8965000Y-13675000D02*
X9005000Y-13715000D01*
X9005000Y-13675000D02*
X8965000Y-13715000D01*
X8980000Y-7230000D02*
X9020000Y-7270000D01*
X9020000Y-7230000D02*
X8980000Y-7270000D01*
X8980000Y-13980000D02*
X9020000Y-14020000D01*
X9020000Y-13980000D02*
X8980000Y-14020000D01*
X9130000Y-13830000D02*
X9170000Y-13870000D01*
X9170000Y-13830000D02*
X9130000Y-13870000D01*
X9165000Y-13485000D02*
X9205000Y-13525000D01*
X9205000Y-13485000D02*
X9165000Y-13525000D01*
X9210000Y-10045000D02*
X9250000Y-10085000D01*
X9250000Y-10045000D02*
X9210000Y-10085000D01*
X9227500Y-12317500D02*
X9267500Y-12357500D01*
X9267500Y-12317500D02*
X9227500Y-12357500D01*
X9230000Y-6980000D02*
X9270000Y-7020000D01*
X9270000Y-6980000D02*
X9230000Y-7020000D01*
X9230000Y-7480000D02*
X9270000Y-7520000D01*
X9270000Y-7480000D02*
X9230000Y-7520000D01*
X9230000Y-14230000D02*
X9270000Y-14270000D01*
X9270000Y-14230000D02*
X9230000Y-14270000D01*
X9235000Y-10357500D02*
X9275000Y-10397500D01*
X9275000Y-10357500D02*
X9235000Y-10397500D01*
X9245000Y-11005000D02*
X9285000Y-11045000D01*
X9285000Y-11005000D02*
X9245000Y-11045000D01*
X9252513Y-10194340D02*
X9292513Y-10234340D01*
X9292513Y-10194340D02*
X9252513Y-10234340D01*
X9480000Y-7230000D02*
X9520000Y-7270000D01*
X9520000Y-7230000D02*
X9480000Y-7270000D01*
X9480000Y-7730000D02*
X9520000Y-7770000D01*
X9520000Y-7730000D02*
X9480000Y-7770000D01*
X9480000Y-13980000D02*
X9520000Y-14020000D01*
X9520000Y-13980000D02*
X9480000Y-14020000D01*
X9495000Y-13155000D02*
X9535000Y-13195000D01*
X9535000Y-13155000D02*
X9495000Y-13195000D01*
X9527500Y-12747500D02*
X9567500Y-12787500D01*
X9567500Y-12747500D02*
X9527500Y-12787500D01*
X9550000Y-9865000D02*
X9590000Y-9905000D01*
X9590000Y-9865000D02*
X9550000Y-9905000D01*
X9595000Y-13760000D02*
X9635000Y-13800000D01*
X9635000Y-13760000D02*
X9595000Y-13800000D01*
X9667500Y-11637500D02*
X9707500Y-11677500D01*
X9707500Y-11637500D02*
X9667500Y-11677500D01*
X9697170Y-8772170D02*
X9737170Y-8812170D01*
X9737170Y-8772170D02*
X9697170Y-8812170D01*
X9727500Y-12137500D02*
X9767500Y-12177500D01*
X9767500Y-12137500D02*
X9727500Y-12177500D01*
X9727500Y-12257500D02*
X9767500Y-12297500D01*
X9767500Y-12257500D02*
X9727500Y-12297500D01*
X9727500Y-12460000D02*
X9767500Y-12500000D01*
X9767500Y-12460000D02*
X9727500Y-12500000D01*
X9730000Y-6980000D02*
X9770000Y-7020000D01*
X9770000Y-6980000D02*
X9730000Y-7020000D01*
X9730000Y-7480000D02*
X9770000Y-7520000D01*
X9770000Y-7480000D02*
X9730000Y-7520000D01*
X9730000Y-14230000D02*
X9770000Y-14270000D01*
X9770000Y-14230000D02*
X9730000Y-14270000D01*
X9814670Y-9522170D02*
X9854670Y-9562170D01*
X9854670Y-9522170D02*
X9814670Y-9562170D01*
X9827170Y-9082170D02*
X9867170Y-9122170D01*
X9867170Y-9082170D02*
X9827170Y-9122170D01*
X9935000Y-9510000D02*
X9975000Y-9550000D01*
X9975000Y-9510000D02*
X9935000Y-9550000D01*
X9935000Y-13490000D02*
X9975000Y-13530000D01*
X9975000Y-13490000D02*
X9935000Y-13530000D01*
X9980000Y-13980000D02*
X10020000Y-14020000D01*
X10020000Y-13980000D02*
X9980000Y-14020000D01*
X10007500Y-11700000D02*
X10047500Y-11740000D01*
X10047500Y-11700000D02*
X10007500Y-11740000D01*
X10025000Y-8597880D02*
X10065000Y-8637880D01*
X10065000Y-8597880D02*
X10025000Y-8637880D01*
X10067500Y-12377500D02*
X10107500Y-12417500D01*
X10107500Y-12377500D02*
X10067500Y-12417500D01*
X10140000Y-10610000D02*
X10180000Y-10650000D01*
X10180000Y-10610000D02*
X10140000Y-10650000D01*
X10150000Y-13320000D02*
X10190000Y-13360000D01*
X10190000Y-13320000D02*
X10150000Y-13360000D01*
X10165000Y-8777880D02*
X10205000Y-8817880D01*
X10205000Y-8777880D02*
X10165000Y-8817880D01*
X10165000Y-9577880D02*
X10205000Y-9617880D01*
X10205000Y-9577880D02*
X10165000Y-9617880D01*
X10200000Y-9215000D02*
X10240000Y-9255000D01*
X10240000Y-9215000D02*
X10200000Y-9255000D01*
X10230000Y-9870000D02*
X10270000Y-9910000D01*
X10270000Y-9870000D02*
X10230000Y-9910000D01*
X10230000Y-14230000D02*
X10270000Y-14270000D01*
X10270000Y-14230000D02*
X10230000Y-14270000D01*
X10240000Y-10220000D02*
X10280000Y-10260000D01*
X10280000Y-10220000D02*
X10240000Y-10260000D01*
X10255000Y-13235000D02*
X10295000Y-13275000D01*
X10295000Y-13235000D02*
X10255000Y-13275000D01*
X10275000Y-10825000D02*
X10315000Y-10865000D01*
X10315000Y-10825000D02*
X10275000Y-10865000D01*
X10325000Y-8017880D02*
X10365000Y-8057880D01*
X10365000Y-8017880D02*
X10325000Y-8057880D01*
X10355000Y-13490000D02*
X10395000Y-13530000D01*
X10395000Y-13490000D02*
X10355000Y-13530000D01*
X10387500Y-11697500D02*
X10427500Y-11737500D01*
X10427500Y-11697500D02*
X10387500Y-11737500D01*
X10387500Y-12237500D02*
X10427500Y-12277500D01*
X10427500Y-12237500D02*
X10387500Y-12277500D01*
X10430000Y-11180000D02*
X10470000Y-11220000D01*
X10470000Y-11180000D02*
X10430000Y-11220000D01*
X10455000Y-8617880D02*
X10495000Y-8657880D01*
X10495000Y-8617880D02*
X10455000Y-8657880D01*
X10605000Y-11480000D02*
X10645000Y-11520000D01*
X10645000Y-11480000D02*
X10605000Y-11520000D01*
X10630000Y-10175000D02*
X10670000Y-10215000D01*
X10670000Y-10175000D02*
X10630000Y-10215000D01*
X10630000Y-10345000D02*
X10670000Y-10385000D01*
X10670000Y-10345000D02*
X10630000Y-10385000D01*
X10635000Y-8787880D02*
X10675000Y-8827880D01*
X10675000Y-8787880D02*
X10635000Y-8827880D01*
X10730000Y-9980000D02*
X10770000Y-10020000D01*
X10770000Y-9980000D02*
X10730000Y-10020000D01*
X10730000Y-10480000D02*
X10770000Y-10520000D01*
X10770000Y-10480000D02*
X10730000Y-10520000D01*
X10730000Y-10980000D02*
X10770000Y-11020000D01*
X10770000Y-10980000D02*
X10730000Y-11020000D01*
X10780000Y-9610000D02*
X10820000Y-9650000D01*
X10820000Y-9610000D02*
X10780000Y-9650000D01*
X10785000Y-8517880D02*
X10825000Y-8557880D01*
X10825000Y-8517880D02*
X10785000Y-8557880D01*
X10820000Y-9720000D02*
X10860000Y-9760000D01*
X10860000Y-9720000D02*
X10820000Y-9760000D01*
X10980000Y-10230000D02*
X11020000Y-10270000D01*
X11020000Y-10230000D02*
X10980000Y-10270000D01*
X10980000Y-10730000D02*
X11020000Y-10770000D01*
X11020000Y-10730000D02*
X10980000Y-10770000D01*
X11005000Y-12057500D02*
X11045000Y-12097500D01*
X11045000Y-12057500D02*
X11005000Y-12097500D01*
X11125000Y-12890000D02*
X11165000Y-12930000D01*
X11165000Y-12890000D02*
X11125000Y-12930000D01*
X11185000Y-9000000D02*
X11225000Y-9040000D01*
X11225000Y-9000000D02*
X11185000Y-9040000D01*
X11187500Y-8330000D02*
X11227500Y-8370000D01*
X11227500Y-8330000D02*
X11187500Y-8370000D01*
X11230000Y-7480000D02*
X11270000Y-7520000D01*
X11270000Y-7480000D02*
X11230000Y-7520000D01*
X11230000Y-9980000D02*
X11270000Y-10020000D01*
X11270000Y-9980000D02*
X11230000Y-10020000D01*
X11230000Y-10480000D02*
X11270000Y-10520000D01*
X11270000Y-10480000D02*
X11230000Y-10520000D01*
X11230000Y-10980000D02*
X11270000Y-11020000D01*
X11270000Y-10980000D02*
X11230000Y-11020000D01*
X11230000Y-11480000D02*
X11270000Y-11520000D01*
X11270000Y-11480000D02*
X11230000Y-11520000D01*
X11230000Y-11980000D02*
X11270000Y-12020000D01*
X11270000Y-11980000D02*
X11230000Y-12020000D01*
X11247500Y-8870000D02*
X11287500Y-8910000D01*
X11287500Y-8870000D02*
X11247500Y-8910000D01*
X11280000Y-12780000D02*
X11320000Y-12820000D01*
X11320000Y-12780000D02*
X11280000Y-12820000D01*
X11297500Y-8489000D02*
X11337500Y-8529000D01*
X11337500Y-8489000D02*
X11297500Y-8529000D01*
X11379000Y-12555000D02*
X11419000Y-12595000D01*
X11419000Y-12555000D02*
X11379000Y-12595000D01*
X11380000Y-12780000D02*
X11420000Y-12820000D01*
X11420000Y-12780000D02*
X11380000Y-12820000D01*
X11480000Y-7730000D02*
X11520000Y-7770000D01*
X11520000Y-7730000D02*
X11480000Y-7770000D01*
X11480000Y-12230000D02*
X11520000Y-12270000D01*
X11520000Y-12230000D02*
X11480000Y-12270000D01*
X11480000Y-12780000D02*
X11520000Y-12820000D01*
X11520000Y-12780000D02*
X11480000Y-12820000D01*
X11497500Y-9240000D02*
X11537500Y-9280000D01*
X11537500Y-9240000D02*
X11497500Y-9280000D01*
X11530000Y-11180000D02*
X11570000Y-11220000D01*
X11570000Y-11180000D02*
X11530000Y-11220000D01*
X11577500Y-8909000D02*
X11617500Y-8949000D01*
X11617500Y-8909000D02*
X11577500Y-8949000D01*
X11580000Y-12780000D02*
X11620000Y-12820000D01*
X11620000Y-12780000D02*
X11580000Y-12820000D01*
X11645000Y-9490000D02*
X11685000Y-9530000D01*
X11685000Y-9490000D02*
X11645000Y-9530000D01*
X11677500Y-8745000D02*
X11717500Y-8785000D01*
X11717500Y-8745000D02*
X11677500Y-8785000D01*
X11680000Y-12780000D02*
X11720000Y-12820000D01*
X11720000Y-12780000D02*
X11680000Y-12820000D01*
X11707500Y-8010000D02*
X11747500Y-8050000D01*
X11747500Y-8010000D02*
X11707500Y-8050000D01*
X11730000Y-7480000D02*
X11770000Y-7520000D01*
X11770000Y-7480000D02*
X11730000Y-7520000D01*
X11730000Y-12480000D02*
X11770000Y-12520000D01*
X11770000Y-12480000D02*
X11730000Y-12520000D01*
X11780000Y-12780000D02*
X11820000Y-12820000D01*
X11820000Y-12780000D02*
X11780000Y-12820000D01*
X11788750Y-9493750D02*
X11828750Y-9533750D01*
X11828750Y-9493750D02*
X11788750Y-9533750D01*
X11800000Y-12630000D02*
X11840000Y-12670000D01*
X11840000Y-12630000D02*
X11800000Y-12670000D01*
X11847500Y-8310000D02*
X11887500Y-8350000D01*
X11887500Y-8310000D02*
X11847500Y-8350000D01*
X11897500Y-9060000D02*
X11937500Y-9100000D01*
X11937500Y-9060000D02*
X11897500Y-9100000D01*
X11980000Y-7730000D02*
X12020000Y-7770000D01*
X12020000Y-7730000D02*
X11980000Y-7770000D01*
X11980000Y-11230000D02*
X12020000Y-11270000D01*
X12020000Y-11230000D02*
X11980000Y-11270000D01*
X12001600Y-10743400D02*
X12041600Y-10783400D01*
X12041600Y-10743400D02*
X12001600Y-10783400D01*
X12040000Y-12870000D02*
X12080000Y-12910000D01*
X12080000Y-12870000D02*
X12040000Y-12910000D01*
X12091600Y-9365000D02*
X12131600Y-9405000D01*
X12131600Y-9365000D02*
X12091600Y-9405000D01*
X12135000Y-9566800D02*
X12175000Y-9606800D01*
X12175000Y-9566800D02*
X12135000Y-9606800D01*
X12145000Y-10206800D02*
X12185000Y-10246800D01*
X12185000Y-10206800D02*
X12145000Y-10246800D01*
X12175000Y-10386800D02*
X12215000Y-10426800D01*
X12215000Y-10386800D02*
X12175000Y-10426800D01*
X12230000Y-6980000D02*
X12270000Y-7020000D01*
X12270000Y-6980000D02*
X12230000Y-7020000D01*
X12230000Y-7480000D02*
X12270000Y-7520000D01*
X12270000Y-7480000D02*
X12230000Y-7520000D01*
X12230000Y-10980000D02*
X12270000Y-11020000D01*
X12270000Y-10980000D02*
X12230000Y-11020000D01*
X12230000Y-12480000D02*
X12270000Y-12520000D01*
X12270000Y-12480000D02*
X12230000Y-12520000D01*
X12367500Y-9060000D02*
X12407500Y-9100000D01*
X12407500Y-9060000D02*
X12367500Y-9100000D01*
X12390000Y-10380000D02*
X12430000Y-10420000D01*
X12430000Y-10380000D02*
X12390000Y-10420000D01*
X12480000Y-10730000D02*
X12520000Y-10770000D01*
X12520000Y-10730000D02*
X12480000Y-10770000D01*
X12480000Y-11230000D02*
X12520000Y-11270000D01*
X12520000Y-11230000D02*
X12480000Y-11270000D01*
X12480000Y-11730000D02*
X12520000Y-11770000D01*
X12520000Y-11730000D02*
X12480000Y-11770000D01*
X12480000Y-12230000D02*
X12520000Y-12270000D01*
X12520000Y-12230000D02*
X12480000Y-12270000D01*
X12535000Y-9666800D02*
X12575000Y-9706800D01*
X12575000Y-9666800D02*
X12535000Y-9706800D01*
X12555000Y-10246800D02*
X12595000Y-10286800D01*
X12595000Y-10246800D02*
X12555000Y-10286800D01*
X12627500Y-8524000D02*
X12667500Y-8564000D01*
X12667500Y-8524000D02*
X12627500Y-8564000D01*
X12665000Y-9356800D02*
X12705000Y-9396800D01*
X12705000Y-9356800D02*
X12665000Y-9396800D01*
X12685000Y-9716800D02*
X12725000Y-9756800D01*
X12725000Y-9716800D02*
X12685000Y-9756800D01*
X12720000Y-9825000D02*
X12760000Y-9865000D01*
X12760000Y-9825000D02*
X12720000Y-9865000D01*
X12725000Y-8592500D02*
X12765000Y-8632500D01*
X12765000Y-8592500D02*
X12725000Y-8632500D01*
X12730000Y-6980000D02*
X12770000Y-7020000D01*
X12770000Y-6980000D02*
X12730000Y-7020000D01*
X12730000Y-7480000D02*
X12770000Y-7520000D01*
X12770000Y-7480000D02*
X12730000Y-7520000D01*
X12730000Y-10980000D02*
X12770000Y-11020000D01*
X12770000Y-10980000D02*
X12730000Y-11020000D01*
X12730000Y-11480000D02*
X12770000Y-11520000D01*
X12770000Y-11480000D02*
X12730000Y-11520000D01*
X12730000Y-11980000D02*
X12770000Y-12020000D01*
X12770000Y-11980000D02*
X12730000Y-12020000D01*
X14980000Y-11230000D02*
X15020000Y-11270000D01*
X15020000Y-11230000D02*
X14980000Y-11270000D01*
X14980000Y-11480000D02*
X15020000Y-11520000D01*
X15020000Y-11480000D02*
X14980000Y-11520000D01*
X14980000Y-11730000D02*
X15020000Y-11770000D01*
X15020000Y-11730000D02*
X14980000Y-11770000D01*
X15230000Y-11730000D02*
X15270000Y-11770000D01*
X15270000Y-11730000D02*
X15230000Y-11770000D01*
X5350000Y-13546000D02*
G75*
G03*
X5250000Y-13546000I-50000J0D01*
G01*
X5250000Y-13546000D02*
G75*
G03*
X5350000Y-13546000I50000J0D01*
G01*
X5350000Y-13800000D02*
G75*
G03*
X5250000Y-13800000I-50000J0D01*
G01*
X5250000Y-13800000D02*
G75*
G03*
X5350000Y-13800000I50000J0D01*
G01*
X5604000Y-13546000D02*
G75*
G03*
X5504000Y-13546000I-50000J0D01*
G01*
X5504000Y-13546000D02*
G75*
G03*
X5604000Y-13546000I50000J0D01*
G01*
X5604000Y-13800000D02*
G75*
G03*
X5504000Y-13800000I-50000J0D01*
G01*
X5504000Y-13800000D02*
G75*
G03*
X5604000Y-13800000I50000J0D01*
G01*
X5858000Y-13546000D02*
G75*
G03*
X5758000Y-13546000I-50000J0D01*
G01*
X5758000Y-13546000D02*
G75*
G03*
X5858000Y-13546000I50000J0D01*
G01*
X5858000Y-13800000D02*
G75*
G03*
X5758000Y-13800000I-50000J0D01*
G01*
X5758000Y-13800000D02*
G75*
G03*
X5858000Y-13800000I50000J0D01*
G01*
X6050000Y-7000000D02*
G75*
G03*
X5950000Y-7000000I-50000J0D01*
G01*
X5950000Y-7000000D02*
G75*
G03*
X6050000Y-7000000I50000J0D01*
G01*
X6050000Y-7254000D02*
G75*
G03*
X5950000Y-7254000I-50000J0D01*
G01*
X5950000Y-7254000D02*
G75*
G03*
X6050000Y-7254000I50000J0D01*
G01*
X6112000Y-13546000D02*
G75*
G03*
X6012000Y-13546000I-50000J0D01*
G01*
X6012000Y-13546000D02*
G75*
G03*
X6112000Y-13546000I50000J0D01*
G01*
X6112000Y-13800000D02*
G75*
G03*
X6012000Y-13800000I-50000J0D01*
G01*
X6012000Y-13800000D02*
G75*
G03*
X6112000Y-13800000I50000J0D01*
G01*
X6304000Y-7000000D02*
G75*
G03*
X6204000Y-7000000I-50000J0D01*
G01*
X6204000Y-7000000D02*
G75*
G03*
X6304000Y-7000000I50000J0D01*
G01*
X6304000Y-7254000D02*
G75*
G03*
X6204000Y-7254000I-50000J0D01*
G01*
X6204000Y-7254000D02*
G75*
G03*
X6304000Y-7254000I50000J0D01*
G01*
X6366000Y-13546000D02*
G75*
G03*
X6266000Y-13546000I-50000J0D01*
G01*
X6266000Y-13546000D02*
G75*
G03*
X6366000Y-13546000I50000J0D01*
G01*
X6366000Y-13800000D02*
G75*
G03*
X6266000Y-13800000I-50000J0D01*
G01*
X6266000Y-13800000D02*
G75*
G03*
X6366000Y-13800000I50000J0D01*
G01*
X6558000Y-7000000D02*
G75*
G03*
X6458000Y-7000000I-50000J0D01*
G01*
X6458000Y-7000000D02*
G75*
G03*
X6558000Y-7000000I50000J0D01*
G01*
X6558000Y-7254000D02*
G75*
G03*
X6458000Y-7254000I-50000J0D01*
G01*
X6458000Y-7254000D02*
G75*
G03*
X6558000Y-7254000I50000J0D01*
G01*
X6620000Y-13546000D02*
G75*
G03*
X6520000Y-13546000I-50000J0D01*
G01*
X6520000Y-13546000D02*
G75*
G03*
X6620000Y-13546000I50000J0D01*
G01*
X6620000Y-13800000D02*
G75*
G03*
X6520000Y-13800000I-50000J0D01*
G01*
X6520000Y-13800000D02*
G75*
G03*
X6620000Y-13800000I50000J0D01*
G01*
X6812000Y-7000000D02*
G75*
G03*
X6712000Y-7000000I-50000J0D01*
G01*
X6712000Y-7000000D02*
G75*
G03*
X6812000Y-7000000I50000J0D01*
G01*
X6812000Y-7254000D02*
G75*
G03*
X6712000Y-7254000I-50000J0D01*
G01*
X6712000Y-7254000D02*
G75*
G03*
X6812000Y-7254000I50000J0D01*
G01*
X6874000Y-13546000D02*
G75*
G03*
X6774000Y-13546000I-50000J0D01*
G01*
X6774000Y-13546000D02*
G75*
G03*
X6874000Y-13546000I50000J0D01*
G01*
X6874000Y-13800000D02*
G75*
G03*
X6774000Y-13800000I-50000J0D01*
G01*
X6774000Y-13800000D02*
G75*
G03*
X6874000Y-13800000I50000J0D01*
G01*
X7066000Y-7000000D02*
G75*
G03*
X6966000Y-7000000I-50000J0D01*
G01*
X6966000Y-7000000D02*
G75*
G03*
X7066000Y-7000000I50000J0D01*
G01*
X7066000Y-7254000D02*
G75*
G03*
X6966000Y-7254000I-50000J0D01*
G01*
X6966000Y-7254000D02*
G75*
G03*
X7066000Y-7254000I50000J0D01*
G01*
X7128000Y-13546000D02*
G75*
G03*
X7028000Y-13546000I-50000J0D01*
G01*
X7028000Y-13546000D02*
G75*
G03*
X7128000Y-13546000I50000J0D01*
G01*
X7128000Y-13800000D02*
G75*
G03*
X7028000Y-13800000I-50000J0D01*
G01*
X7028000Y-13800000D02*
G75*
G03*
X7128000Y-13800000I50000J0D01*
G01*
X7320000Y-7000000D02*
G75*
G03*
X7220000Y-7000000I-50000J0D01*
G01*
X7220000Y-7000000D02*
G75*
G03*
X7320000Y-7000000I50000J0D01*
G01*
X7320000Y-7254000D02*
G75*
G03*
X7220000Y-7254000I-50000J0D01*
G01*
X7220000Y-7254000D02*
G75*
G03*
X7320000Y-7254000I50000J0D01*
G01*
X7574000Y-7000000D02*
G75*
G03*
X7474000Y-7000000I-50000J0D01*
G01*
X7474000Y-7000000D02*
G75*
G03*
X7574000Y-7000000I50000J0D01*
G01*
X7574000Y-7254000D02*
G75*
G03*
X7474000Y-7254000I-50000J0D01*
G01*
X7474000Y-7254000D02*
G75*
G03*
X7574000Y-7254000I50000J0D01*
G01*
X7828000Y-7000000D02*
G75*
G03*
X7728000Y-7000000I-50000J0D01*
G01*
X7728000Y-7000000D02*
G75*
G03*
X7828000Y-7000000I50000J0D01*
G01*
X7828000Y-7254000D02*
G75*
G03*
X7728000Y-7254000I-50000J0D01*
G01*
X7728000Y-7254000D02*
G75*
G03*
X7828000Y-7254000I50000J0D01*
G01*
X10272000Y-7000000D02*
G75*
G03*
X10172000Y-7000000I-50000J0D01*
G01*
X10172000Y-7000000D02*
G75*
G03*
X10272000Y-7000000I50000J0D01*
G01*
X10272000Y-7254000D02*
G75*
G03*
X10172000Y-7254000I-50000J0D01*
G01*
X10172000Y-7254000D02*
G75*
G03*
X10272000Y-7254000I50000J0D01*
G01*
X10526000Y-7000000D02*
G75*
G03*
X10426000Y-7000000I-50000J0D01*
G01*
X10426000Y-7000000D02*
G75*
G03*
X10526000Y-7000000I50000J0D01*
G01*
X10526000Y-7254000D02*
G75*
G03*
X10426000Y-7254000I-50000J0D01*
G01*
X10426000Y-7254000D02*
G75*
G03*
X10526000Y-7254000I50000J0D01*
G01*
X10780000Y-7000000D02*
G75*
G03*
X10680000Y-7000000I-50000J0D01*
G01*
X10680000Y-7000000D02*
G75*
G03*
X10780000Y-7000000I50000J0D01*
G01*
X10780000Y-7254000D02*
G75*
G03*
X10680000Y-7254000I-50000J0D01*
G01*
X10680000Y-7254000D02*
G75*
G03*
X10780000Y-7254000I50000J0D01*
G01*
X10972000Y-13546000D02*
G75*
G03*
X10872000Y-13546000I-50000J0D01*
G01*
X10872000Y-13546000D02*
G75*
G03*
X10972000Y-13546000I50000J0D01*
G01*
X10972000Y-13800000D02*
G75*
G03*
X10872000Y-13800000I-50000J0D01*
G01*
X10872000Y-13800000D02*
G75*
G03*
X10972000Y-13800000I50000J0D01*
G01*
X11034000Y-7000000D02*
G75*
G03*
X10934000Y-7000000I-50000J0D01*
G01*
X10934000Y-7000000D02*
G75*
G03*
X11034000Y-7000000I50000J0D01*
G01*
X11034000Y-7254000D02*
G75*
G03*
X10934000Y-7254000I-50000J0D01*
G01*
X10934000Y-7254000D02*
G75*
G03*
X11034000Y-7254000I50000J0D01*
G01*
X11226000Y-13546000D02*
G75*
G03*
X11126000Y-13546000I-50000J0D01*
G01*
X11126000Y-13546000D02*
G75*
G03*
X11226000Y-13546000I50000J0D01*
G01*
X11226000Y-13800000D02*
G75*
G03*
X11126000Y-13800000I-50000J0D01*
G01*
X11126000Y-13800000D02*
G75*
G03*
X11226000Y-13800000I50000J0D01*
G01*
X11288000Y-7000000D02*
G75*
G03*
X11188000Y-7000000I-50000J0D01*
G01*
X11188000Y-7000000D02*
G75*
G03*
X11288000Y-7000000I50000J0D01*
G01*
X11288000Y-7254000D02*
G75*
G03*
X11188000Y-7254000I-50000J0D01*
G01*
X11188000Y-7254000D02*
G75*
G03*
X11288000Y-7254000I50000J0D01*
G01*
X11480000Y-13546000D02*
G75*
G03*
X11380000Y-13546000I-50000J0D01*
G01*
X11380000Y-13546000D02*
G75*
G03*
X11480000Y-13546000I50000J0D01*
G01*
X11480000Y-13800000D02*
G75*
G03*
X11380000Y-13800000I-50000J0D01*
G01*
X11380000Y-13800000D02*
G75*
G03*
X11480000Y-13800000I50000J0D01*
G01*
X11542000Y-7000000D02*
G75*
G03*
X11442000Y-7000000I-50000J0D01*
G01*
X11442000Y-7000000D02*
G75*
G03*
X11542000Y-7000000I50000J0D01*
G01*
X11542000Y-7254000D02*
G75*
G03*
X11442000Y-7254000I-50000J0D01*
G01*
X11442000Y-7254000D02*
G75*
G03*
X11542000Y-7254000I50000J0D01*
G01*
X11734000Y-13546000D02*
G75*
G03*
X11634000Y-13546000I-50000J0D01*
G01*
X11634000Y-13546000D02*
G75*
G03*
X11734000Y-13546000I50000J0D01*
G01*
X11734000Y-13800000D02*
G75*
G03*
X11634000Y-13800000I-50000J0D01*
G01*
X11634000Y-13800000D02*
G75*
G03*
X11734000Y-13800000I50000J0D01*
G01*
X11796000Y-7000000D02*
G75*
G03*
X11696000Y-7000000I-50000J0D01*
G01*
X11696000Y-7000000D02*
G75*
G03*
X11796000Y-7000000I50000J0D01*
G01*
X11796000Y-7254000D02*
G75*
G03*
X11696000Y-7254000I-50000J0D01*
G01*
X11696000Y-7254000D02*
G75*
G03*
X11796000Y-7254000I50000J0D01*
G01*
X11988000Y-13546000D02*
G75*
G03*
X11888000Y-13546000I-50000J0D01*
G01*
X11888000Y-13546000D02*
G75*
G03*
X11988000Y-13546000I50000J0D01*
G01*
X11988000Y-13800000D02*
G75*
G03*
X11888000Y-13800000I-50000J0D01*
G01*
X11888000Y-13800000D02*
G75*
G03*
X11988000Y-13800000I50000J0D01*
G01*
X12050000Y-7000000D02*
G75*
G03*
X11950000Y-7000000I-50000J0D01*
G01*
X11950000Y-7000000D02*
G75*
G03*
X12050000Y-7000000I50000J0D01*
G01*
X12050000Y-7254000D02*
G75*
G03*
X11950000Y-7254000I-50000J0D01*
G01*
X11950000Y-7254000D02*
G75*
G03*
X12050000Y-7254000I50000J0D01*
G01*
X12242000Y-13546000D02*
G75*
G03*
X12142000Y-13546000I-50000J0D01*
G01*
X12142000Y-13546000D02*
G75*
G03*
X12242000Y-13546000I50000J0D01*
G01*
X12242000Y-13800000D02*
G75*
G03*
X12142000Y-13800000I-50000J0D01*
G01*
X12142000Y-13800000D02*
G75*
G03*
X12242000Y-13800000I50000J0D01*
G01*
X12496000Y-13546000D02*
G75*
G03*
X12396000Y-13546000I-50000J0D01*
G01*
X12396000Y-13546000D02*
G75*
G03*
X12496000Y-13546000I50000J0D01*
G01*
X12496000Y-13800000D02*
G75*
G03*
X12396000Y-13800000I-50000J0D01*
G01*
X12396000Y-13800000D02*
G75*
G03*
X12496000Y-13800000I50000J0D01*
G01*
X12750000Y-13546000D02*
G75*
G03*
X12650000Y-13546000I-50000J0D01*
G01*
X12650000Y-13546000D02*
G75*
G03*
X12750000Y-13546000I50000J0D01*
G01*
X12750000Y-13800000D02*
G75*
G03*
X12650000Y-13800000I-50000J0D01*
G01*
X12650000Y-13800000D02*
G75*
G03*
X12750000Y-13800000I50000J0D01*
G01*
D12*
X5400000Y-7880000D02*
X5400000Y-8120000D01*
X5280000Y-8000000D02*
X5520000Y-8000000D01*
X5400000Y-12930000D02*
X5400000Y-13170000D01*
X5280000Y-13050000D02*
X5520000Y-13050000D01*
X9000000Y-7880000D02*
X9000000Y-8120000D01*
X8880000Y-8000000D02*
X9120000Y-8000000D01*
X9000000Y-12930000D02*
X9000000Y-13170000D01*
X8880000Y-13050000D02*
X9120000Y-13050000D01*
X12600000Y-7880000D02*
X12600000Y-8120000D01*
X12480000Y-8000000D02*
X12720000Y-8000000D01*
X12600000Y-12930000D02*
X12600000Y-13170000D01*
X12480000Y-13050000D02*
X12720000Y-13050000D01*
D11*
X5255777Y-14916484D02*
X5255777Y-14716484D01*
X5255777Y-14716484D02*
X5303396Y-14716484D01*
X5303396Y-14716484D02*
X5331967Y-14726008D01*
X5331967Y-14726008D02*
X5351015Y-14745055D01*
X5351015Y-14745055D02*
X5360539Y-14764103D01*
X5360539Y-14764103D02*
X5370063Y-14802198D01*
X5370063Y-14802198D02*
X5370063Y-14830769D01*
X5370063Y-14830769D02*
X5360539Y-14868865D01*
X5360539Y-14868865D02*
X5351015Y-14887912D01*
X5351015Y-14887912D02*
X5331967Y-14906960D01*
X5331967Y-14906960D02*
X5303396Y-14916484D01*
X5303396Y-14916484D02*
X5255777Y-14916484D01*
X5455777Y-14916484D02*
X5455777Y-14783150D01*
X5455777Y-14821246D02*
X5465301Y-14802198D01*
X5465301Y-14802198D02*
X5474824Y-14792674D01*
X5474824Y-14792674D02*
X5493872Y-14783150D01*
X5493872Y-14783150D02*
X5512920Y-14783150D01*
X5579586Y-14916484D02*
X5579586Y-14783150D01*
X5579586Y-14716484D02*
X5570063Y-14726008D01*
X5570063Y-14726008D02*
X5579586Y-14735531D01*
X5579586Y-14735531D02*
X5589110Y-14726008D01*
X5589110Y-14726008D02*
X5579586Y-14716484D01*
X5579586Y-14716484D02*
X5579586Y-14735531D01*
X5703396Y-14916484D02*
X5684348Y-14906960D01*
X5684348Y-14906960D02*
X5674824Y-14887912D01*
X5674824Y-14887912D02*
X5674824Y-14716484D01*
X5808158Y-14916484D02*
X5789110Y-14906960D01*
X5789110Y-14906960D02*
X5779586Y-14887912D01*
X5779586Y-14887912D02*
X5779586Y-14716484D01*
X6036729Y-14916484D02*
X6036729Y-14716484D01*
X6036729Y-14716484D02*
X6103396Y-14859341D01*
X6103396Y-14859341D02*
X6170062Y-14716484D01*
X6170062Y-14716484D02*
X6170062Y-14916484D01*
X6351015Y-14916484D02*
X6351015Y-14811722D01*
X6351015Y-14811722D02*
X6341491Y-14792674D01*
X6341491Y-14792674D02*
X6322443Y-14783150D01*
X6322443Y-14783150D02*
X6284348Y-14783150D01*
X6284348Y-14783150D02*
X6265301Y-14792674D01*
X6351015Y-14906960D02*
X6331967Y-14916484D01*
X6331967Y-14916484D02*
X6284348Y-14916484D01*
X6284348Y-14916484D02*
X6265301Y-14906960D01*
X6265301Y-14906960D02*
X6255777Y-14887912D01*
X6255777Y-14887912D02*
X6255777Y-14868865D01*
X6255777Y-14868865D02*
X6265301Y-14849817D01*
X6265301Y-14849817D02*
X6284348Y-14840293D01*
X6284348Y-14840293D02*
X6331967Y-14840293D01*
X6331967Y-14840293D02*
X6351015Y-14830769D01*
X6446253Y-14783150D02*
X6446253Y-14983150D01*
X6446253Y-14792674D02*
X6465301Y-14783150D01*
X6465301Y-14783150D02*
X6503396Y-14783150D01*
X6503396Y-14783150D02*
X6522443Y-14792674D01*
X6522443Y-14792674D02*
X6531967Y-14802198D01*
X6531967Y-14802198D02*
X6541491Y-14821246D01*
X6541491Y-14821246D02*
X6541491Y-14878388D01*
X6541491Y-14878388D02*
X6531967Y-14897436D01*
X6531967Y-14897436D02*
X6522443Y-14906960D01*
X6522443Y-14906960D02*
X6503396Y-14916484D01*
X6503396Y-14916484D02*
X6465301Y-14916484D01*
X6465301Y-14916484D02*
X6446253Y-14906960D01*
X6627205Y-14897436D02*
X6636729Y-14906960D01*
X6636729Y-14906960D02*
X6627205Y-14916484D01*
X6627205Y-14916484D02*
X6617682Y-14906960D01*
X6617682Y-14906960D02*
X6627205Y-14897436D01*
X6627205Y-14897436D02*
X6627205Y-14916484D01*
X6627205Y-14792674D02*
X6636729Y-14802198D01*
X6636729Y-14802198D02*
X6627205Y-14811722D01*
X6627205Y-14811722D02*
X6617682Y-14802198D01*
X6617682Y-14802198D02*
X6627205Y-14792674D01*
X6627205Y-14792674D02*
X6627205Y-14811722D01*
D10*
X4955000Y-15225000D02*
X4995000Y-15265000D01*
X4995000Y-15225000D02*
X4955000Y-15265000D01*
D11*
X5293872Y-15136484D02*
X5312920Y-15136484D01*
X5312920Y-15136484D02*
X5331967Y-15146008D01*
X5331967Y-15146008D02*
X5341491Y-15155531D01*
X5341491Y-15155531D02*
X5351015Y-15174579D01*
X5351015Y-15174579D02*
X5360539Y-15212674D01*
X5360539Y-15212674D02*
X5360539Y-15260293D01*
X5360539Y-15260293D02*
X5351015Y-15298388D01*
X5351015Y-15298388D02*
X5341491Y-15317436D01*
X5341491Y-15317436D02*
X5331967Y-15326960D01*
X5331967Y-15326960D02*
X5312920Y-15336484D01*
X5312920Y-15336484D02*
X5293872Y-15336484D01*
X5293872Y-15336484D02*
X5274824Y-15326960D01*
X5274824Y-15326960D02*
X5265301Y-15317436D01*
X5265301Y-15317436D02*
X5255777Y-15298388D01*
X5255777Y-15298388D02*
X5246253Y-15260293D01*
X5246253Y-15260293D02*
X5246253Y-15212674D01*
X5246253Y-15212674D02*
X5255777Y-15174579D01*
X5255777Y-15174579D02*
X5265301Y-15155531D01*
X5265301Y-15155531D02*
X5274824Y-15146008D01*
X5274824Y-15146008D02*
X5293872Y-15136484D01*
X5446253Y-15317436D02*
X5455777Y-15326960D01*
X5455777Y-15326960D02*
X5446253Y-15336484D01*
X5446253Y-15336484D02*
X5436729Y-15326960D01*
X5436729Y-15326960D02*
X5446253Y-15317436D01*
X5446253Y-15317436D02*
X5446253Y-15336484D01*
X5627205Y-15203150D02*
X5627205Y-15336484D01*
X5579586Y-15126960D02*
X5531967Y-15269817D01*
X5531967Y-15269817D02*
X5655777Y-15269817D01*
X5770062Y-15136484D02*
X5789110Y-15136484D01*
X5789110Y-15136484D02*
X5808158Y-15146008D01*
X5808158Y-15146008D02*
X5817682Y-15155531D01*
X5817682Y-15155531D02*
X5827205Y-15174579D01*
X5827205Y-15174579D02*
X5836729Y-15212674D01*
X5836729Y-15212674D02*
X5836729Y-15260293D01*
X5836729Y-15260293D02*
X5827205Y-15298388D01*
X5827205Y-15298388D02*
X5817682Y-15317436D01*
X5817682Y-15317436D02*
X5808158Y-15326960D01*
X5808158Y-15326960D02*
X5789110Y-15336484D01*
X5789110Y-15336484D02*
X5770062Y-15336484D01*
X5770062Y-15336484D02*
X5751015Y-15326960D01*
X5751015Y-15326960D02*
X5741491Y-15317436D01*
X5741491Y-15317436D02*
X5731967Y-15298388D01*
X5731967Y-15298388D02*
X5722443Y-15260293D01*
X5722443Y-15260293D02*
X5722443Y-15212674D01*
X5722443Y-15212674D02*
X5731967Y-15174579D01*
X5731967Y-15174579D02*
X5741491Y-15155531D01*
X5741491Y-15155531D02*
X5751015Y-15146008D01*
X5751015Y-15146008D02*
X5770062Y-15136484D01*
X5960539Y-15136484D02*
X5979586Y-15136484D01*
X5979586Y-15136484D02*
X5998634Y-15146008D01*
X5998634Y-15146008D02*
X6008158Y-15155531D01*
X6008158Y-15155531D02*
X6017682Y-15174579D01*
X6017682Y-15174579D02*
X6027205Y-15212674D01*
X6027205Y-15212674D02*
X6027205Y-15260293D01*
X6027205Y-15260293D02*
X6017682Y-15298388D01*
X6017682Y-15298388D02*
X6008158Y-15317436D01*
X6008158Y-15317436D02*
X5998634Y-15326960D01*
X5998634Y-15326960D02*
X5979586Y-15336484D01*
X5979586Y-15336484D02*
X5960539Y-15336484D01*
X5960539Y-15336484D02*
X5941491Y-15326960D01*
X5941491Y-15326960D02*
X5931967Y-15317436D01*
X5931967Y-15317436D02*
X5922443Y-15298388D01*
X5922443Y-15298388D02*
X5912920Y-15260293D01*
X5912920Y-15260293D02*
X5912920Y-15212674D01*
X5912920Y-15212674D02*
X5922443Y-15174579D01*
X5922443Y-15174579D02*
X5931967Y-15155531D01*
X5931967Y-15155531D02*
X5941491Y-15146008D01*
X5941491Y-15146008D02*
X5960539Y-15136484D01*
X6112920Y-15336484D02*
X6112920Y-15203150D01*
X6112920Y-15222198D02*
X6122443Y-15212674D01*
X6122443Y-15212674D02*
X6141491Y-15203150D01*
X6141491Y-15203150D02*
X6170063Y-15203150D01*
X6170063Y-15203150D02*
X6189110Y-15212674D01*
X6189110Y-15212674D02*
X6198634Y-15231722D01*
X6198634Y-15231722D02*
X6198634Y-15336484D01*
X6198634Y-15231722D02*
X6208158Y-15212674D01*
X6208158Y-15212674D02*
X6227205Y-15203150D01*
X6227205Y-15203150D02*
X6255777Y-15203150D01*
X6255777Y-15203150D02*
X6274824Y-15212674D01*
X6274824Y-15212674D02*
X6284348Y-15231722D01*
X6284348Y-15231722D02*
X6284348Y-15336484D01*
X6379586Y-15336484D02*
X6379586Y-15203150D01*
X6379586Y-15222198D02*
X6389110Y-15212674D01*
X6389110Y-15212674D02*
X6408158Y-15203150D01*
X6408158Y-15203150D02*
X6436729Y-15203150D01*
X6436729Y-15203150D02*
X6455777Y-15212674D01*
X6455777Y-15212674D02*
X6465301Y-15231722D01*
X6465301Y-15231722D02*
X6465301Y-15336484D01*
X6465301Y-15231722D02*
X6474824Y-15212674D01*
X6474824Y-15212674D02*
X6493872Y-15203150D01*
X6493872Y-15203150D02*
X6522443Y-15203150D01*
X6522443Y-15203150D02*
X6541491Y-15212674D01*
X6541491Y-15212674D02*
X6551015Y-15231722D01*
X6551015Y-15231722D02*
X6551015Y-15336484D01*
X6941491Y-15126960D02*
X6770063Y-15384103D01*
X7198634Y-15136484D02*
X7217682Y-15136484D01*
X7217682Y-15136484D02*
X7236729Y-15146008D01*
X7236729Y-15146008D02*
X7246253Y-15155531D01*
X7246253Y-15155531D02*
X7255777Y-15174579D01*
X7255777Y-15174579D02*
X7265301Y-15212674D01*
X7265301Y-15212674D02*
X7265301Y-15260293D01*
X7265301Y-15260293D02*
X7255777Y-15298388D01*
X7255777Y-15298388D02*
X7246253Y-15317436D01*
X7246253Y-15317436D02*
X7236729Y-15326960D01*
X7236729Y-15326960D02*
X7217682Y-15336484D01*
X7217682Y-15336484D02*
X7198634Y-15336484D01*
X7198634Y-15336484D02*
X7179586Y-15326960D01*
X7179586Y-15326960D02*
X7170063Y-15317436D01*
X7170063Y-15317436D02*
X7160539Y-15298388D01*
X7160539Y-15298388D02*
X7151015Y-15260293D01*
X7151015Y-15260293D02*
X7151015Y-15212674D01*
X7151015Y-15212674D02*
X7160539Y-15174579D01*
X7160539Y-15174579D02*
X7170063Y-15155531D01*
X7170063Y-15155531D02*
X7179586Y-15146008D01*
X7179586Y-15146008D02*
X7198634Y-15136484D01*
X7351015Y-15317436D02*
X7360539Y-15326960D01*
X7360539Y-15326960D02*
X7351015Y-15336484D01*
X7351015Y-15336484D02*
X7341491Y-15326960D01*
X7341491Y-15326960D02*
X7351015Y-15317436D01*
X7351015Y-15317436D02*
X7351015Y-15336484D01*
X7484348Y-15136484D02*
X7503396Y-15136484D01*
X7503396Y-15136484D02*
X7522444Y-15146008D01*
X7522444Y-15146008D02*
X7531967Y-15155531D01*
X7531967Y-15155531D02*
X7541491Y-15174579D01*
X7541491Y-15174579D02*
X7551015Y-15212674D01*
X7551015Y-15212674D02*
X7551015Y-15260293D01*
X7551015Y-15260293D02*
X7541491Y-15298388D01*
X7541491Y-15298388D02*
X7531967Y-15317436D01*
X7531967Y-15317436D02*
X7522444Y-15326960D01*
X7522444Y-15326960D02*
X7503396Y-15336484D01*
X7503396Y-15336484D02*
X7484348Y-15336484D01*
X7484348Y-15336484D02*
X7465301Y-15326960D01*
X7465301Y-15326960D02*
X7455777Y-15317436D01*
X7455777Y-15317436D02*
X7446253Y-15298388D01*
X7446253Y-15298388D02*
X7436729Y-15260293D01*
X7436729Y-15260293D02*
X7436729Y-15212674D01*
X7436729Y-15212674D02*
X7446253Y-15174579D01*
X7446253Y-15174579D02*
X7455777Y-15155531D01*
X7455777Y-15155531D02*
X7465301Y-15146008D01*
X7465301Y-15146008D02*
X7484348Y-15136484D01*
X7741491Y-15336484D02*
X7627206Y-15336484D01*
X7684348Y-15336484D02*
X7684348Y-15136484D01*
X7684348Y-15136484D02*
X7665301Y-15165055D01*
X7665301Y-15165055D02*
X7646253Y-15184103D01*
X7646253Y-15184103D02*
X7627206Y-15193627D01*
X7922444Y-15136484D02*
X7827206Y-15136484D01*
X7827206Y-15136484D02*
X7817682Y-15231722D01*
X7817682Y-15231722D02*
X7827206Y-15222198D01*
X7827206Y-15222198D02*
X7846253Y-15212674D01*
X7846253Y-15212674D02*
X7893872Y-15212674D01*
X7893872Y-15212674D02*
X7912920Y-15222198D01*
X7912920Y-15222198D02*
X7922444Y-15231722D01*
X7922444Y-15231722D02*
X7931967Y-15250769D01*
X7931967Y-15250769D02*
X7931967Y-15298388D01*
X7931967Y-15298388D02*
X7922444Y-15317436D01*
X7922444Y-15317436D02*
X7912920Y-15326960D01*
X7912920Y-15326960D02*
X7893872Y-15336484D01*
X7893872Y-15336484D02*
X7846253Y-15336484D01*
X7846253Y-15336484D02*
X7827206Y-15326960D01*
X7827206Y-15326960D02*
X7817682Y-15317436D01*
X7998634Y-15136484D02*
X8131967Y-15136484D01*
X8131967Y-15136484D02*
X8046253Y-15336484D01*
X8198634Y-15136484D02*
X8198634Y-15174579D01*
X8274825Y-15136484D02*
X8274825Y-15174579D01*
X8570063Y-15412674D02*
X8560539Y-15403150D01*
X8560539Y-15403150D02*
X8541491Y-15374579D01*
X8541491Y-15374579D02*
X8531968Y-15355531D01*
X8531968Y-15355531D02*
X8522444Y-15326960D01*
X8522444Y-15326960D02*
X8512920Y-15279341D01*
X8512920Y-15279341D02*
X8512920Y-15241246D01*
X8512920Y-15241246D02*
X8522444Y-15193627D01*
X8522444Y-15193627D02*
X8531968Y-15165055D01*
X8531968Y-15165055D02*
X8541491Y-15146008D01*
X8541491Y-15146008D02*
X8560539Y-15117436D01*
X8560539Y-15117436D02*
X8570063Y-15107912D01*
X8636730Y-15155531D02*
X8646253Y-15146008D01*
X8646253Y-15146008D02*
X8665301Y-15136484D01*
X8665301Y-15136484D02*
X8712920Y-15136484D01*
X8712920Y-15136484D02*
X8731968Y-15146008D01*
X8731968Y-15146008D02*
X8741491Y-15155531D01*
X8741491Y-15155531D02*
X8751015Y-15174579D01*
X8751015Y-15174579D02*
X8751015Y-15193627D01*
X8751015Y-15193627D02*
X8741491Y-15222198D01*
X8741491Y-15222198D02*
X8627206Y-15336484D01*
X8627206Y-15336484D02*
X8751015Y-15336484D01*
X8827206Y-15155531D02*
X8836730Y-15146008D01*
X8836730Y-15146008D02*
X8855777Y-15136484D01*
X8855777Y-15136484D02*
X8903396Y-15136484D01*
X8903396Y-15136484D02*
X8922444Y-15146008D01*
X8922444Y-15146008D02*
X8931968Y-15155531D01*
X8931968Y-15155531D02*
X8941491Y-15174579D01*
X8941491Y-15174579D02*
X8941491Y-15193627D01*
X8941491Y-15193627D02*
X8931968Y-15222198D01*
X8931968Y-15222198D02*
X8817682Y-15336484D01*
X8817682Y-15336484D02*
X8941491Y-15336484D01*
X9008158Y-15136484D02*
X9131968Y-15136484D01*
X9131968Y-15136484D02*
X9065301Y-15212674D01*
X9065301Y-15212674D02*
X9093872Y-15212674D01*
X9093872Y-15212674D02*
X9112920Y-15222198D01*
X9112920Y-15222198D02*
X9122444Y-15231722D01*
X9122444Y-15231722D02*
X9131968Y-15250769D01*
X9131968Y-15250769D02*
X9131968Y-15298388D01*
X9131968Y-15298388D02*
X9122444Y-15317436D01*
X9122444Y-15317436D02*
X9112920Y-15326960D01*
X9112920Y-15326960D02*
X9093872Y-15336484D01*
X9093872Y-15336484D02*
X9036730Y-15336484D01*
X9036730Y-15336484D02*
X9017682Y-15326960D01*
X9017682Y-15326960D02*
X9008158Y-15317436D01*
X9370063Y-15336484D02*
X9370063Y-15136484D01*
X9455777Y-15336484D02*
X9455777Y-15231722D01*
X9455777Y-15231722D02*
X9446253Y-15212674D01*
X9446253Y-15212674D02*
X9427206Y-15203150D01*
X9427206Y-15203150D02*
X9398634Y-15203150D01*
X9398634Y-15203150D02*
X9379587Y-15212674D01*
X9379587Y-15212674D02*
X9370063Y-15222198D01*
X9579587Y-15336484D02*
X9560539Y-15326960D01*
X9560539Y-15326960D02*
X9551015Y-15317436D01*
X9551015Y-15317436D02*
X9541492Y-15298388D01*
X9541492Y-15298388D02*
X9541492Y-15241246D01*
X9541492Y-15241246D02*
X9551015Y-15222198D01*
X9551015Y-15222198D02*
X9560539Y-15212674D01*
X9560539Y-15212674D02*
X9579587Y-15203150D01*
X9579587Y-15203150D02*
X9608158Y-15203150D01*
X9608158Y-15203150D02*
X9627206Y-15212674D01*
X9627206Y-15212674D02*
X9636730Y-15222198D01*
X9636730Y-15222198D02*
X9646253Y-15241246D01*
X9646253Y-15241246D02*
X9646253Y-15298388D01*
X9646253Y-15298388D02*
X9636730Y-15317436D01*
X9636730Y-15317436D02*
X9627206Y-15326960D01*
X9627206Y-15326960D02*
X9608158Y-15336484D01*
X9608158Y-15336484D02*
X9579587Y-15336484D01*
X9760539Y-15336484D02*
X9741492Y-15326960D01*
X9741492Y-15326960D02*
X9731968Y-15307912D01*
X9731968Y-15307912D02*
X9731968Y-15136484D01*
X9912920Y-15326960D02*
X9893873Y-15336484D01*
X9893873Y-15336484D02*
X9855777Y-15336484D01*
X9855777Y-15336484D02*
X9836730Y-15326960D01*
X9836730Y-15326960D02*
X9827206Y-15307912D01*
X9827206Y-15307912D02*
X9827206Y-15231722D01*
X9827206Y-15231722D02*
X9836730Y-15212674D01*
X9836730Y-15212674D02*
X9855777Y-15203150D01*
X9855777Y-15203150D02*
X9893873Y-15203150D01*
X9893873Y-15203150D02*
X9912920Y-15212674D01*
X9912920Y-15212674D02*
X9922444Y-15231722D01*
X9922444Y-15231722D02*
X9922444Y-15250769D01*
X9922444Y-15250769D02*
X9827206Y-15269817D01*
X9998634Y-15326960D02*
X10017682Y-15336484D01*
X10017682Y-15336484D02*
X10055777Y-15336484D01*
X10055777Y-15336484D02*
X10074825Y-15326960D01*
X10074825Y-15326960D02*
X10084349Y-15307912D01*
X10084349Y-15307912D02*
X10084349Y-15298388D01*
X10084349Y-15298388D02*
X10074825Y-15279341D01*
X10074825Y-15279341D02*
X10055777Y-15269817D01*
X10055777Y-15269817D02*
X10027206Y-15269817D01*
X10027206Y-15269817D02*
X10008158Y-15260293D01*
X10008158Y-15260293D02*
X9998634Y-15241246D01*
X9998634Y-15241246D02*
X9998634Y-15231722D01*
X9998634Y-15231722D02*
X10008158Y-15212674D01*
X10008158Y-15212674D02*
X10027206Y-15203150D01*
X10027206Y-15203150D02*
X10055777Y-15203150D01*
X10055777Y-15203150D02*
X10074825Y-15212674D01*
X10151015Y-15412674D02*
X10160539Y-15403150D01*
X10160539Y-15403150D02*
X10179587Y-15374579D01*
X10179587Y-15374579D02*
X10189111Y-15355531D01*
X10189111Y-15355531D02*
X10198634Y-15326960D01*
X10198634Y-15326960D02*
X10208158Y-15279341D01*
X10208158Y-15279341D02*
X10208158Y-15241246D01*
X10208158Y-15241246D02*
X10198634Y-15193627D01*
X10198634Y-15193627D02*
X10189111Y-15165055D01*
X10189111Y-15165055D02*
X10179587Y-15146008D01*
X10179587Y-15146008D02*
X10160539Y-15117436D01*
X10160539Y-15117436D02*
X10151015Y-15107912D01*
D10*
X4995000Y-15509000D02*
G75*
G03*
X4895000Y-15509000I-50000J0D01*
G01*
X4895000Y-15509000D02*
G75*
G03*
X4995000Y-15509000I50000J0D01*
G01*
D11*
X5360539Y-15600484D02*
X5246253Y-15600484D01*
X5303396Y-15600484D02*
X5303396Y-15400484D01*
X5303396Y-15400484D02*
X5284348Y-15429055D01*
X5284348Y-15429055D02*
X5265301Y-15448103D01*
X5265301Y-15448103D02*
X5246253Y-15457627D01*
X5446253Y-15581436D02*
X5455777Y-15590960D01*
X5455777Y-15590960D02*
X5446253Y-15600484D01*
X5446253Y-15600484D02*
X5436729Y-15590960D01*
X5436729Y-15590960D02*
X5446253Y-15581436D01*
X5446253Y-15581436D02*
X5446253Y-15600484D01*
X5579586Y-15400484D02*
X5598634Y-15400484D01*
X5598634Y-15400484D02*
X5617682Y-15410008D01*
X5617682Y-15410008D02*
X5627205Y-15419531D01*
X5627205Y-15419531D02*
X5636729Y-15438579D01*
X5636729Y-15438579D02*
X5646253Y-15476674D01*
X5646253Y-15476674D02*
X5646253Y-15524293D01*
X5646253Y-15524293D02*
X5636729Y-15562388D01*
X5636729Y-15562388D02*
X5627205Y-15581436D01*
X5627205Y-15581436D02*
X5617682Y-15590960D01*
X5617682Y-15590960D02*
X5598634Y-15600484D01*
X5598634Y-15600484D02*
X5579586Y-15600484D01*
X5579586Y-15600484D02*
X5560539Y-15590960D01*
X5560539Y-15590960D02*
X5551015Y-15581436D01*
X5551015Y-15581436D02*
X5541491Y-15562388D01*
X5541491Y-15562388D02*
X5531967Y-15524293D01*
X5531967Y-15524293D02*
X5531967Y-15476674D01*
X5531967Y-15476674D02*
X5541491Y-15438579D01*
X5541491Y-15438579D02*
X5551015Y-15419531D01*
X5551015Y-15419531D02*
X5560539Y-15410008D01*
X5560539Y-15410008D02*
X5579586Y-15400484D01*
X5770062Y-15400484D02*
X5789110Y-15400484D01*
X5789110Y-15400484D02*
X5808158Y-15410008D01*
X5808158Y-15410008D02*
X5817682Y-15419531D01*
X5817682Y-15419531D02*
X5827205Y-15438579D01*
X5827205Y-15438579D02*
X5836729Y-15476674D01*
X5836729Y-15476674D02*
X5836729Y-15524293D01*
X5836729Y-15524293D02*
X5827205Y-15562388D01*
X5827205Y-15562388D02*
X5817682Y-15581436D01*
X5817682Y-15581436D02*
X5808158Y-15590960D01*
X5808158Y-15590960D02*
X5789110Y-15600484D01*
X5789110Y-15600484D02*
X5770062Y-15600484D01*
X5770062Y-15600484D02*
X5751015Y-15590960D01*
X5751015Y-15590960D02*
X5741491Y-15581436D01*
X5741491Y-15581436D02*
X5731967Y-15562388D01*
X5731967Y-15562388D02*
X5722443Y-15524293D01*
X5722443Y-15524293D02*
X5722443Y-15476674D01*
X5722443Y-15476674D02*
X5731967Y-15438579D01*
X5731967Y-15438579D02*
X5741491Y-15419531D01*
X5741491Y-15419531D02*
X5751015Y-15410008D01*
X5751015Y-15410008D02*
X5770062Y-15400484D01*
X5960539Y-15400484D02*
X5979586Y-15400484D01*
X5979586Y-15400484D02*
X5998634Y-15410008D01*
X5998634Y-15410008D02*
X6008158Y-15419531D01*
X6008158Y-15419531D02*
X6017682Y-15438579D01*
X6017682Y-15438579D02*
X6027205Y-15476674D01*
X6027205Y-15476674D02*
X6027205Y-15524293D01*
X6027205Y-15524293D02*
X6017682Y-15562388D01*
X6017682Y-15562388D02*
X6008158Y-15581436D01*
X6008158Y-15581436D02*
X5998634Y-15590960D01*
X5998634Y-15590960D02*
X5979586Y-15600484D01*
X5979586Y-15600484D02*
X5960539Y-15600484D01*
X5960539Y-15600484D02*
X5941491Y-15590960D01*
X5941491Y-15590960D02*
X5931967Y-15581436D01*
X5931967Y-15581436D02*
X5922443Y-15562388D01*
X5922443Y-15562388D02*
X5912920Y-15524293D01*
X5912920Y-15524293D02*
X5912920Y-15476674D01*
X5912920Y-15476674D02*
X5922443Y-15438579D01*
X5922443Y-15438579D02*
X5931967Y-15419531D01*
X5931967Y-15419531D02*
X5941491Y-15410008D01*
X5941491Y-15410008D02*
X5960539Y-15400484D01*
X6112920Y-15600484D02*
X6112920Y-15467150D01*
X6112920Y-15486198D02*
X6122443Y-15476674D01*
X6122443Y-15476674D02*
X6141491Y-15467150D01*
X6141491Y-15467150D02*
X6170063Y-15467150D01*
X6170063Y-15467150D02*
X6189110Y-15476674D01*
X6189110Y-15476674D02*
X6198634Y-15495722D01*
X6198634Y-15495722D02*
X6198634Y-15600484D01*
X6198634Y-15495722D02*
X6208158Y-15476674D01*
X6208158Y-15476674D02*
X6227205Y-15467150D01*
X6227205Y-15467150D02*
X6255777Y-15467150D01*
X6255777Y-15467150D02*
X6274824Y-15476674D01*
X6274824Y-15476674D02*
X6284348Y-15495722D01*
X6284348Y-15495722D02*
X6284348Y-15600484D01*
X6379586Y-15600484D02*
X6379586Y-15467150D01*
X6379586Y-15486198D02*
X6389110Y-15476674D01*
X6389110Y-15476674D02*
X6408158Y-15467150D01*
X6408158Y-15467150D02*
X6436729Y-15467150D01*
X6436729Y-15467150D02*
X6455777Y-15476674D01*
X6455777Y-15476674D02*
X6465301Y-15495722D01*
X6465301Y-15495722D02*
X6465301Y-15600484D01*
X6465301Y-15495722D02*
X6474824Y-15476674D01*
X6474824Y-15476674D02*
X6493872Y-15467150D01*
X6493872Y-15467150D02*
X6522443Y-15467150D01*
X6522443Y-15467150D02*
X6541491Y-15476674D01*
X6541491Y-15476674D02*
X6551015Y-15495722D01*
X6551015Y-15495722D02*
X6551015Y-15600484D01*
X6941491Y-15390960D02*
X6770063Y-15648103D01*
X7198634Y-15400484D02*
X7217682Y-15400484D01*
X7217682Y-15400484D02*
X7236729Y-15410008D01*
X7236729Y-15410008D02*
X7246253Y-15419531D01*
X7246253Y-15419531D02*
X7255777Y-15438579D01*
X7255777Y-15438579D02*
X7265301Y-15476674D01*
X7265301Y-15476674D02*
X7265301Y-15524293D01*
X7265301Y-15524293D02*
X7255777Y-15562388D01*
X7255777Y-15562388D02*
X7246253Y-15581436D01*
X7246253Y-15581436D02*
X7236729Y-15590960D01*
X7236729Y-15590960D02*
X7217682Y-15600484D01*
X7217682Y-15600484D02*
X7198634Y-15600484D01*
X7198634Y-15600484D02*
X7179586Y-15590960D01*
X7179586Y-15590960D02*
X7170063Y-15581436D01*
X7170063Y-15581436D02*
X7160539Y-15562388D01*
X7160539Y-15562388D02*
X7151015Y-15524293D01*
X7151015Y-15524293D02*
X7151015Y-15476674D01*
X7151015Y-15476674D02*
X7160539Y-15438579D01*
X7160539Y-15438579D02*
X7170063Y-15419531D01*
X7170063Y-15419531D02*
X7179586Y-15410008D01*
X7179586Y-15410008D02*
X7198634Y-15400484D01*
X7351015Y-15581436D02*
X7360539Y-15590960D01*
X7360539Y-15590960D02*
X7351015Y-15600484D01*
X7351015Y-15600484D02*
X7341491Y-15590960D01*
X7341491Y-15590960D02*
X7351015Y-15581436D01*
X7351015Y-15581436D02*
X7351015Y-15600484D01*
X7484348Y-15400484D02*
X7503396Y-15400484D01*
X7503396Y-15400484D02*
X7522444Y-15410008D01*
X7522444Y-15410008D02*
X7531967Y-15419531D01*
X7531967Y-15419531D02*
X7541491Y-15438579D01*
X7541491Y-15438579D02*
X7551015Y-15476674D01*
X7551015Y-15476674D02*
X7551015Y-15524293D01*
X7551015Y-15524293D02*
X7541491Y-15562388D01*
X7541491Y-15562388D02*
X7531967Y-15581436D01*
X7531967Y-15581436D02*
X7522444Y-15590960D01*
X7522444Y-15590960D02*
X7503396Y-15600484D01*
X7503396Y-15600484D02*
X7484348Y-15600484D01*
X7484348Y-15600484D02*
X7465301Y-15590960D01*
X7465301Y-15590960D02*
X7455777Y-15581436D01*
X7455777Y-15581436D02*
X7446253Y-15562388D01*
X7446253Y-15562388D02*
X7436729Y-15524293D01*
X7436729Y-15524293D02*
X7436729Y-15476674D01*
X7436729Y-15476674D02*
X7446253Y-15438579D01*
X7446253Y-15438579D02*
X7455777Y-15419531D01*
X7455777Y-15419531D02*
X7465301Y-15410008D01*
X7465301Y-15410008D02*
X7484348Y-15400484D01*
X7617682Y-15400484D02*
X7741491Y-15400484D01*
X7741491Y-15400484D02*
X7674825Y-15476674D01*
X7674825Y-15476674D02*
X7703396Y-15476674D01*
X7703396Y-15476674D02*
X7722444Y-15486198D01*
X7722444Y-15486198D02*
X7731967Y-15495722D01*
X7731967Y-15495722D02*
X7741491Y-15514769D01*
X7741491Y-15514769D02*
X7741491Y-15562388D01*
X7741491Y-15562388D02*
X7731967Y-15581436D01*
X7731967Y-15581436D02*
X7722444Y-15590960D01*
X7722444Y-15590960D02*
X7703396Y-15600484D01*
X7703396Y-15600484D02*
X7646253Y-15600484D01*
X7646253Y-15600484D02*
X7627206Y-15590960D01*
X7627206Y-15590960D02*
X7617682Y-15581436D01*
X7836729Y-15600484D02*
X7874825Y-15600484D01*
X7874825Y-15600484D02*
X7893872Y-15590960D01*
X7893872Y-15590960D02*
X7903396Y-15581436D01*
X7903396Y-15581436D02*
X7922444Y-15552865D01*
X7922444Y-15552865D02*
X7931967Y-15514769D01*
X7931967Y-15514769D02*
X7931967Y-15438579D01*
X7931967Y-15438579D02*
X7922444Y-15419531D01*
X7922444Y-15419531D02*
X7912920Y-15410008D01*
X7912920Y-15410008D02*
X7893872Y-15400484D01*
X7893872Y-15400484D02*
X7855777Y-15400484D01*
X7855777Y-15400484D02*
X7836729Y-15410008D01*
X7836729Y-15410008D02*
X7827206Y-15419531D01*
X7827206Y-15419531D02*
X7817682Y-15438579D01*
X7817682Y-15438579D02*
X7817682Y-15486198D01*
X7817682Y-15486198D02*
X7827206Y-15505246D01*
X7827206Y-15505246D02*
X7836729Y-15514769D01*
X7836729Y-15514769D02*
X7855777Y-15524293D01*
X7855777Y-15524293D02*
X7893872Y-15524293D01*
X7893872Y-15524293D02*
X7912920Y-15514769D01*
X7912920Y-15514769D02*
X7922444Y-15505246D01*
X7922444Y-15505246D02*
X7931967Y-15486198D01*
X8103396Y-15467150D02*
X8103396Y-15600484D01*
X8055777Y-15390960D02*
X8008158Y-15533817D01*
X8008158Y-15533817D02*
X8131967Y-15533817D01*
X8198634Y-15400484D02*
X8198634Y-15438579D01*
X8274825Y-15400484D02*
X8274825Y-15438579D01*
X8570063Y-15676674D02*
X8560539Y-15667150D01*
X8560539Y-15667150D02*
X8541491Y-15638579D01*
X8541491Y-15638579D02*
X8531968Y-15619531D01*
X8531968Y-15619531D02*
X8522444Y-15590960D01*
X8522444Y-15590960D02*
X8512920Y-15543341D01*
X8512920Y-15543341D02*
X8512920Y-15505246D01*
X8512920Y-15505246D02*
X8522444Y-15457627D01*
X8522444Y-15457627D02*
X8531968Y-15429055D01*
X8531968Y-15429055D02*
X8541491Y-15410008D01*
X8541491Y-15410008D02*
X8560539Y-15381436D01*
X8560539Y-15381436D02*
X8570063Y-15371912D01*
X8731968Y-15400484D02*
X8693872Y-15400484D01*
X8693872Y-15400484D02*
X8674825Y-15410008D01*
X8674825Y-15410008D02*
X8665301Y-15419531D01*
X8665301Y-15419531D02*
X8646253Y-15448103D01*
X8646253Y-15448103D02*
X8636730Y-15486198D01*
X8636730Y-15486198D02*
X8636730Y-15562388D01*
X8636730Y-15562388D02*
X8646253Y-15581436D01*
X8646253Y-15581436D02*
X8655777Y-15590960D01*
X8655777Y-15590960D02*
X8674825Y-15600484D01*
X8674825Y-15600484D02*
X8712920Y-15600484D01*
X8712920Y-15600484D02*
X8731968Y-15590960D01*
X8731968Y-15590960D02*
X8741491Y-15581436D01*
X8741491Y-15581436D02*
X8751015Y-15562388D01*
X8751015Y-15562388D02*
X8751015Y-15514769D01*
X8751015Y-15514769D02*
X8741491Y-15495722D01*
X8741491Y-15495722D02*
X8731968Y-15486198D01*
X8731968Y-15486198D02*
X8712920Y-15476674D01*
X8712920Y-15476674D02*
X8674825Y-15476674D01*
X8674825Y-15476674D02*
X8655777Y-15486198D01*
X8655777Y-15486198D02*
X8646253Y-15495722D01*
X8646253Y-15495722D02*
X8636730Y-15514769D01*
X8922444Y-15467150D02*
X8922444Y-15600484D01*
X8874825Y-15390960D02*
X8827206Y-15533817D01*
X8827206Y-15533817D02*
X8951015Y-15533817D01*
X9179587Y-15600484D02*
X9179587Y-15400484D01*
X9265301Y-15600484D02*
X9265301Y-15495722D01*
X9265301Y-15495722D02*
X9255777Y-15476674D01*
X9255777Y-15476674D02*
X9236730Y-15467150D01*
X9236730Y-15467150D02*
X9208158Y-15467150D01*
X9208158Y-15467150D02*
X9189111Y-15476674D01*
X9189111Y-15476674D02*
X9179587Y-15486198D01*
X9389111Y-15600484D02*
X9370063Y-15590960D01*
X9370063Y-15590960D02*
X9360539Y-15581436D01*
X9360539Y-15581436D02*
X9351015Y-15562388D01*
X9351015Y-15562388D02*
X9351015Y-15505246D01*
X9351015Y-15505246D02*
X9360539Y-15486198D01*
X9360539Y-15486198D02*
X9370063Y-15476674D01*
X9370063Y-15476674D02*
X9389111Y-15467150D01*
X9389111Y-15467150D02*
X9417682Y-15467150D01*
X9417682Y-15467150D02*
X9436730Y-15476674D01*
X9436730Y-15476674D02*
X9446253Y-15486198D01*
X9446253Y-15486198D02*
X9455777Y-15505246D01*
X9455777Y-15505246D02*
X9455777Y-15562388D01*
X9455777Y-15562388D02*
X9446253Y-15581436D01*
X9446253Y-15581436D02*
X9436730Y-15590960D01*
X9436730Y-15590960D02*
X9417682Y-15600484D01*
X9417682Y-15600484D02*
X9389111Y-15600484D01*
X9570063Y-15600484D02*
X9551015Y-15590960D01*
X9551015Y-15590960D02*
X9541492Y-15571912D01*
X9541492Y-15571912D02*
X9541492Y-15400484D01*
X9722444Y-15590960D02*
X9703396Y-15600484D01*
X9703396Y-15600484D02*
X9665301Y-15600484D01*
X9665301Y-15600484D02*
X9646253Y-15590960D01*
X9646253Y-15590960D02*
X9636730Y-15571912D01*
X9636730Y-15571912D02*
X9636730Y-15495722D01*
X9636730Y-15495722D02*
X9646253Y-15476674D01*
X9646253Y-15476674D02*
X9665301Y-15467150D01*
X9665301Y-15467150D02*
X9703396Y-15467150D01*
X9703396Y-15467150D02*
X9722444Y-15476674D01*
X9722444Y-15476674D02*
X9731968Y-15495722D01*
X9731968Y-15495722D02*
X9731968Y-15514769D01*
X9731968Y-15514769D02*
X9636730Y-15533817D01*
X9808158Y-15590960D02*
X9827206Y-15600484D01*
X9827206Y-15600484D02*
X9865301Y-15600484D01*
X9865301Y-15600484D02*
X9884349Y-15590960D01*
X9884349Y-15590960D02*
X9893873Y-15571912D01*
X9893873Y-15571912D02*
X9893873Y-15562388D01*
X9893873Y-15562388D02*
X9884349Y-15543341D01*
X9884349Y-15543341D02*
X9865301Y-15533817D01*
X9865301Y-15533817D02*
X9836730Y-15533817D01*
X9836730Y-15533817D02*
X9817682Y-15524293D01*
X9817682Y-15524293D02*
X9808158Y-15505246D01*
X9808158Y-15505246D02*
X9808158Y-15495722D01*
X9808158Y-15495722D02*
X9817682Y-15476674D01*
X9817682Y-15476674D02*
X9836730Y-15467150D01*
X9836730Y-15467150D02*
X9865301Y-15467150D01*
X9865301Y-15467150D02*
X9884349Y-15476674D01*
X9960539Y-15676674D02*
X9970063Y-15667150D01*
X9970063Y-15667150D02*
X9989111Y-15638579D01*
X9989111Y-15638579D02*
X9998634Y-15619531D01*
X9998634Y-15619531D02*
X10008158Y-15590960D01*
X10008158Y-15590960D02*
X10017682Y-15543341D01*
X10017682Y-15543341D02*
X10017682Y-15505246D01*
X10017682Y-15505246D02*
X10008158Y-15457627D01*
X10008158Y-15457627D02*
X9998634Y-15429055D01*
X9998634Y-15429055D02*
X9989111Y-15410008D01*
X9989111Y-15410008D02*
X9970063Y-15381436D01*
X9970063Y-15381436D02*
X9960539Y-15371912D01*
X4895000Y-15673000D02*
X4895000Y-15873000D01*
X4795000Y-15773000D02*
X4995000Y-15773000D01*
X5246253Y-15683531D02*
X5255777Y-15674008D01*
X5255777Y-15674008D02*
X5274824Y-15664484D01*
X5274824Y-15664484D02*
X5322444Y-15664484D01*
X5322444Y-15664484D02*
X5341491Y-15674008D01*
X5341491Y-15674008D02*
X5351015Y-15683531D01*
X5351015Y-15683531D02*
X5360539Y-15702579D01*
X5360539Y-15702579D02*
X5360539Y-15721627D01*
X5360539Y-15721627D02*
X5351015Y-15750198D01*
X5351015Y-15750198D02*
X5236729Y-15864484D01*
X5236729Y-15864484D02*
X5360539Y-15864484D01*
X5446253Y-15845436D02*
X5455777Y-15854960D01*
X5455777Y-15854960D02*
X5446253Y-15864484D01*
X5446253Y-15864484D02*
X5436729Y-15854960D01*
X5436729Y-15854960D02*
X5446253Y-15845436D01*
X5446253Y-15845436D02*
X5446253Y-15864484D01*
X5627205Y-15731150D02*
X5627205Y-15864484D01*
X5579586Y-15654960D02*
X5531967Y-15797817D01*
X5531967Y-15797817D02*
X5655777Y-15797817D01*
X5770062Y-15664484D02*
X5789110Y-15664484D01*
X5789110Y-15664484D02*
X5808158Y-15674008D01*
X5808158Y-15674008D02*
X5817682Y-15683531D01*
X5817682Y-15683531D02*
X5827205Y-15702579D01*
X5827205Y-15702579D02*
X5836729Y-15740674D01*
X5836729Y-15740674D02*
X5836729Y-15788293D01*
X5836729Y-15788293D02*
X5827205Y-15826388D01*
X5827205Y-15826388D02*
X5817682Y-15845436D01*
X5817682Y-15845436D02*
X5808158Y-15854960D01*
X5808158Y-15854960D02*
X5789110Y-15864484D01*
X5789110Y-15864484D02*
X5770062Y-15864484D01*
X5770062Y-15864484D02*
X5751015Y-15854960D01*
X5751015Y-15854960D02*
X5741491Y-15845436D01*
X5741491Y-15845436D02*
X5731967Y-15826388D01*
X5731967Y-15826388D02*
X5722443Y-15788293D01*
X5722443Y-15788293D02*
X5722443Y-15740674D01*
X5722443Y-15740674D02*
X5731967Y-15702579D01*
X5731967Y-15702579D02*
X5741491Y-15683531D01*
X5741491Y-15683531D02*
X5751015Y-15674008D01*
X5751015Y-15674008D02*
X5770062Y-15664484D01*
X5960539Y-15664484D02*
X5979586Y-15664484D01*
X5979586Y-15664484D02*
X5998634Y-15674008D01*
X5998634Y-15674008D02*
X6008158Y-15683531D01*
X6008158Y-15683531D02*
X6017682Y-15702579D01*
X6017682Y-15702579D02*
X6027205Y-15740674D01*
X6027205Y-15740674D02*
X6027205Y-15788293D01*
X6027205Y-15788293D02*
X6017682Y-15826388D01*
X6017682Y-15826388D02*
X6008158Y-15845436D01*
X6008158Y-15845436D02*
X5998634Y-15854960D01*
X5998634Y-15854960D02*
X5979586Y-15864484D01*
X5979586Y-15864484D02*
X5960539Y-15864484D01*
X5960539Y-15864484D02*
X5941491Y-15854960D01*
X5941491Y-15854960D02*
X5931967Y-15845436D01*
X5931967Y-15845436D02*
X5922443Y-15826388D01*
X5922443Y-15826388D02*
X5912920Y-15788293D01*
X5912920Y-15788293D02*
X5912920Y-15740674D01*
X5912920Y-15740674D02*
X5922443Y-15702579D01*
X5922443Y-15702579D02*
X5931967Y-15683531D01*
X5931967Y-15683531D02*
X5941491Y-15674008D01*
X5941491Y-15674008D02*
X5960539Y-15664484D01*
X6112920Y-15864484D02*
X6112920Y-15731150D01*
X6112920Y-15750198D02*
X6122443Y-15740674D01*
X6122443Y-15740674D02*
X6141491Y-15731150D01*
X6141491Y-15731150D02*
X6170063Y-15731150D01*
X6170063Y-15731150D02*
X6189110Y-15740674D01*
X6189110Y-15740674D02*
X6198634Y-15759722D01*
X6198634Y-15759722D02*
X6198634Y-15864484D01*
X6198634Y-15759722D02*
X6208158Y-15740674D01*
X6208158Y-15740674D02*
X6227205Y-15731150D01*
X6227205Y-15731150D02*
X6255777Y-15731150D01*
X6255777Y-15731150D02*
X6274824Y-15740674D01*
X6274824Y-15740674D02*
X6284348Y-15759722D01*
X6284348Y-15759722D02*
X6284348Y-15864484D01*
X6379586Y-15864484D02*
X6379586Y-15731150D01*
X6379586Y-15750198D02*
X6389110Y-15740674D01*
X6389110Y-15740674D02*
X6408158Y-15731150D01*
X6408158Y-15731150D02*
X6436729Y-15731150D01*
X6436729Y-15731150D02*
X6455777Y-15740674D01*
X6455777Y-15740674D02*
X6465301Y-15759722D01*
X6465301Y-15759722D02*
X6465301Y-15864484D01*
X6465301Y-15759722D02*
X6474824Y-15740674D01*
X6474824Y-15740674D02*
X6493872Y-15731150D01*
X6493872Y-15731150D02*
X6522443Y-15731150D01*
X6522443Y-15731150D02*
X6541491Y-15740674D01*
X6541491Y-15740674D02*
X6551015Y-15759722D01*
X6551015Y-15759722D02*
X6551015Y-15864484D01*
X6941491Y-15654960D02*
X6770063Y-15912103D01*
X7198634Y-15664484D02*
X7217682Y-15664484D01*
X7217682Y-15664484D02*
X7236729Y-15674008D01*
X7236729Y-15674008D02*
X7246253Y-15683531D01*
X7246253Y-15683531D02*
X7255777Y-15702579D01*
X7255777Y-15702579D02*
X7265301Y-15740674D01*
X7265301Y-15740674D02*
X7265301Y-15788293D01*
X7265301Y-15788293D02*
X7255777Y-15826388D01*
X7255777Y-15826388D02*
X7246253Y-15845436D01*
X7246253Y-15845436D02*
X7236729Y-15854960D01*
X7236729Y-15854960D02*
X7217682Y-15864484D01*
X7217682Y-15864484D02*
X7198634Y-15864484D01*
X7198634Y-15864484D02*
X7179586Y-15854960D01*
X7179586Y-15854960D02*
X7170063Y-15845436D01*
X7170063Y-15845436D02*
X7160539Y-15826388D01*
X7160539Y-15826388D02*
X7151015Y-15788293D01*
X7151015Y-15788293D02*
X7151015Y-15740674D01*
X7151015Y-15740674D02*
X7160539Y-15702579D01*
X7160539Y-15702579D02*
X7170063Y-15683531D01*
X7170063Y-15683531D02*
X7179586Y-15674008D01*
X7179586Y-15674008D02*
X7198634Y-15664484D01*
X7351015Y-15845436D02*
X7360539Y-15854960D01*
X7360539Y-15854960D02*
X7351015Y-15864484D01*
X7351015Y-15864484D02*
X7341491Y-15854960D01*
X7341491Y-15854960D02*
X7351015Y-15845436D01*
X7351015Y-15845436D02*
X7351015Y-15864484D01*
X7484348Y-15664484D02*
X7503396Y-15664484D01*
X7503396Y-15664484D02*
X7522444Y-15674008D01*
X7522444Y-15674008D02*
X7531967Y-15683531D01*
X7531967Y-15683531D02*
X7541491Y-15702579D01*
X7541491Y-15702579D02*
X7551015Y-15740674D01*
X7551015Y-15740674D02*
X7551015Y-15788293D01*
X7551015Y-15788293D02*
X7541491Y-15826388D01*
X7541491Y-15826388D02*
X7531967Y-15845436D01*
X7531967Y-15845436D02*
X7522444Y-15854960D01*
X7522444Y-15854960D02*
X7503396Y-15864484D01*
X7503396Y-15864484D02*
X7484348Y-15864484D01*
X7484348Y-15864484D02*
X7465301Y-15854960D01*
X7465301Y-15854960D02*
X7455777Y-15845436D01*
X7455777Y-15845436D02*
X7446253Y-15826388D01*
X7446253Y-15826388D02*
X7436729Y-15788293D01*
X7436729Y-15788293D02*
X7436729Y-15740674D01*
X7436729Y-15740674D02*
X7446253Y-15702579D01*
X7446253Y-15702579D02*
X7455777Y-15683531D01*
X7455777Y-15683531D02*
X7465301Y-15674008D01*
X7465301Y-15674008D02*
X7484348Y-15664484D01*
X7646253Y-15864484D02*
X7684348Y-15864484D01*
X7684348Y-15864484D02*
X7703396Y-15854960D01*
X7703396Y-15854960D02*
X7712920Y-15845436D01*
X7712920Y-15845436D02*
X7731967Y-15816865D01*
X7731967Y-15816865D02*
X7741491Y-15778769D01*
X7741491Y-15778769D02*
X7741491Y-15702579D01*
X7741491Y-15702579D02*
X7731967Y-15683531D01*
X7731967Y-15683531D02*
X7722444Y-15674008D01*
X7722444Y-15674008D02*
X7703396Y-15664484D01*
X7703396Y-15664484D02*
X7665301Y-15664484D01*
X7665301Y-15664484D02*
X7646253Y-15674008D01*
X7646253Y-15674008D02*
X7636729Y-15683531D01*
X7636729Y-15683531D02*
X7627206Y-15702579D01*
X7627206Y-15702579D02*
X7627206Y-15750198D01*
X7627206Y-15750198D02*
X7636729Y-15769246D01*
X7636729Y-15769246D02*
X7646253Y-15778769D01*
X7646253Y-15778769D02*
X7665301Y-15788293D01*
X7665301Y-15788293D02*
X7703396Y-15788293D01*
X7703396Y-15788293D02*
X7722444Y-15778769D01*
X7722444Y-15778769D02*
X7731967Y-15769246D01*
X7731967Y-15769246D02*
X7741491Y-15750198D01*
X7912920Y-15731150D02*
X7912920Y-15864484D01*
X7865301Y-15654960D02*
X7817682Y-15797817D01*
X7817682Y-15797817D02*
X7941491Y-15797817D01*
X8112920Y-15664484D02*
X8017682Y-15664484D01*
X8017682Y-15664484D02*
X8008158Y-15759722D01*
X8008158Y-15759722D02*
X8017682Y-15750198D01*
X8017682Y-15750198D02*
X8036729Y-15740674D01*
X8036729Y-15740674D02*
X8084348Y-15740674D01*
X8084348Y-15740674D02*
X8103396Y-15750198D01*
X8103396Y-15750198D02*
X8112920Y-15759722D01*
X8112920Y-15759722D02*
X8122444Y-15778769D01*
X8122444Y-15778769D02*
X8122444Y-15826388D01*
X8122444Y-15826388D02*
X8112920Y-15845436D01*
X8112920Y-15845436D02*
X8103396Y-15854960D01*
X8103396Y-15854960D02*
X8084348Y-15864484D01*
X8084348Y-15864484D02*
X8036729Y-15864484D01*
X8036729Y-15864484D02*
X8017682Y-15854960D01*
X8017682Y-15854960D02*
X8008158Y-15845436D01*
X8198634Y-15664484D02*
X8198634Y-15702579D01*
X8274825Y-15664484D02*
X8274825Y-15702579D01*
X8570063Y-15940674D02*
X8560539Y-15931150D01*
X8560539Y-15931150D02*
X8541491Y-15902579D01*
X8541491Y-15902579D02*
X8531968Y-15883531D01*
X8531968Y-15883531D02*
X8522444Y-15854960D01*
X8522444Y-15854960D02*
X8512920Y-15807341D01*
X8512920Y-15807341D02*
X8512920Y-15769246D01*
X8512920Y-15769246D02*
X8522444Y-15721627D01*
X8522444Y-15721627D02*
X8531968Y-15693055D01*
X8531968Y-15693055D02*
X8541491Y-15674008D01*
X8541491Y-15674008D02*
X8560539Y-15645436D01*
X8560539Y-15645436D02*
X8570063Y-15635912D01*
X8731968Y-15664484D02*
X8693872Y-15664484D01*
X8693872Y-15664484D02*
X8674825Y-15674008D01*
X8674825Y-15674008D02*
X8665301Y-15683531D01*
X8665301Y-15683531D02*
X8646253Y-15712103D01*
X8646253Y-15712103D02*
X8636730Y-15750198D01*
X8636730Y-15750198D02*
X8636730Y-15826388D01*
X8636730Y-15826388D02*
X8646253Y-15845436D01*
X8646253Y-15845436D02*
X8655777Y-15854960D01*
X8655777Y-15854960D02*
X8674825Y-15864484D01*
X8674825Y-15864484D02*
X8712920Y-15864484D01*
X8712920Y-15864484D02*
X8731968Y-15854960D01*
X8731968Y-15854960D02*
X8741491Y-15845436D01*
X8741491Y-15845436D02*
X8751015Y-15826388D01*
X8751015Y-15826388D02*
X8751015Y-15778769D01*
X8751015Y-15778769D02*
X8741491Y-15759722D01*
X8741491Y-15759722D02*
X8731968Y-15750198D01*
X8731968Y-15750198D02*
X8712920Y-15740674D01*
X8712920Y-15740674D02*
X8674825Y-15740674D01*
X8674825Y-15740674D02*
X8655777Y-15750198D01*
X8655777Y-15750198D02*
X8646253Y-15759722D01*
X8646253Y-15759722D02*
X8636730Y-15778769D01*
X8989111Y-15864484D02*
X8989111Y-15664484D01*
X9074825Y-15864484D02*
X9074825Y-15759722D01*
X9074825Y-15759722D02*
X9065301Y-15740674D01*
X9065301Y-15740674D02*
X9046253Y-15731150D01*
X9046253Y-15731150D02*
X9017682Y-15731150D01*
X9017682Y-15731150D02*
X8998634Y-15740674D01*
X8998634Y-15740674D02*
X8989111Y-15750198D01*
X9198634Y-15864484D02*
X9179587Y-15854960D01*
X9179587Y-15854960D02*
X9170063Y-15845436D01*
X9170063Y-15845436D02*
X9160539Y-15826388D01*
X9160539Y-15826388D02*
X9160539Y-15769246D01*
X9160539Y-15769246D02*
X9170063Y-15750198D01*
X9170063Y-15750198D02*
X9179587Y-15740674D01*
X9179587Y-15740674D02*
X9198634Y-15731150D01*
X9198634Y-15731150D02*
X9227206Y-15731150D01*
X9227206Y-15731150D02*
X9246253Y-15740674D01*
X9246253Y-15740674D02*
X9255777Y-15750198D01*
X9255777Y-15750198D02*
X9265301Y-15769246D01*
X9265301Y-15769246D02*
X9265301Y-15826388D01*
X9265301Y-15826388D02*
X9255777Y-15845436D01*
X9255777Y-15845436D02*
X9246253Y-15854960D01*
X9246253Y-15854960D02*
X9227206Y-15864484D01*
X9227206Y-15864484D02*
X9198634Y-15864484D01*
X9379587Y-15864484D02*
X9360539Y-15854960D01*
X9360539Y-15854960D02*
X9351015Y-15835912D01*
X9351015Y-15835912D02*
X9351015Y-15664484D01*
X9531968Y-15854960D02*
X9512920Y-15864484D01*
X9512920Y-15864484D02*
X9474825Y-15864484D01*
X9474825Y-15864484D02*
X9455777Y-15854960D01*
X9455777Y-15854960D02*
X9446253Y-15835912D01*
X9446253Y-15835912D02*
X9446253Y-15759722D01*
X9446253Y-15759722D02*
X9455777Y-15740674D01*
X9455777Y-15740674D02*
X9474825Y-15731150D01*
X9474825Y-15731150D02*
X9512920Y-15731150D01*
X9512920Y-15731150D02*
X9531968Y-15740674D01*
X9531968Y-15740674D02*
X9541492Y-15759722D01*
X9541492Y-15759722D02*
X9541492Y-15778769D01*
X9541492Y-15778769D02*
X9446253Y-15797817D01*
X9617682Y-15854960D02*
X9636730Y-15864484D01*
X9636730Y-15864484D02*
X9674825Y-15864484D01*
X9674825Y-15864484D02*
X9693873Y-15854960D01*
X9693873Y-15854960D02*
X9703396Y-15835912D01*
X9703396Y-15835912D02*
X9703396Y-15826388D01*
X9703396Y-15826388D02*
X9693873Y-15807341D01*
X9693873Y-15807341D02*
X9674825Y-15797817D01*
X9674825Y-15797817D02*
X9646253Y-15797817D01*
X9646253Y-15797817D02*
X9627206Y-15788293D01*
X9627206Y-15788293D02*
X9617682Y-15769246D01*
X9617682Y-15769246D02*
X9617682Y-15759722D01*
X9617682Y-15759722D02*
X9627206Y-15740674D01*
X9627206Y-15740674D02*
X9646253Y-15731150D01*
X9646253Y-15731150D02*
X9674825Y-15731150D01*
X9674825Y-15731150D02*
X9693873Y-15740674D01*
X9770063Y-15940674D02*
X9779587Y-15931150D01*
X9779587Y-15931150D02*
X9798634Y-15902579D01*
X9798634Y-15902579D02*
X9808158Y-15883531D01*
X9808158Y-15883531D02*
X9817682Y-15854960D01*
X9817682Y-15854960D02*
X9827206Y-15807341D01*
X9827206Y-15807341D02*
X9827206Y-15769246D01*
X9827206Y-15769246D02*
X9817682Y-15721627D01*
X9817682Y-15721627D02*
X9808158Y-15693055D01*
X9808158Y-15693055D02*
X9798634Y-15674008D01*
X9798634Y-15674008D02*
X9779587Y-15645436D01*
X9779587Y-15645436D02*
X9770063Y-15635912D01*
M02*
