ISO-10303-21;
HEADER;
FILE_DESCRIPTION(('FreeCAD Model'),'2;1');
FILE_NAME('Open CASCADE Shape Model','2025-06-27T10:37:12',(''),(''),
  'Open CASCADE STEP processor 7.6','FreeCAD','Unknown');
FILE_SCHEMA(('AUTOMOTIVE_DESIGN { 1 0 10303 214 1 1 1 1 }'));
ENDSEC;
DATA;
#1 = APPLICATION_PROTOCOL_DEFINITION('international standard',
  'automotive_design',2000,#2);
#2 = APPLICATION_CONTEXT(
  'core data for automotive mechanical design processes');
#3 = SHAPE_DEFINITION_REPRESENTATION(#4,#10);
#4 = PRODUCT_DEFINITION_SHAPE('','',#5);
#5 = PRODUCT_DEFINITION('design','',#6,#9);
#6 = PRODUCT_DEFINITION_FORMATION('','',#7);
#7 = PRODUCT('Fillet001','Fillet001','',(#8));
#8 = PRODUCT_CONTEXT('',#2,'mechanical');
#9 = PRODUCT_DEFINITION_CONTEXT('part definition',#2,'design');
#10 = ADVANCED_BREP_SHAPE_REPRESENTATION('',(#11,#15),#783);
#11 = AXIS2_PLACEMENT_3D('',#12,#13,#14);
#12 = CARTESIAN_POINT('',(0.,0.,0.));
#13 = DIRECTION('',(0.,0.,1.));
#14 = DIRECTION('',(1.,0.,-0.));
#15 = MANIFOLD_SOLID_BREP('',#16);
#16 = CLOSED_SHELL('',(#17,#213,#244,#269,#294,#318,#342,#367,#392,#416,
    #440,#464,#488,#513,#538,#555,#586,#611,#635,#660,#684,#709,#733,
    #751));
#17 = ADVANCED_FACE('',(#18,#138),#208,.F.);
#18 = FACE_BOUND('',#19,.F.);
#19 = EDGE_LOOP('',(#20,#30,#39,#47,#56,#64,#72,#81,#89,#98,#106,#114,
    #123,#131));
#20 = ORIENTED_EDGE('',*,*,#21,.T.);
#21 = EDGE_CURVE('',#22,#24,#26,.T.);
#22 = VERTEX_POINT('',#23);
#23 = CARTESIAN_POINT('',(-7.5,-5.5,0.));
#24 = VERTEX_POINT('',#25);
#25 = CARTESIAN_POINT('',(-7.5,5.5,0.));
#26 = LINE('',#27,#28);
#27 = CARTESIAN_POINT('',(-7.5,-7.5,0.));
#28 = VECTOR('',#29,1.);
#29 = DIRECTION('',(0.,1.,0.));
#30 = ORIENTED_EDGE('',*,*,#31,.T.);
#31 = EDGE_CURVE('',#24,#32,#34,.T.);
#32 = VERTEX_POINT('',#33);
#33 = CARTESIAN_POINT('',(-5.5,7.5,0.));
#34 = CIRCLE('',#35,2.);
#35 = AXIS2_PLACEMENT_3D('',#36,#37,#38);
#36 = CARTESIAN_POINT('',(-5.5,5.5,0.));
#37 = DIRECTION('',(-0.,-0.,-1.));
#38 = DIRECTION('',(0.,-1.,0.));
#39 = ORIENTED_EDGE('',*,*,#40,.T.);
#40 = EDGE_CURVE('',#32,#41,#43,.T.);
#41 = VERTEX_POINT('',#42);
#42 = CARTESIAN_POINT('',(5.5,7.5,0.));
#43 = LINE('',#44,#45);
#44 = CARTESIAN_POINT('',(-7.5,7.5,0.));
#45 = VECTOR('',#46,1.);
#46 = DIRECTION('',(1.,0.,0.));
#47 = ORIENTED_EDGE('',*,*,#48,.T.);
#48 = EDGE_CURVE('',#41,#49,#51,.T.);
#49 = VERTEX_POINT('',#50);
#50 = CARTESIAN_POINT('',(7.5,5.5,0.));
#51 = CIRCLE('',#52,2.);
#52 = AXIS2_PLACEMENT_3D('',#53,#54,#55);
#53 = CARTESIAN_POINT('',(5.5,5.5,0.));
#54 = DIRECTION('',(-0.,-0.,-1.));
#55 = DIRECTION('',(0.,-1.,0.));
#56 = ORIENTED_EDGE('',*,*,#57,.T.);
#57 = EDGE_CURVE('',#49,#58,#60,.T.);
#58 = VERTEX_POINT('',#59);
#59 = CARTESIAN_POINT('',(7.5,3.5,0.));
#60 = LINE('',#61,#62);
#61 = CARTESIAN_POINT('',(7.5,7.5,0.));
#62 = VECTOR('',#63,1.);
#63 = DIRECTION('',(0.,-1.,0.));
#64 = ORIENTED_EDGE('',*,*,#65,.T.);
#65 = EDGE_CURVE('',#58,#66,#68,.T.);
#66 = VERTEX_POINT('',#67);
#67 = CARTESIAN_POINT('',(10.5,3.5,0.));
#68 = LINE('',#69,#70);
#69 = CARTESIAN_POINT('',(7.5,3.5,0.));
#70 = VECTOR('',#71,1.);
#71 = DIRECTION('',(1.,0.,0.));
#72 = ORIENTED_EDGE('',*,*,#73,.T.);
#73 = EDGE_CURVE('',#66,#74,#76,.T.);
#74 = VERTEX_POINT('',#75);
#75 = CARTESIAN_POINT('',(12.5,1.5,0.));
#76 = CIRCLE('',#77,2.);
#77 = AXIS2_PLACEMENT_3D('',#78,#79,#80);
#78 = CARTESIAN_POINT('',(10.5,1.5,0.));
#79 = DIRECTION('',(-0.,-0.,-1.));
#80 = DIRECTION('',(0.,-1.,0.));
#81 = ORIENTED_EDGE('',*,*,#82,.T.);
#82 = EDGE_CURVE('',#74,#83,#85,.T.);
#83 = VERTEX_POINT('',#84);
#84 = CARTESIAN_POINT('',(12.5,-1.5,0.));
#85 = LINE('',#86,#87);
#86 = CARTESIAN_POINT('',(12.5,3.5,0.));
#87 = VECTOR('',#88,1.);
#88 = DIRECTION('',(0.,-1.,0.));
#89 = ORIENTED_EDGE('',*,*,#90,.T.);
#90 = EDGE_CURVE('',#83,#91,#93,.T.);
#91 = VERTEX_POINT('',#92);
#92 = CARTESIAN_POINT('',(10.5,-3.5,0.));
#93 = CIRCLE('',#94,2.);
#94 = AXIS2_PLACEMENT_3D('',#95,#96,#97);
#95 = CARTESIAN_POINT('',(10.5,-1.5,0.));
#96 = DIRECTION('',(-0.,-0.,-1.));
#97 = DIRECTION('',(0.,-1.,0.));
#98 = ORIENTED_EDGE('',*,*,#99,.T.);
#99 = EDGE_CURVE('',#91,#100,#102,.T.);
#100 = VERTEX_POINT('',#101);
#101 = CARTESIAN_POINT('',(7.5,-3.5,0.));
#102 = LINE('',#103,#104);
#103 = CARTESIAN_POINT('',(12.5,-3.5,0.));
#104 = VECTOR('',#105,1.);
#105 = DIRECTION('',(-1.,0.,0.));
#106 = ORIENTED_EDGE('',*,*,#107,.T.);
#107 = EDGE_CURVE('',#100,#108,#110,.T.);
#108 = VERTEX_POINT('',#109);
#109 = CARTESIAN_POINT('',(7.5,-5.5,0.));
#110 = LINE('',#111,#112);
#111 = CARTESIAN_POINT('',(7.5,-3.5,0.));
#112 = VECTOR('',#113,1.);
#113 = DIRECTION('',(0.,-1.,0.));
#114 = ORIENTED_EDGE('',*,*,#115,.T.);
#115 = EDGE_CURVE('',#108,#116,#118,.T.);
#116 = VERTEX_POINT('',#117);
#117 = CARTESIAN_POINT('',(5.5,-7.5,0.));
#118 = CIRCLE('',#119,2.);
#119 = AXIS2_PLACEMENT_3D('',#120,#121,#122);
#120 = CARTESIAN_POINT('',(5.5,-5.5,0.));
#121 = DIRECTION('',(-0.,-0.,-1.));
#122 = DIRECTION('',(0.,-1.,0.));
#123 = ORIENTED_EDGE('',*,*,#124,.T.);
#124 = EDGE_CURVE('',#116,#125,#127,.T.);
#125 = VERTEX_POINT('',#126);
#126 = CARTESIAN_POINT('',(-5.5,-7.5,0.));
#127 = LINE('',#128,#129);
#128 = CARTESIAN_POINT('',(7.5,-7.5,0.));
#129 = VECTOR('',#130,1.);
#130 = DIRECTION('',(-1.,0.,0.));
#131 = ORIENTED_EDGE('',*,*,#132,.F.);
#132 = EDGE_CURVE('',#22,#125,#133,.T.);
#133 = CIRCLE('',#134,2.);
#134 = AXIS2_PLACEMENT_3D('',#135,#136,#137);
#135 = CARTESIAN_POINT('',(-5.5,-5.5,0.));
#136 = DIRECTION('',(0.,0.,1.));
#137 = DIRECTION('',(0.,-1.,0.));
#138 = FACE_BOUND('',#139,.F.);
#139 = EDGE_LOOP('',(#140,#150,#159,#167,#176,#184,#193,#201));
#140 = ORIENTED_EDGE('',*,*,#141,.F.);
#141 = EDGE_CURVE('',#142,#144,#146,.T.);
#142 = VERTEX_POINT('',#143);
#143 = CARTESIAN_POINT('',(-17.25,-16.75,0.));
#144 = VERTEX_POINT('',#145);
#145 = CARTESIAN_POINT('',(-17.25,16.75,0.));
#146 = LINE('',#147,#148);
#147 = CARTESIAN_POINT('',(-17.25,-19.75,0.));
#148 = VECTOR('',#149,1.);
#149 = DIRECTION('',(0.,1.,0.));
#150 = ORIENTED_EDGE('',*,*,#151,.T.);
#151 = EDGE_CURVE('',#142,#152,#154,.T.);
#152 = VERTEX_POINT('',#153);
#153 = CARTESIAN_POINT('',(-14.25,-19.75,0.));
#154 = CIRCLE('',#155,3.);
#155 = AXIS2_PLACEMENT_3D('',#156,#157,#158);
#156 = CARTESIAN_POINT('',(-14.25,-16.75,0.));
#157 = DIRECTION('',(-0.,0.,1.));
#158 = DIRECTION('',(0.,-1.,0.));
#159 = ORIENTED_EDGE('',*,*,#160,.F.);
#160 = EDGE_CURVE('',#161,#152,#163,.T.);
#161 = VERTEX_POINT('',#162);
#162 = CARTESIAN_POINT('',(14.25,-19.75,0.));
#163 = LINE('',#164,#165);
#164 = CARTESIAN_POINT('',(17.25,-19.75,0.));
#165 = VECTOR('',#166,1.);
#166 = DIRECTION('',(-1.,0.,0.));
#167 = ORIENTED_EDGE('',*,*,#168,.F.);
#168 = EDGE_CURVE('',#169,#161,#171,.T.);
#169 = VERTEX_POINT('',#170);
#170 = CARTESIAN_POINT('',(17.25,-16.75,0.));
#171 = CIRCLE('',#172,3.);
#172 = AXIS2_PLACEMENT_3D('',#173,#174,#175);
#173 = CARTESIAN_POINT('',(14.25,-16.75,0.));
#174 = DIRECTION('',(-0.,-0.,-1.));
#175 = DIRECTION('',(0.,-1.,0.));
#176 = ORIENTED_EDGE('',*,*,#177,.F.);
#177 = EDGE_CURVE('',#178,#169,#180,.T.);
#178 = VERTEX_POINT('',#179);
#179 = CARTESIAN_POINT('',(17.25,16.75,0.));
#180 = LINE('',#181,#182);
#181 = CARTESIAN_POINT('',(17.25,19.75,0.));
#182 = VECTOR('',#183,1.);
#183 = DIRECTION('',(0.,-1.,0.));
#184 = ORIENTED_EDGE('',*,*,#185,.F.);
#185 = EDGE_CURVE('',#186,#178,#188,.T.);
#186 = VERTEX_POINT('',#187);
#187 = CARTESIAN_POINT('',(14.25,19.75,0.));
#188 = CIRCLE('',#189,3.);
#189 = AXIS2_PLACEMENT_3D('',#190,#191,#192);
#190 = CARTESIAN_POINT('',(14.25,16.75,0.));
#191 = DIRECTION('',(-0.,-0.,-1.));
#192 = DIRECTION('',(0.,-1.,0.));
#193 = ORIENTED_EDGE('',*,*,#194,.F.);
#194 = EDGE_CURVE('',#195,#186,#197,.T.);
#195 = VERTEX_POINT('',#196);
#196 = CARTESIAN_POINT('',(-14.25,19.75,0.));
#197 = LINE('',#198,#199);
#198 = CARTESIAN_POINT('',(-17.25,19.75,0.));
#199 = VECTOR('',#200,1.);
#200 = DIRECTION('',(1.,0.,0.));
#201 = ORIENTED_EDGE('',*,*,#202,.F.);
#202 = EDGE_CURVE('',#144,#195,#203,.T.);
#203 = CIRCLE('',#204,3.);
#204 = AXIS2_PLACEMENT_3D('',#205,#206,#207);
#205 = CARTESIAN_POINT('',(-14.25,16.75,0.));
#206 = DIRECTION('',(-0.,-0.,-1.));
#207 = DIRECTION('',(0.,-1.,0.));
#208 = PLANE('',#209);
#209 = AXIS2_PLACEMENT_3D('',#210,#211,#212);
#210 = CARTESIAN_POINT('',(0.619266055046,0.,0.));
#211 = DIRECTION('',(0.,0.,1.));
#212 = DIRECTION('',(1.,0.,0.));
#213 = ADVANCED_FACE('',(#214),#239,.F.);
#214 = FACE_BOUND('',#215,.F.);
#215 = EDGE_LOOP('',(#216,#226,#232,#233));
#216 = ORIENTED_EDGE('',*,*,#217,.T.);
#217 = EDGE_CURVE('',#218,#220,#222,.T.);
#218 = VERTEX_POINT('',#219);
#219 = CARTESIAN_POINT('',(-7.5,-5.5,2.));
#220 = VERTEX_POINT('',#221);
#221 = CARTESIAN_POINT('',(-7.5,5.5,2.));
#222 = LINE('',#223,#224);
#223 = CARTESIAN_POINT('',(-7.5,-7.5,2.));
#224 = VECTOR('',#225,1.);
#225 = DIRECTION('',(0.,1.,0.));
#226 = ORIENTED_EDGE('',*,*,#227,.F.);
#227 = EDGE_CURVE('',#24,#220,#228,.T.);
#228 = LINE('',#229,#230);
#229 = CARTESIAN_POINT('',(-7.5,5.5,0.));
#230 = VECTOR('',#231,1.);
#231 = DIRECTION('',(0.,0.,1.));
#232 = ORIENTED_EDGE('',*,*,#21,.F.);
#233 = ORIENTED_EDGE('',*,*,#234,.T.);
#234 = EDGE_CURVE('',#22,#218,#235,.T.);
#235 = LINE('',#236,#237);
#236 = CARTESIAN_POINT('',(-7.5,-5.5,0.));
#237 = VECTOR('',#238,1.);
#238 = DIRECTION('',(0.,0.,1.));
#239 = PLANE('',#240);
#240 = AXIS2_PLACEMENT_3D('',#241,#242,#243);
#241 = CARTESIAN_POINT('',(-7.5,-7.5,0.));
#242 = DIRECTION('',(-1.,0.,0.));
#243 = DIRECTION('',(0.,1.,0.));
#244 = ADVANCED_FACE('',(#245),#264,.F.);
#245 = FACE_BOUND('',#246,.F.);
#246 = EDGE_LOOP('',(#247,#248,#256,#263));
#247 = ORIENTED_EDGE('',*,*,#132,.T.);
#248 = ORIENTED_EDGE('',*,*,#249,.T.);
#249 = EDGE_CURVE('',#125,#250,#252,.T.);
#250 = VERTEX_POINT('',#251);
#251 = CARTESIAN_POINT('',(-5.5,-7.5,2.));
#252 = LINE('',#253,#254);
#253 = CARTESIAN_POINT('',(-5.5,-7.5,0.));
#254 = VECTOR('',#255,1.);
#255 = DIRECTION('',(0.,0.,1.));
#256 = ORIENTED_EDGE('',*,*,#257,.F.);
#257 = EDGE_CURVE('',#218,#250,#258,.T.);
#258 = CIRCLE('',#259,2.);
#259 = AXIS2_PLACEMENT_3D('',#260,#261,#262);
#260 = CARTESIAN_POINT('',(-5.5,-5.5,2.));
#261 = DIRECTION('',(0.,0.,1.));
#262 = DIRECTION('',(0.,-1.,0.));
#263 = ORIENTED_EDGE('',*,*,#234,.F.);
#264 = CYLINDRICAL_SURFACE('',#265,2.);
#265 = AXIS2_PLACEMENT_3D('',#266,#267,#268);
#266 = CARTESIAN_POINT('',(-5.5,-5.5,0.));
#267 = DIRECTION('',(0.,0.,1.));
#268 = DIRECTION('',(-1.,0.,0.));
#269 = ADVANCED_FACE('',(#270),#289,.F.);
#270 = FACE_BOUND('',#271,.T.);
#271 = EDGE_LOOP('',(#272,#273,#281,#288));
#272 = ORIENTED_EDGE('',*,*,#31,.T.);
#273 = ORIENTED_EDGE('',*,*,#274,.T.);
#274 = EDGE_CURVE('',#32,#275,#277,.T.);
#275 = VERTEX_POINT('',#276);
#276 = CARTESIAN_POINT('',(-5.5,7.5,2.));
#277 = LINE('',#278,#279);
#278 = CARTESIAN_POINT('',(-5.5,7.5,0.));
#279 = VECTOR('',#280,1.);
#280 = DIRECTION('',(0.,0.,1.));
#281 = ORIENTED_EDGE('',*,*,#282,.F.);
#282 = EDGE_CURVE('',#220,#275,#283,.T.);
#283 = CIRCLE('',#284,2.);
#284 = AXIS2_PLACEMENT_3D('',#285,#286,#287);
#285 = CARTESIAN_POINT('',(-5.5,5.5,2.));
#286 = DIRECTION('',(-0.,-0.,-1.));
#287 = DIRECTION('',(0.,-1.,0.));
#288 = ORIENTED_EDGE('',*,*,#227,.F.);
#289 = CYLINDRICAL_SURFACE('',#290,2.);
#290 = AXIS2_PLACEMENT_3D('',#291,#292,#293);
#291 = CARTESIAN_POINT('',(-5.5,5.5,0.));
#292 = DIRECTION('',(0.,0.,1.));
#293 = DIRECTION('',(-1.,0.,0.));
#294 = ADVANCED_FACE('',(#295),#313,.F.);
#295 = FACE_BOUND('',#296,.F.);
#296 = EDGE_LOOP('',(#297,#305,#306,#307));
#297 = ORIENTED_EDGE('',*,*,#298,.T.);
#298 = EDGE_CURVE('',#299,#250,#301,.T.);
#299 = VERTEX_POINT('',#300);
#300 = CARTESIAN_POINT('',(5.5,-7.5,2.));
#301 = LINE('',#302,#303);
#302 = CARTESIAN_POINT('',(7.5,-7.5,2.));
#303 = VECTOR('',#304,1.);
#304 = DIRECTION('',(-1.,0.,0.));
#305 = ORIENTED_EDGE('',*,*,#249,.F.);
#306 = ORIENTED_EDGE('',*,*,#124,.F.);
#307 = ORIENTED_EDGE('',*,*,#308,.T.);
#308 = EDGE_CURVE('',#116,#299,#309,.T.);
#309 = LINE('',#310,#311);
#310 = CARTESIAN_POINT('',(5.5,-7.5,0.));
#311 = VECTOR('',#312,1.);
#312 = DIRECTION('',(0.,0.,1.));
#313 = PLANE('',#314);
#314 = AXIS2_PLACEMENT_3D('',#315,#316,#317);
#315 = CARTESIAN_POINT('',(7.5,-7.5,0.));
#316 = DIRECTION('',(0.,-1.,0.));
#317 = DIRECTION('',(-1.,0.,0.));
#318 = ADVANCED_FACE('',(#319),#337,.F.);
#319 = FACE_BOUND('',#320,.F.);
#320 = EDGE_LOOP('',(#321,#329,#335,#336));
#321 = ORIENTED_EDGE('',*,*,#322,.T.);
#322 = EDGE_CURVE('',#275,#323,#325,.T.);
#323 = VERTEX_POINT('',#324);
#324 = CARTESIAN_POINT('',(5.5,7.5,2.));
#325 = LINE('',#326,#327);
#326 = CARTESIAN_POINT('',(-7.5,7.5,2.));
#327 = VECTOR('',#328,1.);
#328 = DIRECTION('',(1.,0.,0.));
#329 = ORIENTED_EDGE('',*,*,#330,.F.);
#330 = EDGE_CURVE('',#41,#323,#331,.T.);
#331 = LINE('',#332,#333);
#332 = CARTESIAN_POINT('',(5.5,7.5,0.));
#333 = VECTOR('',#334,1.);
#334 = DIRECTION('',(0.,0.,1.));
#335 = ORIENTED_EDGE('',*,*,#40,.F.);
#336 = ORIENTED_EDGE('',*,*,#274,.T.);
#337 = PLANE('',#338);
#338 = AXIS2_PLACEMENT_3D('',#339,#340,#341);
#339 = CARTESIAN_POINT('',(-7.5,7.5,0.));
#340 = DIRECTION('',(0.,1.,0.));
#341 = DIRECTION('',(1.,0.,0.));
#342 = ADVANCED_FACE('',(#343),#362,.F.);
#343 = FACE_BOUND('',#344,.T.);
#344 = EDGE_LOOP('',(#345,#346,#347,#356));
#345 = ORIENTED_EDGE('',*,*,#115,.T.);
#346 = ORIENTED_EDGE('',*,*,#308,.T.);
#347 = ORIENTED_EDGE('',*,*,#348,.F.);
#348 = EDGE_CURVE('',#349,#299,#351,.T.);
#349 = VERTEX_POINT('',#350);
#350 = CARTESIAN_POINT('',(7.5,-5.5,2.));
#351 = CIRCLE('',#352,2.);
#352 = AXIS2_PLACEMENT_3D('',#353,#354,#355);
#353 = CARTESIAN_POINT('',(5.5,-5.5,2.));
#354 = DIRECTION('',(-0.,-0.,-1.));
#355 = DIRECTION('',(0.,-1.,0.));
#356 = ORIENTED_EDGE('',*,*,#357,.F.);
#357 = EDGE_CURVE('',#108,#349,#358,.T.);
#358 = LINE('',#359,#360);
#359 = CARTESIAN_POINT('',(7.5,-5.5,0.));
#360 = VECTOR('',#361,1.);
#361 = DIRECTION('',(0.,0.,1.));
#362 = CYLINDRICAL_SURFACE('',#363,2.);
#363 = AXIS2_PLACEMENT_3D('',#364,#365,#366);
#364 = CARTESIAN_POINT('',(5.5,-5.5,0.));
#365 = DIRECTION('',(0.,0.,1.));
#366 = DIRECTION('',(1.,0.,-0.));
#367 = ADVANCED_FACE('',(#368),#387,.F.);
#368 = FACE_BOUND('',#369,.T.);
#369 = EDGE_LOOP('',(#370,#371,#379,#386));
#370 = ORIENTED_EDGE('',*,*,#48,.T.);
#371 = ORIENTED_EDGE('',*,*,#372,.T.);
#372 = EDGE_CURVE('',#49,#373,#375,.T.);
#373 = VERTEX_POINT('',#374);
#374 = CARTESIAN_POINT('',(7.5,5.5,2.));
#375 = LINE('',#376,#377);
#376 = CARTESIAN_POINT('',(7.5,5.5,0.));
#377 = VECTOR('',#378,1.);
#378 = DIRECTION('',(0.,0.,1.));
#379 = ORIENTED_EDGE('',*,*,#380,.F.);
#380 = EDGE_CURVE('',#323,#373,#381,.T.);
#381 = CIRCLE('',#382,2.);
#382 = AXIS2_PLACEMENT_3D('',#383,#384,#385);
#383 = CARTESIAN_POINT('',(5.5,5.5,2.));
#384 = DIRECTION('',(-0.,-0.,-1.));
#385 = DIRECTION('',(0.,-1.,0.));
#386 = ORIENTED_EDGE('',*,*,#330,.F.);
#387 = CYLINDRICAL_SURFACE('',#388,2.);
#388 = AXIS2_PLACEMENT_3D('',#389,#390,#391);
#389 = CARTESIAN_POINT('',(5.5,5.5,0.));
#390 = DIRECTION('',(0.,0.,1.));
#391 = DIRECTION('',(-0.,1.,0.));
#392 = ADVANCED_FACE('',(#393),#411,.F.);
#393 = FACE_BOUND('',#394,.F.);
#394 = EDGE_LOOP('',(#395,#403,#404,#405));
#395 = ORIENTED_EDGE('',*,*,#396,.T.);
#396 = EDGE_CURVE('',#397,#349,#399,.T.);
#397 = VERTEX_POINT('',#398);
#398 = CARTESIAN_POINT('',(7.5,-3.5,2.));
#399 = LINE('',#400,#401);
#400 = CARTESIAN_POINT('',(7.5,-3.5,2.));
#401 = VECTOR('',#402,1.);
#402 = DIRECTION('',(0.,-1.,0.));
#403 = ORIENTED_EDGE('',*,*,#357,.F.);
#404 = ORIENTED_EDGE('',*,*,#107,.F.);
#405 = ORIENTED_EDGE('',*,*,#406,.T.);
#406 = EDGE_CURVE('',#100,#397,#407,.T.);
#407 = LINE('',#408,#409);
#408 = CARTESIAN_POINT('',(7.5,-3.5,0.));
#409 = VECTOR('',#410,1.);
#410 = DIRECTION('',(0.,0.,1.));
#411 = PLANE('',#412);
#412 = AXIS2_PLACEMENT_3D('',#413,#414,#415);
#413 = CARTESIAN_POINT('',(7.5,-3.5,0.));
#414 = DIRECTION('',(1.,0.,0.));
#415 = DIRECTION('',(0.,-1.,0.));
#416 = ADVANCED_FACE('',(#417),#435,.F.);
#417 = FACE_BOUND('',#418,.F.);
#418 = EDGE_LOOP('',(#419,#427,#433,#434));
#419 = ORIENTED_EDGE('',*,*,#420,.T.);
#420 = EDGE_CURVE('',#373,#421,#423,.T.);
#421 = VERTEX_POINT('',#422);
#422 = CARTESIAN_POINT('',(7.5,3.5,2.));
#423 = LINE('',#424,#425);
#424 = CARTESIAN_POINT('',(7.5,7.5,2.));
#425 = VECTOR('',#426,1.);
#426 = DIRECTION('',(0.,-1.,0.));
#427 = ORIENTED_EDGE('',*,*,#428,.F.);
#428 = EDGE_CURVE('',#58,#421,#429,.T.);
#429 = LINE('',#430,#431);
#430 = CARTESIAN_POINT('',(7.5,3.5,0.));
#431 = VECTOR('',#432,1.);
#432 = DIRECTION('',(0.,0.,1.));
#433 = ORIENTED_EDGE('',*,*,#57,.F.);
#434 = ORIENTED_EDGE('',*,*,#372,.T.);
#435 = PLANE('',#436);
#436 = AXIS2_PLACEMENT_3D('',#437,#438,#439);
#437 = CARTESIAN_POINT('',(7.5,7.5,0.));
#438 = DIRECTION('',(1.,0.,0.));
#439 = DIRECTION('',(0.,-1.,0.));
#440 = ADVANCED_FACE('',(#441),#459,.F.);
#441 = FACE_BOUND('',#442,.F.);
#442 = EDGE_LOOP('',(#443,#451,#452,#453));
#443 = ORIENTED_EDGE('',*,*,#444,.T.);
#444 = EDGE_CURVE('',#445,#397,#447,.T.);
#445 = VERTEX_POINT('',#446);
#446 = CARTESIAN_POINT('',(10.5,-3.5,2.));
#447 = LINE('',#448,#449);
#448 = CARTESIAN_POINT('',(12.5,-3.5,2.));
#449 = VECTOR('',#450,1.);
#450 = DIRECTION('',(-1.,0.,0.));
#451 = ORIENTED_EDGE('',*,*,#406,.F.);
#452 = ORIENTED_EDGE('',*,*,#99,.F.);
#453 = ORIENTED_EDGE('',*,*,#454,.T.);
#454 = EDGE_CURVE('',#91,#445,#455,.T.);
#455 = LINE('',#456,#457);
#456 = CARTESIAN_POINT('',(10.5,-3.5,0.));
#457 = VECTOR('',#458,1.);
#458 = DIRECTION('',(0.,0.,1.));
#459 = PLANE('',#460);
#460 = AXIS2_PLACEMENT_3D('',#461,#462,#463);
#461 = CARTESIAN_POINT('',(12.5,-3.5,0.));
#462 = DIRECTION('',(0.,-1.,0.));
#463 = DIRECTION('',(-1.,0.,0.));
#464 = ADVANCED_FACE('',(#465),#483,.F.);
#465 = FACE_BOUND('',#466,.F.);
#466 = EDGE_LOOP('',(#467,#475,#481,#482));
#467 = ORIENTED_EDGE('',*,*,#468,.T.);
#468 = EDGE_CURVE('',#421,#469,#471,.T.);
#469 = VERTEX_POINT('',#470);
#470 = CARTESIAN_POINT('',(10.5,3.5,2.));
#471 = LINE('',#472,#473);
#472 = CARTESIAN_POINT('',(7.5,3.5,2.));
#473 = VECTOR('',#474,1.);
#474 = DIRECTION('',(1.,0.,0.));
#475 = ORIENTED_EDGE('',*,*,#476,.F.);
#476 = EDGE_CURVE('',#66,#469,#477,.T.);
#477 = LINE('',#478,#479);
#478 = CARTESIAN_POINT('',(10.5,3.5,0.));
#479 = VECTOR('',#480,1.);
#480 = DIRECTION('',(0.,0.,1.));
#481 = ORIENTED_EDGE('',*,*,#65,.F.);
#482 = ORIENTED_EDGE('',*,*,#428,.T.);
#483 = PLANE('',#484);
#484 = AXIS2_PLACEMENT_3D('',#485,#486,#487);
#485 = CARTESIAN_POINT('',(7.5,3.5,0.));
#486 = DIRECTION('',(0.,1.,0.));
#487 = DIRECTION('',(1.,0.,0.));
#488 = ADVANCED_FACE('',(#489),#508,.F.);
#489 = FACE_BOUND('',#490,.T.);
#490 = EDGE_LOOP('',(#491,#492,#493,#502));
#491 = ORIENTED_EDGE('',*,*,#90,.T.);
#492 = ORIENTED_EDGE('',*,*,#454,.T.);
#493 = ORIENTED_EDGE('',*,*,#494,.F.);
#494 = EDGE_CURVE('',#495,#445,#497,.T.);
#495 = VERTEX_POINT('',#496);
#496 = CARTESIAN_POINT('',(12.5,-1.5,2.));
#497 = CIRCLE('',#498,2.);
#498 = AXIS2_PLACEMENT_3D('',#499,#500,#501);
#499 = CARTESIAN_POINT('',(10.5,-1.5,2.));
#500 = DIRECTION('',(-0.,-0.,-1.));
#501 = DIRECTION('',(0.,-1.,0.));
#502 = ORIENTED_EDGE('',*,*,#503,.F.);
#503 = EDGE_CURVE('',#83,#495,#504,.T.);
#504 = LINE('',#505,#506);
#505 = CARTESIAN_POINT('',(12.5,-1.5,0.));
#506 = VECTOR('',#507,1.);
#507 = DIRECTION('',(0.,0.,1.));
#508 = CYLINDRICAL_SURFACE('',#509,2.);
#509 = AXIS2_PLACEMENT_3D('',#510,#511,#512);
#510 = CARTESIAN_POINT('',(10.5,-1.5,0.));
#511 = DIRECTION('',(0.,0.,1.));
#512 = DIRECTION('',(1.,0.,-0.));
#513 = ADVANCED_FACE('',(#514),#533,.F.);
#514 = FACE_BOUND('',#515,.T.);
#515 = EDGE_LOOP('',(#516,#517,#525,#532));
#516 = ORIENTED_EDGE('',*,*,#73,.T.);
#517 = ORIENTED_EDGE('',*,*,#518,.T.);
#518 = EDGE_CURVE('',#74,#519,#521,.T.);
#519 = VERTEX_POINT('',#520);
#520 = CARTESIAN_POINT('',(12.5,1.5,2.));
#521 = LINE('',#522,#523);
#522 = CARTESIAN_POINT('',(12.5,1.5,0.));
#523 = VECTOR('',#524,1.);
#524 = DIRECTION('',(0.,0.,1.));
#525 = ORIENTED_EDGE('',*,*,#526,.F.);
#526 = EDGE_CURVE('',#469,#519,#527,.T.);
#527 = CIRCLE('',#528,2.);
#528 = AXIS2_PLACEMENT_3D('',#529,#530,#531);
#529 = CARTESIAN_POINT('',(10.5,1.5,2.));
#530 = DIRECTION('',(-0.,-0.,-1.));
#531 = DIRECTION('',(0.,-1.,0.));
#532 = ORIENTED_EDGE('',*,*,#476,.F.);
#533 = CYLINDRICAL_SURFACE('',#534,2.);
#534 = AXIS2_PLACEMENT_3D('',#535,#536,#537);
#535 = CARTESIAN_POINT('',(10.5,1.5,0.));
#536 = DIRECTION('',(0.,0.,1.));
#537 = DIRECTION('',(-0.,1.,0.));
#538 = ADVANCED_FACE('',(#539),#550,.F.);
#539 = FACE_BOUND('',#540,.F.);
#540 = EDGE_LOOP('',(#541,#547,#548,#549));
#541 = ORIENTED_EDGE('',*,*,#542,.T.);
#542 = EDGE_CURVE('',#519,#495,#543,.T.);
#543 = LINE('',#544,#545);
#544 = CARTESIAN_POINT('',(12.5,3.5,2.));
#545 = VECTOR('',#546,1.);
#546 = DIRECTION('',(0.,-1.,0.));
#547 = ORIENTED_EDGE('',*,*,#503,.F.);
#548 = ORIENTED_EDGE('',*,*,#82,.F.);
#549 = ORIENTED_EDGE('',*,*,#518,.T.);
#550 = PLANE('',#551);
#551 = AXIS2_PLACEMENT_3D('',#552,#553,#554);
#552 = CARTESIAN_POINT('',(12.5,3.5,0.));
#553 = DIRECTION('',(1.,0.,0.));
#554 = DIRECTION('',(0.,-1.,0.));
#555 = ADVANCED_FACE('',(#556),#581,.T.);
#556 = FACE_BOUND('',#557,.T.);
#557 = EDGE_LOOP('',(#558,#559,#567,#575));
#558 = ORIENTED_EDGE('',*,*,#141,.F.);
#559 = ORIENTED_EDGE('',*,*,#560,.T.);
#560 = EDGE_CURVE('',#142,#561,#563,.T.);
#561 = VERTEX_POINT('',#562);
#562 = CARTESIAN_POINT('',(-17.25,-16.75,2.));
#563 = LINE('',#564,#565);
#564 = CARTESIAN_POINT('',(-17.25,-16.75,0.));
#565 = VECTOR('',#566,1.);
#566 = DIRECTION('',(0.,0.,1.));
#567 = ORIENTED_EDGE('',*,*,#568,.T.);
#568 = EDGE_CURVE('',#561,#569,#571,.T.);
#569 = VERTEX_POINT('',#570);
#570 = CARTESIAN_POINT('',(-17.25,16.75,2.));
#571 = LINE('',#572,#573);
#572 = CARTESIAN_POINT('',(-17.25,-19.75,2.));
#573 = VECTOR('',#574,1.);
#574 = DIRECTION('',(0.,1.,0.));
#575 = ORIENTED_EDGE('',*,*,#576,.F.);
#576 = EDGE_CURVE('',#144,#569,#577,.T.);
#577 = LINE('',#578,#579);
#578 = CARTESIAN_POINT('',(-17.25,16.75,0.));
#579 = VECTOR('',#580,1.);
#580 = DIRECTION('',(0.,0.,1.));
#581 = PLANE('',#582);
#582 = AXIS2_PLACEMENT_3D('',#583,#584,#585);
#583 = CARTESIAN_POINT('',(-17.25,-19.75,0.));
#584 = DIRECTION('',(-1.,0.,0.));
#585 = DIRECTION('',(0.,1.,0.));
#586 = ADVANCED_FACE('',(#587),#606,.T.);
#587 = FACE_BOUND('',#588,.T.);
#588 = EDGE_LOOP('',(#589,#590,#598,#605));
#589 = ORIENTED_EDGE('',*,*,#151,.T.);
#590 = ORIENTED_EDGE('',*,*,#591,.T.);
#591 = EDGE_CURVE('',#152,#592,#594,.T.);
#592 = VERTEX_POINT('',#593);
#593 = CARTESIAN_POINT('',(-14.25,-19.75,2.));
#594 = LINE('',#595,#596);
#595 = CARTESIAN_POINT('',(-14.25,-19.75,0.));
#596 = VECTOR('',#597,1.);
#597 = DIRECTION('',(0.,0.,1.));
#598 = ORIENTED_EDGE('',*,*,#599,.F.);
#599 = EDGE_CURVE('',#561,#592,#600,.T.);
#600 = CIRCLE('',#601,3.);
#601 = AXIS2_PLACEMENT_3D('',#602,#603,#604);
#602 = CARTESIAN_POINT('',(-14.25,-16.75,2.));
#603 = DIRECTION('',(-0.,0.,1.));
#604 = DIRECTION('',(0.,-1.,0.));
#605 = ORIENTED_EDGE('',*,*,#560,.F.);
#606 = CYLINDRICAL_SURFACE('',#607,3.);
#607 = AXIS2_PLACEMENT_3D('',#608,#609,#610);
#608 = CARTESIAN_POINT('',(-14.25,-16.75,0.));
#609 = DIRECTION('',(0.,0.,1.));
#610 = DIRECTION('',(-1.,0.,0.));
#611 = ADVANCED_FACE('',(#612),#630,.T.);
#612 = FACE_BOUND('',#613,.T.);
#613 = EDGE_LOOP('',(#614,#615,#623,#629));
#614 = ORIENTED_EDGE('',*,*,#160,.F.);
#615 = ORIENTED_EDGE('',*,*,#616,.T.);
#616 = EDGE_CURVE('',#161,#617,#619,.T.);
#617 = VERTEX_POINT('',#618);
#618 = CARTESIAN_POINT('',(14.25,-19.75,2.));
#619 = LINE('',#620,#621);
#620 = CARTESIAN_POINT('',(14.25,-19.75,0.));
#621 = VECTOR('',#622,1.);
#622 = DIRECTION('',(0.,0.,1.));
#623 = ORIENTED_EDGE('',*,*,#624,.T.);
#624 = EDGE_CURVE('',#617,#592,#625,.T.);
#625 = LINE('',#626,#627);
#626 = CARTESIAN_POINT('',(17.25,-19.75,2.));
#627 = VECTOR('',#628,1.);
#628 = DIRECTION('',(-1.,0.,0.));
#629 = ORIENTED_EDGE('',*,*,#591,.F.);
#630 = PLANE('',#631);
#631 = AXIS2_PLACEMENT_3D('',#632,#633,#634);
#632 = CARTESIAN_POINT('',(17.25,-19.75,0.));
#633 = DIRECTION('',(0.,-1.,0.));
#634 = DIRECTION('',(-1.,0.,0.));
#635 = ADVANCED_FACE('',(#636),#655,.T.);
#636 = FACE_BOUND('',#637,.F.);
#637 = EDGE_LOOP('',(#638,#639,#640,#649));
#638 = ORIENTED_EDGE('',*,*,#168,.T.);
#639 = ORIENTED_EDGE('',*,*,#616,.T.);
#640 = ORIENTED_EDGE('',*,*,#641,.F.);
#641 = EDGE_CURVE('',#642,#617,#644,.T.);
#642 = VERTEX_POINT('',#643);
#643 = CARTESIAN_POINT('',(17.25,-16.75,2.));
#644 = CIRCLE('',#645,3.);
#645 = AXIS2_PLACEMENT_3D('',#646,#647,#648);
#646 = CARTESIAN_POINT('',(14.25,-16.75,2.));
#647 = DIRECTION('',(-0.,-0.,-1.));
#648 = DIRECTION('',(0.,-1.,0.));
#649 = ORIENTED_EDGE('',*,*,#650,.F.);
#650 = EDGE_CURVE('',#169,#642,#651,.T.);
#651 = LINE('',#652,#653);
#652 = CARTESIAN_POINT('',(17.25,-16.75,0.));
#653 = VECTOR('',#654,1.);
#654 = DIRECTION('',(0.,0.,1.));
#655 = CYLINDRICAL_SURFACE('',#656,3.);
#656 = AXIS2_PLACEMENT_3D('',#657,#658,#659);
#657 = CARTESIAN_POINT('',(14.25,-16.75,0.));
#658 = DIRECTION('',(0.,0.,1.));
#659 = DIRECTION('',(1.,0.,0.));
#660 = ADVANCED_FACE('',(#661),#679,.T.);
#661 = FACE_BOUND('',#662,.T.);
#662 = EDGE_LOOP('',(#663,#664,#672,#678));
#663 = ORIENTED_EDGE('',*,*,#177,.F.);
#664 = ORIENTED_EDGE('',*,*,#665,.T.);
#665 = EDGE_CURVE('',#178,#666,#668,.T.);
#666 = VERTEX_POINT('',#667);
#667 = CARTESIAN_POINT('',(17.25,16.75,2.));
#668 = LINE('',#669,#670);
#669 = CARTESIAN_POINT('',(17.25,16.75,0.));
#670 = VECTOR('',#671,1.);
#671 = DIRECTION('',(0.,0.,1.));
#672 = ORIENTED_EDGE('',*,*,#673,.T.);
#673 = EDGE_CURVE('',#666,#642,#674,.T.);
#674 = LINE('',#675,#676);
#675 = CARTESIAN_POINT('',(17.25,19.75,2.));
#676 = VECTOR('',#677,1.);
#677 = DIRECTION('',(0.,-1.,0.));
#678 = ORIENTED_EDGE('',*,*,#650,.F.);
#679 = PLANE('',#680);
#680 = AXIS2_PLACEMENT_3D('',#681,#682,#683);
#681 = CARTESIAN_POINT('',(17.25,19.75,0.));
#682 = DIRECTION('',(1.,0.,0.));
#683 = DIRECTION('',(0.,-1.,0.));
#684 = ADVANCED_FACE('',(#685),#704,.T.);
#685 = FACE_BOUND('',#686,.F.);
#686 = EDGE_LOOP('',(#687,#688,#689,#698));
#687 = ORIENTED_EDGE('',*,*,#185,.T.);
#688 = ORIENTED_EDGE('',*,*,#665,.T.);
#689 = ORIENTED_EDGE('',*,*,#690,.F.);
#690 = EDGE_CURVE('',#691,#666,#693,.T.);
#691 = VERTEX_POINT('',#692);
#692 = CARTESIAN_POINT('',(14.25,19.75,2.));
#693 = CIRCLE('',#694,3.);
#694 = AXIS2_PLACEMENT_3D('',#695,#696,#697);
#695 = CARTESIAN_POINT('',(14.25,16.75,2.));
#696 = DIRECTION('',(-0.,-0.,-1.));
#697 = DIRECTION('',(0.,-1.,0.));
#698 = ORIENTED_EDGE('',*,*,#699,.F.);
#699 = EDGE_CURVE('',#186,#691,#700,.T.);
#700 = LINE('',#701,#702);
#701 = CARTESIAN_POINT('',(14.25,19.75,0.));
#702 = VECTOR('',#703,1.);
#703 = DIRECTION('',(0.,0.,1.));
#704 = CYLINDRICAL_SURFACE('',#705,3.);
#705 = AXIS2_PLACEMENT_3D('',#706,#707,#708);
#706 = CARTESIAN_POINT('',(14.25,16.75,0.));
#707 = DIRECTION('',(0.,0.,1.));
#708 = DIRECTION('',(0.,1.,0.));
#709 = ADVANCED_FACE('',(#710),#728,.T.);
#710 = FACE_BOUND('',#711,.T.);
#711 = EDGE_LOOP('',(#712,#713,#721,#727));
#712 = ORIENTED_EDGE('',*,*,#194,.F.);
#713 = ORIENTED_EDGE('',*,*,#714,.T.);
#714 = EDGE_CURVE('',#195,#715,#717,.T.);
#715 = VERTEX_POINT('',#716);
#716 = CARTESIAN_POINT('',(-14.25,19.75,2.));
#717 = LINE('',#718,#719);
#718 = CARTESIAN_POINT('',(-14.25,19.75,0.));
#719 = VECTOR('',#720,1.);
#720 = DIRECTION('',(0.,0.,1.));
#721 = ORIENTED_EDGE('',*,*,#722,.T.);
#722 = EDGE_CURVE('',#715,#691,#723,.T.);
#723 = LINE('',#724,#725);
#724 = CARTESIAN_POINT('',(-17.25,19.75,2.));
#725 = VECTOR('',#726,1.);
#726 = DIRECTION('',(1.,0.,0.));
#727 = ORIENTED_EDGE('',*,*,#699,.F.);
#728 = PLANE('',#729);
#729 = AXIS2_PLACEMENT_3D('',#730,#731,#732);
#730 = CARTESIAN_POINT('',(-17.25,19.75,0.));
#731 = DIRECTION('',(0.,1.,0.));
#732 = DIRECTION('',(1.,0.,0.));
#733 = ADVANCED_FACE('',(#734),#746,.T.);
#734 = FACE_BOUND('',#735,.F.);
#735 = EDGE_LOOP('',(#736,#737,#738,#745));
#736 = ORIENTED_EDGE('',*,*,#202,.T.);
#737 = ORIENTED_EDGE('',*,*,#714,.T.);
#738 = ORIENTED_EDGE('',*,*,#739,.F.);
#739 = EDGE_CURVE('',#569,#715,#740,.T.);
#740 = CIRCLE('',#741,3.);
#741 = AXIS2_PLACEMENT_3D('',#742,#743,#744);
#742 = CARTESIAN_POINT('',(-14.25,16.75,2.));
#743 = DIRECTION('',(-0.,-0.,-1.));
#744 = DIRECTION('',(0.,-1.,0.));
#745 = ORIENTED_EDGE('',*,*,#576,.F.);
#746 = CYLINDRICAL_SURFACE('',#747,3.);
#747 = AXIS2_PLACEMENT_3D('',#748,#749,#750);
#748 = CARTESIAN_POINT('',(-14.25,16.75,0.));
#749 = DIRECTION('',(0.,0.,1.));
#750 = DIRECTION('',(-1.,0.,0.));
#751 = ADVANCED_FACE('',(#752,#768),#778,.T.);
#752 = FACE_BOUND('',#753,.T.);
#753 = EDGE_LOOP('',(#754,#755,#756,#757,#758,#759,#760,#761,#762,#763,
    #764,#765,#766,#767));
#754 = ORIENTED_EDGE('',*,*,#217,.T.);
#755 = ORIENTED_EDGE('',*,*,#282,.T.);
#756 = ORIENTED_EDGE('',*,*,#322,.T.);
#757 = ORIENTED_EDGE('',*,*,#380,.T.);
#758 = ORIENTED_EDGE('',*,*,#420,.T.);
#759 = ORIENTED_EDGE('',*,*,#468,.T.);
#760 = ORIENTED_EDGE('',*,*,#526,.T.);
#761 = ORIENTED_EDGE('',*,*,#542,.T.);
#762 = ORIENTED_EDGE('',*,*,#494,.T.);
#763 = ORIENTED_EDGE('',*,*,#444,.T.);
#764 = ORIENTED_EDGE('',*,*,#396,.T.);
#765 = ORIENTED_EDGE('',*,*,#348,.T.);
#766 = ORIENTED_EDGE('',*,*,#298,.T.);
#767 = ORIENTED_EDGE('',*,*,#257,.F.);
#768 = FACE_BOUND('',#769,.T.);
#769 = EDGE_LOOP('',(#770,#771,#772,#773,#774,#775,#776,#777));
#770 = ORIENTED_EDGE('',*,*,#568,.F.);
#771 = ORIENTED_EDGE('',*,*,#599,.T.);
#772 = ORIENTED_EDGE('',*,*,#624,.F.);
#773 = ORIENTED_EDGE('',*,*,#641,.F.);
#774 = ORIENTED_EDGE('',*,*,#673,.F.);
#775 = ORIENTED_EDGE('',*,*,#690,.F.);
#776 = ORIENTED_EDGE('',*,*,#722,.F.);
#777 = ORIENTED_EDGE('',*,*,#739,.F.);
#778 = PLANE('',#779);
#779 = AXIS2_PLACEMENT_3D('',#780,#781,#782);
#780 = CARTESIAN_POINT('',(0.619266055046,0.,2.));
#781 = DIRECTION('',(0.,0.,1.));
#782 = DIRECTION('',(1.,0.,0.));
#783 = ( GEOMETRIC_REPRESENTATION_CONTEXT(3) 
GLOBAL_UNCERTAINTY_ASSIGNED_CONTEXT((#787)) GLOBAL_UNIT_ASSIGNED_CONTEXT
((#784,#785,#786)) REPRESENTATION_CONTEXT('Context #1',
  '3D Context with UNIT and UNCERTAINTY') );
#784 = ( LENGTH_UNIT() NAMED_UNIT(*) SI_UNIT(.MILLI.,.METRE.) );
#785 = ( NAMED_UNIT(*) PLANE_ANGLE_UNIT() SI_UNIT($,.RADIAN.) );
#786 = ( NAMED_UNIT(*) SI_UNIT($,.STERADIAN.) SOLID_ANGLE_UNIT() );
#787 = UNCERTAINTY_MEASURE_WITH_UNIT(LENGTH_MEASURE(1.E-07),#784,
  'distance_accuracy_value','confusion accuracy');
#788 = PRODUCT_RELATED_PRODUCT_CATEGORY('part',$,(#7));
#789 = MECHANICAL_DESIGN_GEOMETRIC_PRESENTATION_REPRESENTATION('',(#790,
    #801,#809,#816,#823,#830,#837,#844,#851),#783);
#790 = STYLED_ITEM('color',(#791),#15);
#791 = PRESENTATION_STYLE_ASSIGNMENT((#792,#798));
#792 = SURFACE_STYLE_USAGE(.BOTH.,#793);
#793 = SURFACE_SIDE_STYLE('',(#794));
#794 = SURFACE_STYLE_FILL_AREA(#795);
#795 = FILL_AREA_STYLE('',(#796));
#796 = FILL_AREA_STYLE_COLOUR('',#797);
#797 = COLOUR_RGB('',0.800000010877,0.800000010877,0.800000010877);
#798 = CURVE_STYLE('',#799,POSITIVE_LENGTH_MEASURE(0.1),#800);
#799 = DRAUGHTING_PRE_DEFINED_CURVE_FONT('continuous');
#800 = DRAUGHTING_PRE_DEFINED_COLOUR('white');
#801 = OVER_RIDING_STYLED_ITEM('overriding color',(#802),#555,#790);
#802 = PRESENTATION_STYLE_ASSIGNMENT((#803));
#803 = SURFACE_STYLE_USAGE(.BOTH.,#804);
#804 = SURFACE_SIDE_STYLE('',(#805));
#805 = SURFACE_STYLE_FILL_AREA(#806);
#806 = FILL_AREA_STYLE('',(#807));
#807 = FILL_AREA_STYLE_COLOUR('',#808);
#808 = DRAUGHTING_PRE_DEFINED_COLOUR('red');
#809 = OVER_RIDING_STYLED_ITEM('overriding color',(#810),#586,#790);
#810 = PRESENTATION_STYLE_ASSIGNMENT((#811));
#811 = SURFACE_STYLE_USAGE(.BOTH.,#812);
#812 = SURFACE_SIDE_STYLE('',(#813));
#813 = SURFACE_STYLE_FILL_AREA(#814);
#814 = FILL_AREA_STYLE('',(#815));
#815 = FILL_AREA_STYLE_COLOUR('',#808);
#816 = OVER_RIDING_STYLED_ITEM('overriding color',(#817),#611,#790);
#817 = PRESENTATION_STYLE_ASSIGNMENT((#818));
#818 = SURFACE_STYLE_USAGE(.BOTH.,#819);
#819 = SURFACE_SIDE_STYLE('',(#820));
#820 = SURFACE_STYLE_FILL_AREA(#821);
#821 = FILL_AREA_STYLE('',(#822));
#822 = FILL_AREA_STYLE_COLOUR('',#808);
#823 = OVER_RIDING_STYLED_ITEM('overriding color',(#824),#635,#790);
#824 = PRESENTATION_STYLE_ASSIGNMENT((#825));
#825 = SURFACE_STYLE_USAGE(.BOTH.,#826);
#826 = SURFACE_SIDE_STYLE('',(#827));
#827 = SURFACE_STYLE_FILL_AREA(#828);
#828 = FILL_AREA_STYLE('',(#829));
#829 = FILL_AREA_STYLE_COLOUR('',#808);
#830 = OVER_RIDING_STYLED_ITEM('overriding color',(#831),#660,#790);
#831 = PRESENTATION_STYLE_ASSIGNMENT((#832));
#832 = SURFACE_STYLE_USAGE(.BOTH.,#833);
#833 = SURFACE_SIDE_STYLE('',(#834));
#834 = SURFACE_STYLE_FILL_AREA(#835);
#835 = FILL_AREA_STYLE('',(#836));
#836 = FILL_AREA_STYLE_COLOUR('',#808);
#837 = OVER_RIDING_STYLED_ITEM('overriding color',(#838),#684,#790);
#838 = PRESENTATION_STYLE_ASSIGNMENT((#839));
#839 = SURFACE_STYLE_USAGE(.BOTH.,#840);
#840 = SURFACE_SIDE_STYLE('',(#841));
#841 = SURFACE_STYLE_FILL_AREA(#842);
#842 = FILL_AREA_STYLE('',(#843));
#843 = FILL_AREA_STYLE_COLOUR('',#808);
#844 = OVER_RIDING_STYLED_ITEM('overriding color',(#845),#709,#790);
#845 = PRESENTATION_STYLE_ASSIGNMENT((#846));
#846 = SURFACE_STYLE_USAGE(.BOTH.,#847);
#847 = SURFACE_SIDE_STYLE('',(#848));
#848 = SURFACE_STYLE_FILL_AREA(#849);
#849 = FILL_AREA_STYLE('',(#850));
#850 = FILL_AREA_STYLE_COLOUR('',#808);
#851 = OVER_RIDING_STYLED_ITEM('overriding color',(#852),#733,#790);
#852 = PRESENTATION_STYLE_ASSIGNMENT((#853));
#853 = SURFACE_STYLE_USAGE(.BOTH.,#854);
#854 = SURFACE_SIDE_STYLE('',(#855));
#855 = SURFACE_STYLE_FILL_AREA(#856);
#856 = FILL_AREA_STYLE('',(#857));
#857 = FILL_AREA_STYLE_COLOUR('',#808);
ENDSEC;
END-ISO-10303-21;
